<?xml version="1.0" standalone="no"?>
<!DOCTYPE svg PUBLIC "-//W3C//DTD SVG 20010904//EN"
 "http://www.w3.org/TR/2001/REC-SVG-20010904/DTD/svg10.dtd">
<svg version="1.0" xmlns="http://www.w3.org/2000/svg"
  viewBox="0 0 873.000000 325.000000"
 preserveAspectRatio="xMidYMid meet">

<g transform="translate(0.000000,325.000000) scale(0.100000,-0.100000)"
fill="#000000" stroke="none">
<path d="M115 3118 c-3 -7 -4 -677 -3 -1488 l3 -1475 368 -3 367 -2 0 545 0
545 78 0 77 -1 195 -366 c107 -202 230 -432 273 -512 43 -81 85 -161 94 -179
l17 -32 413 0 c325 0 413 3 413 13 0 7 -108 215 -241 462 -132 248 -259 485
-282 529 -23 43 -47 81 -54 83 -22 8 -123 -37 -123 -55 0 -9 102 -207 226
-440 124 -233 223 -426 220 -429 -7 -8 -481 -3 -484 5 -2 4 -132 248 -291 542
l-287 535 -197 0 c-125 0 -197 -4 -197 -10 0 -5 0 -244 0 -530 0 -286 -4 -525
-8 -532 -5 -8 -64 -12 -207 -13 -110 -1 -204 -1 -210 -1 -7 1 -9 469 -7 1388
1 764 0 1398 -3 1411 -5 20 -11 22 -76 22 -46 0 -71 -4 -74 -12z"/>
<path d="M405 3118 c-3 -7 -4 -618 -3 -1358 l3 -1345 73 -3 72 -3 0 1274 c0
1133 2 1276 15 1287 23 19 735 7 861 -14 311 -53 522 -194 624 -419 51 -113
64 -187 64 -352 0 -126 -3 -163 -22 -230 -35 -121 -96 -228 -177 -311 -134
-136 -306 -211 -562 -245 -55 -7 -93 -16 -93 -23 1 -6 117 -225 258 -486 l258
-475 78 -3 c44 -2 82 1 86 5 4 4 -47 107 -112 228 -299 553 -330 614 -323 625
3 5 16 10 29 10 34 0 218 64 298 105 153 76 264 187 339 340 58 119 75 180 94
338 30 246 -26 498 -150 671 -140 197 -341 309 -665 372 -117 23 -1037 34
-1045 12z"/>
<path d="M4313 3050 c-39 -10 -88 -28 -110 -38 -83 -43 -151 -146 -173 -262
-16 -85 -13 -741 4 -821 28 -130 83 -202 191 -253 82 -39 152 -51 285 -51 292
0 445 101 479 316 14 83 14 725 0 809 -35 221 -186 321 -483 319 -85 0 -142
-6 -193 -19z m361 -121 c82 -27 128 -65 163 -137 l28 -57 3 -359 c4 -428 2
-436 -88 -528 -43 -43 -70 -60 -111 -73 -125 -38 -277 -29 -372 22 -55 30 -91
75 -121 147 -19 48 -20 70 -21 406 0 404 3 422 78 506 33 36 57 51 112 70 95
32 236 33 329 3z"/>
<path d="M4430 2921 c-103 -12 -180 -63 -226 -151 -18 -32 -19 -64 -19 -415
l0 -380 31 -55 c59 -104 158 -146 325 -138 156 7 253 75 292 203 8 28 12 138
12 370 0 290 -2 337 -18 388 -43 141 -182 203 -397 178z m209 -170 c65 -46 74
-87 79 -346 6 -333 -11 -420 -91 -473 -35 -23 -50 -27 -116 -26 -108 1 -158
31 -187 111 -21 59 -20 610 1 660 35 83 76 104 195 101 71 -3 90 -7 119 -27z"/>
<path d="M6863 3055 c-136 -30 -252 -118 -304 -230 -26 -55 -30 -75 -30 -149
-1 -76 3 -94 30 -152 55 -117 168 -205 379 -293 117 -49 175 -88 197 -130 47
-93 -22 -191 -134 -191 -84 0 -162 54 -207 143 -13 26 -27 47 -30 47 -3 0 -52
-39 -110 -88 -98 -81 -104 -89 -99 -117 9 -50 77 -137 144 -182 154 -106 396
-121 553 -36 133 72 217 246 205 424 -12 188 -146 315 -479 454 -78 32 -145
85 -150 118 -10 61 31 102 114 113 79 11 126 -10 200 -88 44 -45 72 -67 80
-62 7 4 55 36 106 71 l92 64 -32 62 c-46 86 -123 161 -204 199 -58 27 -80 32
-163 34 -59 2 -120 -2 -158 -11z m231 -131 c58 -20 167 -116 150 -133 -7 -8
-19 0 -42 28 -18 22 -56 51 -89 68 -49 24 -70 28 -138 28 -66 -1 -91 -6 -140
-28 -33 -16 -71 -38 -84 -50 -61 -56 -79 -173 -40 -255 29 -59 87 -99 240
-167 163 -73 268 -140 313 -202 139 -191 -4 -463 -244 -463 -110 0 -247 61
-297 132 -38 55 -21 58 31 5 102 -106 279 -142 397 -82 118 61 173 233 113
353 -37 74 -103 122 -299 218 -249 121 -299 173 -300 309 0 82 26 139 87 188
79 63 237 87 342 51z"/>
<path d="M2832 2348 l3 -703 135 0 135 0 3 183 2 183 57 -3 56 -3 82 -180 83
-180 138 -3 c76 -1 142 2 147 7 6 6 -26 86 -83 212 -67 148 -89 204 -79 207
32 10 108 102 130 158 23 56 24 70 24 299 0 205 -3 247 -18 291 -37 107 -101
175 -199 212 -35 14 -94 17 -331 20 l-287 3 2 -703z m542 568 c62 -19 111 -57
139 -109 21 -40 22 -53 22 -272 0 -216 -1 -232 -21 -270 -12 -22 -30 -48 -41
-57 -25 -23 -103 -58 -130 -58 -13 0 -23 -2 -23 -4 0 -3 40 -88 89 -190 80
-167 95 -206 70 -190 -4 2 -48 88 -98 190 l-90 185 -153 -3 -153 -3 -3 -187
c-1 -114 -6 -188 -12 -188 -6 0 -10 210 -10 585 l0 585 183 0 c130 0 198 -4
231 -14z"/>
<path d="M2985 2899 c-3 -8 -4 -176 -3 -374 l3 -360 135 -3 c237 -5 327 25
373 126 19 43 21 65 22 242 0 215 -9 262 -63 313 -54 52 -92 60 -284 65 -144
3 -179 2 -183 -9z m337 -148 c54 -21 63 -50 63 -211 0 -214 -20 -240 -185
-240 l-90 0 0 236 0 237 93 -6 c50 -3 104 -10 119 -16z"/>
<path d="M5457 2355 c-103 -383 -185 -700 -182 -706 4 -5 65 -9 136 -9 125 0
130 1 139 23 8 19 34 110 70 245 l11 42 158 0 158 0 38 -137 c20 -76 41 -146
47 -155 8 -16 25 -18 138 -18 71 0 131 4 134 8 3 4 -79 321 -182 703 l-187
694 -146 3 -145 3 -187 -696z m522 -9 c94 -312 171 -570 171 -573 0 -2 -5 -3
-11 -1 -7 2 -33 73 -58 158 l-47 155 -245 3 -245 2 -44 -152 c-24 -84 -49
-160 -57 -168 -11 -12 -13 -12 -13 1 0 31 332 1154 343 1161 7 4 17 2 24 -5 6
-7 88 -268 182 -581z"/>
<path d="M5775 2877 c-4 -15 -55 -189 -115 -389 l-107 -363 230 -3 c126 -1
232 -1 234 1 3 4 -226 769 -232 776 -2 2 -7 -8 -10 -22z m60 -504 l42 -148
-43 -3 c-24 -2 -64 -2 -87 0 l-44 3 40 153 c22 84 42 150 45 148 2 -3 23 -72
47 -153z"/>
<path d="M7680 2921 c0 -108 3 -130 16 -135 9 -3 80 -6 160 -6 l144 0 2 -567
3 -568 140 0 140 0 3 568 2 567 144 0 c80 0 151 3 160 6 13 5 16 27 16 135 l0
129 -465 0 -465 0 0 -129z m790 -1 c0 -6 -58 -10 -155 -10 l-155 0 -2 -570
c-2 -372 -6 -570 -13 -570 -7 0 -11 198 -13 570 l-2 570 -165 0 c-103 0 -165
4 -165 10 0 6 118 10 335 10 217 0 335 -4 335 -10z"/>
<path d="M694 2817 c-2 -7 -3 -107 -2 -222 l3 -210 320 -6 c260 -4 329 -9 370
-22 168 -56 182 -246 23 -328 -74 -38 -163 -51 -363 -52 l-190 -2 -5 130 -5
130 -75 0 -75 0 0 -205 0 -205 215 -3 c409 -5 570 32 683 158 56 63 77 121 77
219 -1 161 -91 267 -266 311 -67 17 -113 20 -304 20 -124 0 -231 4 -238 9 -9
5 -12 27 -10 72 l3 64 210 3 c347 6 486 -27 617 -147 97 -89 141 -202 141
-366 0 -192 -71 -316 -228 -398 -137 -71 -247 -87 -606 -87 -159 0 -289 -3
-289 -7 -1 -5 -2 -37 -2 -73 l-2 -65 330 1 c321 1 332 2 449 28 266 61 407
176 476 388 21 63 24 91 23 213 -1 214 -45 336 -169 460 -107 108 -255 174
-435 195 -133 15 -669 13 -676 -3z"/>
<path d="M3781 1040 c-68 -15 -127 -55 -158 -108 l-28 -47 -3 -283 c-3 -282
-3 -283 22 -337 47 -103 135 -141 313 -133 87 3 108 8 159 34 51 26 63 37 89
89 l30 59 0 270 c0 295 -4 321 -56 381 -46 52 -118 78 -229 81 -52 2 -115 -1
-139 -6z m252 -94 c24 -12 48 -35 65 -65 27 -46 27 -48 30 -262 3 -145 0 -230
-8 -260 -16 -59 -81 -123 -140 -139 -55 -15 -167 -7 -208 14 -37 19 -80 69
-90 104 -4 15 -7 133 -7 262 0 223 1 237 22 276 22 42 56 70 102 85 46 15 192
5 234 -15z"/>
<path d="M3836 949 c-54 -9 -88 -29 -120 -73 -20 -26 -21 -43 -24 -271 -3
-228 -2 -246 17 -283 30 -58 78 -84 166 -90 114 -7 181 24 216 102 16 36 19
68 19 251 0 224 -6 267 -46 314 -38 46 -133 67 -228 50z m143 -106 c44 -34 53
-79 49 -273 -3 -191 -12 -225 -63 -248 -37 -17 -116 -15 -143 4 -46 32 -52 60
-52 259 0 212 8 246 62 270 42 19 112 13 147 -12z"/>
<path d="M2830 591 l0 -452 88 3 87 3 3 118 3 117 32 0 c32 0 34 -2 87 -120
l54 -120 93 0 c51 0 93 3 93 7 0 3 -26 62 -57 131 l-56 124 31 29 c63 59 67
75 67 275 l0 181 -30 48 c-21 35 -45 56 -80 74 -47 25 -59 26 -232 29 l-183 4
0 -451z m370 347 c69 -36 80 -67 80 -225 0 -174 -20 -221 -102 -243 l-38 -11
56 -110 c30 -61 53 -116 51 -122 -2 -7 -32 43 -66 111 l-61 122 -95 0 -95 0 0
-120 c0 -73 -4 -120 -10 -120 -6 0 -10 130 -10 370 l0 370 123 0 c108 0 128
-3 167 -22z"/>
<path d="M2930 710 l0 -242 118 4 c196 6 216 28 217 238 0 117 -3 139 -20 167
-30 51 -74 67 -202 71 l-113 4 0 -242z m199 139 c17 -6 36 -19 41 -29 6 -10
10 -63 10 -116 0 -87 -2 -100 -22 -121 -18 -19 -32 -23 -85 -23 l-63 0 0 150
0 150 44 0 c23 0 57 -5 75 -11z"/>
<path d="M4440 692 c0 -383 4 -420 58 -479 16 -17 49 -42 73 -55 40 -21 57
-23 174 -23 121 0 133 2 180 26 61 33 78 50 107 114 23 49 23 56 23 405 l0
355 -87 3 -88 3 0 -311 c0 -329 -3 -353 -49 -394 -29 -26 -109 -33 -149 -12
-56 29 -57 34 -62 386 l-5 325 -87 3 -88 3 0 -349z m100 -22 c0 -305 4 -334
48 -384 63 -70 241 -75 315 -8 11 9 28 34 38 54 17 34 19 62 19 327 0 182 4
292 10 296 7 4 10 -94 10 -287 0 -262 -2 -297 -19 -333 -46 -102 -168 -149
-296 -114 -52 15 -119 82 -134 134 -14 52 -15 605 -1 605 6 0 10 -103 10 -290z"/>
<path d="M5305 1028 c-3 -7 -4 -209 -3 -448 l3 -435 240 0 240 0 0 80 0 80
-152 3 -153 3 0 364 0 365 -85 0 c-59 0 -87 -4 -90 -12z m95 -433 l0 -364 158
-4 157 -3 -167 -2 -168 -2 0 370 c0 240 4 370 10 370 6 0 10 -128 10 -365z"/>
<path d="M5980 590 l0 -450 240 0 240 0 0 85 0 85 -150 0 -150 0 0 100 0 99
118 3 117 3 0 80 0 80 -117 3 -118 3 0 94 0 95 150 0 150 0 0 85 0 85 -240 0
-240 0 0 -450z m255 360 l-160 -5 -3 -167 -2 -168 130 0 c80 0 130 -4 130 -10
0 -6 -50 -10 -130 -10 l-130 0 2 -177 3 -178 160 -5 160 -6 -167 -2 -168 -2 0
370 0 370 168 -2 167 -2 -160 -6z"/>
<path d="M6630 955 l0 -85 100 0 100 0 2 -362 3 -363 88 -3 87 -3 0 366 0 365
105 0 106 0 -3 83 -3 82 -292 3 -293 2 0 -85z m405 -4 l-100 -6 -3 -362 c-1
-231 -6 -363 -12 -363 -6 0 -10 131 -10 365 l0 364 -102 4 c-57 1 -6 3 112 3
140 0 180 -2 115 -5z"/>
<path d="M7347 1033 c-4 -3 -7 -42 -7 -85 l0 -78 105 0 105 0 0 -365 0 -365
90 0 90 0 0 365 0 365 100 0 100 0 0 85 0 85 -288 0 c-159 0 -292 -3 -295 -7z
m406 -80 l-103 -4 0 -364 c0 -234 -4 -365 -10 -365 -6 0 -11 132 -12 363 l-3
362 -105 6 c-70 3 -32 5 115 5 121 0 174 -2 118 -3z"/>
<path d="M8125 1028 c-3 -7 -4 -209 -3 -448 l3 -435 243 -3 242 -2 0 85 0 85
-155 0 -155 0 0 100 0 100 120 0 120 0 0 85 0 84 -117 3 -118 3 0 90 0 90 153
3 153 3 -3 82 -3 82 -238 3 c-185 2 -239 0 -242 -10z m255 -78 l-155 -5 -3
-167 -2 -168 124 0 c72 0 127 -4 131 -10 4 -6 -40 -10 -125 -10 l-130 0 2
-177 3 -178 155 -6 155 -5 -165 0 -165 1 -3 368 -2 367 167 -2 168 -2 -155 -6z"/>
</g>
</svg>
