<?xml version="1.0" encoding="UTF-8"?>
<svg id="Layer_1" data-name="Layer 1" xmlns="http://www.w3.org/2000/svg" width="397.56" height="396.75" viewBox="0 0 397.56 396.75">
  <path d="m397.06,198.36c-.29,109.26-88.27,197.66-198.31,197.89C90.05,396.48.54,308.67.5,198.46.46,89,88.85.51,198.77.5c109.33,0,197.91,87.81,198.29,197.86ZM198.82,7.2C91.89,7.48,6.88,93.34,6.96,198.84c.08,105.83,85.31,191.6,192.01,191.44,106.75-.16,191.7-85.79,191.57-191.6-.13-106.96-86.5-191.1-191.72-191.47Z" stroke="#000" stroke-miterlimit="10"/>
  <g>
    <path d="m218.17,94.78c5.33,4.37,8.82,9.24,7.91,16.38-.46,3.61-1.23,7.14-1.96,10.7-1.03,5.04,1.76,8.15,4.28,12.37,1.9,3.17,4.85,6.69,5.19,10.44.42,4.63.37,9.36.53,14,.16,4.39.61,8.88.45,13.27-.1,2.83-1.31,5.41-4.27,6.14-8.73,2.17-7.58-10.01-7.75-15.04-.13-3.84.65-9.27-.47-12.93-.96-3.13-6.6-5.9-9.15-7.88-1.54-1.2-3.06-2.44-4.63-3.61-2.16-1.6-2.31-1.64-4.69-.36-3.88,2.09-7.65,4.41-11.47,6.61-3.15,1.81-7.23,3.37-9.54,6.24-2.89,3.59-5.15,7.94-7.65,11.82-2.86,4.44-7.83,17.02-15.01,12.64-7.22-4.41,1.85-13.9,4.63-18.31,4.61-7.3,9.01-14.73,13.36-22.19,2.17-3.73,4.33-7.47,6.5-11.2,1.05-1.81,2.46-3.67,3.25-5.6.96-2.33,0-3.62-1.01-5.92-3.59-8.25-7.21-16.49-10.85-24.73-.68-1.54-1.22-2.99-2.44-4.18-1.4-1.35-3.32-2.01-4.49-3.63-.9-1.25-1.3-2.74-1.02-4.27.46-2.45,1.3-2.95.26-5.49-1.63-3.94-3.42-7.81-5.14-11.72-.74-1.69-1.79-3.43-2.29-5.2-.58-2.08.27-3.43,1.1-5.35,1.7-3.98,3.34-8,5.06-11.97.41-.95.87-2.86,2.14-2.96,1.07-.09,2.75,1.73,3.05,2.67,1,3.17-3.39,9.01-4.78,11.82-.99,2-2.22,3.93-1.87,6.24.34,2.27,1.79,4.6,2.67,6.69,1.49,3.51,2.51,9.65,6.44,10.56,4.43,1.02,8.35,4.67,12.03,7.24,1.45,1.02,5.23,2.82,5.95,4.54.61,1.46-.11,4,.14,5.61.61,3.91,3.03,7.14,6.26,9.34,5.9,4,14.93,3.33,19.26-2.78Zm-28.82,14.3c.98-3.43.44-8.5.2-12.06-.27-4.08-5.69-6.22-8.83-8.4-.07.07-.14.14-.22.2,2.9,6.64,5.8,13.29,8.84,20.26Z" stroke="#000" stroke-miterlimit="10"/>
    <path d="m206.61,96.57c-13.1-.47-13.87-20.11-.85-21.5,6.15-.66,11.97,4.02,12.16,10.34.18,6.03-5.16,11.66-11.31,11.16Z" stroke="#000" stroke-miterlimit="10"/>
    <path d="m242.55,178.27c-.65,4.44-4.85,7.26-9.15,6.99-2.85-.18-5.82-.98-8.63-1.52-2.73-.52-6.04-.75-8.62-1.77-3.07-5.49,10.09-1.64,11.4-1.4,2.81.52,6.64,2.04,9.3.37,1.16-.73,1.35-2.33,2.32-2.98.92-.61,2.39.09,3.37.3Z" stroke="#000" stroke-miterlimit="10"/>
    <path d="m196.03,176.55c2.17.35,4.85.09,4.63,2.94-.25,3.28-4.53,2.96-7,2.62-1.9-.27-4.35-1.83-2.91-4.16.95-1.53,3.72-1.25,5.29-1.39Z" stroke="#000" stroke-miterlimit="10"/>
    <path d="m160.02,178.51c-.62.9-1.75,3.36-2.74,3.74-1.07.42-2.51-.89-3.39-1.41.62-.91,1.75-3.37,2.75-3.76,1.09-.43,2.49.89,3.38,1.42Z" stroke="#000" stroke-miterlimit="10"/>
  </g>
  <g>
    <path d="m254.13,223.88h2.04v20.04c1.25,0,5.58.63,6.49-.31,1.37-1.41.56-5.2.57-6.99,0-2.96,0-5.91,0-8.87,0-1.63.72-4.88-.89-5.86-3.12-1.88-11.63,2.64-12.86-1.6-.48-1.63-.29-4.35,1.07-5.07,1.79-.95,7.34,0,9.33.02,4.5.01,8.95.32,9.92,5.62.94,5.17-.02,11.22.01,16.49.03,4.81,1.45,10.2-3.85,12.51-2.19.96-4.47.66-6.79.59-3.2-.1-6.4.03-9.6.03-.24-5.4-.08-10.83-.08-16.23,0-2.64-.59-6.16,0-8.73.38-1.65.06-1.82,2.16-1.58v24.41c2.63,0,5.26,0,7.88,0,2.3,0,5.07.53,6.86-1.28,1.69-1.7,1.25-4.26,1.25-6.44,0-2.89,0-5.79,0-8.68,0-3.63,1.56-10.87-1.55-13.51-1.79-1.52-4.18-1.03-6.39-1.03-2.54,0-5.45-.35-7.94.12v2.23c3.2,0,6.41-.08,9.61,0,3.27.08,3.97.74,4.05,3.95.09,3.3,0,6.62,0,9.92,0,3.16.72,7.31-.06,10.37-.7,2.75-3.41,2.13-5.73,2.13-2.52,0-5.22,1.04-5.65-1.76-.51-3.24.02-7,.02-10.29,0-3.27-.47-6.96.11-10.18Z" stroke="#000" stroke-miterlimit="10"/>
    <path d="m224.76,236.17v-20.88c2.39-.11,4.79-.07,7.18-.08,2.54,0,5.9-.53,8.31.32,4.71,1.66,4.36,6.07,4.27,10.12-.05,2.26.6,5.02-.78,6.97-1.12,1.58-3.38,2.18-3.3,4.43.06,1.9,1.9,4.7,2.57,6.41.91,2.33,1.86,4.64,2.7,7-1.76,0-5.59.7-7.04-.42-1.58-1.22-2.28-5.38-3-7.26-.66-1.71-1.3-5.59-3.04-6.53-1.62-.87-6.12-.08-7.87-.08Zm2.32-18.77c-.71,1.56-.19,4.32-.2,6.01,0,2.1-.01,4.21-.02,6.31,0,1.71-.58,3.65,1.02,4.38,1.52.69,3.94-.47,5.55-.03,4.97,1.35,3.02,15.25,9.02,14.07-.75-2.19-1.61-4.34-2.45-6.49-.52-1.33-2.39-4.42-2.2-5.81.19-1.4,2.09-2.36,2.99-3.34,1.41-1.53,1.57-2.75,1.59-4.82.03-3,1.08-7.92-2.14-9.76-3.14-1.8-9.57-.53-13.16-.53Z" stroke="#000" stroke-miterlimit="10"/>
    <path d="m199.11,242.67c1.17-5.82,2.34-11.63,3.5-17.45.39-1.93.77-3.85,1.15-5.78.2-1.02.14-2.92.81-3.68,1.15-1.29,5.99-.83,7.52-.51,2.8.58,2.57,4.2,3.08,6.71.64,3.17,1.29,6.34,1.92,9.51.64,3.17,1.27,6.35,1.91,9.52.6,3.01,1.76,6.42,1.76,9.47-2.17,0-5.4.81-6.8-.98-1.22-1.56-.1-4.77-1.42-6.27-1.12-1.27-4.32-.53-5.87-.53-2.52,0-5.04-.02-7.57-.02Zm19.09,5.51c-1.09-5.43-2.17-10.87-3.26-16.3-.54-2.69-1.07-5.38-1.6-8.08-.27-1.39-.39-5.66-1.78-6.35-.98-.49-4.43-.37-5.17.4-1.05,1.09-1.17,5.49-1.45,6.89-1.04,5.25-2.1,10.49-3.15,15.74,2.37,0,4.73.01,7.1.01,1.37,0,4.39-.66,5.41.43,2.13,2.28-.61,7.89,3.91,7.26Z" stroke="#000" stroke-miterlimit="10"/>
    <path d="m294.46,224.4h-6.4c-1.15-2.2-.14-2.54-3.24-2.58-1.48-.02-2.63-.29-3.33,1.03-.41.78-.31,4.48-.07,5.3.77,2.7,5.22,1.06,7.54,1.48,3,.54,6.13,3.24,5.37,6.47-3.19.19-6.4.06-9.59.07-2.9,0-5.54.4-7.85-1.68-1.86-1.67-2.19-3.61-2.15-5.99.05-2.86-.7-7.23.63-9.78,2.32-4.47,8.87-3.93,13.01-3.44,1.82.21,2.87.78,4.25,2,2.37,2.1,1.84,4.09,1.84,7.13Zm-2.55,9.7c-3.31-3.64-6.43-1.29-10.62-2.41-3.15-.84-2.12-5.35-2.08-7.94.06-3.9,1.46-4.01,5.12-4.01,2.77,0,5-.53,5.95,2.47,2.49.34,2.51-1.33,1.23-2.91-1.43-1.77-3.35-1.92-5.48-2-3.43-.12-8.16-.56-9.09,3.74-.47,2.18,0,5,0,7.23,0,1.92.02,3.45,1.6,4.78,2.91,2.46,9.75,1.05,13.37,1.05Z" stroke="#000" stroke-miterlimit="10"/>
    <path d="m118.19,223.95c1.68-.28,1.66-.22,2.04,1.21.6,2.27,0,5.55,0,7.91,0,2.75-.07,5.51,0,8.26.06,2.04-.09,2.32,1.86,2.59.97.14,3.87.43,4.67-.29,1.57-1.4-.58-2.28,2.39-2.51,1.85-.14,3.82-.53,4.65,1.01.53.99.12,4.01-.4,5-1.47,2.76-4.93,3.38-7.6,3.39-4.2.01-9.64.88-11.76-3.78-1.75-3.86-.42-9.81-.45-13.97-.02-2.28-.41-4.91-.05-7.17.28-1.76.13-1.94,2.2-1.67,0,3.67,0,7.34,0,11.01,0,3.16-1.06,8.59.62,11.36,1.86,3.06,6.38,2.18,9.38,2.13,3.18-.05,6.28-1.3,5.72-5.13-1,0-1.2-.21-2.05.3-.91.55-.65,1.92-2.25,2.43-1.87.6-7.75.88-8.92-1.06-.69-1.14-.18-3.8-.18-5.09,0-1.91,0-3.82,0-5.72,0-2.7-.96-7.8.13-10.23Z" stroke="#000" stroke-miterlimit="10"/>
    <path d="m137.56,236.16c0-5.99-.04-11.99,0-17.98.02-3.11.43-2.99,3.58-2.96,3.05.03,6.1.03,9.15,0,2.16-.02,3.5-.56,4.25,1.44.18.47.22,3.88-.05,4.29-.7,1.08-1,.82-2.49.86-1.57.04-6.09-.91-7.34.08-1.34,1.07-.48,6.16-.48,7.68,1.62,0,6.37-.76,7.81,0,1.22.64,2,4.3,1.07,5.69-1.12,1.66-4.11.88-6,.88-3.16,0-6.32,0-9.48,0Zm13.24-4.41c-1.66,0-7.66.92-8.71-.44-1.05-1.38-.15-7.42-.11-9.04.08-3.59,2.56-2.51,5.54-2.52,2.53,0,5.24.93,4.61-2.27h-12.25v16.51h10.92v-2.25Z" stroke="#000" stroke-miterlimit="10"/>
    <path d="m190.3,243.34c-.33,2.14-1.24,2.56-3.21,2.79-2.3.27-7.18.94-8.14-1.73-.96-2.67-.1-7.18-.1-10.03,0-3.42-.38-7.1.14-10.48h2.05c0,3.06,0,6.13,0,9.19,0,2.82-.8,6.84.02,9.48.58,1.88,2.05,1.38,3.96,1.37,2.7-.02,2.76-.1,3.06-2.79,3,0,6.24-1.24,6.52,2.27.16,1.96.19,3.13-1.11,4.5-3.31,3.47-8,2.83-12.42,2.6-5.61-.29-6.82-4.46-6.69-9.32.16-5.77.02-11.53.02-17.3h2.2c0,4.46,0,8.91,0,13.37,0,3.41-1.28,9.13,2.68,10.88,2.31,1.02,8.84.97,11.02-.4,1.98-1.24,3.61-4.89,0-4.4Z" stroke="#000" stroke-miterlimit="10"/>
    <path d="m108.65,250.41h-6.55c-.56-7.23-.1-14.68-.1-21.93,0-3.43-.07-6.87-.02-10.29.05-3.42.8-3,4.14-2.93,3.5.08,2.52,1.88,2.52,5.05,0,3.21.01,6.42.01,9.62,0,6.83,0,13.65,0,20.48Zm-4.39-32.95v30.7c2.14.39,2.18.36,2.18-1.63,0-9.14,0-18.29,0-27.43,0-.53,0-1.05,0-1.64h-2.18Z" stroke="#000" stroke-miterlimit="10"/>
    <path d="m287.86,238.24h2.18c0,3.58,1.07,7.43-3.45,7.88-3.08.3-6.9.75-7.54-2.98-2.57.51-2.71,2.33-.66,4.02,2.21,1.82,4.79,1.01,7.4,1.11,2.24.08,4.52.25,5.96-1.95,1.3-1.99.53-5.77.53-8.05.73-.04,1.34-.07,2.2-.12,0,4.8.98,11-5.24,12.3-4.31.89-11.78.84-14.09-3.78-.51-1.02-.97-4.3-.24-5.11.9-1,5.68-.86,6.48.03.43.48-.17,1.44.4,2.03.69.72,2.8.35,3.66.31,3.41-.15,2.42-2.74,2.42-5.68Z" stroke="#000" stroke-miterlimit="10"/>
    <path d="m141.98,238.25h2.18v5.69c1.94,0,3.88,0,5.82,0,.74,0,3.51-.47,4.14.07,1.29,1.11.55,4.76.55,6.38h-17v-11.97c4.44-1.44.82,7.43,2.13,9.39.95,1.43,10.83.93,12.56.36v-2.06c-1.66,0-3.32,0-4.98,0-.94,0-3.74.49-4.51-.02-1.79-1.17-.9-5.67-.9-7.83Z" stroke="#000" stroke-miterlimit="10"/>
    <path d="m120.07,221.82c-1.99,0-5.94.84-6.45-1.33-.44-1.89,2.47-4.32,3.94-4.96,2.16-.94,5.82-.32,8.18-.3,2.75.02,4.3.22,6.31,2.28,1.12,1.15,1.63,1.8,1.86,3.37.32,2.19.08,3.23-1.9,3.65-.76.16-3.83.4-4.42-.07-.67-.53-.1-1.28-.53-1.81-1.38-1.69-4.99-.83-6.99-.83Zm11.42.54c.38-3.82-2.63-4.93-5.78-4.95-1.91-.01-4.45-.39-6.31.02-1.47.32-2.21,1.37-3.3,2.32,3.38,0,7.36-.58,10.68-.02,2.68.45,1.98,2.89,4.71,2.63Z" stroke="#000" stroke-miterlimit="10"/>
    <path d="m194.49,224.45h-6.26c-.47-.6-.09-1.62-.62-2.19-.65-.72-2.08-.44-2.91-.44-3.39-.03-6.78,0-10.17,0-1.26-7.28,9.28-6.92,13.75-6.57,5.23.41,6.75,4.69,6.21,9.2Zm-4.18-2.12c4.23.52,1.26-3.89-.89-4.68-1.91-.71-4.61-.19-6.65-.22-2.53-.04-3.83.23-5.59,2.11,3.25,2.12,12.11-2.9,13.13,2.79Z" stroke="#000" stroke-miterlimit="10"/>
    <path d="m179.4,315.6c.9-3.85,1.26-8.7,3.44-12,1.14,1.89,1.46,3.95,1.95,6.1.39,1.7.43,4.51,1.66,5.83.52-2.15,1.33-12.7,4.16-11.78-.43,2.98-1.26,5.93-1.94,8.87-.58,2.48-.8,5.45-2.44,7.43-2.68-3.32-.98-8.96-3.59-12.15-.67,2.69-1.15,5.43-1.72,8.15-.26,1.24-.66,5.12-2.44,3.38-1.05-1.02-1.43-6.18-1.77-7.68-.6-2.62-1.45-5.31-1.71-7.98,2.53-.98,3.65,9.92,4.13,11.82.09,0,.18.01.27.02Z" stroke="#000" stroke-miterlimit="10"/>
    <path d="m165.06,342.04c1.21,2.22,2.38,4.39,3.57,6.57-2.65.9-3.37-2.89-4.4-4.57-1.07-1.75-1.47-1.97-3.65-1.62v6.3h-1.5c-.44-3.56-.11-7.3-.12-10.88,0-2.97-1.04-5.57,2.63-5.52,5.84.07,8.45,5.78,3.47,9.73Zm-4.4-1.44c2.37-.13,5.03.19,5.38-2.95.37-3.4-2.78-3.93-5.38-3.71v6.66Z" stroke="#000" stroke-miterlimit="10"/>
    <path d="m220.33,311.84c0,1.22.79,8.84-1.2,8.12-2.03-.74.64-5.95-1.04-7.21-.84-.63-3.72-.33-4.38.54-1.4,1.83.52,4.8-1.09,6.75-2.41-2.26-.99-10.04-1.01-13.32,0-.92-.47-4.13,1.63-2.97.81.45.1,4.69.18,5.32.24,1.86,1.89,2.82,4.07,1.84,1.61-.73,1.04-2.6,1.04-4.35,0-.92.09-4.45,1.74-2.48.86,1.03.05,6.43.05,7.76Z" stroke="#000" stroke-miterlimit="10"/>
    <path d="m133.22,340.56c0-3.56-.71-8.15,4.08-8.36,5.11-.23,4.55,4.64,4.55,8.39,0,3.82.55,8.78-4.71,8.39-4.68-.35-3.91-4.9-3.91-8.42,0,0,0,0-.01,0Zm1.66.07s-.01,0-.02,0c0,2.19-.78,5.97,2.01,6.7,3.76.98,3.31-3.72,3.33-5.96.02-2.41,1-7.66-2.76-7.55-3.46.1-2.56,4.46-2.56,6.82Z" stroke="#000" stroke-miterlimit="10"/>
    <path d="m220.79,340.72c0,3.76.49,8.76-4.77,8.3-4.78-.42-3.93-5.63-3.89-9.23.04-3.69-.22-7.77,4.59-7.59,4.83.18,4.04,4.99,4.04,8.52,0,0,.02,0,.03,0Zm-1.68-.04s0,0,0,0c0-2.43.9-7.09-2.86-6.84-3.25.22-2.44,4.39-2.44,6.74,0,2.35-.8,6.94,2.76,6.79,3.42-.14,2.55-4.34,2.55-6.7Z" stroke="#000" stroke-miterlimit="10"/>
    <path d="m219.49,283.34c0,3.57.78,8.31-4.1,8.42-5.08.11-4.48-4.76-4.47-8.5,0-3.71-.59-8.49,4.46-8.36,4.9.13,4.07,4.82,4.07,8.43.01,0,.03,0,.04,0Zm-6.87-.07s.01,0,.02,0c0,2.37-.88,6.97,2.71,6.86,3.35-.1,2.54-4.44,2.55-6.75,0-2.31.82-7.05-2.77-6.88-3.38.16-2.5,4.47-2.5,6.78Z" stroke="#000" stroke-miterlimit="10"/>
    <path d="m226.53,342.36v6.32h-1.58c0-3.54.02-7.07.01-10.61,0-2.25-.94-5.15,1.51-5.79,6.55-1.7,9.42,5.83,4.58,9.78,1.19,2.19,2.36,4.35,3.55,6.54-2.61.9-3.3-2.75-4.32-4.43-1.09-1.79-1.52-2.03-3.75-1.81Zm.08-1.76c2.35-.16,4.99.25,5.41-2.86.47-3.49-2.79-3.97-5.41-3.81v6.68Z" stroke="#000" stroke-miterlimit="10"/>
    <path d="m270.79,332.2c1.7-.02,3.07.71,3.79,2.26.33.72,1.08,3.63-.47,3.6-1.32-.03-.79-2.8-1.38-3.53-.87-1.08-2.81-1.08-3.83-.18-3.69,3.25,3.33,5.66,4.85,7.19,2.68,2.69,1.28,7.21-2.66,7.45-1.82.11-3.38-.66-4.18-2.32-.43-.9-.98-3.79.9-3.11.96.35.48,2.25,1.01,2.98.93,1.27,2.97,1.21,3.97.11,3.44-3.8-3.95-5.35-5.5-7.33-2.32-2.98-.12-7.05,3.5-7.11Z" stroke="#000" stroke-miterlimit="10"/>
    <path d="m257.17,347.11h6.45v1.57h-8.16c-.2-3.46-.06-6.94-.07-10.4,0-2.57-.99-5.14,1.51-6.02.91-.32,6.72-.47,6.69.95-.04,1.79-5.35.91-6.53.91,0,1.15-.53,4,.22,4.95,1.16,1.47,3.87-.2,5.26.54.74.39,1.62.8.35,1.56-1.09.65-4.41,0-5.7,0v5.95Z" stroke="#000" stroke-miterlimit="10"/>
    <path d="m154.7,339.26c0,2.63.89,6.99-1.43,8.89-1.79,1.47-5.24,1.13-6.55-.8-1.7-2.5-.73-7.65-.72-10.46,0-1.02-.52-3.98.52-4.45,1.74-.79,1.17,2.99,1.17,3.69,0,2.57-1,7.68.39,9.93,1.6,2.6,4.38.98,4.91-1.34.78-3.43-1.07-7.85.07-11.15.33-.96.75-1.91,1.59-.64.72,1.08.07,5.05.07,6.33h0Z" stroke="#000" stroke-miterlimit="10"/>
    <path d="m188,283.84c0,3.66-.93,5.92,3.29,5.95.71,0,2.81-.43,3.28.34,1.08,1.76-2.18,1.48-2.84,1.48-1.11,0-3.84.48-4.74-.19-1.11-.83-.64-2.87-.64-4.17-.02-4.03-.01-8.07-.01-12.1h8.1v1.63h-6.33v5.52h6.15c1.07,2.63-4.84,1.53-6.24,1.53Z" stroke="#000" stroke-miterlimit="10"/>
    <path d="m226.84,248.26h2.24v-9.8c2.75-.86,2.26,1.05,2.26,3.3,0,2.87.09,5.76-.08,8.63h-6.49v-12c1.86-.49,1.74-.1,2.08,1.47.55,2.5,0,5.83,0,8.41Z" stroke="#000" stroke-miterlimit="10"/>
    <path d="m197.97,348.59c-2.98.92-2.01-3.66-4.58-4.41-1.59-.46-2.75-.08-3.51,1.14-.75,1.2-.04,4.2-2.39,3.27.76-2.89,1.53-5.78,2.31-8.66.7-2.58,1.08-5.53,2.78-7.62,1.67,2.21,2.06,5.23,2.78,7.89.77,2.84,1.65,5.61,2.61,8.39Zm-3.53-6.15c-.59-2.41-1.14-4.64-1.69-6.87-.12,0-.24.02-.36.02-.58,2.24-1.16,4.49-1.77,6.84h3.82Z" stroke="#000" stroke-miterlimit="10"/>
    <path d="m179.87,348.73h-1.77c-.22-2.93-.09-5.9-.09-8.83,0-1.4-.73-5.9.15-7.09.55-.75,6.17-1,6.96-.52,2.84,1.76-1.34,1.75-2.74,1.78-2.86.07-2.6.86-2.54,3.58.06,2.7.86,2.33,3.47,2.32.59,0,3.99-.21,2.53,1.56-.67.81-5.11.18-5.95.18v7.02Z" stroke="#000" stroke-miterlimit="10"/>
    <path d="m171.76,291.4c-2.71,1.01-1.73-3.72-3.76-4.59-4.71-2.01-3.61,5.5-6.3,4.64.33-2.94,1.47-5.95,2.25-8.81.43-1.58.97-6.78,2.46-7.35,1.54-.59,4.81,14.11,5.35,16.11Zm-3.19-6.11c-.59-2.47-1.14-4.77-1.7-7.07l-.35.04c-.58,2.32-1.17,4.64-1.77,7.03h3.82Z" stroke="#000" stroke-miterlimit="10"/>
    <path d="m174.41,283.27c0-2.19-.7-5.63,1.1-7.38,1.24-1.2,4-1.43,5.4-.4.79.59,2.84,5.14.84,5.03-1.26-.07-.8-2.76-1.52-3.51-1.28-1.33-3.36-.64-4.05.84-.96,2.02-.2,6.65-.1,8.92.08,1.85.52,4.4,3.25,3.34,2.02-.79,1.1-2.98,2.42-4.29,2.51,2.68-.66,6.08-3.67,5.89-4.42-.27-3.6-5.19-3.8-8.45.05,0,.09,0,.14,0Z" stroke="#000" stroke-miterlimit="10"/>
    <path d="m223.27,275.1h7.99v1.69c-1.35,0-5.01-.71-5.95.3-.78.83-.24,4.49-.24,5.57,1,0,8.07-.41,5.64,1.65-1.1.93-3.73-.66-4.91.07-1.15.71-.69,2.13-.69,3.35,0,4.09-1.78,4.78-1.81.22-.03-4.28-.02-8.57-.02-12.85Z" stroke="#000" stroke-miterlimit="10"/>
    <path d="m164.5,233.73c-.95,0-3.74.49-4.52-.06-.87-.62-.43-2.3-.43-3.22,0-3.32.16-3.31,3.67-3.3,2.86,0,6.07-1.27,6.3,2.1.06.87.44,3.61-.21,4.29-.7.72-3.86.2-4.8.2Zm2.78-4.3h-5.88c1.22,3.01,2.68,2.21,5.88,2.21v-2.21Z" stroke="#000" stroke-miterlimit="10"/>
    <path d="m209.07,332.52c-.45,1.64-3.38,16.31-5.07,16.2-1.81-.12-4.98-14.4-4.98-16.25,2.41-.94,4.3,10.72,4.92,12.77.7-2.18,2.37-13.8,5.12-12.72Z" stroke="#000" stroke-miterlimit="10"/>
    <path d="m235.08,275.11h7.87c.68,2.58-2.04,1.51-3.8,1.68-3.35.31-2.31,2.98-2.31,5.88,1.6,0,6.91-1.11,6.03,1.71-1.84,0-5-.66-6.01.88-.74,1.13,1.17,5.79-.86,6.27-1.22.29-.93-14.93-.93-16.42Z" stroke="#000" stroke-miterlimit="10"/>
    <path d="m160.1,275.14c.84,2.77-3.09,1.3-4.56,1.66-2.55.64-1.63,3.56-1.63,5.86,2.09,0,6.45-1.29,6.07,1.68h-6.07c0,1.54.67,4.82,0,6.2-.72,1.5-1.22,1.11-1.72-.35-.65-1.89-.02-5.13-.03-7.13,0-2.64,0-5.28,0-7.92h7.93Z" stroke="#000" stroke-miterlimit="10"/>
    <path d="m126.91,348.7h-1.75c-.22-2.99-.07-6-.89-8.91-.71-2.52-2.05-4.81-3.09-7.21,2.65-1.22,3.88,4.86,4.61,6.63.96-2.31,1.61-7.34,4.73-6.66-2.48,5.1-5.01,10.18-3.62,16.16Z" stroke="#000" stroke-miterlimit="10"/>
    <path d="m248.6,348.72h-1.7c-.25-4.19.39-8.53-.09-12.69-.13-1.11.1-1.42-.86-1.94-1.06-.57-3.15.62-2.33-1.71h8.24v1.59c-3.44.16-3.26.35-3.27,3.98,0,3.59,0,7.17,0,10.76Z" stroke="#000" stroke-miterlimit="10"/>
    <path d="m203.42,312.68c0-1.3.73-5.84-.08-6.9-.63-.83-3.27.05-3.31-1.35-.05-1.7,11.61-1.28,7.23.84-2.03.99-2.17.14-2.16,3.08.01,2.98,0,5.95,0,8.93,0,.77-.15,4.46-1.67,2.11-.72-1.12-.01-5.45-.01-6.71Z" stroke="#000" stroke-miterlimit="10"/>
    <path d="m239.79,348.7h-1.72c0-1.93-.79-16.51.93-16.41,1.79.1.92,14.58.79,16.41Z" stroke="#000" stroke-miterlimit="10"/>
    <path d="m197.55,250.46c.65-3.26.23-4.98,3.37-6.08-.27,1.56-.45,2.65-.64,3.73,3.84.96,1.25-3.85,5.16-3.3-.31,1.53-.34,4.63-1.58,5.55-.99.74-5.11.09-6.3.09Z" stroke="#000" stroke-miterlimit="10"/>
    <path d="m196.15,311.86c0,1.27.88,8.22-.89,8.19-1.78-.03-.89-6.96-.89-8.24,0-1.04-.71-8.51.86-8.24,1.92.32.92,6.7.92,8.29Z" stroke="#000" stroke-miterlimit="10"/>
    <path d="m198.86,285.43h7.85v1.66c-1.75,0-8.81,1.28-7.85-1.66Z" stroke="#000" stroke-miterlimit="10"/>
    <path d="m229.13,225.69c0-1.19-.56-4.14.03-5.21.76-1.37,2.61-.85,4.12-.85,1.62,0,4.92-.64,6.2.69,1.12,1.16.63,3.79.63,5.19,0,1.67.45,4.03-.84,5.35-1.33,1.36-3.76.88-5.44.88-1.18,0-3.88.54-4.63-.5-.7-.97-.06-4.35-.06-5.55Zm2.33-3.86v7.75c3.61,0,6.45.9,6.49-3.47.01-1.47.38-3.43-1.16-4.22-1.2-.61-3.99-.06-5.33-.06Z" stroke="#000" stroke-miterlimit="10"/>
    <path d="m213.78,238.16h-9.17c.37-2.19,2.32-18.52,4.64-18.45,2.38.07,4.28,16.13,4.53,18.45Zm-2.56-2.16c-.64-3.2-1.25-6.22-1.85-9.24-.1,0-.2,0-.3-.01-.61,3.05-1.22,6.1-1.85,9.26h4.01Z" stroke="#000" stroke-miterlimit="10"/>
  </g>
</svg>