<?xml version="1.0" encoding="UTF-8"?>
<svg id="Layer_1" data-name="Layer 1" xmlns="http://www.w3.org/2000/svg" width="601.22" height="285.13" viewBox="0 0 601.22 285.13">
  <g>
    <path d="m22.92,11.26c.09-.23.18-.45.27-.68.13-.31.27-.62.4-.93.07-.17.14-.34.21-.51.32-.75.63-1.49.95-2.24.09-.23.18-.45.27-.68.13-.31.27-.62.4-.93.07-.17.14-.34.21-.51.15-.36.31-.73.46-1.09.07-.17.14-.34.21-.52.09-.21.18-.42.27-.63.89-2.29,2.62-2.7,4.42-.99,1.13,1.07,2.2,2.19,3.3,3.29.21.54.42,1.08.62,1.62,0,.38.01.77.02,1.15-.06.31-.12.62-.17.93-.05.19-.1.39-.16.58-.64,1.34-1.28,2.68-1.92,4.01-.55,1.14-1.1,2.28-1.65,3.42-1.05,2.14-2.11,4.29-3.16,6.43l-2.11,4.35c-.9,1.84-1.81,3.67-2.71,5.51-.24.54-.48,1.07-.72,1.61-.05.15-.09.31-.14.46-.04.15-.07.3-.11.45-.02,1.07-.05,2.14-.07,3.22.1.53.2,1.06.29,1.59l.77,2,.19.52c.22.61.44,1.23.67,1.84.63,1.53,1.24,3.06,1.88,4.58,1.17,2.77,2.36,5.53,3.56,8.29,1.08,2.5,2.19,4.99,3.28,7.49.67,1.55,1.34,3.1,2,4.66.38.9.73,1.59,2.02,1.41,3.86-.52,6.89,1.44,9.87,3.54,5.63,3.96,11.3,7.87,16.95,11.8,3.23,2.24,6.46,4.48,9.74,6.75-.78,2.68-.81,5.41-.64,8.16.05.46.1.93.15,1.39.17.99.34,1.98.51,2.97l2.9,6.99c.11.19.22.38.34.57.12.19.23.38.35.57,2.15,3.54,5.11,6.22,8.58,8.44,2.9,1.86,6.14,2.81,9.41,3.53,1.27.28,2.76.86,4.18-.01.32-.2,1.02.33,1.53.31,3.89-.16,7.56-1.17,11.02-2.94,3.26-1.67,5.99-3.98,8.26-6.83.41-.51,1.18-.28,1.57.31.42.64,1.01,1.17,1.53,1.75.08.08.18.15.24.24,1.67,2.58,4.02,4.56,6.11,6.77,1.04,1.1,1.99,2.3,2.98,3.46.51,1.24,1.02,2.48,1.54,3.72.32,1.34.69,2.67.94,4.02.16.86.17,1.75.24,2.63-.03.22-.06.44-.08.67-.04,1.72.05,3.45-.13,5.15-.33,3.08-.73,6.16-1.27,9.21-.72,4.05-1.61,8.06-2.43,12.09-.47,2.29-.99,4.56-1.36,6.86-.09.54.21,1.22.51,1.74,1.74,3.02,3.51,6.02,5.32,9,4.14,6.86,8.33,13.69,12.44,20.56.47.78.66,1.8.74,2.73.13,1.56.05,3.13.07,4.69.06,1.46.12,2.91.17,4.37.04.61.08,1.21.12,1.82.04,1.46.07,2.92.11,4.38l.06,2.05c.06,1.46.12,2.91.17,4.37.03.61.05,1.21.08,1.82.05,1.31.09,2.61.14,3.92.03.76.06,1.52.09,2.28.04,1.23.09,2.46.13,3.69.1,2.98.2,5.95.31,8.93.06,1.38.11,2.76.17,4.14.02.76.04,1.52.06,2.28.02,2.37.03,4.75.05,7.12-.02.15-.05.3-.07.45-.13.38-.27.77-.4,1.15-.04.11-.07.23-.11.34-.12.27-.24.54-.36.8-1.48,2.71-3.78,4.42-6.67,5.33-1.96.62-3.98.56-5.98.06-4.24-1.06-7.62-5.2-7.81-9.5-.09-2.08-.13-4.17-.22-6.25-.15-3.64-.34-7.28-.47-10.92-.11-3.04-.14-6.09-.24-9.13-.14-4.33-.3-8.66-.46-12.98-.05-1.44-.12-2.88-.24-4.32-.02-.27-.26-.6-.49-.78-9.56-7.39-19.14-14.77-28.7-22.16-.64-.5-1.14-.57-1.89-.11-2.61,1.63-5.25,3.2-7.91,4.74-3.73,2.16-7.49,4.26-11.22,6.41-6.87,3.96-13.72,7.96-20.6,11.9-1.59.91-2.2,2.52-3.11,3.92-3.22,4.9-6.4,9.83-9.59,14.75-2.1,3.24-4.21,6.47-6.29,9.73-2.24,3.51-4.44,7.06-6.69,10.57-1.43,2.23-2.84,4.48-4.4,6.62-1.78,2.43-4.21,3.91-7.24,4.4-6.61,1.05-11.48-3.71-12.47-9.24-.18-1.01.08-2.09.14-3.14.45-1.23.89-2.45,1.34-3.68,5.21-8.26,10.48-16.49,15.62-24.79,4.82-7.78,9.56-15.62,14.26-23.48,3.98-6.66,7.85-13.39,11.75-20.09,3.86-6.64,7.71-13.28,11.56-19.93,1.14-1.97,2.26-3.97,3.45-5.91.38-.62.41-1.11.13-1.75-3.65-8.28-7.29-16.57-10.92-24.85-3.47-7.92-6.93-15.83-10.39-23.75-1.55-3.55-3.03-7.14-4.67-10.65-.37-.79-1.22-1.4-1.96-1.95-2.04-1.51-4.14-2.92-6.2-4.4-1.61-1.15-2.79-2.65-3.38-4.56-.13-.39-.27-.77-.4-1.16-.02-.15-.04-.3-.07-.45-.05-.31-.11-.62-.16-.93,0-.84,0-1.69,0-2.53.29-1.07.59-2.15.88-3.22.47-.85.98-1.68,1.41-2.55.12-.24.13-.64.02-.89-4.14-9.45-8.31-18.89-12.47-28.34-.34-.78-.61-1.59-.91-2.38-.14-.31-.28-.62-.42-.93l-.29-.68c-.21-.46-.42-.93-.62-1.39-.09-.23-.19-.45-.28-.68l-1.27-2.58c-.08-.66-.15-1.32-.23-1.99.12-.17.24-.34.36-.51.09-.23.18-.45.27-.68.13-.31.27-.62.4-.93.07-.17.14-.34.21-.51.32-.75.63-1.49.95-2.24.04-.12.08-.24.13-.35.18-.42.37-.84.55-1.25.07-.17.14-.34.21-.51.32-.75.63-1.49.95-2.24.09-.23.18-.45.27-.68.14-.31.27-.62.41-.93.09-.23.18-.45.28-.68.52-1.23,1.04-2.45,1.56-3.68.09-.23.18-.45.28-.68.13-.31.27-.62.4-.93.07-.17.14-.34.21-.51.32-.75.63-1.49.95-2.24.07-.17.14-.34.21-.51.54-1.28,1.08-2.57,1.63-3.85Zm44.51,132.38c.01-9.02.03-18.04,0-27.06,0-.35-.36-.8-.68-1.02-5.14-3.64-10.31-7.26-15.47-10.88-.45-.31-.9-.63-1.63-1.14.22.58.29.82.4,1.05,5.61,12.81,11.21,25.61,16.83,38.41.1.23.27.44.41.66.03.12.05.25.08.37.02-.13.04-.27.06-.4Z" fill="#fff" stroke="#fff" stroke-miterlimit="10"/>
    <path d="m118.93,103.3c-1.77,8.12-6.87,13.16-14.73,15.28-5.4,1.46-10.6.56-15.47-2.34-5.12-3.04-8.15-7.56-9.19-13.25-1.35-7.42.8-13.9,6.5-18.95,4.25-3.77,9.37-5.28,14.99-4.79,5.16.45,9.52,2.62,13.12,6.46,2.58,2.75,4.05,5.93,4.79,9.54.05.24.11.47.16.71.05.3.09.59.14.89.01,1.62.03,3.24.04,4.86-.06.3-.11.59-.17.89-.06.23-.11.47-.17.7Z" fill="#fff" stroke="#fff" stroke-miterlimit="10"/>
    <path d="m116.96,272.3c1.85.29,3.59.51,5.32.84,4.28.8,8.55,1.66,12.82,2.48,4.38.84,8.74,1.81,13.15,2.48,4.59.7,9.19-2.17,10.58-6.8.21-.71.52-.78.99-.7,1.74.3,3.47.64,5.19,1.01.6.13.5.54.36,1.04-1.29,4.66-4.2,7.98-8.38,10.28-2.65,1.46-5.51,1.94-8.46,1.6-3.08-.36-6.13-.96-9.19-1.48-2.33-.39-4.66-.79-6.98-1.24-2.19-.42-4.35-.95-6.54-1.38-2.19-.42-4.39-.76-6.58-1.14-.92-.16-1.86-.24-2.74-.51-.26-.08-.56-.7-.51-1.03.26-1.76.62-3.5.98-5.45Z" fill="#fff" stroke="#fff" stroke-miterlimit="10"/>
    <path d="m87.21,274.71c.01.23.01.46.03.69.22,2.08-.63,2.15-2.36,2.72-3.39,1.1-6.9.72-10.35.65-1.49-.03-2.99-.66-4.45-1.12-.69-.22-1-.8-.97-1.61.07-1.45.11-2.91,0-4.35-.09-1.23.51-1.81,1.55-2.03,1.62-.35,3.24-.79,4.88-.88,3.4-.17,6.82-.2,10.11.88.51.17.94.59,1.4.89.05,1.38.11,2.76.16,4.15Z" fill="#fff" stroke="#fff" stroke-miterlimit="10"/>
    <path d="m.72,276.43c1.7-2.46,3.36-4.82,4.96-7.23.4-.6.73-.5,1.19-.22,1.68,1,3.37,1.99,5.18,3.05-.59.94-1.12,1.83-1.71,2.7-.97,1.44-1.98,2.85-2.97,4.29-.46.66-.87.9-1.69.35-1.58-1.05-3.26-1.94-4.97-2.94Z" fill="#fff" stroke="#fff" stroke-miterlimit="10"/>
  </g>
  <g>
    <path d="m305.1,161.93v3.39h-17.09v-3.39h17.09Z" fill="#fff" stroke="#fff" stroke-miterlimit="10"/>
    <path d="m477.27,95.77l.38.74-.38-.74Z" fill="#fff" stroke="#fff" stroke-miterlimit="10"/>
    <path d="m471.07,79.71c.13.25.25.49.38.74-.13-.25-.25-.49-.38-.74Z" fill="#fff" stroke="#fff" stroke-miterlimit="10"/>
    <path d="m465.53,80.2c-.06-.1-.13-.21-.19-.31.19,0,.38.01.58.02-.13.1-.26.19-.39.29Z" fill="#fff" stroke="#fff" stroke-miterlimit="10"/>
    <path d="m472.71,83.79c.11.26.22.52.33.79-.11-.26-.22-.52-.33-.79Z" fill="#fff" stroke="#fff" stroke-miterlimit="10"/>
    <path d="m473.42,85.61c.11.27.22.54.34.81-.11-.27-.22-.54-.34-.81Z" fill="#fff" stroke="#fff" stroke-miterlimit="10"/>
    <path d="m478.91,99.86c.11.26.22.52.34.78-.11-.26-.22-.52-.34-.78Z" fill="#fff" stroke="#fff" stroke-miterlimit="10"/>
    <g>
      <path d="m538.76,106.24c-11.02,0-22.05,0-33.07,0-.23,0-.45-.05-.68-.07-.07-.09-.15-.18-.22-.27-.02-.3-.05-.61-.05-.91,0-18.21,0-36.42,0-54.63,0-.3.03-.61.05-.91.08-.06.15-.13.23-.19,1.38-.01,2.77-.03,4.15-.04v.24c-.01.27-.04.53-.04.8,0,16.83,0,33.66,0,50.49,0,.27.03.53.04.8.07.07.14.15.21.22,4.85.02,9.71.04,14.56.05,4.17,0,8.34.02,12.5-.03.55,0,1.19-.26,1.61-.6,1.65-1.36,3.27-2.77,4.82-4.24.38-.36.7-1.01.7-1.52.04-17.93.03-35.87,0-53.8,0-.48-.3-1.09-.66-1.43-1.61-1.52-3.29-2.98-4.97-4.42-.32-.27-.79-.52-1.19-.52-9.1-.03-18.2-.02-27.3-.01-.07,0-.14.04-.26.08v5.07h1.38c7.72,0,15.45.02,23.17-.03,1.16,0,1.97.39,2.87,1.07,1.47,1.11,1.94,2.38,1.93,4.25-.09,15.68-.06,31.35-.04,47.03,0,.82-.27,1.36-.83,1.98-1.5,1.67-3.25,2.14-5.46,2.08-5.92-.15-11.85-.05-17.86-.05v-47.48h4.32v42.94c.22.06.36.13.5.13,4.21,0,8.41.01,12.62,0,1.19,0,2.31-1.18,2.31-2.37,0-14.22,0-28.45,0-42.67,0-1.52-1-2.52-2.53-2.53-8.49,0-16.98,0-25.47,0h-1.32v-13.88h1.13c10.67,0,21.34-.01,32,.03.6,0,1.32.3,1.79.69,2.59,2.18,5.13,4.42,7.63,6.7.36.32.62.96.62,1.45.03,19.2.02,38.39.04,57.59,0,.76-.24,1.21-.84,1.71-2.54,2.12-5.01,4.32-7.49,6.51-.22.2-.33.53-.49.79-.15-.03-.3-.07-.45-.1Z" fill="#fff" stroke="#fff" stroke-miterlimit="10"/>
      <path d="m472.41,82.96c-.32-.84-.64-1.68-.96-2.52-.13-.25-.25-.49-.38-.74-.45-1.11-.98-2.21-1.33-3.35-.23-.74-.62-.87-1.3-.86-5.14.02-10.28.01-15.42,0-.42,0-.83-.05-1.25-.07-.08-.09-.16-.18-.24-.27-.02-.27-.06-.53-.06-.8,0-14.16,0-28.31,0-42.47,0-.27.04-.53.06-.8.08-.06.16-.13.24-.19,7.04-.01,14.07-.03,21.11-.04,3.33,0,6.66.08,9.98-.04,1.45-.05,2.52.38,3.54,1.33,2.21,2.04,4.5,3.99,6.69,6.05.38.35.67,1.01.67,1.54.04,8.57.02,17.13.04,25.7,0,.7-.19,1.14-.75,1.63-1.78,1.56-3.45,3.24-5.17,4.86-1.19,1.12-2.39,2.23-3.58,3.33,4.02,10.31,8.01,20.55,12.05,30.91-.42.03-.71.08-.99.08-4.32,0-8.64-.01-12.96.02-.83,0-1.34-.19-1.56-1.06-.23-.93-.6-1.82-.91-2.73-.06-.16-.13-.31-.19-.47-.17-.46-.34-.91-.51-1.37-.11-.26-.22-.52-.34-.78-.04-.12-.07-.24-.11-.37-.11-.27-.22-.53-.34-.8-.27-.73-.54-1.45-.81-2.18-.13-.25-.25-.49-.38-.74-1.17-3.12-2.34-6.24-3.52-9.36-.11-.27-.22-.54-.34-.81-.12-.34-.25-.68-.37-1.03-.11-.26-.22-.52-.33-.79l-.11-.36c-.06-.16-.13-.31-.19-.47Zm-16.47-47.51c-.02.42-.05.84-.05,1.25,0,10.07,0,20.13,0,30.2,0,1.29.03,2.59.05,3.88.07.09.14.18.21.27.42.03.83.08,1.25.08,4.74,0,9.48.02,14.22,0,.7,0,1.11.16,1.34.89.38,1.2.89,2.35,1.35,3.53,3.26,8.43,6.52,16.86,9.8,25.28.15.37.57.88.89.9,1.59.09,3.19.04,4.88.04-.16-.44-.28-.8-.41-1.14-3.31-8.5-6.6-17-9.94-25.48-.33-.83-.18-1.26.45-1.84,2.97-2.7,5.9-5.44,8.81-8.21.34-.32.62-.88.62-1.34.04-7.42.04-14.83,0-22.25,0-.43-.23-.97-.54-1.26-1.67-1.57-3.39-3.09-5.12-4.59-.26-.23-.66-.43-.99-.43-8.87-.01-17.73,0-26.6.02-.07.06-.14.13-.21.19Z" fill="#fff" stroke="#fff" stroke-miterlimit="10"/>
      <path d="m600.48,50.36h-13.76c0-1.14,0-2.28,0-3.41,0-.98-1.12-2.18-2.1-2.19-3.21-.02-6.42-.02-9.64,0-1.21,0-2.23,1.12-2.23,2.35,0,4.02,0,8.03,0,12.05,0,1.53.91,2.42,2.48,2.42,5.12,0,10.25.02,15.37-.02.86,0,1.53.23,2.14.78,2.5,2.24,5.01,4.46,7.49,6.71.23.21.45.56.45.84.04,1.83.02,3.65.02,5.61h-1.32c-10.13,0-20.27-.01-30.4.02-1.02,0-1.78-.28-2.54-.98-2.29-2.11-4.68-4.13-6.99-6.22-.32-.29-.6-.82-.6-1.23-.03-9.22-.03-18.43,0-27.65,0-.41.17-.94.46-1.2,2.26-2.06,4.64-3.99,6.82-6.13,1.2-1.17,2.5-1.26,4-1.25,6.58.04,13.15.04,19.73,0,1.23,0,2.24.16,3.18,1.05,2.33,2.19,4.77,4.27,7.13,6.42.27.24.49.69.5,1.04.02,3.59,0,7.19-.02,10.78-.07.07-.13.15-.2.22Zm-4.13-4.4c0-1.67.03-3.26-.03-4.86-.01-.31-.28-.68-.54-.91-1.64-1.49-3.29-2.97-4.98-4.4-.37-.31-.93-.53-1.41-.54-6.38-.03-12.77-.04-19.15,0-.47,0-1.03.25-1.4.56-1.67,1.4-3.31,2.84-4.89,4.33-.36.34-.67.94-.67,1.42-.04,7.72-.04,15.44,0,23.17,0,.49.27,1.11.62,1.45,1.58,1.49,3.22,2.94,4.9,4.32.42.35,1.07.6,1.62.61,8.1.04,16.21.03,24.31.02.31,0,.62-.05,1.14-.1-1.72-1.53-3.28-2.88-4.78-4.28-.6-.56-1.19-.8-2.02-.8-4.89.04-9.79-.09-14.68.07-2.15.07-3.82-.43-5.24-2.05-.51-.58-.82-1.07-.81-1.87.04-5.35.13-10.71-.04-16.05-.07-2.11.43-3.62,2.18-4.82.76-.52,1.43-.87,2.37-.86,4.74.04,9.48,0,14.22.05.65,0,1.34.38,1.93.72,1.7.99,2.48,2.46,2.08,4.46-.02.1.04.21.07.36h5.2Z" fill="#fff" stroke="#fff" stroke-miterlimit="10"/>
      <path d="m440.11,90.98c1,5.04,1.99,10.08,3,15.19h-14.38c-1.1-5.58-2.19-11.08-3.31-16.72h-29.05c3.91-19.57,7.79-39.01,11.69-58.52h20c.48,2.36.97,4.74,1.45,7.13.74,3.67,1.49,7.33,2.22,11,.72,3.59,1.42,7.19,2.14,10.78.75,3.7,1.52,7.39,2.26,11.09.71,3.56,1.41,7.11,2.1,10.67.34,1.75.64,3.5.96,5.25.06.23.11.47.17.7.05.15.09.29.14.44.05.23.1.46.15.69.03.15.05.3.08.45.05.23.1.46.15.69.03.15.05.3.08.45.05.23.1.46.15.7Zm-10.93-5.99c.05.62.04,1.11.13,1.59.98,4.86,1.97,9.71,2.99,14.56.05.25.39.63.6.64,1.59.05,3.18.03,4.77.03-4.45-22.28-8.88-44.41-13.3-66.53h-12.64c-3.31,16.57-6.62,33.09-9.94,49.72h27.39Z" fill="#fff" stroke="#fff" stroke-miterlimit="10"/>
      <path d="m301.21,31.1v13.65c-.44,0-.85,0-1.25,0-6.42,0-12.84,0-19.25,0-.42,0-.83.05-1.25.07l-.26.27c-.02,4.59-.05,9.17-.07,13.76,0,.87,0,1.74,0,2.7h18.98v13.86c-.29.03-.59.08-.88.08-10.36,0-20.72,0-31.09,0-.23,0-.45-.05-.68-.07-.07-.09-.14-.18-.2-.27-.02-.27-.05-.53-.05-.8,0-14.15,0-28.31,0-42.46,0-.27.03-.53.05-.8.07-.06.14-.13.21-.19,7.01-.01,14.03-.03,21.04-.04,4.84,0,9.68.02,14.52.04.06.06.12.13.19.19Zm-26.46,34.87v-25.57h21.86v-5.1h-26.96v35.77h23.94v-5.1h-18.85Z" fill="#fff" stroke="#fff" stroke-miterlimit="10"/>
      <path d="m377.43,94.2c-1.89,2.38-4.37,2.85-7.29,2.69-3.96-.21-7.95-.08-11.93-.03-.98.01-1.68-.32-2.47-.89-1.65-1.18-2.13-2.61-2.12-4.65.1-13.57.05-27.15.05-40.72v-1.38h4.48v.23c-.02.38-.05.76-.05,1.14,0,13.12,0,26.23,0,39.35,0,1.67.8,2.45,2.5,2.45,3.37,0,6.73,0,10.1,0,1.25,0,2.38-1.12,2.38-2.34,0-1.15,0-2.29,0-3.44,0-.07.04-.14.08-.28h13.89c.02.32.06.62.06.92,0,3.44.02,6.88-.02,10.33,0,.43-.19.99-.49,1.27-2.65,2.4-5.34,4.75-8.06,7.08-.31.26-.82.41-1.23.41-7.92.02-15.83.03-23.75,0-.43,0-.93-.23-1.29-.5-.69-.53-1.29-1.16-1.93-1.75-.19-.17-.39-.34-.58-.51-.5-.44-.99-.88-1.49-1.32-.2-.17-.4-.34-.6-.51-.41-.37-.83-.73-1.24-1.1-.19-.17-.37-.35-.56-.52-1.23-.65-1.82-1.55-1.81-3.06.05-15.34.03-30.67.03-46.01,0-.38-.04-.76-.06-1.14.04-.16.09-.31.13-.47.08-.06.15-.13.23-.19,1.39-.01,2.77-.03,4.16-.04v.24c-.01.42-.04.84-.04,1.26,0,14.86,0,29.72-.02,44.58,0,.89.26,1.47.93,2.03,1.55,1.3,3.01,2.71,4.57,3.99.42.35,1.07.61,1.61.61,6.65.04,13.29.04,19.94,0,.51,0,1.11-.25,1.51-.57,1.71-1.4,3.39-2.86,5.02-4.35.34-.31.6-.87.62-1.33.06-1.56,0-3.13-.01-4.69-.07-.06-.13-.13-.2-.19-1.53,0-3.06,0-4.58,0-.15.16-.43.32-.44.49-.04.97-.02,1.94-.02,2.91Z" fill="#fff" stroke="#fff" stroke-miterlimit="10"/>
      <path d="m227.83,49.46c-.02.38-.05.76-.05,1.14,0,13.14,0,26.28,0,39.42,0,1.55.81,2.38,2.33,2.38,3.44,0,6.88,0,10.31,0,1.22,0,2.34-1.13,2.31-2.37-.03-1.2-.12-2.4-.18-3.6.13-.03.26-.06.39-.09h13.85c0,2.02,0,4,0,5.98,0,1.76.04,3.52-.03,5.27-.02.46-.24,1.05-.58,1.35-2.6,2.34-5.24,4.65-7.9,6.92-.34.29-.88.47-1.32.48-7.91.03-15.83.03-23.74,0-.43,0-.95-.22-1.29-.5-2.51-2.16-5-4.34-7.45-6.56-.37-.33-.68-.94-.68-1.43-.04-15.98-.03-31.96-.03-47.94,0-.15.03-.3.05-.45.07-.06.15-.13.22-.19h3.89c.07.06.13.13.2.2.01,2.48.03,4.96.03,7.45,0,12.8,0,25.59-.01,38.39,0,.82.18,1.41.84,1.96,1.62,1.34,3.14,2.8,4.74,4.15.37.31.94.53,1.42.53,6.72.03,13.45.03,20.17,0,.44,0,.97-.21,1.31-.5,1.76-1.46,3.49-2.97,5.2-4.5.27-.24.51-.68.52-1.04.04-1.64,0-3.28-.03-4.92-.06-.06-.13-.12-.19-.18-1.53,0-3.06,0-4.59,0-.15.17-.43.33-.44.5-.04.97-.02,1.93-.03,2.9-1.88,2.39-4.37,2.85-7.29,2.69-3.92-.21-7.87-.08-11.8-.03-1.06.01-1.83-.31-2.67-.96-1.48-1.14-2.04-2.4-2.02-4.34.1-13.6.05-27.2.05-40.81,0-.46,0-.92,0-1.42,1.49-.11,2.94-.21,4.39-.31l.08.43Z" fill="#fff" stroke="#fff" stroke-miterlimit="10"/>
      <path d="m189.05,105.9c-.02-.34-.05-.68-.05-1.03,0-24.25,0-48.5,0-72.75,0-.34.03-.68.05-1.03.08-.06.15-.13.23-.19h13.6v75.27h-13.61c-.07-.09-.15-.18-.22-.27Zm9.42-4.17V35.31h-5.02v66.43h5.02Z" fill="#fff" stroke="#fff" stroke-miterlimit="10"/>
      <path d="m573.17,91.21c.59.85,1.37,1.16,2.44,1.13,2.94-.07,5.89-.02,8.83-.03,1.28,0,2.39-1.1,2.39-2.36,0-3.29,0-6.57,0-9.93h4.42v1.07c0,3.94-.02,7.88.02,11.81,0,.81-.32,1.29-.84,1.86-1.42,1.53-3.03,2.09-5.15,2-4.16-.18-8.33-.08-12.5-.03-.91,0-1.52-.34-2.24-.84-1.79-1.23-2.55-2.8-2.22-4.92-.06-.06-.12-.12-.18-.18-1.53,0-3.06,0-4.59,0-.07.06-.14.12-.22.19-.02,1.64-.06,3.28-.04,4.92,0,.29.2.65.43.85,1.76,1.58,3.54,3.15,5.35,4.67.28.24.75.36,1.13.36,6.42.02,12.84.03,19.26,0,.47,0,1.03-.25,1.4-.56,1.64-1.38,3.25-2.78,4.8-4.26.38-.36.67-1.01.68-1.53.06-5.08.06-10.16.07-15.24.06-.06.13-.13.19-.19,1.3,0,2.6,0,3.9,0,.07.06.13.13.2.19.01,5.88.03,11.77.02,17.65,0,.32-.21.73-.45.95-2.6,2.34-5.22,4.67-7.86,6.96-.33.29-.88.46-1.33.46-7.49.03-14.98.04-22.47-.01-.61,0-1.33-.32-1.8-.71-2.39-2-4.73-4.06-7.04-6.15-.41-.37-.85-.97-.86-1.47-.07-3.74-.03-7.49-.03-11.23,0-.11.06-.21.13-.44h2.7c3.32,0,6.65,0,9.97,0,.36,0,.71.12,1.07.18,0,1.31-.05,2.62,0,3.93,0,.3.29.59.45.88Z" fill="#fff" stroke="#fff" stroke-miterlimit="10"/>
      <path d="m265.46,80.01c1.3,0,2.6,0,3.9,0,.06.06.13.13.19.19.01,6.66.02,13.31.04,19.97,0,.46.02.91.04,1.37.06.07.13.15.19.22,5.5.02,11.01.04,16.51.05,3.55,0,7.1,0,10.73,0v-5.06h-22.31v-16.69h4.37v12.25h22.33v13.87c-.25.02-.47.07-.69.07-11.51,0-23.02,0-34.52,0-.26,0-.53-.05-.79-.07-.07-.09-.14-.18-.21-.27-.02-5.75-.04-11.5-.04-17.25,0-2.82.03-5.63.04-8.45.07-.06.14-.13.21-.19Z" fill="#fff" stroke="#fff" stroke-miterlimit="10"/>
      <path d="m256.8,50.55h-14.05c0-1.11,0-2.21,0-3.3,0-1.37-1.09-2.42-2.53-2.42-4.82,0-9.64,0-14.45,0-3.93,0-7.87,0-11.96,0,0-2.03-.03-4,.03-5.97,0-.3.36-.64.63-.88,2.43-2.14,4.84-4.3,7.33-6.37.49-.41,1.25-.71,1.89-.71,7.69-.05,15.37-.04,23.06,0,.55,0,1.22.2,1.63.55,2.61,2.21,5.18,4.47,7.72,6.78.38.35.67,1.01.68,1.53.06,3.58.03,7.17.03,10.8Zm-4.43-4.31c0-1.62.05-3.15-.03-4.66-.02-.46-.27-1.03-.6-1.34-1.65-1.54-3.33-3.03-5.06-4.48-.36-.31-.94-.5-1.42-.51-6.65-.03-13.3-.02-19.94-.02-.33,0-.76-.03-.98.16-1.84,1.57-3.65,3.18-5.71,5,.76,0,1.17,0,1.58,0,7.6,0,15.21,0,22.81,0,.41,0,.96-.07,1.22.16,1.41,1.27,3.47,2.16,2.89,4.68-.16.71.18,1.04.95,1.02,1.37-.04,2.75-.01,4.29-.01Z" fill="#fff" stroke="#fff" stroke-miterlimit="10"/>
      <path d="m387.12,50.56h-14.04c0-1.07,0-2.09,0-3.11,0-1.63-1.01-2.62-2.68-2.62-8.3,0-16.59,0-24.89,0h-1.38c0-2.05-.03-4.02.03-5.99,0-.3.38-.63.65-.87,2.43-2.14,4.85-4.29,7.32-6.38.47-.39,1.18-.69,1.79-.7,7.72-.05,15.45-.04,23.17,0,.58,0,1.27.26,1.71.64,2.5,2.11,4.93,4.31,7.42,6.43.66.56.94,1.15.93,2.04-.06,3.48-.02,6.96-.02,10.55Zm-9.66-7.3c-.01.81-.06,1.63-.02,2.44,0,.16.3.32.47.47h4.79c0-1.7.03-3.26-.02-4.83-.01-.36-.26-.79-.53-1.03-1.69-1.55-3.4-3.07-5.15-4.55-.36-.31-.94-.5-1.42-.5-6.64-.03-13.29-.02-19.93-.02-.33,0-.76-.03-.98.15-1.84,1.57-3.65,3.18-5.72,5,.76,0,1.17,0,1.58,0,7.6,0,15.2,0,22.8.01.44,0,1.01-.02,1.31.22,1,.81,1.9,1.74,2.84,2.63Z" fill="#fff" stroke="#fff" stroke-miterlimit="10"/>
      <path d="m189.74,195.62c-.28-1.11-.56-2.22-.85-3.39h3.51c1.88,8.92,3.77,17.84,5.65,26.77.13,0,.26-.01.39-.02.7-3.17,1.38-6.35,2.1-9.52.6-2.67,1.26-5.32,1.86-7.99.63-2.81,1.2-5.64,1.79-8.46.11-.54.34-.88.96-.84.61.03,1.22,0,1.84,0,2.02,8.91,4.04,17.79,6.06,26.68.17,0,.33-.01.5-.02,1.87-8.87,3.75-17.73,5.62-26.6h3.49c-.66,2.99-1.31,5.94-1.97,8.89l-.12.48c-.03.15-.06.29-.1.44-.13.54-.25,1.08-.38,1.62-.03.15-.06.29-.09.44-.04.16-.08.32-.12.48-.05.14-.11.28-.16.43-.05.24-.11.47-.16.71-.47,2.24-.91,4.48-1.41,6.72-.44,1.98-.92,3.94-1.4,5.91-.59,2.44-1.34,4.85-1.75,7.31-.24,1.45-.86,1.83-2.15,1.64-.41-.06-.83,0-1.35,0-1.85-9.06-3.69-18.08-5.54-27.1-.15,0-.29-.01-.44-.02-.23.95-.48,1.9-.68,2.85-.6,2.83-1.18,5.66-1.75,8.49-.73,3.6-1.43,7.21-2.15,10.82-.29,1.45-.58,2.91-.93,4.35-.06.24-.41.41-.64.61-.02.02-.07,0-.11,0-2.25.19-2.46-.06-2.91-2.38-.45-2.36-1.08-4.68-1.61-7.02-1.07-4.69-2.13-9.38-3.19-14.07-.27-1.19-.51-2.4-.77-3.59-.06-.23-.11-.47-.17-.7l-.1-.44c-.04-.16-.08-.32-.11-.48-.03-.15-.06-.29-.09-.44-.13-.54-.25-1.08-.38-1.62-.03-.15-.06-.29-.1-.44-.04-.16-.08-.32-.12-.48Z" fill="#fff" stroke="#fff" stroke-miterlimit="10"/>
      <path d="m288.5,255.52c-.04.22-.09.45-.13.67-.05.16-.11.32-.16.47-.63,3.27-2.6,5.56-5.41,7.3,2.64,4.87,5.26,9.69,8,14.73-1.47,0-2.54.05-3.6-.03-.31-.02-.7-.35-.86-.64-.88-1.67-1.69-3.37-2.55-5.05-1.32-2.59-2.69-5.15-3.99-7.75-.31-.63-.67-.9-1.39-.88-1.67.05-3.35.02-5.1.02v14.02h-3.16v-34.86c.12-.04.26-.12.4-.11,3.21.06,6.42-.02,9.62.22,3.84.28,7.25,3.14,8.04,6.85.05.23.11.47.16.7.04.22.08.44.13.67,0,1.23,0,2.46,0,3.69Zm-15.01-8.92c-.07.06-.14.13-.2.19v14.23c2.24,0,4.38.15,6.5-.04,2.6-.23,4.4-1.72,5.04-4.3.3-1.19.32-2.47.34-3.7.06-3.37-2.8-6.34-6.18-6.42-1.83-.05-3.66.02-5.49.04Z" fill="#fff" stroke="#fff" stroke-miterlimit="10"/>
      <path d="m414.11,264.69c-.03,4-.06,8.01-.08,12.01-.01,2.11.23,2-1.95,1.99-.3,0-.61-.02-.91-.04-.07-.06-.14-.13-.21-.19-.02-.99-.05-1.99-.05-2.98,0-10.25,0-20.5,0-30.75v-1.4c4.37.32,8.72-.67,12.87.95,3.42,1.33,5.15,3.97,5.78,7.57.46,2.61-.1,5.01-1.1,7.27-.91,2.05-2.5,3.68-4.68,4.71,2.64,4.85,5.25,9.66,7.95,14.62-1.35,0-2.49.07-3.62-.04-.37-.03-.84-.44-1.04-.8-.77-1.45-1.46-2.95-2.17-4.44-.13-.24-.26-.49-.39-.73-1.33-2.51-2.64-5.02-4-7.51-.15-.27-.56-.57-.86-.57-1.75-.03-3.5.02-5.25.05-.09.09-.18.18-.27.26Zm-.02-3.62c2.18,0,4.25.17,6.29-.04,3.25-.33,4.85-1.66,5.59-4.78.28-1.16.14-2.44.11-3.66-.06-2.59-1.4-4.34-3.71-5.39-2.66-1.21-5.47-.58-8.28-.77v14.65Z" fill="#fff" stroke="#fff" stroke-miterlimit="10"/>
      <path d="m270.72,192.41c0,4.74,0,9.48.01,14.22,0,.41,0,.82,0,1.29h11.19v-15.64h3.62v34.91h-3.53v-15.85h-11.27v15.86h-3.42c-.02-.31-.04-.56-.04-.82,0-11.17,0-22.33,0-33.5,0-.15.02-.3.04-.46.07-.06.13-.13.2-.19.99,0,1.99,0,2.98-.01.07.07.15.14.22.2Z" fill="#fff" stroke="#fff" stroke-miterlimit="10"/>
      <path d="m214.87,251.15c-.15-.23-.3-.45-.38-.58.24-.62.55-1.24.73-1.9.93-3.46,3.23-4.97,6.52-5.26,1.92-.17,3.93-.15,5.82.23,3.47.7,5.34,3.33,5.44,6.71.21,7.06.19,14.13.05,21.19-.06,3.38-1.79,5.87-5.15,6.96-3.32,1.08-6.6,1-9.66-.79-1.28-.75-2.2-1.94-2.57-3.46-.15-.59-.37-1.16-.56-1.74l-.12-.47c-.04-6.54-.08-13.08-.13-19.62,0-.26-.03-.53-.05-.79.02-.16.04-.32.06-.48Zm14.9,19.73c.03-.11.08-.22.08-.33,0-6.31.05-12.62-.03-18.92-.01-.98-.42-2.03-.89-2.92-1.14-2.18-3.16-2.46-5.4-2.39-2.84.09-4.53,1.34-5.11,4.1-.16.74-.25,1.51-.25,2.27,0,6,.02,12.01.04,18.01,0,.27-.06.56.04.79,1.25,3.15,2.75,4.52,6.32,4.21,2.86-.25,4.65-1.26,5.11-4.34.03-.16.07-.32.1-.48Z" fill="#fff" stroke="#fff" stroke-miterlimit="10"/>
      <path d="m332.43,146.53c0,7.3.19,14.6-.09,21.89-.16,4.13-2.63,6.06-6.76,6.79-2.29.4-4.51.33-6.68-.49-2.29-.86-3.63-2.66-4.24-4.9-.37-1.35-.35-2.83-.36-4.26-.03-5.89.04-11.78-.01-17.66-.02-2.61.57-4.98,2.71-6.58,1.02-.77,2.37-1.33,3.64-1.49,2.43-.31,4.91-.55,7.31.42,2.55,1.04,3.85,2.97,4.33,5.58.05.23.11.47.16.7Zm-14.67,21.34c.04.22.04.46.13.66,1.66,4.21,5.85,4.09,8.91,2.74,2.07-.91,2.41-2.99,2.45-4.93.1-5.99.09-11.99,0-17.99-.04-3.22-1.4-5.09-4.48-5.62-4.3-.75-6.96.97-7.14,5.42-.23,5.72-.07,11.46-.07,17.18,0,.61.09,1.21.14,1.82.02.24.04.47.06.71Z" fill="#fff" stroke="#fff" stroke-miterlimit="10"/>
      <path d="m401.74,260.96c0,3.29.1,6.58-.04,9.86-.09,2.25-.59,4.45-2.41,6.08-1.23,1.11-2.69,1.82-4.3,1.92-2.2.14-4.41.33-6.61-.34-2.59-.79-4.68-3.76-4.73-6.24-.13-6.8-.17-13.6-.18-20.4,0-1.16.11-2.36.44-3.46.98-3.26,3.27-4.61,6.56-5.06,2.22-.3,4.37-.24,6.47.51,2.67.96,4.3,2.95,4.52,5.73.31,3.79.32,7.6.45,11.39-.06,0-.12,0-.18,0Zm-14.89-.4s-.05,0-.08,0c0,3.02-.07,6.04.02,9.06.13,4.72,3.01,6.9,7.64,5.91,1.79-.38,3.14-1.34,3.6-3.13.34-1.34.47-2.77.48-4.16.05-5.01.03-10.02.01-15.03,0-.91-.06-1.85-.26-2.73-.44-1.94-1.47-3.49-3.51-3.99-.9-.23-1.89-.14-2.84-.15-2.89-.03-4.76,1.71-5,4.82-.24,3.12-.05,6.26-.05,9.4Z" fill="#fff" stroke="#fff" stroke-miterlimit="10"/>
      <path d="m504.07,271.82c.39,1.77,1.29,3.15,3.01,3.9,3.56,1.55,7.75-1.05,7.81-4.86,0-.58-.04-1.16.01-1.73.21-2.11-.95-3.5-2.52-4.57-1.22-.83-2.59-1.45-3.92-2.1-1.57-.77-3.28-1.31-4.72-2.26-2.17-1.43-3.65-3.42-3.79-6.21-.09-1.9-.11-3.78.51-5.6,1-2.91,3.71-4.76,6.8-5.08,2.28-.24,4.47-.24,6.52.79,2.3,1.16,3.73,3.11,4.06,5.69.23,1.83.25,3.69.36,5.64h-3.63v-4.04c-.04-.23-.09-.47-.13-.7-.28-2.91-1.9-4.4-4.78-4.34-1.01.02-2.06,0-3,.28-1.62.5-2.74,1.6-3.02,3.37-.61,1.11-.61,2.27-.24,3.45l.12.45c.05.15.09.31.14.46.32,1.76,1.58,2.73,3.03,3.48,2,1.04,4.06,1.94,6.05,2.98,1.91.99,3.5,2.39,4.62,4.24.33.55.62,1.18.72,1.8.73,4.63.21,8.49-3.61,10.87-1.09.68-2.5,1.06-3.79,1.12-1.81.09-3.73.05-5.45-.47-3.04-.91-4.5-3.39-5-6.4-.25-1.52-.24-3.08-.37-4.77h3.77c.07,1.07.14,2.15.21,3.22l.07.67c.05.23.1.47.16.7Z" fill="#fff" stroke="#fff" stroke-miterlimit="10"/>
      <path d="m257.36,269.95c.02-2.68.06-5.35.06-8.03,0-6.12,0-12.23,0-18.44h3.22c.02.36.05.69.05,1.03,0,8.18,0,16.37,0,24.55,0,.99-.09,1.98-.14,2.98-.04.08-.09.17-.13.25-.5,4.25-4.33,6.73-7.75,6.64-2.08-.05-4.21.24-6.13-.91-2.47-1.47-3.97-3.6-4-6.49-.1-9.13-.11-18.27-.15-27.4,0-.19.03-.37.05-.65h3.3c0,.41,0,.81,0,1.22,0,8.18,0,16.36,0,24.54,0,1.65.37,3.2,1.37,4.51,1.36,1.78,3.3,2.22,5.4,1.91,2.45-.36,3.95-1.86,4.54-4.26.08-.32.15-.64.22-.96.04-.16.09-.32.13-.48Z" fill="#fff" stroke="#fff" stroke-miterlimit="10"/>
      <path d="m493.88,274.96v3.54h-17.48v-35.11h1.1c4.97,0,9.94.02,14.91-.02,1,0,1.43.17,1.39,1.31-.09,2.3-.02,2.3-2.32,2.3h-11.85v12.07h13.82v3.03h-13.8v12.88h14.24Z" fill="#fff" stroke="#fff" stroke-miterlimit="10"/>
      <path d="m465.53,80.2c-.02.65-.07,1.29-.07,1.94,0,7.56,0,15.12,0,22.68v1.5c-4.64,0-9.2,0-13.76,0-.1-.22-.19-.43-.29-.65.03-.42.07-.83.07-1.25,0-7.5,0-15,0-22.5,0-.42-.05-.83-.07-1.25,0-.27,0-.53,0-.8,1.42.03,2.84.06,4.26.09l.09.04.1-.02c.01,6.73.02,13.45.03,20.18,0,.46.03.91.05,1.37.07.06.14.13.21.19,1.53,0,3.06,0,4.59,0,.08-.06.16-.13.24-.19.02-3.24.05-6.48.06-9.72.01-3.55,0-7.09,0-10.64v-1.3c1.51,0,2.91,0,4.3,0,.06.1.13.21.19.31Z" fill="#fff" stroke="#fff" stroke-miterlimit="10"/>
      <path d="m265.5,143.54v11.89h4.6c2.67,0,5.34.05,8.01-.02,1.05-.03,1.5.26,1.35,1.34-.07.52-.01,1.05-.01,1.74h-13.76c-.07.06-.13.13-.2.19,0,4.13,0,8.26,0,12.39.06.07.13.15.19.22,4.28.02,8.55.07,12.83.03,1.08-.01,1.54.27,1.4,1.4-.08.68-.02,1.37-.02,2.14h-17.6c-.03-.26-.08-.55-.08-.84,0-11.12,0-22.23,0-33.35,0-.19.03-.38.04-.57.07-.09.13-.18.2-.26,2.74-.03,5.49-.06,8.23-.08,2.86-.01,5.72,0,8.66,0v3.59h-13.67c-.06.06-.13.13-.19.19Z" fill="#fff" stroke="#fff" stroke-miterlimit="10"/>
      <path d="m337.43,255.04c.03-.15.06-.3.08-.44.05-.16.11-.32.16-.47.09-.38.19-.76.28-1.14.05-.16.11-.32.16-.47.03-.15.06-.3.09-.44.05-.16.11-.32.16-.47.51-2.04,1.02-4.08,1.54-6.12.05-.18.13-.36.14-.54.05-1,.49-1.51,1.57-1.38.56.07,1.14.01,1.75.01,3.13,11.6,6.24,23.18,9.38,34.83h-3.47c-.7-2.89-1.43-5.78-2.09-8.69-.19-.85-.48-1.29-1.48-1.26-2.64.08-5.28.04-7.92.01-.7,0-1.12.13-1.25.92-.22,1.27-.56,2.52-.85,3.78-.05.16-.1.32-.15.47-.03.15-.05.3-.08.44-.05.16-.1.32-.15.47-.03.15-.05.3-.08.44-.05.16-.1.32-.15.47-.03.15-.05.3-.08.44-.05.16-.1.32-.15.47-.03.15-.05.3-.08.44-.05.16-.1.32-.15.47-.03.15-.05.3-.08.44-.05.16-.1.32-.15.47-1.07.1-2.14.2-3.38.32.39-1.63.7-3.06,1.08-4.47.88-3.26,1.78-6.51,2.69-9.76.82-2.94,1.67-5.88,2.5-8.82.05-.16.11-.32.16-.47Zm8.69,10.29c-1.36-5.68-2.69-11.27-4.03-16.87-.09,0-.17,0-.26,0-1.42,5.6-2.84,11.2-4.28,16.86h8.57Z" fill="#fff" stroke="#fff" stroke-miterlimit="10"/>
      <path d="m226.91,172.68c-.03-.15-.05-.3-.08-.44-.05-.16-.1-.32-.15-.47-.03-.15-.05-.3-.08-.44-.05-.16-.1-.32-.15-.47-.02-.15-.05-.3-.07-.44-.05-.16-.1-.32-.15-.47-.38-1.46-.74-2.94-1.18-4.38-.09-.29-.51-.66-.79-.67-2.94-.05-5.89-.04-8.83,0-.23,0-.46.31-.68.47-.05.16-.1.32-.15.47-.03.15-.05.3-.08.44-.05.16-.1.32-.15.47-.03.15-.05.3-.08.44l-.15.47c-.03.15-.05.3-.08.44-.05.16-.1.32-.15.47-.03.15-.05.3-.08.44-.05.16-.1.32-.14.47-.03.15-.06.3-.08.44-.05.16-.09.32-.14.47-.05.14-.1.29-.15.43-.05.16-.11.32-.16.48-.24,1.04-.44,2.09-.75,3.1-.08.25-.5.51-.79.54-.75.08-1.51.03-2.45.03.19-.82.35-1.56.52-2.3.05-.16.11-.32.16-.47.03-.15.06-.3.08-.44l.16-.47c.58-2.37,1.12-4.74,1.73-7.1.72-2.74,1.49-5.46,2.25-8.19.87-3.15,1.76-6.3,2.62-9.45.6-2.2,1.17-4.41,1.75-6.6.11-.04.18-.08.25-.08,2.71-.11,2.67-.09,3.38,2.61,1.29,4.92,2.65,9.83,3.97,14.75.09.32.14.65.2.98.14.38.29.77.43,1.15.03.15.06.3.08.44.05.16.1.32.16.47.09.38.19.76.28,1.14.05.16.11.32.16.47.03.15.06.29.09.44l.16.47.09.44c.05.16.1.32.15.47.96,3.65,1.93,7.29,2.97,11.22-1.07,0-2.1.04-3.12-.04-.16-.01-.28-.54-.41-.83-.05-.16-.1-.32-.15-.47-.03-.15-.05-.3-.08-.44l-.15-.47Zm-6.74-27.73c-.1,0-.19,0-.29,0-1.43,5.54-2.87,11.08-4.32,16.7h8.6c-1.34-5.61-2.67-11.16-3.99-16.71Z" fill="#fff" stroke="#fff" stroke-miterlimit="10"/>
      <path d="m312.31,70.26v-13.8h20.99v13.8h-20.99Zm4.37-4.35h12.29v-5.11h-12.29v5.11Z" fill="#fff" stroke="#fff" stroke-miterlimit="10"/>
      <path d="m253.4,169.25c-.42,2.06-1.26,3.9-3.18,4.91-1.12.59-2.4,1-3.66,1.16-2.63.33-5.23.19-7.36-1.71-1.51-1.36-2.42-3.03-2.44-5.1-.06-6.53-.16-13.07-.15-19.6,0-2.16.02-4.36,1.28-6.33,1.09-1.71,2.73-2.68,4.57-2.85,2.12-.2,4.35-.11,6.44.33,2.44.52,3.8,2.52,4.31,4.85.41,1.86.38,3.81.55,5.71.06.68-.2.96-.91.95-2.75-.05-2.26.26-2.31-2.2-.02-.95-.07-1.9-.1-2.85-.04-.16-.08-.31-.13-.47-.32-1.81-2.08-3.57-4.22-3.66-.8-.03-1.62-.08-2.39.09-2.79.62-3.77,2.15-3.88,5.28-.22,6.1-.05,12.22.06,18.34.02,1.28.38,2.58.7,3.84.37,1.43,1.58,2.08,2.86,2.22,1.33.14,2.76.09,4.03-.28,1.65-.48,2.48-1.9,2.86-3.56.05-.16.09-.32.13-.47v-4.96h3.05v5.89c-.04.16-.08.32-.12.48Z" fill="#fff" stroke="#fff" stroke-miterlimit="10"/>
      <path d="m358.85,258.04c-.03-.15-.06-.29-.09-.44-.05-.16-.11-.31-.16-.47l-.28-1.14c-.05-.16-.11-.32-.16-.47l-.09-.44-.36-.74c-.73-2.7-1.46-5.39-2.18-8.09-.22-.82-.4-1.66-.63-2.66,1.06,0,2.07-.04,3.07.03.21.02.51.4.58.66,1.94,7.54,3.86,15.09,5.79,22.64.29,1.14.59,2.28.92,3.42.08.27.3.5.61,1,2.5-9.36,4.92-18.46,7.38-27.66h3.39c-3.14,11.54-6.29,23.11-9.47,34.8-.28,0-.66,0-1.03,0-1.95,0-1.94,0-2.44-1.88-.73-2.78-1.47-5.55-2.22-8.32-.78-2.87-1.58-5.74-2.36-8.62-.1-.36-.09-.75-.13-1.13-.05-.16-.11-.32-.16-.47Z" fill="#fff" stroke="#fff" stroke-miterlimit="10"/>
      <path d="m344.39,159.83c-.02,4.54-.04,9.09-.06,13.63,0,.45,0,.9,0,1.41h-3.47v-35.06h16.93v3.53h-13.17c-.08.06-.16.13-.24.19,0,4.13,0,8.26,0,12.39.08.06.16.13.24.19h12.96v3.49h-12.96c-.08.07-.16.14-.24.22Z" fill="#fff" stroke="#fff" stroke-miterlimit="10"/>
      <path d="m369.87,156.12h12.98v3.49h-12.98c-.07.07-.14.14-.21.22-.02,4.58-.03,9.17-.05,13.75,0,.41,0,.82,0,1.29h-3.47v-35.04c.31-.02.64-.07.97-.07,4.97,0,9.94.02,14.9-.02.91,0,1.25.26,1.18,1.17-.06.75-.01,1.52-.01,2.44-4.47,0-8.89,0-13.31,0-.07.06-.14.13-.22.19v12.39c.07.06.14.13.22.19Z" fill="#fff" stroke="#fff" stroke-miterlimit="10"/>
      <path d="m314.52,247.25v12.54h13.12v3.49h-12.85c-.09.08-.18.17-.27.25-.03,4.2-.04,8.4-.08,12.6-.03,2.95.47,2.53-2.63,2.57-.26,0-.52,0-.83,0v-35.23c.32-.02.65-.06.97-.07,4.97,0,9.93.02,14.9-.03,1.02-.01,1.37.3,1.26,1.3-.08.71-.01,1.44-.01,2.36h-13.3c-.09.07-.18.14-.27.21Z" fill="#fff" stroke="#fff" stroke-miterlimit="10"/>
      <path d="m192.53,159.83v15.04h-3.47c-.02-.31-.06-.57-.06-.83,0-11.13,0-22.26,0-33.39,0-.19.03-.38.05-.57.07-.09.15-.18.22-.27,3.28-.02,6.56-.06,9.84-.07,2.25-.01,4.5,0,6.83,0v3.59h-13.21c-.07.07-.13.13-.2.2,0,4.13,0,8.25,0,12.38.06.07.13.13.19.2h13v3.49h-13c-.06.07-.13.15-.19.22Z" fill="#fff" stroke="#fff" stroke-miterlimit="10"/>
      <path d="m197.33,278.46c-.02-4.32-.11-8.64-.01-12.95.04-1.9-.42-3.55-1.18-5.25-2.36-5.3-4.63-10.64-6.92-15.96-.09-.2-.12-.42-.21-.72,1.15,0,2.22-.04,3.28.03.3.02.73.31.84.58,1.1,2.63,2.15,5.29,3.22,7.94.77,1.9,1.55,3.79,2.41,5.92.27-.44.47-.68.59-.95,1.76-4.21,3.54-8.42,5.25-12.66.26-.65.57-.89,1.23-.86.95.03,1.9,0,3.05,0-.38.89-.7,1.65-1.03,2.41-1.96,4.56-3.84,9.17-5.93,13.67-.96,2.05-1.33,4.08-1.28,6.31.1,3.78-.02,7.57.05,11.35.02,1.16-.39,1.5-1.45,1.38-.57-.06-1.14-.04-1.72-.05-.07-.06-.14-.13-.2-.19Z" fill="#fff" stroke="#fff" stroke-miterlimit="10"/>
      <path d="m461.19,278.65h-3.19v-31.78h-7.27v-3.4h17.95v3.42h-6.79c-.12.12-.24.25-.36.37-.02.49-.06.99-.06,1.48,0,9.49,0,18.98,0,28.47,0,.42-.04.83-.07,1.25-.07.06-.13.13-.2.19Z" fill="#fff" stroke="#fff" stroke-miterlimit="10"/>
      <path d="m249.16,195.58h-7.03v-3.46h18.12v3.46c-2.34,0-4.65,0-6.96,0-.07.09-.14.18-.22.27-.02,1.76-.05,3.51-.05,5.27,0,8.25,0,16.5,0,24.75,0,.42,0,.83,0,1.32h-3.44v-1.25c0-9.62,0-19.25,0-28.87,0-.42-.04-.84-.06-1.25-.12-.08-.24-.15-.36-.23Z" fill="#fff" stroke="#fff" stroke-miterlimit="10"/>
      <path d="m404.68,96.95l.06-.46c.06-.23.11-.46.17-.69.12-.61.23-1.22.34-1.81h4.54c-.82,4.07-1.64,8.08-2.47,12.18h-14.3c.82-4.05,1.63-8.08,2.45-12.19h4.43c.03.15.07.3.1.45-.03.15-.07.3-.1.45-.05.23-.11.47-.16.7-.01.23-.03.46-.04.69-.04.15-.09.31-.13.46-.04.15-.08.3-.13.45-.05.23-.11.47-.16.7-.02.15-.04.3-.07.45-.05.23-.11.47-.16.7l-.07.45c-.12.62-.24,1.23-.36,1.85l-.08.23c-.06.05-.11.1-.17.15l.17.02c1.52.02,3.05.02,4.57.06.52.01.82-.11.7-.7.04-.15.08-.31.13-.46.19-.99.37-1.99.56-2.98l.17-.69Z" fill="#fff" stroke="#fff" stroke-miterlimit="10"/>
      <path d="m439.4,243.45h3.36v35.17h-3.36v-35.17Z" fill="#fff" stroke="#fff" stroke-miterlimit="10"/>
      <path d="m234.28,227.22h-3.36v-35.09h3.36v35.09Z" fill="#fff" stroke="#fff" stroke-miterlimit="10"/>
      <path d="m461.09,65.98v-25.66h1.29c5.81,0,11.62.02,17.43-.02.99,0,1.67.39,2.46.92,1.74,1.15,2.14,2.64,2.09,4.64-.14,5.16-.03,10.32-.08,15.48,0,.53-.32,1.13-.66,1.56-1.93,2.51-4.41,3.35-7.64,3.16-4.91-.3-9.86-.08-14.89-.08Zm4.43-4.4c3.92,0,7.77.03,11.62-.02,1.01-.01,2.75-2.2,2.75-3.25,0-3.67,0-7.34,0-11.01,0-1.75-.88-2.62-2.64-2.62-1.91,0-3.82,0-5.74,0s-3.96,0-6,0v16.9Z" fill="#fff" stroke="#fff" stroke-miterlimit="10"/>
      <path d="m428.04,79.9h-19.92c.26-1.51.49-2.96.76-4.4.6-3.09,1.2-6.19,1.84-9.27.82-3.98,1.71-7.95,2.52-11.94.87-4.33,1.67-8.68,2.55-13.01.06-.3.55-.72.86-.74,1.14-.09,2.29-.04,3.51-.04,2.62,13.11,5.24,26.2,7.88,39.39Zm-5.37-4.46c-1.46-7.29-2.9-14.44-4.33-21.6-.14,0-.27,0-.41,0-1.51,7.16-3.03,14.32-4.57,21.6h9.31Z" fill="#fff" stroke="#fff" stroke-miterlimit="10"/>
    </g>
  </g>
</svg>