<?xml version="1.0" standalone="no"?>
<!DOCTYPE svg PUBLIC "-//W3C//DTD SVG 20010904//EN"
 "http://www.w3.org/TR/2001/REC-SVG-20010904/DTD/svg10.dtd">
<svg version="1.0" xmlns="http://www.w3.org/2000/svg"
 width="335.000000pt" height="315.000000pt" viewBox="0 0 335.000000 315.000000"
 preserveAspectRatio="xMidYMid meet">

<g transform="translate(0.000000,315.000000) scale(0.100000,-0.100000)"
fill="#000000" stroke="none">
<path d="M775 2903 c-111 -25 -222 -88 -290 -166 -58 -67 -111 -175 -125 -257
-8 -45 -10 -337 -8 -945 l3 -880 23 -60 c67 -177 210 -302 387 -340 102 -21
1766 -22 1868 0 170 36 320 163 381 323 21 57 21 64 24 977 2 604 -1 937 -8
968 -25 119 -121 248 -236 317 -118 71 -84 69 -1094 68 -498 0 -914 -2 -925
-5z m1881 -237 c63 -29 114 -79 145 -142 l24 -49 3 -875 c2 -796 1 -879 -14
-928 -21 -67 -88 -143 -158 -180 l-51 -27 -898 -3 -899 -2 -59 26 c-76 35
-140 103 -163 176 -15 49 -16 133 -14 933 l3 880 27 50 c34 65 80 108 148 139
l55 26 900 0 900 0 51 -24z"/>
<path d="M1570 2421 c-226 -34 -433 -151 -559 -317 -68 -90 -135 -228 -163
-334 -32 -123 -32 -330 0 -450 68 -251 228 -443 467 -560 150 -75 229 -93 395
-92 143 0 226 18 352 75 253 116 436 347 498 631 16 74 13 281 -5 350 -25 96
-24 96 -99 19 l-67 -68 -3 -140 c-2 -131 -4 -145 -35 -223 -43 -108 -116 -217
-194 -287 -70 -64 -229 -147 -315 -164 -75 -16 -226 -13 -301 4 -221 53 -425
240 -498 458 -24 74 -27 96 -27 227 0 133 2 151 28 225 80 231 267 400 500
450 165 36 379 4 510 -77 l49 -30 64 64 63 63 -22 17 c-56 43 -206 111 -296
134 -106 27 -253 38 -342 25z"/>
<path d="M2408 2202 c-10 -4 -174 -167 -365 -363 -191 -196 -362 -368 -380
-383 l-32 -27 -76 78 c-42 43 -102 106 -135 140 -66 67 -99 81 -155 63 -51
-17 -75 -53 -75 -112 0 -48 2 -51 83 -136 206 -215 295 -302 320 -311 19 -7
42 -8 70 -2 35 8 60 29 167 139 69 71 259 266 422 434 164 168 302 317 309
331 28 62 -25 145 -97 153 -22 2 -47 0 -56 -4z"/>
</g>
</svg>
