<?xml version="1.0" standalone="no"?>
<!DOCTYPE svg PUBLIC "-//W3C//DTD SVG 20010904//EN"
 "http://www.w3.org/TR/2001/REC-SVG-20010904/DTD/svg10.dtd">
<svg version="1.0" xmlns="http://www.w3.org/2000/svg"
 width="905.000000pt" height="320.000000pt" viewBox="0 0 905.000000 320.000000"
 preserveAspectRatio="xMidYMid meet">

<g transform="translate(0.000000,320.000000) scale(0.100000,-0.100000)"
fill="#2563EB" stroke="none">
<path d="M685 2803 c-111 -25 -222 -88 -290 -166 -58 -67 -111 -175 -125 -257
-8 -45 -10 -334 -8 -935 l3 -870 23 -60 c67 -177 210 -302 387 -340 102 -21
1756 -22 1858 0 170 36 320 163 381 323 21 57 21 64 24 967 2 597 -1 927 -8
958 -25 119 -121 248 -236 317 -118 71 -85 69 -1089 68 -495 0 -909 -2 -920
-5z m1871 -237 c63 -29 114 -79 145 -142 l24 -49 3 -865 c2 -786 1 -869 -14
-918 -21 -67 -88 -143 -158 -180 l-51 -27 -893 -3 -894 -2 -59 26 c-76 35
-140 103 -163 176 -15 49 -16 132 -14 923 l3 870 27 50 c34 65 80 108 148 139
l55 26 895 0 895 0 51 -24z"/>
<path d="M1480 2321 c-226 -34 -433 -151 -559 -317 -68 -90 -135 -228 -163
-334 -32 -121 -32 -310 0 -430 68 -250 228 -443 467 -560 149 -74 229 -93 390
-92 138 0 223 19 347 75 253 116 436 347 498 631 19 87 14 272 -10 350 l-21
68 -27 -23 c-14 -13 -46 -43 -70 -66 l-43 -42 -3 -133 c-2 -123 -5 -139 -35
-216 -73 -184 -188 -311 -356 -392 -117 -56 -174 -70 -293 -70 -169 0 -328 63
-452 177 -146 135 -217 287 -227 483 -9 168 34 307 137 443 97 128 238 218
394 252 161 36 369 4 500 -77 l49 -30 64 64 63 63 -22 17 c-56 43 -205 111
-296 134 -106 27 -246 37 -332 25z"/>
<path d="M2304 2101 c-11 -5 -78 -70 -148 -144 -70 -75 -237 -242 -372 -372
l-244 -237 -128 130 c-138 137 -156 148 -233 136 -52 -9 -79 -43 -79 -101 0
-42 5 -49 82 -131 208 -216 296 -302 322 -312 62 -23 73 -14 524 437 236 235
432 439 437 451 27 87 -76 179 -161 143z"/>
<path d="M3495 2748 c-3 -7 -4 -227 -3 -488 l3 -475 282 0 283 0 0 93 0 92
-180 0 -180 0 0 393 1 392 -101 3 c-75 2 -102 -1 -105 -10z"/>
<path d="M4180 2271 l0 -490 285 2 285 2 0 93 0 92 -182 0 -183 0 3 105 3 105
155 0 154 0 0 88 0 87 -152 0 -153 0 -3 108 -3 107 176 0 175 0 0 95 0 95
-280 0 -280 0 0 -489z"/>
<path d="M5165 2748 c-3 -7 -43 -130 -90 -273 -47 -143 -117 -355 -155 -470
-39 -116 -70 -213 -70 -216 0 -2 48 -4 108 -4 l107 0 31 95 32 95 159 3 159 2
31 -97 31 -98 106 0 c69 0 106 4 106 11 0 6 -25 84 -55 175 -31 90 -80 238
-110 329 -29 91 -75 230 -103 310 l-49 145 -117 3 c-88 2 -118 -1 -121 -10z
m179 -425 c25 -84 46 -155 46 -158 0 -3 -47 -5 -105 -5 -121 0 -118 -3 -81 89
13 31 33 98 46 147 31 124 31 123 40 99 5 -11 29 -89 54 -172z"/>
<path d="M5825 2749 c-3 -8 -4 -228 -3 -489 l3 -475 205 1 c231 0 301 14 393
75 134 89 203 278 178 489 -27 217 -112 326 -301 385 -75 24 -467 35 -475 14z
m451 -214 c38 -23 56 -43 79 -90 28 -57 30 -67 30 -180 0 -115 -1 -122 -30
-175 -18 -33 -47 -66 -73 -85 -40 -28 -51 -30 -143 -33 l-99 -4 0 302 0 302
94 -4 c82 -3 100 -7 142 -33z"/>
<path d="M3611 1379 c-57 -17 -107 -58 -133 -107 -43 -80 -53 -142 -53 -337 1
-158 3 -189 23 -252 27 -87 56 -124 125 -157 100 -48 206 -42 327 19 l50 26
-2 192 -3 192 -130 0 -130 0 0 -64 0 -64 55 -1 55 -1 3 -81 c3 -78 2 -81 -24
-94 -36 -20 -100 -17 -126 6 -49 44 -58 86 -57 284 0 192 8 240 45 281 14 15
28 19 63 17 39 -3 49 -8 68 -37 13 -19 23 -47 23 -62 l0 -29 80 0 c78 0 80 1
80 25 0 95 -51 190 -122 226 -49 25 -162 35 -217 18z"/>
<path d="M7639 1376 c-143 -51 -187 -139 -196 -391 -9 -255 24 -378 120 -442
127 -85 312 -55 387 63 45 72 61 155 61 332 1 222 -31 333 -116 398 -66 50
-179 68 -256 40z m154 -157 c44 -34 57 -101 57 -288 0 -183 -8 -226 -46 -265
-21 -21 -36 -26 -73 -26 -103 0 -126 55 -126 295 0 185 9 230 53 278 33 34 96
38 135 6z"/>
<path d="M4070 1378 c0 -2 -1 -197 -3 -435 l-2 -432 203 -3 202 -3 0 67 0 67
-122 3 -123 3 0 110 0 110 108 3 107 3 0 64 0 65 -110 0 -110 0 0 115 0 115
120 0 120 0 0 75 0 75 -195 0 c-107 0 -195 -1 -195 -2z"/>
<path d="M4560 946 l0 -434 75 -4 75 -3 2 264 3 263 104 -261 105 -261 88 0
88 0 -2 433 -3 432 -79 3 -79 3 5 -271 c2 -149 1 -267 -3 -263 -4 5 -35 82
-69 173 -34 91 -77 204 -96 252 -19 49 -34 92 -34 98 0 6 -36 10 -90 10 l-90
0 0 -434z"/>
<path d="M5210 945 l0 -435 205 0 205 0 0 65 0 65 -125 0 -125 0 0 115 0 115
105 0 105 0 0 65 0 65 -105 0 -105 0 0 115 0 115 120 0 120 0 0 75 0 75 -200
0 -200 0 0 -435z"/>
<path d="M5720 947 l0 -435 76 -4 c42 -2 78 -1 80 1 2 2 4 73 4 156 0 83 3
154 6 157 3 3 17 3 30 -1 22 -6 35 -29 88 -160 l63 -153 81 -1 c45 -1 82 2 82
6 0 5 -22 61 -49 125 -27 65 -58 140 -69 168 l-20 50 34 28 c19 15 46 50 61
79 21 43 26 66 26 132 0 127 -45 208 -142 254 -51 24 -69 26 -203 29 l-148 4
0 -435z m280 278 c45 -23 63 -67 58 -142 -3 -53 -9 -68 -31 -91 -24 -23 -35
-27 -87 -27 -33 0 -60 3 -60 8 0 4 0 66 0 137 l0 130 45 0 c26 0 59 -7 75 -15z"/>
<path d="M6505 1368 c-7 -21 -72 -297 -131 -553 -30 -132 -59 -255 -63 -273
l-9 -32 82 0 82 0 20 82 20 83 98 3 c57 2 104 -2 109 -7 6 -6 18 -45 27 -87
l16 -77 79 2 c44 1 81 3 82 4 1 1 -18 81 -42 177 -23 96 -71 291 -105 433
l-63 257 -99 0 c-70 0 -100 -4 -103 -12z m145 -355 c19 -98 35 -182 35 -187 0
-8 -145 -9 -153 -1 -2 1 13 81 32 177 20 96 36 177 36 181 0 4 4 7 8 7 5 0 24
-80 42 -177z"/>
<path d="M6886 1372 c-3 -5 -4 -38 -2 -73 l3 -64 86 -3 87 -3 0 -362 0 -362
80 0 80 0 0 365 0 365 85 -3 85 -3 0 75 0 76 -249 0 c-138 0 -252 -4 -255 -8z"/>
<path d="M8120 946 l0 -436 80 0 80 0 0 155 0 155 33 0 c35 0 24 21 121 -228
l33 -84 81 -1 c56 -1 82 2 82 10 0 6 -29 81 -65 166 -36 85 -65 158 -65 161 0
3 20 25 44 50 97 97 102 294 10 396 -63 69 -107 83 -281 88 l-153 4 0 -436z
m293 274 c64 -50 73 -176 17 -232 -25 -25 -36 -28 -89 -28 l-61 0 0 140 0 140
54 0 c38 0 60 -6 79 -20z"/>
</g>
</svg>
