<?xml version="1.0" encoding="UTF-8"?>
<svg id="Layer_1" data-name="Layer 1" xmlns="http://www.w3.org/2000/svg" width="445.81" height="476.88" viewBox="0 0 445.81 476.88">
  <path d="m222.1,337.39c-9.56,0-21.07,1.74-30.42-.2-8.64-1.79-10.87-9.5-12.04-16.81-2.8-17.53-4.37-35.73-13.74-51.37-4.14-6.91-8.95-13.28-12-20.77-3.66-8.99-4.77-19.24-4.87-28.86-.18-17.83,8.11-33.89,20.14-46.91,25.25-27.32,69.51-30,99.21-7.74,13.84,10.38,24.32,26.41,27.06,43.31,2.9,17.89-.33,35.06-9.04,50.99-4.91,8.98-10.84,16.62-13.79,26.6-2.9,9.79-4.52,19.84-5.84,29.91-1.04,7.89-2.03,19.24-11.67,21.43-10.15,2.3-22.57.55-32.98.55,0-.05,0-.1,0-.15Zm-18.14-10.1c2.05-.17,4.11-.34,6.79-.56.4-26.46-.03-52.73-6.33-78.43-6.08-.48-12.51-.17-16.98-4.9-3.62-3.83-4.02-9.58-.57-13.69,3.1-3.7,9.82-4.77,14.04-2.08,4.04,2.57,6.03,10.01,8,14.05h28.23c2.05-4.87,3.73-11.79,8.93-14.34,4.25-2.09,9.75-1.75,12.75,2.13,2.95,3.81,2.86,10.34-.36,13.96-3.89,4.37-11.64,4.01-17.04,4.85-3.4,13.31-3.97,26.23-5.71,39.71-1.66,12.86-1.25,26.67-.37,39.58,2.37-.25,4.48-.48,6.6-.71,2.9.03,9.17,1.31,11.58-.88,2-1.82,1.54-6.38,1.94-8.8,1.44-8.71,2.27-17.71,4.58-26.24,2.04-7.52,4.38-15.26,7.79-22.31,3.39-7.01,8.51-12.96,11.96-19.92,12.29-24.79,6.02-57.77-17.01-74.74-23.57-17.37-54.77-18.62-78.65-.88-23.57,17.52-30.83,49.27-18.42,75.15,3.25,6.79,8.02,12.7,11.34,19.45,3.33,6.77,6.54,13.89,8.39,21.2,1.91,7.56,2.29,15.39,3.6,23.06.65,3.83.36,13.13,4.96,14.88,3.35.16,6.67.32,9.99.48Zm6.56-79.51c5.62,26.34,6.5,52.75,6.14,79.29h12.57c-.19-26.63-.24-53.13,6.07-79.29h-24.78Zm-12.39-14.68c-4.16-1.77-10.37.9-6.91,5.96,2,2.93,8.06,3.64,11.08,2.15-1.42-2.76-2.85-5.53-4.17-8.11Zm54.3-.85c-7.03-.88-6.13,5.78-9.6,9.29,4.56,1,8.04-.08,11.34-1.89q1.84-4.36-1.75-7.4Z" fill="#0a0a0a"/>
  <path d="m37.21,116.86c3.86,2.52,7.07,4.61,10.43,6.8C22.37,162.58,7.59,209.69,13.63,256.01c2.95,22.63,7.67,45.51,18.11,66.16,5.4,10.7,11.52,21.65,18.61,31.37,2.95,4.04,6.58,7.71,9.34,11.87,1.95,2.93,1.78,3-.9,5.35-2.11,1.84-4.42,3.51-6.61,5.26C4.48,320.17-12.46,243.36,9.47,173.66c6.33-20.12,15.85-39.22,27.74-56.8Z" fill="#0a0a0a"/>
  <path d="m397.88,370.49c-3.18-2.5-6.37-5.01-9.68-7.61,45.11-58.07,58.09-134.86,29.62-202.93-3.36-8.04-7.43-15.92-11.7-23.54-2.34-4.17-5.11-8.03-7.73-12.03-3.01-4.6-1.37-5.19,3.17-8.23,4.29-2.87,4.43-2.7,7.27,1.5,2.1,3.12,4.26,6.22,6.25,9.41,5.11,8.22,9.44,17.06,13.43,25.84,15.05,33.12,20.37,72.71,15.63,108.52-2.73,20.64-7.73,40.28-16.03,59.49-3.86,8.93-8.07,18.17-13.38,26.39-2.79,4.31-5.94,8.44-8.92,12.63-2.38,3.36-4.66,8-7.92,10.57Z" fill="#0a0a0a"/>
  <path d="m336.43,449.53c-4.38,1.75-9.58,5.57-13.89,2.68-4.13-2.77-7.69-7.87-11.15-11.42-1.59,6.73,1.12,13.04-.53,19.22-4.08,1.59-7.98,3.1-11.78,4.58-8.33-7.17-16.98-14.11-25.01-21.59-6.32-5.89-10.24-16.17-12.04-24.33,2.96-1.22,9.36-5.25,12.58-4.89,4.22.48,4.92,6.79,6.11,9.9,3.05,7.96,8.79,16.12,16.88,19.97.99-12.91-3.94-23.18-9.15-34.66,2.08-2.69,11.97-6.38,15.77-5.67,3.31,11.3,8.23,21.95,18.61,29.68,4.69-12.16-3.23-24.85-8.22-35.55,5.28-2.23,9.68-5.35,15.42-6,2.2,4.96,4.45,9.89,6.58,14.88,2.06,4.82,1.2,9.75,1.16,14.93-.09,9.4.17,18.98-1.35,28.28Z" fill="#0a0a0a"/>
  <path d="m165.16,441.8c2.8-9.19,5.6-18.38,8.55-28.08,5.3,1.51,10.36,2.95,15.95,4.54-2.43,9.01-6.55,17.5-9.57,26.32-3.06,8.93-6.26,17.81-9.41,26.71-3.62-.57-7.39-1.72-10.69-3.33-4.13-2.01-4.76-5.44-6.26-9.61-3.17-8.8-5.87-17.76-8.93-26.6-.27-.05-.54-.1-.81-.15-2.98,9.26-5.97,18.53-9.12,28.3-5.22-1.61-10.25-3.16-15.79-4.86,2.65-9.08,6.85-17.54,9.83-26.51,1.43-4.32,2.56-8.73,3.94-13.07,1.01-3.18,2.26-11.28,4.74-13.34,3.32.72,11.06,1.08,13.64,3.2,2.37,1.94,3.04,7.33,3.89,9.92,2.85,8.71,4.66,18.53,9.07,26.61.32-.02.64-.04.96-.06Z" fill="#0a0a0a"/>
  <path d="m226.86,476.77c-16.95,1.55-30.08-13.79-30.01-29.43.08-17.61,14.46-30.98,32.56-29.41,36.05,3.12,34.38,60.59-2.55,58.84Zm13.24-30.29c.59-7.71-7.4-13.94-14.91-13.41-7.67.54-12.77,7.99-12.49,15.1.76,19.14,27.61,16.56,27.4-1.69Z" fill="#0a0a0a"/>
  <path d="m278.91,48.2c-.42-14.29,10.32-29.82,25.95-30.94,17.23-1.23,32.27,9.5,33.41,26.73,1.06,16.03-10.9,30.51-27.34,32.26-16.41,1.75-33.09-11.38-32.03-28.06Zm22.9-13.67c-14.52,9.4-4.17,33.88,12.38,24.6,16.35-9.18,5.56-33.37-12.38-24.6Z" fill="#0a0a0a"/>
  <path d="m77.6,120.34c-6.31-6.89-12.43-13.93-18.67-20.88-6.15-6.86-14.5-13.18-19.22-21,8.92-7.88,18-18.43,29.68-22.41,10.97-3.75,23.7,1.6,30.64,10.21,6.2,7.69,9.41,20.46,4.26,29.52-2.99,5.26-8.54,9.96-13.06,13.98-4.15,3.7-8.6,8.13-13.64,10.59Zm-3.3-50.86c-4.06.52-8.08,1.8-11,4.92-3,3.21-1.26,5.32,1.29,8.26,3.2,3.69,6.72,7.16,10.08,10.72,2.56,2.71,4.74,6.92,8.72,5.62,7.72-2.51,9.82-13.27,6.54-19.34-3.17-5.85-8.69-9.99-15.64-10.18Z" fill="#0a0a0a"/>
  <path d="m127.67,17.85c10.87-3.18,23.97-9.3,35.46-8.34,11.13.93,20.51,9.54,23.9,19.54,3.59,10.6,1.04,24.48-8.49,31.56-9.41,6.99-23.4,7.68-34.32,11.41-5.49-17.99-10.95-35.83-16.55-54.17Zm19.25,8.38c1.58,4.5,2.93,9.03,4.28,13.6,1.08,3.66,1.62,9.16,3.64,12.43,2.78,4.51,10.78.85,13.94-2.21,5.77-5.59,5.12-15.42.31-21.45-5.3-6.66-15.29-6.61-22.17-2.37Z" fill="#0a0a0a"/>
  <path d="m92.18,369.18c4.61,3.39,9.02,6.63,13.67,10.05-4.62,5.47-10.38,10.85-13.45,17.28,1.19,1.06,2.09,1.87,2.89,2.58,7.65,2.41,13.25-3.3,19.28-6.76,7.05-4.04,11.84,1.84,17.44,5.88-4.99,7.69-19.22,14.92-28.5,13.19-.72,6.09-1.42,12.18-2.13,18.27-.45,3.87.55,14.02-5.64,13.31-4.72-3.69-11.86-6.76-11.17-13.22.73-6.94,3.02-13.7,3.02-20.69-1.7-.28-3.32-.54-4.96-.81-3.76,5.15-7.37,10.1-11.33,15.52-5.43-2.03-9.64-5.73-13.87-9.58,11.66-15.1,23.17-30.01,34.75-45.02Z" fill="#0a0a0a"/>
  <path d="m364.94,44.11c4.22,3.77,8.29,7.4,12.6,11.25-5.61,7.22-12.69,13.43-19,20.08-4.96,5.22-13.01,12.82-4.42,18.99,7.18,5.16,12.64-2.68,16.84-7.44,6.1-6.92,12.15-13.89,18.16-20.88,4.94,2.79,9.17,6.81,13.55,10.36-9.29,9.96-18.51,20.21-28.13,29.85-4.31,4.32-8.98,7.57-15.43,5.87-5.76-1.52-11.25-5.51-15.6-9.35-4.1-3.62-8.95-8.22-10.63-13.48-1.87-5.85,1.48-10.68,5.28-14.98,8.92-10.09,17.78-20.24,26.77-30.27Z" fill="#0a0a0a"/>
  <path d="m225.24,0c5.68.79,11.36,1.53,17.05,2.23-.71,4.37-2.37,9.46-1.36,13.86.75,3.3,3.93,9.2,6.84,11.06,2.66-3.09,7.25-6.82,8.65-10.61,1.34-3.65.53-8.79.53-12.58,5.95.36,11.59.69,17.32,1.03,0,5.09.05,10.65-1.47,15.58-1.7,5.5-6.42,9.9-10.15,14.2-2.75,3.17-7.61,6.79-9.33,10.57-1.92,4.22-.18,9.62-1.52,14.03-5.5-.49-11.03-.99-16.93-1.52.25-4.7,2.26-10.04,1.84-14.68-.45-5.03-4.67-10.56-6.98-15.02-2.21-4.26-5.24-8.3-5.75-13.1-.51-4.79.36-10.34,1.25-15.05Z" fill="#0a0a0a"/>
  <path d="m123.64,84.6c-9.44-16.61-18.59-32.7-28.07-49.38,4.67-2.62,9.66-5.42,14.62-8.21,9.4,16.53,18.64,32.77,28.18,49.53-5.15,2.82-10.01,5.47-14.73,8.06Z" fill="#0a0a0a"/>
  <path d="m370.2,401.09c.5,1.12.99,2.25,1.39,3.15-1.94,2.3-3.62,4.3-5.35,6.36-7.45-5.4-3.97-11.66-7.56-18.9-4.64-9.35-11.83,1.76-14.56,5.95-3.11-1.27-6.45-4.21-8.1-7.08-2.01-3.5-.49-5.79,1.73-8.95,3.79-5.41,9.34-10.09,16.28-10.83,6.86-.73,13.49,3.32,16.32,9.33,1.41,2.98,2.03,6.37,1.39,9.62-.76,3.85-3.48,7.35-1.52,11.35Z" fill="#0a0a0a"/>
  <path d="m193.21,350.31c1.41-2.47,3.47-2.93,5.88-2.92,16.24.04,32.47.02,48.71.02.7,0,1.41,0,2.1.09,3.05.35,4.41,1.98,4.26,5.04-.12,2.42-2.02,4.2-4.75,4.2-17.09.03-34.19,0-51.28.02-3.21,0-5.64-1.29-4.92-6.46Z" fill="#0a0a0a"/>
  <path d="m242.42,367.52c4.24,8.73-7.32,7.87-12.56,7.83-8.35-.06-16.68.13-25.02-.23-2.34-2.15-3.39-5.54-.74-7.88,2.68-2.36,7.69-1.29,10.99-1.3,8.9-.03,18.94-1.36,27.34,1.58Z" fill="#0a0a0a"/>
  <path d="m344.86,217.64c3.4,9.4-6.62,8.04-13.06,7.76-6.88-.3-19.69,3.66-18.78-6.37.73-.7,1.55-1.49,2.27-2.19,17.05-1.36,26.02-1.14,29.57.8Z" fill="#0a0a0a"/>
  <path d="m311.45,142.15c-4.79,4.14-9.4,8.39-13.93,12.79-3.55,3.45-7.89,8.32-12.38,3.02v-3.56c-.16-.15-.32-.3-.49-.45,5.68-5.3,11.34-10.62,17.03-15.91,4.88-4.54,8.99-3.14,9.34,3.37l.43.75Z" fill="#0a0a0a"/>
  <path d="m132.55,223.35c-4.09,4.82-14.92,2.54-20.49,2.56-5.55.01-12.25,1.38-12.21-5.73,2.2-6.1,15.53-3.37,20.49-3.38,5.09,0,14.34-1.17,12.21,6.55Z" fill="#0a0a0a"/>
  <path d="m155.76,160.71c-6.34-3.64-11.28-9.49-16.49-14.53-2.21-2.15-5.94-4.58-4.53-8.12,1.02-2.56,3.85-3.4,6.26-2.41,2.84,1.17,5.75,5.05,7.93,7.11,2.48,2.34,5,4.65,7.42,7.05,2.81,2.77,7.92,11.36-.6,10.9Z" fill="#0a0a0a"/>
  <path d="m227.33,104.21c-.15,1.39-.28,2.57-.36,3.35.65,3.72.66,7.28.66,11.06,0,3.33.84,7.96-.09,11.18-1.63,5.67-8.21,4.8-9.22-.65-1.22-6.63-.29-15.07.09-21.82.32-5.66,4.99-8.29,8.92-3.12Z" fill="#0a0a0a"/>
  <path d="m376.19,407.07c9.91-1.5,10.58,14.69.27,14.59-9.77-.1-10.49-14.57-.27-14.59Z" fill="#0a0a0a"/>
  <path d="m241.94,326.85c-2.12.23-4.23.45-6.6.71-.88-12.91-1.29-26.72.37-39.58,1.74-13.48,2.31-26.41,5.71-39.71,5.39-.84,13.15-.48,17.04-4.85,3.23-3.63,3.31-10.15.36-13.96-3-3.88-8.5-4.21-12.75-2.13-5.2,2.55-6.87,9.47-8.93,14.34h-28.23c-1.97-4.04-3.96-11.47-8-14.05-4.22-2.69-10.94-1.62-14.04,2.08-3.45,4.12-3.05,9.86.57,13.69,4.47,4.73,10.9,4.42,16.98,4.9,6.3,25.71,6.73,51.97,6.33,78.43-2.68.22-4.73.39-6.79.56-1.51-15.65-1.81-31.92-6.31-47.1-2.04-6.87-4.85-13.2-8.2-19.54-3.14-5.94-7.41-11.21-10.42-17.2-10.39-20.62-4.73-45.95,14.01-60.1,19.82-14.97,49.4-11.67,66.24,5.92,8.29,8.66,12.32,19.43,12.33,31.15.01,13.81-4.98,23.31-11.74,35.13-12.17,21.27-19.12,46.83-17.93,71.31Z" fill="#fbd407"/>
  <path d="m210.52,247.77h24.78c-6.31,26.16-6.26,52.66-6.07,79.29h-12.57c.36-26.54-.51-52.94-6.14-79.29Z" fill="#fbd407"/>
  <path d="m198.12,233.1c1.33,2.58,2.75,5.35,4.17,8.11-3.02,1.49-9.08.78-11.08-2.15-3.46-5.06,2.75-7.74,6.91-5.96Z" fill="#fbd407"/>
  <path d="m252.42,232.25q3.59,3.04,1.75,7.4c-3.3,1.81-6.79,2.89-11.34,1.89,3.47-3.51,2.56-10.17,9.6-9.29Z" fill="#fbd407"/>
</svg>