<?xml version="1.0" encoding="UTF-8"?>
<svg id="Layer_1" data-name="Layer 1" xmlns="http://www.w3.org/2000/svg" width="421.64" height="80.9" viewBox="0 0 421.64 80.9">
  <path d="m320.42,9.66h9.65c0,.62,0,1.21,0,1.8,0,18.58,0,37.15-.02,55.73,0,1.47-.06,2.88,1.84,3.93h-13.68c.49-.55.93-1.05,1.49-1.68-2.99-9.17-6.01-18.43-9.03-27.68-.08,0-.16,0-.24.01v1.71c0,7.76,0,15.53,0,23.29,0,1.57-.33,3.25,1.87,4.39h-13.17c.52-.6.93-1.08,1.35-1.57.1-.46.27-.92.27-1.38.01-15.85.01-31.71,0-47.56,0-.44-.2-.89-.31-1.33h-3.88v-9.85h13.95c3.07,9.53,6.18,19.17,9.29,28.81.12.32.24.63.36.95l.25-.05V9.66Z" fill="#112d4e"/>
  <path d="m251.55,36c-.55.13-1.09.36-1.64.36-4.47.05-8.94.06-13.4.08-.08.02-.17.04-.25.05.07.06.13.12.2.19,2.85,5.36,5.68,10.73,8.54,16.09,2.24,4.19,4.48,8.38,6.77,12.54,1.1,2,2.33,3.94,3.49,5.88h-13.09c.44-.58.86-1.12,1.37-1.78-3.58-6.69-7.19-13.43-10.8-20.16-.1.01-.2.03-.3.04,0,.9,0,1.8,0,2.71,0,4.99.02,9.98-.01,14.97,0,1.56-.16,3.13,1.45,4.21h-12.07c1.94-1.47,1.37-3.53,1.37-5.43.02-15.14.01-30.28,0-45.42,0-.55-.03-1.11-.05-1.66-.1-.08-.2-.17-.3-.25-1.11,0-2.23,0-3.34,0-.08-.07-.17-.1-.28-.09v-8.92c10.77,0,21.51,0,32.25,0,0,2.49,0,4.99,0,7.48.03,6.37.06,12.73.09,19.1Zm-18.74-17.57c-.11.08-.21.17-.32.25.01,2.78.03,5.56.04,8.33,1.06.1,2.13.29,3.19.27,2.23-.03,4.45-.17,6.68-.27.01-2.78.02-5.56.03-8.34-.09-.08-.19-.16-.28-.24-3.11,0-6.22,0-9.34,0Z" fill="#112d4e"/>
  <path d="m374.67,56.01c0,3.77-.05,7.54.05,11.31.04,1.26.5,2.51.78,3.82h-38.4c2.04-1.21,1.8-3.03,1.6-4.67-.54-4.5.91-8.31,3.16-12.17,6.48-11.12,12.67-22.41,18.97-33.65.23-.42.37-.89.55-1.34.01-.05.05-.11.04-.16,0-.03-.07-.08-.11-.08-4.14,0-8.28-.02-12.42,0-.12,0-.24.18-.36.28v4.5h-9.71v-14.38h35.55c.04,3.48.3,6.73-1.63,10.04-7.83,13.47-15.36,27.11-23,40.69-.13.24-.24.5-.36.74.24.21.48.59.72.59,4.64.04,9.28.03,13.92.01.24,0,.48-.17.71-.26,0,0,0,0,0,0,.08-1.78.17-3.57.25-5.35,0,0,.05-.05.05-.05,3.21.04,6.42.08,9.62.12Z" fill="#112d4e"/>
  <path d="m36.23,68.66c.01-.14.03-.28.04-.41.08-.32.16-.63.24-.95.03-.24.06-.48.09-.72.08-.31.16-.63.24-.94.47-2.46.95-4.92,1.42-7.37.08-.32.17-.63.25-.95.03-.24.06-.48.08-.72.08-.32.17-.63.25-.95.03-.24.05-.48.08-.72.08-.32.17-.63.25-.95.03-.24.05-.48.08-.71.08-.32.17-.63.25-.95.03-.24.05-.48.08-.71.08-.32.17-.63.25-.95.03-.24.05-.47.08-.71.08-.32.17-.64.25-.95.03-.24.05-.47.08-.71.09-.32.17-.63.26-.95.03-.24.05-.47.08-.71.09-.32.17-.64.26-.95.03-.24.05-.47.08-.71.09-.32.17-.63.26-.95.03-.24.05-.48.08-.71.09-.32.17-.64.26-.95.03-.23.05-.47.08-.7.09-.32.17-.64.26-.96.03-.23.05-.47.08-.7.09-.32.17-.64.26-.96.03-.23.05-.47.08-.7.09-.32.17-.64.26-.96.03-.23.05-.47.08-.7.09-.32.17-.64.26-.96.02-.23.05-.47.07-.7.09-.32.17-.64.26-.96.03-.23.05-.47.08-.7.09-.32.17-.64.26-.97.03-.23.05-.46.08-.7.07-.22.13-.44.2-.66.05-.33.09-.67.14-1,.09-.32.17-.65.26-.97.03-.23.05-.46.08-.69.09-.32.17-.65.26-.97.03-.23.05-.46.08-.69.09-.32.17-.65.26-.97.02-.23.05-.46.07-.69.07-.22.13-.45.2-.67.07-.37.14-.73.2-1.1.05-.15.1-.3.15-.45.03-.28.05-.56.08-.83.1-.42.19-.83.29-1.25.03-.23.05-.46.08-.69-.02-.3-.03-.6-.05-.9-1.14-.07-2.28-.14-3.41-.2.02-3.12.04-6.25.06-9.37,4.78-.04,9.56-.09,14.33-.1.26,0,.52.38.79.58.08.32.16.63.25.95.03.24.06.48.09.72.08.32.16.63.24.95.01.14.03.28.04.41.1.42.2.83.29,1.25.03.24.06.48.09.72.08.31.16.63.24.94,0,.19.02.39.03.58.09.33.17.65.26.98.03.17.06.35.09.52.1.42.2.83.29,1.25.03.24.07.48.1.72.08.31.16.63.23.94.01.14.03.28.04.42.09.32.17.65.26.97.02.23.05.46.07.69.09.32.17.65.26.97.03.23.05.46.08.69.09.32.17.65.26.97.03.23.05.46.08.7.09.32.17.64.26.97.03.23.05.47.08.7.09.32.17.64.26.96.03.23.05.47.08.7.09.32.17.64.26.96.03.23.05.47.08.7.09.32.17.64.26.96.03.24.05.47.08.71.09.32.17.64.26.96.03.23.05.47.08.7.09.32.17.64.26.96.03.24.05.47.08.71.09.32.17.64.26.96.03.24.05.47.08.71.09.32.17.63.26.95.03.24.05.48.08.71.08.32.17.63.25.95.03.24.05.48.08.71.08.32.17.63.25.95.03.24.05.48.08.72.08.32.17.63.25.95.03.24.06.48.08.72.08.32.17.63.25.95.25,1.35.5,2.7.76,4.04.08.32.16.63.25.95.03.24.06.48.09.72.08.32.16.63.24.95.01.14.03.28.04.41.1.42.2.83.29,1.25.03.24.06.48.09.72.08.31.16.63.24.94,0,.19.02.39.02.58.09.33.17.65.26.98.03.17.06.35.09.52.1.42.19.83.29,1.25.03.24.07.48.1.72.08.31.16.63.24.94.01.14.03.28.04.42.09.32.17.65.26.97.02.23.05.46.07.69.09.32.17.65.26.97.03.23.05.46.08.69.09.32.17.65.26.97.03.23.05.46.08.7.09.32.17.65.26.97.03.23.05.46.08.7.09.32.17.64.26.96.42.84.85,1.69,1.29,2.57h-12.63c2.41-1.8.74-3.9.61-5.88-.08-.32-.17-.64-.25-.96-.02-.24-.05-.47-.07-.71-.08-.32-.17-.64-.25-.96-.04-.22-.08-.45-.12-.67-1.5-.1-3-.29-4.51-.28-1.99,0-3.98.17-5.98.27-.03.11-.06.22-.09.32-.07.23-.14.45-.21.68-.03.24-.06.48-.09.71-.08.31-.17.63-.25.94-.03.24-.06.48-.09.72-.08.31-.17.63-.25.95-.03.24-.06.47-.08.71-.09.32-.17.63-.26.95-.03.23-.05.47-.08.7,0,.4.02.8.03,1.21.42.34.85.69,1.63,1.31h-13.23c.43-.55.84-1.07,1.26-1.59.1-.31.19-.62.29-.93Zm19.79-16.79c0-.25-.02-.5-.03-.75-.05-.27-.09-.54-.14-.82-.09-.32-.17-.63-.26-.95-.03-.24-.05-.48-.08-.71-.08-.32-.17-.63-.25-.95-.14-.79-.28-1.59-.42-2.38-.08-.31-.16-.63-.25-.94-.01-.14-.03-.27-.04-.41-.1-.42-.2-.83-.29-1.25,0-.19-.02-.39-.03-.58-.09-.33-.17-.65-.26-.98l-.08-.69c-.07-.23-.14-.47-.2-.7-.05-.27-.1-.53-.15-.8-.09-.32-.18-.64-.26-.97-.03-.23-.05-.46-.08-.69-.11-.44-.21-.88-.32-1.32-.08.02-.17.03-.25.05,0,.2,0,.4,0,.6-.45,2.35-.91,4.71-1.36,7.06-.08.31-.16.63-.24.94-.03.24-.06.48-.09.73-.1.42-.19.83-.29,1.25-.01.14-.03.28-.04.42-.08.31-.16.63-.23.94-.03.24-.06.49-.1.73-.1.41-.19.83-.29,1.24l-.07.7c0,.41.02.83.03,1.24,2.03,0,4.05-.02,6.08-.03Z" fill="#112d4e"/>
  <path d="m261.18,18.97v-9.49h28.45v9.88c-4.59,0-9.21,0-13.84,0,0,2.2,0,4.4,0,6.6,3.88.03,7.76.11,11.64.04.72-.01,1.42-.67,2.2-1.07v12.31c-.45-.35-.82-.64-1.19-.93-.11-.07-.22-.15-.34-.22-4.09,0-8.19,0-12.28,0-.12.38-.33.76-.34,1.14-.02,7.68-.02,15.35,0,23.03,0,.33.2.66.3,1h13.39c1.05,3.31-1.06,6.93,1.63,9.89h-26.61c.42-.53.84-1.06,1.26-1.58.1-.52.28-1.04.28-1.56.02-15.71.01-31.42,0-47.13,0-.52-.17-1.03-.26-1.55,0,0,0,0,0,0-1.43-.12-2.86-.23-4.29-.35Z" fill="#112d4e"/>
  <path d="m110.22,71.08h-33c1.75-1.2,1.36-2.94,1.36-4.56,0-15.07,0-30.13,0-45.2,0-.61-.03-1.22-.05-1.82-.09-.08-.19-.16-.28-.24h-3.95c0-3.32,0-6.51,0-9.7,11.63,0,23.26-.02,34.89-.02,0,3.21,0,6.42,0,9.63-6.3.02-12.6.03-18.9.07-.57,0-1.14.18-1.7.27,0,0-.12.06-.12.06-.07.37-.2.73-.2,1.1-.01,13.09-.01,26.19,0,39.28,0,.36.14.73.21,1.09,2.48.05,4.96.12,7.45.14,4.32.02,8.64-.01,12.95.03.49,0,.97.38,1.45.58-.04,3.09-.08,6.19-.11,9.28Z" fill="#112d4e"/>
  <path d="m34.03,35.33c-.48.2-.96.58-1.44.59-4.15.05-8.31.03-12.66.03,0,.67,0,1.26,0,1.85,0,9.76,0,19.53,0,29.29,0,1.47-.37,3.06,1.28,4.11h-12.79c1.72-1.13,1.61-2.65,1.6-4.2-.03-15.25-.02-30.51-.02-45.76,0-.6,0-1.2,0-1.93h-3.97v-9.8c.29-.03.55-.08.82-.08,9.1,0,18.2,0,27.3,0,.38,0,.76.08,1.14.12,0,3.2,0,6.41,0,9.61-4.15.04-8.3.09-12.45.13-.93,0-1.86,0-2.86,0v6.77c4.66,0,9.29,0,13.92,0,.03,3.09.07,6.18.1,9.26Z" fill="#112d4e"/>
  <path d="m154.66,21.8c-3.26.01-6.51.03-9.77.04.01-.1-.01-.19-.08-.26,0-.67-.02-1.33-.03-2-.09-.08-.17-.17-.26-.25-1.44,0-2.88-.02-4.32-.02-.09.08-.19.16-.28.24-.02,11.86-.03,23.71-.05,35.57,0,4.27.05,8.53-.03,12.8-.03,1.3.31,2.25,1.37,2.96,0,.1,0,.2,0,.3h-12.64c.51-.64.95-1.21,1.4-1.77.06-.37.18-.73.18-1.1,0-15.89,0-31.78,0-47.66,0-.42-.14-.84-.21-1.27-.13-.02-.26-.04-.39-.06-1.55,0-3.11,0-4.66.01-.09.09-.19.17-.28.26,0,.71,0,1.42,0,2.29-3.3,0-6.51,0-9.73,0,.02-4.14.03-8.28.05-12.41h39.72v12.35Z" fill="#112d4e"/>
  <path d="m213.73,9.5v9.69h-15.42v6.86c4.63,0,9.3,0,13.97,0-.03,3.23-.05,6.47-.07,9.71h-14.01c0,.76,0,1.35,0,1.93,0,9.69,0,19.38,0,29.08,0,1.58-.32,3.26,1.41,4.36h-12.69c.45-.55.87-1.05,1.29-1.56.09-.52.27-1.03.27-1.55.01-15.72.01-31.44,0-47.16,0-.54-.13-1.07-.2-1.61-1.23-.12-2.46-.24-3.71-.37v-9.38h29.16Z" fill="#112d4e"/>
  <path d="m417.52,9.95c-.64,1.02-1.43,1.97-1.88,3.06-3.67,8.87-7.28,17.77-10.87,26.67-.28.69-.38,1.49-.38,2.25-.03,8.43,0,16.85-.03,25.28,0,1.47-.08,2.89,1.91,3.93h-13.2c.51-.6.96-1.13,1.4-1.67.07-.31.19-.62.19-.93.01-9.11.01-18.23,0-27.34,0-.36-.14-.73-.22-1.09-2.83-6.93-5.65-13.86-8.48-20.78-.09-.07-.18-.15-.26-.23-1.22-.02-2.43-.03-3.65-.05-.08-.07-.17-.1-.28-.09v-9.5h10.26c2.46,6.05,4.93,12.12,7.49,18.44,2.3-5.67,4.49-11.08,6.7-16.55-.48-.63-.94-1.23-1.4-1.83,3.66.02,7.32.01,10.97.06.57,0,1.14.23,1.72.36Z" fill="#112d4e"/>
</svg>