<?xml version="1.0" encoding="UTF-8"?>
<svg id="Layer_1" data-name="Layer 1" xmlns="http://www.w3.org/2000/svg" width="421.95" height="297" viewBox="0 0 421.95 297">
  <g>
    <path d="m61.4,290.71v-12.6h7.56v1.08l-.45.45h-5.49v4.41h4.14v1.53h-4.14v5.13h-1.62Z" fill="#4173b0"/>
    <path d="m69.77,288.37v-4.5c0-.68.22-1.25.66-1.68.44-.44,1-.66,1.68-.66h2.7c.68,0,1.24.22,1.68.66.44.44.66,1,.66,1.68v3.24h-5.85v.9c0,.84.42,1.26,1.26,1.26h4.23v1.44h-4.68c-.68,0-1.25-.22-1.68-.66-.44-.44-.66-1-.66-1.68Zm1.53-2.7h4.32v-1.44c0-.84-.42-1.26-1.26-1.26h-1.8c-.84,0-1.26.42-1.26,1.26v1.44Z" fill="#4173b0"/>
    <path d="m79.49,288.37v-4.5c0-.68.22-1.25.66-1.68.44-.44,1-.66,1.68-.66h2.7c.68,0,1.24.22,1.68.66.44.44.66,1,.66,1.68v3.24h-5.85v.9c0,.84.42,1.26,1.26,1.26h4.23v1.44h-4.68c-.68,0-1.25-.22-1.68-.66-.44-.44-.66-1-.66-1.68Zm1.53-2.7h4.32v-1.44c0-.84-.42-1.26-1.26-1.26h-1.8c-.84,0-1.26.42-1.26,1.26v1.44Z" fill="#4173b0"/>
    <path d="m89.21,288.55v-4.5c0-.68.22-1.25.66-1.68.44-.44,1-.66,1.68-.66h3.51v-3.24h1.53v12.24h-1.08l-.27-.99h-.09c-.13.25-.29.45-.47.59-.46.38-.99.58-1.6.58h-1.53c-.68,0-1.25-.22-1.68-.66-.44-.44-.66-1-.66-1.68Zm2.79.9h1.26c.54,0,.98-.17,1.31-.5s.5-.76.5-1.3v-4.5h-3.06c-.84,0-1.26.42-1.26,1.26v3.78c0,.84.42,1.26,1.26,1.26Z" fill="#4173b0"/>
    <path d="m106.12,290.71v-4.32l-3.69-7.47v-.81h1.42l3.08,6.57h.09l2.99-6.57h1.42v.81l-3.69,7.47v4.32h-1.62Z" fill="#4173b0"/>
    <path d="m112.16,288.55v-4.68c0-.68.22-1.25.66-1.68.44-.44,1-.66,1.68-.66h2.88c.68,0,1.25.22,1.68.66.44.44.66,1,.66,1.68v4.68c0,.68-.22,1.25-.66,1.68-.44.44-1,.66-1.68.66h-2.88c-.68,0-1.25-.22-1.68-.66-.44-.44-.66-1-.66-1.68Zm2.79.9h1.98c.84,0,1.26-.42,1.26-1.26v-3.96c0-.84-.42-1.26-1.26-1.26h-1.98c-.84,0-1.26.42-1.26,1.26v3.96c0,.84.42,1.26,1.26,1.26Z" fill="#4173b0"/>
    <path d="m122.14,288.55v-6.84h1.53v6.48c0,.84.42,1.26,1.26,1.26h1.08c.54,0,.97-.17,1.31-.5.33-.33.49-.76.49-1.3v-5.94h1.53v9h-1.08l-.27-.99h-.09c-.13.25-.29.45-.47.59-.46.38-.99.58-1.6.58h-1.35c-.68,0-1.24-.22-1.68-.66-.44-.44-.66-1-.66-1.68Z" fill="#4173b0"/>
    <path d="m132.04,290.71v-9h1.08l.27.99h.09c.14-.25.3-.44.47-.58.47-.4,1-.59,1.6-.59h1.44v1.44h-1.62c-.54,0-.98.17-1.3.5-.33.33-.5.76-.5,1.3v5.94h-1.53Z" fill="#4173b0"/>
    <path d="m142.75,288.01v-7.2c0-.82.25-1.47.74-1.96.49-.49,1.15-.74,1.96-.74h5.4v1.08l-.45.45h-4.59c-.96,0-1.44.51-1.44,1.53v6.48c0,1.02.48,1.53,1.44,1.53h5.04v1.53h-5.4c-.82,0-1.47-.25-1.96-.74-.49-.49-.74-1.15-.74-1.96Z" fill="#4173b0"/>
    <path d="m152.56,288.55v-6.84h1.53v6.48c0,.84.42,1.26,1.26,1.26h1.08c.54,0,.97-.17,1.31-.5.33-.33.49-.76.49-1.3v-5.94h1.53v9h-1.08l-.27-.99h-.09c-.13.25-.29.45-.47.59-.46.38-.99.58-1.6.58h-1.35c-.68,0-1.24-.22-1.68-.66-.44-.44-.66-1-.66-1.68Z" fill="#4173b0"/>
    <path d="m162.46,290.71v-9h1.08l.27.99h.09c.14-.25.3-.44.47-.58.47-.4,1-.59,1.6-.59h1.44v1.44h-1.62c-.54,0-.98.17-1.3.5-.33.33-.5.76-.5,1.3v5.94h-1.53Z" fill="#4173b0"/>
    <path d="m169.03,280.27v-1.98h1.53v1.98h-1.53Zm0,10.44v-9h1.53v9h-1.53Z" fill="#4173b0"/>
    <path d="m173.08,288.55v-4.68c0-.68.22-1.25.66-1.68.44-.44,1-.66,1.68-.66h2.88c.68,0,1.25.22,1.68.66.44.44.66,1,.66,1.68v4.68c0,.68-.22,1.25-.66,1.68-.44.44-1,.66-1.68.66h-2.88c-.68,0-1.25-.22-1.68-.66-.44-.44-.66-1-.66-1.68Zm2.79.9h1.98c.84,0,1.26-.42,1.26-1.26v-3.96c0-.84-.42-1.26-1.26-1.26h-1.98c-.84,0-1.26.42-1.26,1.26v3.96c0,.84.42,1.26,1.26,1.26Z" fill="#4173b0"/>
    <path d="m182.53,290.71v-1.44h4.05c.72,0,1.08-.36,1.08-1.08,0-.55-.36-.91-1.08-1.08l-1.98-.45c-.65-.14-1.16-.41-1.52-.8-.37-.39-.55-.87-.55-1.45v-.36c0-.68.22-1.25.66-1.68.44-.44,1-.66,1.68-.66h3.96v.99l-.45.45h-3.24c-.72,0-1.08.36-1.08,1.08,0,.55.36.91,1.08,1.08l1.98.45c.65.14,1.15.41,1.52.8.37.39.55.87.55,1.45v.36c0,.68-.22,1.25-.66,1.68-.44.44-1,.66-1.68.66h-4.32Z" fill="#4173b0"/>
    <path d="m191.26,280.27v-1.98h1.53v1.98h-1.53Zm0,10.44v-9h1.53v9h-1.53Z" fill="#4173b0"/>
    <path d="m196.03,288.37v-5.22h-1.44v-1.44h1.53l.54-2.7h.9v2.7h2.43v.99l-.45.45h-1.98v4.86c0,.84.42,1.26,1.26,1.26h1.44v1.44h-1.89c-.68,0-1.25-.22-1.68-.66-.44-.44-.66-1-.66-1.68Z" fill="#4173b0"/>
    <path d="m201.88,293.77v-1.44h.99c.36,0,.65-.11.88-.32s.44-.58.65-1.12l.13-.32-3.46-8.05v-.81h1.44l2.7,6.8h.09l2.07-6.8h1.44v.81l-2.97,8.55c-.32.96-.71,1.65-1.16,2.07-.45.42-1.05.63-1.81.63h-.99Z" fill="#4173b0"/>
    <path d="m209.44,292.87v-4.14h1.44v1.62l-.72,2.52h-.72Z" fill="#4173b0"/>
    <path d="m217.9,288.19v-7.56c0-.82.25-1.47.74-1.96s1.15-.74,1.96-.74h3.6c.82,0,1.47.25,1.96.74s.74,1.15.74,1.96v7.56c0,.82-.25,1.47-.74,1.96s-1.15.74-1.96.74h-3.6c-.82,0-1.47-.25-1.96-.74s-.74-1.15-.74-1.96Zm3.06,1.17h2.88c.96,0,1.44-.51,1.44-1.53v-6.84c0-1.02-.48-1.53-1.44-1.53h-2.88c-.96,0-1.44.51-1.44,1.53v6.84c0,1.02.48,1.53,1.44,1.53Z" fill="#4173b0"/>
    <path d="m229.69,290.71v-9h1.08l.27.99h.09c.14-.25.3-.44.47-.58.47-.4,1-.59,1.6-.59h1.35c.68,0,1.25.22,1.68.66.44.44.66,1,.66,1.68v6.84h-1.53v-6.48c0-.84-.42-1.26-1.26-1.26h-1.08c-.54,0-.97.17-1.3.5s-.5.76-.5,1.3v5.94h-1.53Z" fill="#4173b0"/>
    <path d="m239.32,288.37v-4.5c0-.68.22-1.25.66-1.68.44-.44,1-.66,1.68-.66h2.7c.68,0,1.25.22,1.68.66.44.44.66,1,.66,1.68v3.24h-5.85v.9c0,.84.42,1.26,1.26,1.26h4.23v1.44h-4.68c-.68,0-1.25-.22-1.68-.66-.44-.44-.66-1-.66-1.68Zm1.53-2.7h4.32v-1.44c0-.84-.42-1.26-1.26-1.26h-1.8c-.84,0-1.26.42-1.26,1.26v1.44Z" fill="#4173b0"/>
    <path d="m254.08,290.71v-12.6h7.56v1.08l-.45.45h-5.49v4.41h4.14v1.53h-4.14v5.13h-1.62Z" fill="#4173b0"/>
    <path d="m262.18,288.55v-.9c0-.68.22-1.25.66-1.68.44-.44,1-.66,1.68-.66h3.15v-.9c0-.84-.42-1.26-1.26-1.26h-3.51v-1.44h3.96c.68,0,1.24.22,1.68.66.44.44.66,1,.66,1.68v6.66h-1.08l-.27-.99h-.09c-.13.25-.29.45-.47.59-.46.38-.99.58-1.6.58h-1.17c-.68,0-1.25-.22-1.68-.66-.44-.44-.66-1-.66-1.68Zm2.79.9h.9c.54,0,.97-.17,1.3-.5s.5-.76.5-1.3v-.9h-2.7c-.84,0-1.26.42-1.26,1.26v.18c0,.84.42,1.26,1.26,1.26Z" fill="#4173b0"/>
    <path d="m271.63,288.37v-4.32c0-.68.22-1.25.66-1.68.44-.44,1-.66,1.68-.66h3.96v.99l-.45.45h-3.06c-.84,0-1.26.42-1.26,1.26v3.6c0,.84.42,1.26,1.26,1.26h3.51v1.44h-3.96c-.68,0-1.25-.22-1.68-.66-.44-.44-.66-1-.66-1.68Z" fill="#4173b0"/>
    <path d="m280.45,288.37v-5.22h-1.44v-1.44h1.53l.54-2.7h.9v2.7h2.43v.99l-.45.45h-1.98v4.86c0,.84.42,1.26,1.26,1.26h1.44v1.44h-1.89c-.68,0-1.25-.22-1.68-.66-.44-.44-.66-1-.66-1.68Z" fill="#4173b0"/>
    <path d="m290.71,288.55v-.9c0-.68.22-1.25.66-1.68.44-.44,1-.66,1.68-.66h3.15v-.9c0-.84-.42-1.26-1.26-1.26h-3.51v-1.44h3.96c.68,0,1.24.22,1.68.66.44.44.66,1,.66,1.68v6.66h-1.08l-.27-.99h-.09c-.13.25-.29.45-.47.59-.46.38-.99.58-1.6.58h-1.17c-.68,0-1.25-.22-1.68-.66-.44-.44-.66-1-.66-1.68Zm2.79.9h.9c.54,0,.97-.17,1.3-.5s.5-.76.5-1.3v-.9h-2.7c-.84,0-1.26.42-1.26,1.26v.18c0,.84.42,1.26,1.26,1.26Z" fill="#4173b0"/>
    <path d="m300.88,288.37v-5.22h-1.44v-1.44h1.53l.54-2.7h.9v2.7h2.43v.99l-.45.45h-1.98v4.86c0,.84.42,1.26,1.26,1.26h1.44v1.44h-1.89c-.68,0-1.25-.22-1.68-.66-.44-.44-.66-1-.66-1.68Z" fill="#4173b0"/>
    <path d="m311.14,288.55v-.9c0-.68.22-1.25.66-1.68.44-.44,1-.66,1.68-.66h3.15v-.9c0-.84-.42-1.26-1.26-1.26h-3.51v-1.44h3.96c.68,0,1.24.22,1.68.66.44.44.66,1,.66,1.68v6.66h-1.08l-.27-.99h-.09c-.13.25-.29.45-.47.59-.46.38-.99.58-1.6.58h-1.17c-.68,0-1.25-.22-1.68-.66-.44-.44-.66-1-.66-1.68Zm2.79.9h.9c.54,0,.97-.17,1.3-.5s.5-.76.5-1.3v-.9h-2.7c-.84,0-1.26.42-1.26,1.26v.18c0,.84.42,1.26,1.26,1.26Z" fill="#4173b0"/>
    <path d="m327.52,290.71v-11.07h-3.69v-1.53h9v1.08l-.45.45h-3.24v11.07h-1.62Z" fill="#4173b0"/>
    <path d="m334.54,280.27v-1.98h1.53v1.98h-1.53Zm0,10.44v-9h1.53v9h-1.53Z" fill="#4173b0"/>
    <path d="m338.77,290.71v-9h1.08l.27.99h.09c.14-.25.3-.44.47-.58.47-.4,1-.59,1.6-.59h1.17c.55,0,1.04.2,1.46.59.18.16.32.35.43.58h.09c.11-.23.25-.42.43-.58.42-.4.91-.59,1.46-.59h1.62c.68,0,1.25.22,1.68.66.44.44.66,1,.66,1.68v6.84h-1.53v-6.48c0-.84-.42-1.26-1.26-1.26h-1.44c-.84,0-1.26.42-1.26,1.26v6.48h-1.53v-6.48c0-.84-.42-1.26-1.26-1.26h-.9c-.54,0-.97.17-1.3.5s-.5.76-.5,1.3v5.94h-1.53Z" fill="#4173b0"/>
    <path d="m353.71,288.37v-4.5c0-.68.22-1.25.66-1.68s1-.66,1.68-.66h2.7c.68,0,1.25.22,1.68.66s.66,1,.66,1.68v3.24h-5.85v.9c0,.84.42,1.26,1.26,1.26h4.23v1.44h-4.68c-.68,0-1.25-.22-1.68-.66-.44-.44-.66-1-.66-1.68Zm1.53-2.7h4.32v-1.44c0-.84-.42-1.26-1.26-1.26h-1.8c-.84,0-1.26.42-1.26,1.26v1.44Z" fill="#4173b0"/>
  </g>
  <path id="head" d="m188.1,158.32c-.52,0-1.04.02-1.56.03-.47.03-.95.05-1.42.08-.42.04-.85.07-1.27.11-.46.08-.92.17-1.38.25-4.87.74-9.75,1.47-14.62,2.2-.66.1-1.32.15-1.98.22-.47.07-.93.14-1.4.22-4.1.16-8.21.51-12.18-.94-1.03-.38-2.06-.84-3.01-1.39-3.17-1.86-4.35-4.54-3.7-8.15.22-1.25.42-2.51.63-3.76.06-.25.13-.49.19-.74.26-2.59.6-5.17.74-7.76.11-1.97-.59-3.54-2.37-4.79-3.35-2.37-3.1-4.78.41-7.15-1.48-.86-3.05-1.67-4.51-2.64-1.36-.9-1.58-2.04-.77-3.45.58-1.01,1.28-1.94,1.9-2.93,1.21-1.91,1.28-3.68-.45-5.09-2.51-2.05-5.39-3.63-8.01-5.55-1.2-.88-2.14-2.11-3.2-3.18-.07-.24-.15-.49-.22-.73,0-.31.01-.61.02-.92.06-.25.11-.5.17-.75.86-3.3,3.28-5.41,5.68-7.56,5.66-5.07,10.44-10.86,12.09-18.43.79-3.6.38-7.47.52-11.21-.05-.81-.09-1.61-.14-2.42,0-.3,0-.6.01-.91,0-.15.01-.29.02-.44.04-.63.07-1.26.11-1.89.01-.14.03-.29.04-.43.72-12.51,6.14-22.67,15.87-30.38,12.1-9.59,25.86-15.68,41.12-18.31.25-.06.5-.11.75-.17,4.75-.34,9.49-.99,14.24-.95,11.63.1,22.7,2.97,33.26,7.74,9.1,4.11,17.62,9.17,24.57,16.48,8.89,9.34,14.44,20.34,15.97,33.24.06.36.12.72.18,1.07.05.97.1,1.95.16,2.92.05.47.09.95.14,1.42,0,1.19,0,2.39,0,3.58-.05.47-.09.95-.14,1.42-.05.87-.1,1.73-.15,2.6-.07.35-.14.71-.2,1.06-1.37,10.89-5.67,20.55-12.34,29.19-3.35,4.34-6.98,8.48-10.15,12.95-4.16,5.87-6.24,12.47-5.55,19.74.47,4.99,1.81,9.79,3.66,14.44,2.62,6.59,5.27,13.17,7.84,19.78.15.38,1.19,1.17-.17,1.5-.58.06-1.16.12-1.75.18-1.08.05-2.16.11-3.24.16-.15.01-.29.02-.44.03-.18.02-.36.04-.55.06-.15.02-.3.04-.45.06-.2.01-.39.03-.59.04-.13,0-.25.01-.38.02-.76.03-1.52.07-2.27.1-.8.07-1.6.14-2.4.22-2.53.15-5.06.31-7.59.46-.37.04-.73.08-1.1.12-.19.02-.38.03-.57.05-.14,0-.27.02-.41.03-.76.03-1.51.07-2.27.1-.14,0-.27.01-.41.02-.19.01-.38.02-.58.04-.58.06-1.16.12-1.74.18-1.19.06-2.39.13-3.58.19-.26.03-.51.07-.77.11-2.75.17-5.5.33-8.24.5-.69.07-1.38.14-2.06.21-2.53.15-5.07.3-7.6.45-.69.07-1.38.14-2.06.21-4.41.28-8.83.56-13.24.83-.47.05-.94.11-1.41.17-3.53.22-7.07.45-10.78.68-.44-1.38-.96-2.76-1.34-4.18-1.45-5.39-2.89-10.78-4.25-16.19-.5-1.99-1.83-2.97-3.61-3.49-.95-.28-1.96-.34-2.94-.49-.25-.03-.51-.05-.76-.08Zm-6-86.23c-.85,0-1.69-.02-2.54-.02-.14.05-.28.1-.42.14-1.88.34-2.97,1.48-3.34,3.34l-.28.8c-1.36-.35-2.73-.7-4.09-1.06-.03-.15-.06-.3-.09-.45.27-.72.48-1.47.83-2.15,1.28-2.47,2.88-4.58,5.94-4.91l.76-.13,2.24.02c.26.03.51.05.77.08,1.42.04,2.83.07,4.25.11.36-.07.71-.14,1.07-.21.71-.19,1.42-.39,2.23-.61-1.53-3.22-3.49-5.63-6.91-6.49-.25-.06-.49-.13-.74-.19-1.34-.74-.38-2.06-.77-3.04.02-.48.05-.95.07-1.43.57.03,1.14.06,1.71.09.14.05.29.1.43.15,4.75,1.09,7.92,4.18,10.28,8.37,4.27-1.71,6.82-4.83,8.27-8.9.22-.62.04-1.73-.4-2.18-1.83-1.87-3.84-3.57-5.95-5.49.3-.96.73-2.3,1.17-3.69,3.86,1.38,6.76,3.75,8.93,7.13.98-.12,1.92-.15,2.83-.36,2.58-.59,5.15-1.25,7.72-1.88.15-.04.3-.07.45-.11.65-.04,1.31-.08,2.3-.15.65-1.79,1.34-3.68,2.03-5.57.07-.25.14-.49.21-.74.07-.41.13-.83.2-1.24.81.11,1.51.21,2.21.3.24.06.49.12.73.18.53.09,1.07.17,2.05.34-.91,2.68-1.76,5.2-2.63,7.77,2.62,1.56,5.02,3.61,5.95,6.95.1.1.2.2.3.3.85,0,1.71,0,2.56,0,.14.01.28.02.42.03.65.03,1.29.06,1.94.09.13.01.26.02.4.04.19.03.38.05.56.08.31-.08.62-.16.94-.24-.15-3.87,1.16-6.99,4.61-9.11.84,1.31,1.61,2.52,2.41,3.78-1.45,1.99-3.01,3.93-1.94,6.65,5.63,1.52,10.7,3.79,13.38,9.42.12.1.23.2.35.29.3-.02.61-.03.91-.05l.72-.23c2.86-.84,4.99-2.72,6.88-4.96,1.31.93,2.52,1.79,3.81,2.71-3.15,3.79-7.09,6.09-11.15,7.22-.84,4.73-1.61,9.09-2.4,13.52,3.66,1.87,6.83,4.4,7.73,9.03-1.48.48-2.92.94-3.81,1.23-1.8-1.95-3.25-3.65-4.87-5.18-.64-.61-1.56-.96-2.51-.07-2.47,2.31-5.03,4.52-7.55,6.78-1.58,1.42-2.57,3.17-2.85,5.3-.03.14-.06.29-.09.43-.09,4.41-.17,8.81-.26,13.22-.02,1.69-.03,3.39-.05,5.08,0,.3,0,.59-.01.89v.79c-.03.96-.05,1.91-.08,2.87.09.09.18.18.27.28,2.62,0,5.24,0,7.87,0,.12-.08.24-.16.36-.24.04-.75.08-1.51.12-2.26.05-.25.1-.51.15-.76.42-3.01,1.39-5.79,3.09-8.34,2.31-3.47,5.59-5.76,9.09-7.88,5.58-3.37,9.65-8.02,11.03-14.54.39-1.82,1.1-3.27,2.19-4.69,2.29-2.99,3.93-6.29,4.4-10.09.05-.25.1-.5.15-.75,0-.63,0-1.26.01-1.89-.05-.25-.1-.5-.16-.75-.48-1.57-.62-3.39-1.52-4.65-1.62-2.25-2.16-4.61-1.94-7.26,0-.11-.02-.22-.04-.33-.05-.36-.11-.72-.16-1.08-.07-.86-.13-1.72-.2-2.58-.05-.25-.09-.5-.14-.75-.88-2.96-1.5-6.03-2.71-8.84-1.24-2.9-3.55-4.99-6.87-5.4-1.17-.14-1.67-.62-2.18-1.61-3.15-6.16-7.83-10.4-14.92-11.46-.25-.03-.5-.07-.75-.1-1.74,0-3.47,0-5.21,0-.14.03-.28.07-.43.1-.53.06-1.05.12-1.58.18-.25-.04-.49-.08-.74-.12-3.3-2.11-6.7-4-10.61-4.73-.14-.04-.29-.09-.43-.13-.42-.06-.84-.11-1.26-.17-1.13-.02-2.25-.03-3.38-.05-3.59.13-6.19,2.05-8.1,4.48-2.58-.65-4.87-1.23-7.16-1.8-.35-.08-.7-.16-1.06-.23-2.04.04-4.11-.13-6.12.16-4.23.6-7.3,2.98-9.15,6.71-2.07.14-4,.24-5.92.41-7,.6-12.63,5.24-14.18,12.04-.44,1.92-1.27,2.88-2.95,3.84-5.87,3.36-8.34,8.89-9.03,15.38-.06.36-.11.72-.17,1.08,0,1.3.01,2.6.02,3.9.06.25.11.5.17.75.11.59.16,1.2.33,1.77,2.23,7.47,7.9,10.74,15.02,12.23.14.04.29.09.43.13.42.06.84.11,1.25.17.35.06.71.12,1.06.18h5.56c.36-.04.73-.08,1.09-.13.75-.06,1.49-.12,2.24-.18.24-.07.49-.13.73-.2.21-.02.42-.05.63-.07.35-.09.69-.18,1.04-.27,1.16-.29,2.33-.59,3.1-.78,2.25.89,4.23,1.67,6.21,2.45.34.09.69.18,1.03.27.21.03.41.05.62.08.36.07.71.13,1.07.2,1.53,0,3.05.01,4.58.02.36-.07.71-.14,1.07-.2.32-.03.63-.06.95-.09.35-.09.7-.17,1.05-.26,1.28-.15,2.72-.76,3.81-.37,2.9,1.03,5.77,2.28,8.43,3.81,3.2,1.84,5.92,4.28,6.86,8.12.04.25.09.51.13.76v26.88h7.77c0-.71,0-1.31,0-1.91-.03-6.93-.05-13.85-.08-20.78-.02-3.77,1.41-6.88,4.22-9.37,1.04-.92,2.05-1.87,3.18-2.67,4.67-3.32,7.04-7.97,7.98-13.49.07-.35.14-.7.22-1.05.05-.53.09-1.06.14-1.59.04-.58.09-1.16.13-1.74,0-.3,0-.59.01-.89l-.1-.45c-.07-.63-.15-1.25-.22-1.88-.05-.14-.1-.29-.15-.43-.59-2.59-2.11-4.6-4.48-5.61-2.87-1.23-5.91-2.04-8.88-3.04-.24-.07-.48-.14-.73-.22-.41-.05-.83-.1-1.24-.16-.15-.04-.29-.09-.44-.13-1.84.01-3.69.02-5.53.03-.14.05-.28.1-.41.15-2.27,1.06-3.05,3.14-3.67,5.33-.05.14-.1.28-.14.42l-.09,3.55c.08.46.15.92.23,1.39.62,1.87,1.24,3.73,1.92,5.78-.94.74-2.03,1.61-3.54,2.8-1.25-3.39-2.4-6.5-3.66-9.89-.02,0-.5-.06-.97-.13-.15-.02-.3-.05-.45-.07-.18-.01-.37-.03-.55-.04-.47.05-.95.09-1.42.14-.52.06-1.05.11-1.57.17-.14.06-.28.12-.43.18-1.65.83-3.3,1.65-5.23,2.62-.81-.49-1.96-1.19-3.19-1.93,2.66-3.16,5.86-4.89,9.75-5.38.35-.08.71-.15,1.06-.23h3.89c.62-1.39,1.11-2.68,1.77-3.88.69-1.24,1.54-2.39,2.33-3.59-1.88-5.26-5.23-6.94-10.64-5.31-2.1.63-4.21,1.27-6.31,1.9-.25.04-.5.09-.76.13-.57.23-1.14.45-1.7.68-.06.14-.11.29-.17.43-1.83,5.52-5.56,9.27-10.77,11.68-.6.28-1.15.64-1.75.91-1.83.83-3.68,1.64-5.52,2.45-.24.07-.49.13-.73.2-1.43-.01-2.86-.02-4.29-.03-.25-.03-.5-.07-.75-.1Z" fill="#4173b0"/>
  <path d="m320.72,206.78h9.65c0,.62,0,1.21,0,1.8,0,18.58,0,37.15-.02,55.73,0,1.47-.06,2.88,1.84,3.93h-13.68c.49-.55.93-1.05,1.49-1.68-2.99-9.17-6.01-18.43-9.03-27.68-.08,0-.16,0-.24.01v1.71c0,7.76,0,15.53,0,23.29,0,1.57-.33,3.25,1.87,4.39h-13.17c.52-.6.93-1.08,1.35-1.57.1-.46.27-.92.27-1.38.01-15.85.01-31.71,0-47.56,0-.44-.2-.89-.31-1.33h-3.88v-9.85h13.95c3.07,9.53,6.18,19.17,9.29,28.81.12.32.24.63.36.95l.25-.05v-29.52Z" fill="#112d4e"/>
  <path d="m251.86,233.06c-.55.13-1.09.36-1.64.36-4.47.05-8.94.06-13.4.08-.08.02-.17.04-.25.05.07.06.13.12.2.19,2.85,5.36,5.68,10.73,8.54,16.09,2.24,4.19,4.48,8.38,6.77,12.54,1.1,2,2.33,3.94,3.49,5.88h-13.09c.44-.58.86-1.12,1.37-1.78-3.58-6.69-7.19-13.43-10.8-20.16-.1.01-.2.03-.3.04,0,.9,0,1.8,0,2.71,0,4.99.02,9.98-.01,14.97,0,1.56-.16,3.13,1.45,4.21h-12.07c1.94-1.47,1.37-3.53,1.37-5.43.02-15.14.01-30.28,0-45.42,0-.55-.03-1.11-.05-1.66-.1-.08-.2-.17-.3-.25-1.11,0-2.23,0-3.34,0-.08-.07-.17-.1-.28-.09v-8.92c10.77,0,21.51,0,32.25,0,0,2.49,0,4.99,0,7.48.03,6.37.06,12.73.09,19.1Zm-18.74-17.57c-.11.08-.21.17-.32.25.01,2.78.03,5.56.04,8.33,1.06.1,2.13.29,3.19.27,2.23-.03,4.45-.17,6.68-.27.01-2.78.02-5.56.03-8.34-.09-.08-.19-.16-.28-.24-3.11,0-6.22,0-9.34,0Z" fill="#112d4e"/>
  <path d="m374.97,253.1c0,3.77-.05,7.54.05,11.31.04,1.26.5,2.51.78,3.82h-38.4c2.04-1.21,1.8-3.03,1.6-4.67-.54-4.5.91-8.31,3.16-12.17,6.48-11.12,12.67-22.41,18.97-33.65.23-.42.37-.89.55-1.34.01-.05.05-.11.04-.16,0-.03-.07-.08-.11-.08-4.14,0-8.28-.02-12.42,0-.12,0-.24.18-.36.28v4.5h-9.71v-14.38h35.55c.04,3.48.3,6.73-1.63,10.04-7.83,13.47-15.36,27.11-23,40.69-.13.24-.24.5-.36.74.24.21.48.59.72.59,4.64.04,9.28.03,13.92.01.24,0,.48-.17.71-.26,0,0,0,0,0,0,.08-1.78.17-3.57.25-5.35,0,0,.05-.05.05-.05,3.21.04,6.42.08,9.62.12Z" fill="#112d4e"/>
  <path d="m36.54,265.73c.01-.14.03-.28.04-.41.08-.32.16-.63.24-.95.03-.24.06-.48.09-.72.08-.31.16-.63.24-.94.47-2.46.95-4.92,1.42-7.37.08-.32.17-.63.25-.95.03-.24.06-.48.08-.72.08-.32.17-.63.25-.95.03-.24.05-.48.08-.72.08-.32.17-.63.25-.95.03-.24.05-.48.08-.71.08-.32.17-.63.25-.95.03-.24.05-.48.08-.71.08-.32.17-.63.25-.95.03-.24.05-.47.08-.71.08-.32.17-.64.25-.95.03-.24.05-.47.08-.71.09-.32.17-.63.26-.95.03-.24.05-.47.08-.71.09-.32.17-.64.26-.95.03-.24.05-.47.08-.71.09-.32.17-.63.26-.95.03-.24.05-.48.08-.71.09-.32.17-.64.26-.95.03-.23.05-.47.08-.7.09-.32.17-.64.26-.96.03-.23.05-.47.08-.7.09-.32.17-.64.26-.96.03-.23.05-.47.08-.7.09-.32.17-.64.26-.96.03-.23.05-.47.08-.7.09-.32.17-.64.26-.96.02-.23.05-.47.07-.7.09-.32.17-.64.26-.96.03-.23.05-.47.08-.7.09-.32.17-.64.26-.97.03-.23.05-.46.08-.7.07-.22.13-.44.2-.66.05-.33.09-.67.14-1,.09-.32.17-.65.26-.97.03-.23.05-.46.08-.69.09-.32.17-.65.26-.97.03-.23.05-.46.08-.69.09-.32.17-.65.26-.97.02-.23.05-.46.07-.69.07-.22.13-.45.2-.67.07-.37.14-.73.2-1.1.05-.15.1-.3.15-.45.03-.28.05-.56.08-.83.1-.42.19-.83.29-1.25.03-.23.05-.46.08-.69-.02-.3-.03-.6-.05-.9-1.14-.07-2.28-.14-3.41-.2.02-3.12.04-6.25.06-9.37,4.78-.04,9.56-.09,14.33-.1.26,0,.52.38.79.58.08.32.16.63.25.95.03.24.06.48.09.72.08.32.16.63.24.95.01.14.03.28.04.41.1.42.2.83.29,1.25.03.24.06.48.09.72.08.31.16.63.24.94,0,.19.02.39.03.58.09.33.17.65.26.98.03.17.06.35.09.52.1.42.2.83.29,1.25.03.24.07.48.1.72.08.31.16.63.23.94.01.14.03.28.04.42.09.32.17.65.26.97.02.23.05.46.07.69.09.32.17.65.26.97.03.23.05.46.08.69.09.32.17.65.26.97.03.23.05.46.08.7.09.32.17.64.26.97.03.23.05.47.08.7.09.32.17.64.26.96.03.23.05.47.08.7.09.32.17.64.26.96.03.23.05.47.08.7.09.32.17.64.26.96.03.24.05.47.08.71.09.32.17.64.26.96.03.23.05.47.08.7.09.32.17.64.26.96.03.24.05.47.08.71.09.32.17.64.26.96.03.24.05.47.08.71.09.32.17.63.26.95.03.24.05.48.08.71.08.32.17.63.25.95.03.24.05.48.08.71.08.32.17.63.25.95.03.24.05.48.08.72.08.32.17.63.25.95.03.24.06.48.08.72.08.32.17.63.25.95.25,1.35.5,2.7.76,4.04.08.32.16.63.25.95.03.24.06.48.09.72.08.32.16.63.24.95.01.14.03.28.04.41.1.42.2.83.29,1.25.03.24.06.48.09.72.08.31.16.63.24.94,0,.19.02.39.02.58.09.33.17.65.26.98.03.17.06.35.09.52.1.42.19.83.29,1.25.03.24.07.48.1.72.08.31.16.63.24.94.01.14.03.28.04.42.09.32.17.65.26.97.02.23.05.46.07.69.09.32.17.65.26.97.03.23.05.46.08.69.09.32.17.65.26.97.03.23.05.46.08.7.09.32.17.65.26.97.03.23.05.46.08.7.09.32.17.64.26.96.42.84.85,1.69,1.29,2.57h-12.63c2.41-1.8.74-3.9.61-5.88-.08-.32-.17-.64-.25-.96-.02-.24-.05-.47-.07-.71-.08-.32-.17-.64-.25-.96-.04-.22-.08-.45-.12-.67-1.5-.1-3-.29-4.51-.28-1.99,0-3.98.17-5.98.27-.03.11-.06.22-.09.32-.07.23-.14.45-.21.68-.03.24-.06.48-.09.71-.08.31-.17.63-.25.94-.03.24-.06.48-.09.72-.08.31-.17.63-.25.95-.03.24-.06.47-.08.71-.09.32-.17.63-.26.95-.03.23-.05.47-.08.7,0,.4.02.8.03,1.21.42.34.85.69,1.63,1.31h-13.23c.43-.55.84-1.07,1.26-1.59.1-.31.19-.62.29-.93Zm19.79-16.79c0-.25-.02-.5-.03-.75-.05-.27-.09-.54-.14-.82-.09-.32-.17-.63-.26-.95-.03-.24-.05-.48-.08-.71-.08-.32-.17-.63-.25-.95-.14-.79-.28-1.59-.42-2.38-.08-.31-.16-.63-.25-.94-.01-.14-.03-.27-.04-.41-.1-.42-.2-.83-.29-1.25,0-.19-.02-.39-.03-.58-.09-.33-.17-.65-.26-.98l-.08-.69c-.07-.23-.14-.47-.2-.7-.05-.27-.1-.53-.15-.8-.09-.32-.18-.64-.26-.97-.03-.23-.05-.46-.08-.69-.11-.44-.21-.88-.32-1.32-.08.02-.17.03-.25.05,0,.2,0,.4,0,.6-.45,2.35-.91,4.71-1.36,7.06-.08.31-.16.63-.24.94-.03.24-.06.48-.09.73-.1.42-.19.83-.29,1.25-.01.14-.03.28-.04.42-.08.31-.16.63-.23.94-.03.24-.06.49-.1.73-.1.41-.19.83-.29,1.24l-.07.7c0,.41.02.83.03,1.24,2.03,0,4.05-.02,6.08-.03Z" fill="#112d4e"/>
  <path d="m261.48,216.06v-9.49h28.45v9.88c-4.59,0-9.21,0-13.84,0,0,2.2,0,4.4,0,6.6,3.88.03,7.76.11,11.64.04.72-.01,1.42-.67,2.2-1.07v12.31c-.45-.35-.82-.64-1.19-.93-.11-.07-.22-.15-.34-.22-4.09,0-8.19,0-12.28,0-.12.38-.33.76-.34,1.14-.02,7.68-.02,15.35,0,23.03,0,.33.2.66.3,1h13.39c1.05,3.31-1.06,6.93,1.63,9.89h-26.61c.42-.53.84-1.06,1.26-1.58.1-.52.28-1.04.28-1.56.02-15.71.01-31.42,0-47.13,0-.52-.17-1.03-.26-1.55,0,0,0,0,0,0-1.43-.12-2.86-.23-4.29-.35Z" fill="#112d4e"/>
  <path d="m110.52,268.31h-33c1.75-1.2,1.36-2.94,1.36-4.56,0-15.07,0-30.13,0-45.2,0-.61-.03-1.22-.05-1.82-.09-.08-.19-.16-.28-.24h-3.95c0-3.32,0-6.51,0-9.7,11.63,0,23.26-.02,34.89-.02,0,3.21,0,6.42,0,9.63-6.3.02-12.6.03-18.9.07-.57,0-1.14.18-1.7.27,0,0-.12.06-.12.06-.07.37-.2.73-.2,1.1-.01,13.09-.01,26.19,0,39.28,0,.36.14.73.21,1.09,2.48.05,4.96.12,7.45.14,4.32.02,8.64-.01,12.95.03.49,0,.97.38,1.45.58-.04,3.09-.08,6.19-.11,9.28Z" fill="#112d4e"/>
  <path d="m34.34,232.39c-.48.2-.96.58-1.44.59-4.15.05-8.31.03-12.66.03,0,.67,0,1.26,0,1.85,0,9.76,0,19.53,0,29.29,0,1.47-.37,3.06,1.28,4.11h-12.79c1.72-1.13,1.61-2.65,1.6-4.2-.03-15.25-.02-30.51-.02-45.76,0-.6,0-1.2,0-1.93h-3.97v-9.8c.29-.03.55-.08.82-.08,9.1,0,18.2,0,27.3,0,.38,0,.76.08,1.14.12,0,3.2,0,6.41,0,9.61-4.15.04-8.3.09-12.45.13-.93,0-1.86,0-2.86,0v6.77c4.66,0,9.29,0,13.92,0,.03,3.09.07,6.18.1,9.26Z" fill="#112d4e"/>
  <path d="m154.97,218.98c-3.26.01-6.51.03-9.77.04.01-.1-.01-.19-.08-.26,0-.67-.02-1.33-.03-2-.09-.08-.17-.17-.26-.25-1.44,0-2.88-.02-4.32-.02-.09.08-.19.16-.28.24-.02,11.86-.03,23.71-.05,35.57,0,4.27.05,8.53-.03,12.8-.03,1.3.31,2.25,1.37,2.96,0,.1,0,.2,0,.3h-12.64c.51-.64.95-1.21,1.4-1.77.06-.37.18-.73.18-1.1,0-15.89,0-31.78,0-47.66,0-.42-.14-.84-.21-1.27-.13-.02-.26-.04-.39-.06-1.55,0-3.11,0-4.66.01-.09.09-.19.17-.28.26,0,.71,0,1.42,0,2.29-3.3,0-6.51,0-9.73,0,.02-4.14.03-8.28.05-12.41h39.72v12.35Z" fill="#112d4e"/>
  <path d="m214.03,206.64v9.69h-15.42v6.86c4.63,0,9.3,0,13.97,0-.03,3.23-.05,6.47-.07,9.71h-14.01c0,.76,0,1.35,0,1.93,0,9.69,0,19.38,0,29.08,0,1.58-.32,3.26,1.41,4.36h-12.69c.45-.55.87-1.05,1.29-1.56.09-.52.27-1.03.27-1.55.01-15.72.01-31.44,0-47.16,0-.54-.13-1.07-.2-1.61-1.23-.12-2.46-.24-3.71-.37v-9.38h29.16Z" fill="#112d4e"/>
  <path d="m417.83,207.03c-.64,1.02-1.43,1.97-1.88,3.06-3.67,8.87-7.28,17.77-10.87,26.67-.28.69-.38,1.49-.38,2.25-.03,8.43,0,16.85-.03,25.28,0,1.47-.08,2.89,1.91,3.93h-13.2c.51-.6.96-1.13,1.4-1.67.07-.31.19-.62.19-.93.01-9.11.01-18.23,0-27.34,0-.36-.14-.73-.22-1.09-2.83-6.93-5.65-13.86-8.48-20.78-.09-.07-.18-.15-.26-.23-1.22-.02-2.43-.03-3.65-.05-.08-.07-.17-.1-.28-.09v-9.5h10.26c2.46,6.05,4.93,12.12,7.49,18.44,2.3-5.67,4.49-11.08,6.7-16.55-.48-.63-.94-1.23-1.4-1.83,3.66.02,7.32.01,10.97.06.57,0,1.14.23,1.72.36Z" fill="#112d4e"/>
</svg>