<?xml version="1.0" encoding="UTF-8"?>
<svg id="Layer_1" data-name="Layer 1" xmlns="http://www.w3.org/2000/svg" width="421.95" height="297" viewBox="0 0 421.95 297">
  <g>
    <path d="m61.4,290.71v-12.6h7.56v1.08l-.45.45h-5.49v4.41h4.14v1.53h-4.14v5.13h-1.62Z" fill="#f1f8fd"/>
    <path d="m69.77,288.37v-4.5c0-.68.22-1.25.66-1.68.44-.44,1-.66,1.68-.66h2.7c.68,0,1.24.22,1.68.66.44.44.66,1,.66,1.68v3.24h-5.85v.9c0,.84.42,1.26,1.26,1.26h4.23v1.44h-4.68c-.68,0-1.25-.22-1.68-.66-.44-.44-.66-1-.66-1.68Zm1.53-2.7h4.32v-1.44c0-.84-.42-1.26-1.26-1.26h-1.8c-.84,0-1.26.42-1.26,1.26v1.44Z" fill="#f1f8fd"/>
    <path d="m79.49,288.37v-4.5c0-.68.22-1.25.66-1.68.44-.44,1-.66,1.68-.66h2.7c.68,0,1.24.22,1.68.66.44.44.66,1,.66,1.68v3.24h-5.85v.9c0,.84.42,1.26,1.26,1.26h4.23v1.44h-4.68c-.68,0-1.25-.22-1.68-.66-.44-.44-.66-1-.66-1.68Zm1.53-2.7h4.32v-1.44c0-.84-.42-1.26-1.26-1.26h-1.8c-.84,0-1.26.42-1.26,1.26v1.44Z" fill="#f1f8fd"/>
    <path d="m89.21,288.55v-4.5c0-.68.22-1.25.66-1.68.44-.44,1-.66,1.68-.66h3.51v-3.24h1.53v12.24h-1.08l-.27-.99h-.09c-.13.25-.29.45-.47.59-.46.38-.99.58-1.6.58h-1.53c-.68,0-1.25-.22-1.68-.66-.44-.44-.66-1-.66-1.68Zm2.79.9h1.26c.54,0,.98-.17,1.31-.5s.5-.76.5-1.3v-4.5h-3.06c-.84,0-1.26.42-1.26,1.26v3.78c0,.84.42,1.26,1.26,1.26Z" fill="#f1f8fd"/>
    <path d="m106.12,290.71v-4.32l-3.69-7.47v-.81h1.42l3.08,6.57h.09l2.99-6.57h1.42v.81l-3.69,7.47v4.32h-1.62Z" fill="#f1f8fd"/>
    <path d="m112.16,288.55v-4.68c0-.68.22-1.25.66-1.68.44-.44,1-.66,1.68-.66h2.88c.68,0,1.25.22,1.68.66.44.44.66,1,.66,1.68v4.68c0,.68-.22,1.25-.66,1.68-.44.44-1,.66-1.68.66h-2.88c-.68,0-1.25-.22-1.68-.66-.44-.44-.66-1-.66-1.68Zm2.79.9h1.98c.84,0,1.26-.42,1.26-1.26v-3.96c0-.84-.42-1.26-1.26-1.26h-1.98c-.84,0-1.26.42-1.26,1.26v3.96c0,.84.42,1.26,1.26,1.26Z" fill="#f1f8fd"/>
    <path d="m122.14,288.55v-6.84h1.53v6.48c0,.84.42,1.26,1.26,1.26h1.08c.54,0,.97-.17,1.31-.5.33-.33.49-.76.49-1.3v-5.94h1.53v9h-1.08l-.27-.99h-.09c-.13.25-.29.45-.47.59-.46.38-.99.58-1.6.58h-1.35c-.68,0-1.24-.22-1.68-.66-.44-.44-.66-1-.66-1.68Z" fill="#f1f8fd"/>
    <path d="m132.04,290.71v-9h1.08l.27.99h.09c.14-.25.3-.44.47-.58.47-.4,1-.59,1.6-.59h1.44v1.44h-1.62c-.54,0-.98.17-1.3.5-.33.33-.5.76-.5,1.3v5.94h-1.53Z" fill="#f1f8fd"/>
    <path d="m142.75,288.01v-7.2c0-.82.25-1.47.74-1.96.49-.49,1.15-.74,1.96-.74h5.4v1.08l-.45.45h-4.59c-.96,0-1.44.51-1.44,1.53v6.48c0,1.02.48,1.53,1.44,1.53h5.04v1.53h-5.4c-.82,0-1.47-.25-1.96-.74-.49-.49-.74-1.15-.74-1.96Z" fill="#f1f8fd"/>
    <path d="m152.56,288.55v-6.84h1.53v6.48c0,.84.42,1.26,1.26,1.26h1.08c.54,0,.97-.17,1.31-.5.33-.33.49-.76.49-1.3v-5.94h1.53v9h-1.08l-.27-.99h-.09c-.13.25-.29.45-.47.59-.46.38-.99.58-1.6.58h-1.35c-.68,0-1.24-.22-1.68-.66-.44-.44-.66-1-.66-1.68Z" fill="#f1f8fd"/>
    <path d="m162.46,290.71v-9h1.08l.27.99h.09c.14-.25.3-.44.47-.58.47-.4,1-.59,1.6-.59h1.44v1.44h-1.62c-.54,0-.98.17-1.3.5-.33.33-.5.76-.5,1.3v5.94h-1.53Z" fill="#f1f8fd"/>
    <path d="m169.03,280.27v-1.98h1.53v1.98h-1.53Zm0,10.44v-9h1.53v9h-1.53Z" fill="#f1f8fd"/>
    <path d="m173.08,288.55v-4.68c0-.68.22-1.25.66-1.68.44-.44,1-.66,1.68-.66h2.88c.68,0,1.25.22,1.68.66.44.44.66,1,.66,1.68v4.68c0,.68-.22,1.25-.66,1.68-.44.44-1,.66-1.68.66h-2.88c-.68,0-1.25-.22-1.68-.66-.44-.44-.66-1-.66-1.68Zm2.79.9h1.98c.84,0,1.26-.42,1.26-1.26v-3.96c0-.84-.42-1.26-1.26-1.26h-1.98c-.84,0-1.26.42-1.26,1.26v3.96c0,.84.42,1.26,1.26,1.26Z" fill="#f1f8fd"/>
    <path d="m182.53,290.71v-1.44h4.05c.72,0,1.08-.36,1.08-1.08,0-.55-.36-.91-1.08-1.08l-1.98-.45c-.65-.14-1.16-.41-1.52-.8-.37-.39-.55-.87-.55-1.45v-.36c0-.68.22-1.25.66-1.68.44-.44,1-.66,1.68-.66h3.96v.99l-.45.45h-3.24c-.72,0-1.08.36-1.08,1.08,0,.55.36.91,1.08,1.08l1.98.45c.65.14,1.15.41,1.52.8.37.39.55.87.55,1.45v.36c0,.68-.22,1.25-.66,1.68-.44.44-1,.66-1.68.66h-4.32Z" fill="#f1f8fd"/>
    <path d="m191.26,280.27v-1.98h1.53v1.98h-1.53Zm0,10.44v-9h1.53v9h-1.53Z" fill="#f1f8fd"/>
    <path d="m196.03,288.37v-5.22h-1.44v-1.44h1.53l.54-2.7h.9v2.7h2.43v.99l-.45.45h-1.98v4.86c0,.84.42,1.26,1.26,1.26h1.44v1.44h-1.89c-.68,0-1.25-.22-1.68-.66-.44-.44-.66-1-.66-1.68Z" fill="#f1f8fd"/>
    <path d="m201.88,293.77v-1.44h.99c.36,0,.65-.11.88-.32s.44-.58.65-1.12l.13-.32-3.46-8.05v-.81h1.44l2.7,6.8h.09l2.07-6.8h1.44v.81l-2.97,8.55c-.32.96-.71,1.65-1.16,2.07-.45.42-1.05.63-1.81.63h-.99Z" fill="#f1f8fd"/>
    <path d="m209.44,292.87v-4.14h1.44v1.62l-.72,2.52h-.72Z" fill="#f1f8fd"/>
    <path d="m217.9,288.19v-7.56c0-.82.25-1.47.74-1.96s1.15-.74,1.96-.74h3.6c.82,0,1.47.25,1.96.74s.74,1.15.74,1.96v7.56c0,.82-.25,1.47-.74,1.96s-1.15.74-1.96.74h-3.6c-.82,0-1.47-.25-1.96-.74s-.74-1.15-.74-1.96Zm3.06,1.17h2.88c.96,0,1.44-.51,1.44-1.53v-6.84c0-1.02-.48-1.53-1.44-1.53h-2.88c-.96,0-1.44.51-1.44,1.53v6.84c0,1.02.48,1.53,1.44,1.53Z" fill="#f1f8fd"/>
    <path d="m229.69,290.71v-9h1.08l.27.99h.09c.14-.25.3-.44.47-.58.47-.4,1-.59,1.6-.59h1.35c.68,0,1.25.22,1.68.66.44.44.66,1,.66,1.68v6.84h-1.53v-6.48c0-.84-.42-1.26-1.26-1.26h-1.08c-.54,0-.97.17-1.3.5s-.5.76-.5,1.3v5.94h-1.53Z" fill="#f1f8fd"/>
    <path d="m239.32,288.37v-4.5c0-.68.22-1.25.66-1.68.44-.44,1-.66,1.68-.66h2.7c.68,0,1.25.22,1.68.66.44.44.66,1,.66,1.68v3.24h-5.85v.9c0,.84.42,1.26,1.26,1.26h4.23v1.44h-4.68c-.68,0-1.25-.22-1.68-.66-.44-.44-.66-1-.66-1.68Zm1.53-2.7h4.32v-1.44c0-.84-.42-1.26-1.26-1.26h-1.8c-.84,0-1.26.42-1.26,1.26v1.44Z" fill="#f1f8fd"/>
    <path d="m254.08,290.71v-12.6h7.56v1.08l-.45.45h-5.49v4.41h4.14v1.53h-4.14v5.13h-1.62Z" fill="#f1f8fd"/>
    <path d="m262.18,288.55v-.9c0-.68.22-1.25.66-1.68.44-.44,1-.66,1.68-.66h3.15v-.9c0-.84-.42-1.26-1.26-1.26h-3.51v-1.44h3.96c.68,0,1.24.22,1.68.66.44.44.66,1,.66,1.68v6.66h-1.08l-.27-.99h-.09c-.13.25-.29.45-.47.59-.46.38-.99.58-1.6.58h-1.17c-.68,0-1.25-.22-1.68-.66-.44-.44-.66-1-.66-1.68Zm2.79.9h.9c.54,0,.97-.17,1.3-.5s.5-.76.5-1.3v-.9h-2.7c-.84,0-1.26.42-1.26,1.26v.18c0,.84.42,1.26,1.26,1.26Z" fill="#f1f8fd"/>
    <path d="m271.63,288.37v-4.32c0-.68.22-1.25.66-1.68.44-.44,1-.66,1.68-.66h3.96v.99l-.45.45h-3.06c-.84,0-1.26.42-1.26,1.26v3.6c0,.84.42,1.26,1.26,1.26h3.51v1.44h-3.96c-.68,0-1.25-.22-1.68-.66-.44-.44-.66-1-.66-1.68Z" fill="#f1f8fd"/>
    <path d="m280.45,288.37v-5.22h-1.44v-1.44h1.53l.54-2.7h.9v2.7h2.43v.99l-.45.45h-1.98v4.86c0,.84.42,1.26,1.26,1.26h1.44v1.44h-1.89c-.68,0-1.25-.22-1.68-.66-.44-.44-.66-1-.66-1.68Z" fill="#f1f8fd"/>
    <path d="m290.71,288.55v-.9c0-.68.22-1.25.66-1.68.44-.44,1-.66,1.68-.66h3.15v-.9c0-.84-.42-1.26-1.26-1.26h-3.51v-1.44h3.96c.68,0,1.24.22,1.68.66.44.44.66,1,.66,1.68v6.66h-1.08l-.27-.99h-.09c-.13.25-.29.45-.47.59-.46.38-.99.58-1.6.58h-1.17c-.68,0-1.25-.22-1.68-.66-.44-.44-.66-1-.66-1.68Zm2.79.9h.9c.54,0,.97-.17,1.3-.5s.5-.76.5-1.3v-.9h-2.7c-.84,0-1.26.42-1.26,1.26v.18c0,.84.42,1.26,1.26,1.26Z" fill="#f1f8fd"/>
    <path d="m300.88,288.37v-5.22h-1.44v-1.44h1.53l.54-2.7h.9v2.7h2.43v.99l-.45.45h-1.98v4.86c0,.84.42,1.26,1.26,1.26h1.44v1.44h-1.89c-.68,0-1.25-.22-1.68-.66-.44-.44-.66-1-.66-1.68Z" fill="#f1f8fd"/>
    <path d="m311.14,288.55v-.9c0-.68.22-1.25.66-1.68.44-.44,1-.66,1.68-.66h3.15v-.9c0-.84-.42-1.26-1.26-1.26h-3.51v-1.44h3.96c.68,0,1.24.22,1.68.66.44.44.66,1,.66,1.68v6.66h-1.08l-.27-.99h-.09c-.13.25-.29.45-.47.59-.46.38-.99.58-1.6.58h-1.17c-.68,0-1.25-.22-1.68-.66-.44-.44-.66-1-.66-1.68Zm2.79.9h.9c.54,0,.97-.17,1.3-.5s.5-.76.5-1.3v-.9h-2.7c-.84,0-1.26.42-1.26,1.26v.18c0,.84.42,1.26,1.26,1.26Z" fill="#f1f8fd"/>
    <path d="m327.52,290.71v-11.07h-3.69v-1.53h9v1.08l-.45.45h-3.24v11.07h-1.62Z" fill="#f1f8fd"/>
    <path d="m334.54,280.27v-1.98h1.53v1.98h-1.53Zm0,10.44v-9h1.53v9h-1.53Z" fill="#f1f8fd"/>
    <path d="m338.77,290.71v-9h1.08l.27.99h.09c.14-.25.3-.44.47-.58.47-.4,1-.59,1.6-.59h1.17c.55,0,1.04.2,1.46.59.18.16.32.35.43.58h.09c.11-.23.25-.42.43-.58.42-.4.91-.59,1.46-.59h1.62c.68,0,1.25.22,1.68.66.44.44.66,1,.66,1.68v6.84h-1.53v-6.48c0-.84-.42-1.26-1.26-1.26h-1.44c-.84,0-1.26.42-1.26,1.26v6.48h-1.53v-6.48c0-.84-.42-1.26-1.26-1.26h-.9c-.54,0-.97.17-1.3.5s-.5.76-.5,1.3v5.94h-1.53Z" fill="#f1f8fd"/>
    <path d="m353.71,288.37v-4.5c0-.68.22-1.25.66-1.68s1-.66,1.68-.66h2.7c.68,0,1.25.22,1.68.66s.66,1,.66,1.68v3.24h-5.85v.9c0,.84.42,1.26,1.26,1.26h4.23v1.44h-4.68c-.68,0-1.25-.22-1.68-.66-.44-.44-.66-1-.66-1.68Zm1.53-2.7h4.32v-1.44c0-.84-.42-1.26-1.26-1.26h-1.8c-.84,0-1.26.42-1.26,1.26v1.44Z" fill="#f1f8fd"/>
  </g>
  <path id="head" d="m188.1,158.32c-20.44.91-49.53,14.11-40.96-19.64.55-5.23-9.45-7.19-1.96-11.95-12.95-5.2,1.39-8-3.82-14.11-26.96-15.17,3.45-16.86,6.51-37.12-5.73-113.52,200.59-67.77,133.96,33.63-24,24.71-15.84,38.77-4.2,66.91.14.38,1.19,1.17-.17,1.5-25.53,1.79-50.92,3.49-76.47,5.21-2.23-6.67-3.79-13.57-5.58-20.37-.8-3.46-4.41-3.77-7.32-4.07Zm-6-86.23c-3.19-.44-6.12.8-6.59,4.25-1.36-.35-2.73-.7-4.09-1.06,1.33-10.4,11.04-6.23,18-8.25-3.74-9-9.41-3.34-8.34-11.16,5.57.16,9.8,3.88,12.42,8.61,4.27-1.71,6.82-4.83,8.27-8.9.28-3.53-4.23-5.06-6.35-7.67.3-.96.73-2.3,1.17-3.69,3.86,1.38,6.76,3.75,8.93,7.13,4.65-.25,8.6-2.34,13.29-2.5.78-2.42,2.08-4.93,2.43-7.54,1.97.23,2.9.5,4.99.82-.91,2.68-1.76,5.2-2.63,7.77,2.92,1.52,4.91,4.03,6.25,7.25,2.27-.2,4.61.46,6.81,0-.15-3.87,1.16-6.99,4.61-9.11.84,1.31,1.61,2.52,2.41,3.78-1.45,1.99-3.01,3.93-1.94,6.65,5.94,1.44,10.69,4.17,13.73,9.71,3.52-.23,6.31-2.64,8.52-5.23,1.31.93,2.52,1.79,3.81,2.71-3.15,3.79-7.09,6.09-11.15,7.22-.84,4.73-1.61,9.09-2.4,13.52,3.66,1.87,6.83,4.4,7.73,9.03-1.48.48-2.92.94-3.81,1.23-7.81-10.03-7.16-4.29-14.93,1.53-6.04,7.42-1.94,19.51-3.34,28.58.09.09.18.18.27.28,2.62,0,5.24,0,7.87,0,.12-.08.24-.16.36-.24-1.29-17.07,20.94-18.59,23.48-33.78,1.44-5.34,6.35-8.92,6.59-14.78,1.3-5.76-4.3-10.01-3.5-15.63-1.11-6.74-1.71-17.29-10.07-18.66-1.17-.14-1.67-.62-2.18-1.61-4-8.91-13.4-13.11-22.88-11.28-7.1-4.07-18.51-9.06-24.52-.72-8.06-2.52-19.22-4.36-23.49,4.83-8.79-.29-18.19,2.98-20.1,12.44-.44,1.92-1.27,2.88-2.95,3.84-7.51,4.22-9.88,13.05-9.01,21.12,2.44,14.85,20.74,16.56,32.48,12.85,6.62,3.77,13.38,3.08,20.38,2.09,22.48,6.31,13.87,21.6,15.42,39.57h7.77c-.01-7.59-.05-15.11-.09-22.69.69-13.31,17.4-12.56,15.78-31.25.11-7.74-7.89-9.1-13.73-10.96-12.37-3.73-14.49,6.76-10.1,16.14-.94.74-2.03,1.61-3.54,2.8-1.25-3.39-2.4-6.5-3.66-9.89-3.92-.93-7.09,1.04-10.62,2.87-.81-.49-1.96-1.19-3.19-1.93,3.68-4.62,9.18-5.92,14.7-5.6,1.1-2.8,2.37-5.09,4.1-7.47-2.77-9.7-12.71-4.68-19.41-2.6-3.09,9.58-14.21,16.2-23.97,15.55Z" fill="#f1f8fd"/>
  <path d="m320.72,206.78h9.65c0,19.18,0,38.35-.02,57.53,0,1.47-.06,2.88,1.84,3.93h-13.68c.49-.55.93-1.05,1.49-1.68-2.99-9.17-6.01-18.43-9.03-27.68-.08,0-.16,0-.24.01.88,5.52-2.13,27.73,1.87,29.39h-13.17c.86-.98,1.64-1.66,1.62-2.95-.27-16.27.56-32.71-.31-48.89h-3.88v-9.85h13.95c3.22,9.83,6.31,19.86,9.65,29.76l.25-.05v-29.52Z" fill="#f1f8fd"/>
  <path d="m251.86,233.06c-4.98.96-10.24.09-15.3.5,6.47,11.44,12.11,23.47,18.99,34.7h-13.09c.44-.58.86-1.12,1.37-1.78-3.58-6.69-7.19-13.43-10.8-20.16-.1.01-.2.03-.3.04.84,5.77-1.87,17.83,1.44,21.9h-12.07c1.94-1.47,1.37-3.53,1.37-5.43-.03-15.69.1-31.39-.04-47.08-.1-.08-.2-.17-.3-.25-1.11,0-2.23,0-3.34,0-.08-.07-.17-.1-.28-.09v-8.92c10.77,0,21.51,0,32.25,0,0,8.86.06,17.72.1,26.58Zm-18.74-17.57c-.11.08-.21.17-.32.25.01,2.78.03,5.56.04,8.33,3.28.5,6.57.12,9.86,0,.01-2.78.02-5.56.03-8.34-.09-.08-.19-.16-.28-.24-3.11,0-6.22,0-9.34,0Z" fill="#f1f8fd"/>
  <path d="m374.97,253.1c.18,5.08-.61,10.19.83,15.13h-38.4c2.04-1.21,1.8-3.03,1.6-4.67-.37-12.78,16.54-32.87,22.12-45.82.15-.45.73-1.2.48-1.57-4.18.24-8.81-.5-12.78.27v4.5h-9.71v-14.38h35.55c.04,3.48.3,6.73-1.63,10.04-7.92,13.73-15.72,27.55-23.36,41.43,4.47,1.37,10.56.6,15.36.33.08-1.78.17-3.57.25-5.35,0,0,.05-.05.05-.05,3.21.04,6.42.08,9.62.12Z" fill="#f1f8fd"/>
  <path d="m36.54,265.73c3.03-16.57,7.12-32.97,9.68-49.54-1.14-.07-2.28-.14-3.41-.2.02-3.12.04-6.25.06-9.37,4.9.42,10.62-1.05,15.12.48,4.84,20.23,6.99,41.38,13.18,61.15h-12.63c2.92-2.68-.06-6.06-.08-9.18-3.49-.42-6.98-.26-10.48-.02-.57,2.59-1.43,5.22-1.38,7.89.42.34.85.69,1.63,1.31h-13.23c.63-.83,1.36-1.49,1.55-2.52Zm19.79-16.79c-.78-5.33-2.05-10.6-3.13-15.88-.08.02-.17.03-.25.05-.48,5.33-2.53,10.51-2.69,15.85,2.03,0,4.05-.02,6.08-.03Z" fill="#f1f8fd"/>
  <path d="m261.48,216.06v-9.49h28.45v9.88c-4.59,0-9.21,0-13.84,0,0,2.2,0,4.4,0,6.6,3.88.03,7.76.11,11.64.04.72-.01,1.42-.67,2.2-1.07v12.31c-.45-.35-.82-.64-1.19-.93-.11-.07-.22-.15-.34-.22-4.09,0-8.19,0-12.28,0-.12.38-.33.76-.34,1.14-.02,7.68-.02,15.35,0,23.03,0,.33.2.66.3,1h13.39c1.05,3.31-1.06,6.93,1.63,9.89h-26.61c.42-.53.84-1.06,1.26-1.58.1-.52.28-1.04.28-1.56.02-15.71.01-31.42,0-47.13,0-.52-.17-1.03-.26-1.55,0,0,0,0,0,0-1.43-.12-2.86-.23-4.29-.35Z" fill="#f1f8fd"/>
  <path d="m110.52,268.31h-33c1.75-1.2,1.36-2.94,1.36-4.56-.04-15.68.08-31.35-.05-47.03-.09-.08-.19-.16-.28-.24h-3.95c0-3.32,0-6.51,0-9.7,11.63,0,23.26-.02,34.89-.02,0,3.21,0,6.42,0,9.63-6.88.26-13.93-.46-20.73.4-.37,13.75-.4,27.74.01,41.48,7.21.66,14.88-.81,21.85.75-.04,3.09-.08,6.19-.11,9.28Z" fill="#f1f8fd"/>
  <path d="m34.34,232.39c-.48.2-.96.58-1.44.59-4.15.05-8.31.03-12.66.03,0,.67,0,1.26,0,1.85,0,9.76,0,19.53,0,29.29,0,1.47-.37,3.06,1.28,4.11h-12.79c1.72-1.13,1.61-2.65,1.6-4.2-.03-15.25-.02-30.51-.02-45.76,0-.6,0-1.2,0-1.93h-3.97v-9.8c.29-.03.55-.08.82-.08,9.1,0,18.2,0,27.3,0,.38,0,.76.08,1.14.12,0,3.2,0,6.41,0,9.61-4.15.04-8.3.09-12.45.13-.93,0-1.86,0-2.86,0v6.77c4.66,0,9.29,0,13.92,0,.03,3.09.07,6.18.1,9.26Z" fill="#f1f8fd"/>
  <path d="m154.97,218.98c-3.26.01-6.51.03-9.77.04.01-.1-.01-.19-.08-.26,0-.67-.02-1.33-.03-2-.09-.08-.17-.17-.26-.25-1.44,0-2.88-.02-4.32-.02-.09.08-.19.16-.28.24-.02,11.86-.03,23.71-.05,35.57,0,4.27.05,8.53-.03,12.8-.03,1.3.31,2.25,1.37,2.96,0,.1,0,.2,0,.3h-12.64c.51-.64.95-1.21,1.4-1.77.06-.37.18-.73.18-1.1,0-15.89,0-31.78,0-47.66,0-.42-.14-.84-.21-1.27-.13-.02-.26-.04-.39-.06-1.55,0-3.11,0-4.66.01-.09.09-.19.17-.28.26,0,.71,0,1.42,0,2.29-3.3,0-6.51,0-9.73,0,.02-4.14.03-8.28.05-12.41h39.72v12.35Z" fill="#f1f8fd"/>
  <path d="m214.03,206.64v9.69h-15.42v6.86c4.63,0,9.3,0,13.97,0-.03,3.23-.05,6.47-.07,9.71h-14.01c0,10.36,0,20.65,0,31.01,0,1.58-.32,3.26,1.41,4.36h-12.69c.84-.94,1.62-1.81,1.56-3.11-.17-16.25.37-32.56-.2-48.77-1.23-.12-2.46-.24-3.71-.37v-9.38h29.16Z" fill="#f1f8fd"/>
  <path d="m417.83,207.03c-5.36,9.3-8.38,19.91-12.75,29.73-1.03,9.05-.08,18.39-.41,27.53,0,1.47-.07,2.89,1.91,3.93h-13.2c3.76-5.58.64-22.17,1.6-29.93-2.58-7.43-5.75-14.96-8.96-22.1-1.22-.02-2.43-.03-3.65-.05-.08-.07-.17-.1-.28-.09v-9.5h10.26c2.46,6.05,4.93,12.12,7.49,18.44,2.3-5.67,4.49-11.08,6.7-16.55-.48-.63-.94-1.23-1.4-1.83,4.21.22,8.56-.43,12.69.42Z" fill="#f1f8fd"/>
</svg>