<?xml version="1.0" encoding="UTF-8"?>
<svg id="Layer_1" data-name="Layer 1" xmlns="http://www.w3.org/2000/svg" width="503.06" height="80.9" viewBox="0 0 503.06 80.9">
  <path id="head" d="m36.09,62.52c-.18,0-.37,0-.55.01-.17,0-.33.02-.5.03-.15.01-.3.03-.45.04-.16.03-.33.06-.49.09-1.73.26-3.45.52-5.18.78-.23.03-.47.05-.7.08-.17.03-.33.05-.5.08-1.45.06-2.91.18-4.31-.33-.37-.13-.73-.3-1.06-.49-1.12-.66-1.54-1.61-1.31-2.89.08-.44.15-.89.22-1.33.02-.09.05-.17.07-.26.09-.92.21-1.83.26-2.75.04-.7-.21-1.25-.84-1.7-1.18-.84-1.1-1.69.15-2.53-.52-.3-1.08-.59-1.6-.93-.48-.32-.56-.72-.27-1.22.2-.36.45-.69.67-1.04.43-.68.45-1.3-.16-1.8-.89-.72-1.91-1.28-2.84-1.96-.42-.31-.76-.75-1.13-1.12-.03-.09-.05-.17-.08-.26,0-.11,0-.22,0-.32.02-.09.04-.18.06-.27.3-1.17,1.16-1.92,2.01-2.68,2-1.79,3.69-3.84,4.28-6.52.28-1.28.14-2.64.18-3.97-.02-.29-.03-.57-.05-.86,0-.11,0-.21,0-.32,0-.05,0-.1,0-.16.01-.22.03-.45.04-.67,0-.05.01-.1.02-.15.25-4.43,2.17-8.02,5.62-10.75,4.28-3.4,9.15-5.55,14.55-6.48.09-.02.18-.04.26-.06,1.68-.12,3.36-.35,5.04-.34,4.12.04,8.03,1.05,11.77,2.74,3.22,1.45,6.24,3.25,8.7,5.83,3.15,3.31,5.11,7.2,5.65,11.77.02.13.04.25.06.38.02.34.04.69.06,1.03.02.17.03.34.05.5,0,.42,0,.85,0,1.27-.02.17-.03.34-.05.5-.02.31-.04.61-.05.92-.02.13-.05.25-.07.38-.48,3.85-2.01,7.27-4.37,10.33-1.19,1.54-2.47,3-3.59,4.58-1.47,2.08-2.21,4.41-1.97,6.99.17,1.77.64,3.46,1.3,5.11.93,2.33,1.86,4.66,2.78,7,.05.13.42.42-.06.53-.21.02-.41.04-.62.06-.38.02-.76.04-1.15.06-.05,0-.1,0-.16.01-.06,0-.13.01-.19.02-.05,0-.11.01-.16.02-.07,0-.14,0-.21.01-.05,0-.09,0-.14,0-.27.01-.54.02-.81.04-.28.03-.57.05-.85.08-.9.05-1.79.11-2.69.16-.13.01-.26.03-.39.04-.07,0-.13.01-.2.02-.05,0-.1,0-.15,0-.27.01-.53.02-.8.04-.05,0-.1,0-.14,0-.07,0-.14,0-.2.01-.21.02-.41.04-.62.06-.42.02-.85.04-1.27.07-.09.01-.18.02-.27.04-.97.06-1.95.12-2.92.18-.24.02-.49.05-.73.07-.9.05-1.79.11-2.69.16-.24.03-.49.05-.73.08-1.56.1-3.13.2-4.69.3-.17.02-.33.04-.5.06-1.25.08-2.5.16-3.82.24-.16-.49-.34-.98-.47-1.48-.51-1.91-1.02-3.81-1.5-5.73-.18-.7-.65-1.05-1.28-1.24-.33-.1-.69-.12-1.04-.18-.09,0-.18-.02-.27-.03Zm-2.12-30.52c-.3,0-.6,0-.9,0-.05.02-.1.03-.15.05-.67.12-1.05.52-1.18,1.18l-.1.28c-.48-.12-.97-.25-1.45-.37-.01-.05-.02-.11-.03-.16.1-.25.17-.52.29-.76.45-.87,1.02-1.62,2.1-1.74l.27-.05h.79c.09.02.18.03.27.04.5.01,1,.03,1.5.04.13-.03.25-.05.38-.08.25-.07.5-.14.79-.22-.54-1.14-1.24-1.99-2.44-2.3-.09-.02-.17-.05-.26-.07-.47-.26-.14-.73-.27-1.08,0-.17.02-.34.03-.51.2.01.4.02.61.03.05.02.1.04.15.05,1.68.39,2.8,1.48,3.64,2.96,1.51-.61,2.41-1.71,2.93-3.15.08-.22.02-.61-.14-.77-.65-.66-1.36-1.26-2.11-1.94.11-.34.26-.82.41-1.31,1.37.49,2.39,1.33,3.16,2.52.35-.04.68-.05,1-.13.91-.21,1.82-.44,2.73-.67.05-.01.11-.03.16-.04.23-.01.46-.03.81-.05.23-.63.47-1.3.72-1.97.02-.09.05-.17.07-.26.02-.15.05-.29.07-.44.29.04.53.07.78.11.09.02.17.04.26.06.19.03.38.06.73.12-.32.95-.62,1.84-.93,2.75.93.55,1.78,1.28,2.11,2.46.04.04.07.07.11.11.3,0,.6,0,.91,0,.05,0,.1,0,.15.01.23.01.46.02.69.03.05,0,.09,0,.14.01.07,0,.13.02.2.03.11-.03.22-.06.33-.09-.05-1.37.41-2.47,1.63-3.22.3.47.57.89.85,1.34-.51.7-1.07,1.39-.69,2.35,1.99.54,3.79,1.34,4.74,3.33.04.03.08.07.12.1.11,0,.22-.01.32-.02l.25-.08c1.01-.3,1.77-.96,2.44-1.75.46.33.89.63,1.35.96-1.11,1.34-2.51,2.15-3.95,2.56-.3,1.67-.57,3.22-.85,4.79,1.3.66,2.42,1.56,2.73,3.2-.52.17-1.03.33-1.35.43-.64-.69-1.15-1.29-1.72-1.83-.23-.22-.55-.34-.89-.02-.87.82-1.78,1.6-2.67,2.4-.56.5-.91,1.12-1.01,1.88-.01.05-.02.1-.03.15-.03,1.56-.06,3.12-.09,4.68,0,.6-.01,1.2-.02,1.8,0,.1,0,.21,0,.31v.28c-.01.34-.02.68-.03,1.01.03.03.06.07.1.1.93,0,1.86,0,2.78,0,.04-.03.08-.06.13-.08.01-.27.03-.53.04-.8.02-.09.04-.18.05-.27.15-1.06.49-2.05,1.09-2.95.82-1.23,1.98-2.04,3.22-2.79,1.97-1.19,3.42-2.84,3.9-5.15.14-.64.39-1.16.78-1.66.81-1.06,1.39-2.23,1.56-3.57.02-.09.03-.18.05-.27,0-.22,0-.45,0-.67-.02-.09-.04-.18-.06-.27-.17-.56-.22-1.2-.54-1.65-.57-.8-.76-1.63-.69-2.57,0-.04,0-.08-.01-.12-.02-.13-.04-.26-.06-.38-.02-.3-.05-.61-.07-.91-.02-.09-.03-.18-.05-.27-.31-1.05-.53-2.13-.96-3.13-.44-1.03-1.26-1.77-2.43-1.91-.41-.05-.59-.22-.77-.57-1.11-2.18-2.77-3.68-5.28-4.06-.09-.01-.18-.02-.26-.04-.61,0-1.23,0-1.84,0-.05.01-.1.02-.15.04-.19.02-.37.04-.56.06-.09-.01-.17-.03-.26-.04-1.17-.75-2.37-1.42-3.76-1.67-.05-.02-.1-.03-.15-.05-.15-.02-.3-.04-.45-.06-.4,0-.8-.01-1.19-.02-1.27.05-2.19.73-2.87,1.59-.91-.23-1.72-.43-2.53-.64-.12-.03-.25-.06-.37-.08-.72.01-1.46-.05-2.17.05-1.5.21-2.59,1.05-3.24,2.37-.73.05-1.41.09-2.1.14-2.48.21-4.47,1.86-5.02,4.26-.15.68-.45,1.02-1.05,1.36-2.08,1.19-2.95,3.15-3.2,5.44-.02.13-.04.26-.06.38,0,.46,0,.92,0,1.38.02.09.04.18.06.27.04.21.06.43.12.63.79,2.65,2.8,3.8,5.31,4.33.05.02.1.03.15.05.15.02.3.04.44.06.13.02.25.04.38.06h1.97c.13-.01.26-.03.39-.05.26-.02.53-.04.79-.06.09-.02.17-.05.26-.07.07,0,.15-.02.22-.02.12-.03.24-.06.37-.1.41-.1.82-.21,1.1-.28.8.31,1.5.59,2.2.87.12.03.24.06.37.1.07,0,.15.02.22.03.13.02.25.05.38.07.54,0,1.08,0,1.62,0,.13-.02.25-.05.38-.07.11-.01.22-.02.33-.03.12-.03.25-.06.37-.09.45-.05.96-.27,1.35-.13,1.03.36,2.04.81,2.98,1.35,1.13.65,2.1,1.52,2.43,2.88.02.09.03.18.05.27v9.51h2.75c0-.25,0-.46,0-.68,0-2.45-.02-4.9-.03-7.35,0-1.33.5-2.44,1.49-3.32.37-.33.73-.66,1.13-.95,1.65-1.18,2.49-2.82,2.82-4.77.03-.12.05-.25.08-.37.02-.19.03-.38.05-.56.02-.21.03-.41.05-.62,0-.1,0-.21,0-.31l-.03-.16c-.03-.22-.05-.44-.08-.67-.02-.05-.03-.1-.05-.15-.21-.92-.75-1.63-1.58-1.99-1.02-.43-2.09-.72-3.14-1.07-.09-.03-.17-.05-.26-.08-.15-.02-.29-.04-.44-.06-.05-.02-.1-.03-.15-.05-.65,0-1.31,0-1.96.01-.05.02-.1.03-.15.05-.8.37-1.08,1.11-1.3,1.89-.02.05-.03.1-.05.15l-.03,1.26c.03.16.05.33.08.49.22.66.44,1.32.68,2.05-.33.26-.72.57-1.25.99-.44-1.2-.85-2.3-1.3-3.5,0,0-.18-.02-.34-.04-.05,0-.11-.02-.16-.02-.07,0-.13,0-.2-.01-.17.02-.34.03-.5.05-.19.02-.37.04-.56.06-.05.02-.1.04-.15.06-.58.29-1.17.59-1.85.93-.29-.17-.69-.42-1.13-.68.94-1.12,2.07-1.73,3.45-1.9.12-.03.25-.05.37-.08h1.38c.22-.49.39-.95.63-1.37.24-.44.55-.85.82-1.27-.67-1.86-1.85-2.46-3.77-1.88-.74.22-1.49.45-2.23.67-.09.02-.18.03-.27.05-.2.08-.4.16-.6.24-.02.05-.04.1-.06.15-.65,1.95-1.97,3.28-3.81,4.13-.21.1-.41.23-.62.32-.65.29-1.3.58-1.95.87-.09.02-.17.05-.26.07-.51,0-1.01,0-1.52-.01-.09-.01-.18-.02-.27-.04Z" fill="#4173b0"/>
  <path d="m401.83,9.66h9.65c0,.62,0,1.21,0,1.8,0,18.58,0,37.15-.02,55.73,0,1.47-.06,2.88,1.84,3.93h-13.68c.49-.55.93-1.05,1.49-1.68-2.99-9.17-6.01-18.43-9.03-27.68-.08,0-.16,0-.24.01v1.71c0,7.76,0,15.53,0,23.29,0,1.57-.33,3.25,1.87,4.39h-13.17c.52-.6.93-1.08,1.35-1.57.1-.46.27-.92.27-1.38.01-15.85.01-31.71,0-47.56,0-.44-.2-.89-.31-1.33h-3.88v-9.85h13.95c3.07,9.53,6.18,19.17,9.29,28.81.12.32.24.63.36.95l.25-.05V9.66Z" fill="#112d4e"/>
  <path d="m332.97,36c-.55.13-1.09.36-1.64.36-4.47.05-8.94.06-13.4.08-.08.02-.17.04-.25.05.07.06.13.12.2.19,2.85,5.36,5.68,10.73,8.54,16.09,2.24,4.19,4.48,8.38,6.77,12.54,1.1,2,2.33,3.94,3.49,5.88h-13.09c.44-.58.86-1.12,1.37-1.78-3.58-6.69-7.19-13.43-10.8-20.16-.1.01-.2.03-.3.04,0,.9,0,1.8,0,2.71,0,4.99.02,9.98-.01,14.97,0,1.56-.16,3.13,1.45,4.21h-12.07c1.94-1.47,1.37-3.53,1.37-5.43.02-15.14.01-30.28,0-45.42,0-.55-.03-1.11-.05-1.66-.1-.08-.2-.17-.3-.25-1.11,0-2.23,0-3.34,0-.08-.07-.17-.1-.28-.09v-8.92c10.77,0,21.51,0,32.25,0,0,2.49,0,4.99,0,7.48.03,6.37.06,12.73.09,19.1Zm-18.74-17.57c-.11.08-.21.17-.32.25.01,2.78.03,5.56.04,8.33,1.06.1,2.13.29,3.19.27,2.23-.03,4.45-.17,6.68-.27.01-2.78.02-5.56.03-8.34-.09-.08-.19-.16-.28-.24-3.11,0-6.22,0-9.34,0Z" fill="#112d4e"/>
  <path d="m456.08,56.01c0,3.77-.05,7.54.05,11.31.04,1.26.5,2.51.78,3.82h-38.4c2.04-1.21,1.8-3.03,1.6-4.67-.54-4.5.91-8.31,3.16-12.17,6.48-11.12,12.67-22.41,18.97-33.65.23-.42.37-.89.55-1.34.01-.05.05-.11.04-.16,0-.03-.07-.08-.11-.08-4.14,0-8.28-.02-12.42,0-.12,0-.24.18-.36.28v4.5h-9.71v-14.38h35.55c.04,3.48.3,6.73-1.63,10.04-7.83,13.47-15.36,27.11-23,40.69-.13.24-.24.5-.36.74.24.21.48.59.72.59,4.64.04,9.28.03,13.92.01.24,0,.48-.17.71-.26,0,0,0,0,0,0,.08-1.78.17-3.57.25-5.35,0,0,.05-.05.05-.05,3.21.04,6.42.08,9.62.12Z" fill="#112d4e"/>
  <path d="m117.65,68.66c.01-.14.03-.28.04-.41.08-.32.16-.63.24-.95.03-.24.06-.48.09-.72.08-.31.16-.63.24-.94.47-2.46.95-4.92,1.42-7.37.08-.32.17-.63.25-.95.03-.24.06-.48.08-.72.08-.32.17-.63.25-.95.03-.24.05-.48.08-.72.08-.32.17-.63.25-.95.03-.24.05-.48.08-.71.08-.32.17-.63.25-.95.03-.24.05-.48.08-.71.08-.32.17-.63.25-.95.03-.24.05-.47.08-.71.08-.32.17-.64.25-.95.03-.24.05-.47.08-.71.09-.32.17-.63.26-.95.03-.24.05-.47.08-.71.09-.32.17-.64.26-.95.03-.24.05-.47.08-.71.09-.32.17-.63.26-.95.03-.24.05-.48.08-.71.09-.32.17-.64.26-.95.03-.23.05-.47.08-.7.09-.32.17-.64.26-.96.03-.23.05-.47.08-.7.09-.32.17-.64.26-.96.03-.23.05-.47.08-.7.09-.32.17-.64.26-.96.03-.23.05-.47.08-.7.09-.32.17-.64.26-.96.02-.23.05-.47.07-.7.09-.32.17-.64.26-.96.03-.23.05-.47.08-.7.09-.32.17-.64.26-.97.03-.23.05-.46.08-.7.07-.22.13-.44.2-.66.05-.33.09-.67.14-1,.09-.32.17-.65.26-.97.03-.23.05-.46.08-.69.09-.32.17-.65.26-.97.03-.23.05-.46.08-.69.09-.32.17-.65.26-.97.02-.23.05-.46.07-.69.07-.22.13-.45.2-.67.07-.37.14-.73.2-1.1.05-.15.1-.3.15-.45.03-.28.05-.56.08-.83.1-.42.19-.83.29-1.25.03-.23.05-.46.08-.69-.02-.3-.03-.6-.05-.9-1.14-.07-2.28-.14-3.41-.2.02-3.12.04-6.25.06-9.37,4.78-.04,9.56-.09,14.33-.1.26,0,.52.38.79.58.08.32.16.63.25.95.03.24.06.48.09.72.08.32.16.63.24.95.01.14.03.28.04.41.1.42.2.83.29,1.25.03.24.06.48.09.72.08.31.16.63.24.94,0,.19.02.39.03.58.09.33.17.65.26.98.03.17.06.35.09.52.1.42.2.83.29,1.25.03.24.07.48.1.72.08.31.16.63.23.94.01.14.03.28.04.42.09.32.17.65.26.97.02.23.05.46.07.69.09.32.17.65.26.97.03.23.05.46.08.69.09.32.17.65.26.97.03.23.05.46.08.7.09.32.17.64.26.97.03.23.05.47.08.7.09.32.17.64.26.96.03.23.05.47.08.7.09.32.17.64.26.96.03.23.05.47.08.7.09.32.17.64.26.96.03.24.05.47.08.71.09.32.17.64.26.96.03.23.05.47.08.7.09.32.17.64.26.96.03.24.05.47.08.71.09.32.17.64.26.96.03.24.05.47.08.71.09.32.17.63.26.95.03.24.05.48.08.71.08.32.17.63.25.95.03.24.05.48.08.71.08.32.17.63.25.95.03.24.05.48.08.72.08.32.17.63.25.95.03.24.06.48.08.72.08.32.17.63.25.95.25,1.35.5,2.7.76,4.04.08.32.16.63.25.95.03.24.06.48.09.72.08.32.16.63.24.95.01.14.03.28.04.41.1.42.2.83.29,1.25.03.24.06.48.09.72.08.31.16.63.24.94,0,.19.02.39.02.58.09.33.17.65.26.98.03.17.06.35.09.52.1.42.19.83.29,1.25.03.24.07.48.1.72.08.31.16.63.24.94.01.14.03.28.04.42.09.32.17.65.26.97.02.23.05.46.07.69.09.32.17.65.26.97.03.23.05.46.08.69.09.32.17.65.26.97.03.23.05.46.08.7.09.32.17.65.26.97.03.23.05.46.08.7.09.32.17.64.26.96.42.84.85,1.69,1.29,2.57h-12.63c2.41-1.8.74-3.9.61-5.88-.08-.32-.17-.64-.25-.96-.02-.24-.05-.47-.07-.71-.08-.32-.17-.64-.25-.96-.04-.22-.08-.45-.12-.67-1.5-.1-3-.29-4.51-.28-1.99,0-3.98.17-5.98.27-.03.11-.06.22-.09.32-.07.23-.14.45-.21.68-.03.24-.06.48-.09.71-.08.31-.17.63-.25.94-.03.24-.06.48-.09.72-.08.31-.17.63-.25.95-.03.24-.06.47-.08.71-.09.32-.17.63-.26.95-.03.23-.05.47-.08.7,0,.4.02.8.03,1.21.42.34.85.69,1.63,1.31h-13.23c.43-.55.84-1.07,1.26-1.59.1-.31.19-.62.29-.93Zm19.79-16.79c0-.25-.02-.5-.03-.75-.05-.27-.09-.54-.14-.82-.09-.32-.17-.63-.26-.95-.03-.24-.05-.48-.08-.71-.08-.32-.17-.63-.25-.95-.14-.79-.28-1.59-.42-2.38-.08-.31-.16-.63-.25-.94-.01-.14-.03-.27-.04-.41-.1-.42-.2-.83-.29-1.25,0-.19-.02-.39-.03-.58-.09-.33-.17-.65-.26-.98l-.08-.69c-.07-.23-.14-.47-.2-.7-.05-.27-.1-.53-.15-.8-.09-.32-.18-.64-.26-.97-.03-.23-.05-.46-.08-.69-.11-.44-.21-.88-.32-1.32-.08.02-.17.03-.25.05,0,.2,0,.4,0,.6-.45,2.35-.91,4.71-1.36,7.06-.08.31-.16.63-.24.94-.03.24-.06.48-.09.73-.1.42-.19.83-.29,1.25-.01.14-.03.28-.04.42-.08.31-.16.63-.23.94-.03.24-.06.49-.1.73-.1.41-.19.83-.29,1.24l-.07.7c0,.41.02.83.03,1.24,2.03,0,4.05-.02,6.08-.03Z" fill="#112d4e"/>
  <path d="m342.59,18.97v-9.49h28.45v9.88c-4.59,0-9.21,0-13.84,0,0,2.2,0,4.4,0,6.6,3.88.03,7.76.11,11.64.04.72-.01,1.42-.67,2.2-1.07v12.31c-.45-.35-.82-.64-1.19-.93-.11-.07-.22-.15-.34-.22-4.09,0-8.19,0-12.28,0-.12.38-.33.76-.34,1.14-.02,7.68-.02,15.35,0,23.03,0,.33.2.66.3,1h13.39c1.05,3.31-1.06,6.93,1.63,9.89h-26.61c.42-.53.84-1.06,1.26-1.58.1-.52.28-1.04.28-1.56.02-15.71.01-31.42,0-47.13,0-.52-.17-1.03-.26-1.55,0,0,0,0,0,0-1.43-.12-2.86-.23-4.29-.35Z" fill="#112d4e"/>
  <path d="m191.63,71.08h-33c1.75-1.2,1.36-2.94,1.36-4.56,0-15.07,0-30.13,0-45.2,0-.61-.03-1.22-.05-1.82-.09-.08-.19-.16-.28-.24h-3.95c0-3.32,0-6.51,0-9.7,11.63,0,23.26-.02,34.89-.02,0,3.21,0,6.42,0,9.63-6.3.02-12.6.03-18.9.07-.57,0-1.14.18-1.7.27,0,0-.12.06-.12.06-.07.37-.2.73-.2,1.1-.01,13.09-.01,26.19,0,39.28,0,.36.14.73.21,1.09,2.48.05,4.96.12,7.45.14,4.32.02,8.64-.01,12.95.03.49,0,.97.38,1.45.58-.04,3.09-.08,6.19-.11,9.28Z" fill="#112d4e"/>
  <path d="m115.45,35.33c-.48.2-.96.58-1.44.59-4.15.05-8.31.03-12.66.03,0,.67,0,1.26,0,1.85,0,9.76,0,19.53,0,29.29,0,1.47-.37,3.06,1.28,4.11h-12.79c1.72-1.13,1.61-2.65,1.6-4.2-.03-15.25-.02-30.51-.02-45.76,0-.6,0-1.2,0-1.93h-3.97v-9.8c.29-.03.55-.08.82-.08,9.1,0,18.2,0,27.3,0,.38,0,.76.08,1.14.12,0,3.2,0,6.41,0,9.61-4.15.04-8.3.09-12.45.13-.93,0-1.86,0-2.86,0v6.77c4.66,0,9.29,0,13.92,0,.03,3.09.07,6.18.1,9.26Z" fill="#112d4e"/>
  <path d="m236.08,21.8c-3.26.01-6.51.03-9.77.04.01-.1-.01-.19-.08-.26,0-.67-.02-1.33-.03-2-.09-.08-.17-.17-.26-.25-1.44,0-2.88-.02-4.32-.02-.09.08-.19.16-.28.24-.02,11.86-.03,23.71-.05,35.57,0,4.27.05,8.53-.03,12.8-.03,1.3.31,2.25,1.37,2.96,0,.1,0,.2,0,.3h-12.64c.51-.64.95-1.21,1.4-1.77.06-.37.18-.73.18-1.1,0-15.89,0-31.78,0-47.66,0-.42-.14-.84-.21-1.27-.13-.02-.26-.04-.39-.06-1.55,0-3.11,0-4.66.01-.09.09-.19.17-.28.26,0,.71,0,1.42,0,2.29-3.3,0-6.51,0-9.73,0,.02-4.14.03-8.28.05-12.41h39.72v12.35Z" fill="#112d4e"/>
  <path d="m295.14,9.5v9.69h-15.42v6.86c4.63,0,9.3,0,13.97,0-.03,3.23-.05,6.47-.07,9.71h-14.01c0,.76,0,1.35,0,1.93,0,9.69,0,19.38,0,29.08,0,1.58-.32,3.26,1.41,4.36h-12.69c.45-.55.87-1.05,1.29-1.56.09-.52.27-1.03.27-1.55.01-15.72.01-31.44,0-47.16,0-.54-.13-1.07-.2-1.61-1.23-.12-2.46-.24-3.71-.37v-9.38h29.16Z" fill="#112d4e"/>
  <path d="m498.94,9.95c-.64,1.02-1.43,1.97-1.88,3.06-3.67,8.87-7.28,17.77-10.87,26.67-.28.69-.38,1.49-.38,2.25-.03,8.43,0,16.85-.03,25.28,0,1.47-.08,2.89,1.91,3.93h-13.2c.51-.6.96-1.13,1.4-1.67.07-.31.19-.62.19-.93.01-9.11.01-18.23,0-27.34,0-.36-.14-.73-.22-1.09-2.83-6.93-5.65-13.86-8.48-20.78-.09-.07-.18-.15-.26-.23-1.22-.02-2.43-.03-3.65-.05-.08-.07-.17-.1-.28-.09v-9.5h10.26c2.46,6.05,4.93,12.12,7.49,18.44,2.3-5.67,4.49-11.08,6.7-16.55-.48-.63-.94-1.23-1.4-1.83,3.66.02,7.32.01,10.97.06.57,0,1.14.23,1.72.36Z" fill="#112d4e"/>
</svg>