<?xml version="1.0" encoding="UTF-8"?>
<svg id="Layer_1" data-name="Layer 1" xmlns="http://www.w3.org/2000/svg" viewBox="0 0 500 500">
  <g>
    <path d="m239.21,238.08c-9.98-22.1-26.41-34.88-51.86-34.17-16.98.47-33.99.36-50.97-.01-9.99-.21-19.03,6.79-18.93,18.98,1.29,50.72-1.7,101.81,1.26,152.36,1.72,6.8,7.72,10.76,15.09,10.34,14.81-.72,14.15-16.87,14.01-27.88.1-11.81.03-23.62.03-36.06,14.38-.68,27.95-.07,42.24-.33,40.38.29,65.95-47.78,49.13-83.23Zm-36.65,47.7c-2.84,2.64-7.24,4.84-11.02,5-14.59.17-29.18,1.12-43.7-.37-.03-15.68.13-35.76-.05-51.25-.07-3.5,1.27-4.71,4.67-4.69,12.66.11,25.33-.13,37.99.11,22.67.63,29.71,37.69,12.11,51.2Z" fill="#231f20" stroke="#fff" stroke-miterlimit="10"/>
    <path d="m394.65,239.17c-7.27-18.47-26.33-36.64-51.24-35.33-16.45.86-32.98.15-49.47.16-14.46.02-20.34,5.83-20.35,20.13.2,49.32-.41,98.65.24,147.95.65,7.44,6.01,12.91,13.04,13.45,12.82,1.53,17.57-10.27,17.02-21.03.1-14.13.04-28.26.04-43.16,13.72-.01,27.54.05,41.25-.02,40.14.2,64.7-46.91,49.47-82.15Zm-35.77,45.35c-4.05,4.34-8.92,6.66-15.03,6.57-13.26-.36-26.35.36-39.62-.33v-55.83c12.09-1.06,24.01.35,36.07-.55,26.39-2.71,35.2,33.76,18.58,50.14Z" fill="#231f20" stroke="#fff" stroke-miterlimit="10"/>
    <path d="m245.18,111.75c-.74-.47-1.46-.78-2.18-.97h-.01c-1.19-.32-2.35-.3-3.51-.05h-.01c-2.06.45-4.07,1.61-6.03,2.83-.01,0-.02.01-.03.02-1.45.9-2.88,1.84-4.29,2.54-.82.53-.25,3.19-.32,4.87,1.43-.53,2.9-.98,4.38-1.43.07-.02.13-.04.19-.06,2.06-.62,4.12-1.24,6.06-2.09.05-.02.1-.04.15-.06,1.28-.57,2.51-1.25,3.66-2.09.04-.03.08-.07.12-.1.67-.5,1.32-1.07,1.92-1.71-.03-.56-.07-1.13-.1-1.7Zm.09,15.1s-.03-.04-.05-.05c-.04-.05-.08-.09-.12-.13-.16-.2-.35-.39-.54-.57-.01-.01-.02-.01-.02-.02-1.35-1.24-3.17-2.06-5.47-1.99h-.11c-.21,0-.41.01-.62.03-.18.01-.37.03-.55.06-.05.01-.1.01-.15.03-.39.06-.78.16-1.15.28-.2.06-.4.14-.6.22-.2.08-.39.17-.58.27-.04.01-.08.03-.12.06-.15.08-.3.16-.44.25-.18.11-.36.23-.54.35-.11.07-.22.15-.32.23-.02.01-.03.02-.04.03-.04.03-.08.06-.11.09-.24.2-.48.41-.71.63-.16.16-.32.33-.46.5-.07.08-.15.17-.22.26-.16.2-.31.4-.45.61-.16.23-.31.47-.45.72-.18.34-.35.69-.5,1.05-.09.21-.17.43-.24.65-.06.17-.11.33-.15.5-.04.15-.08.3-.11.45-.03.12-.05.24-.07.37-.05.26-.09.52-.12.78.08.22.17.43.26.63.18.4.38.75.6,1.04.08.1.16.2.25.29t.02.02c.61.66,1.33.92,2.13.74.03,0,.06-.02.09-.03.63-.16,1.31-.59,2.01-1.33.03-.02.06-.05.08-.08.14-.15.27-.3.41-.47,2.55-3.49,3.03-3.45,5.77.24,1.37,1.14,2.47,1.63,3.33,1.66.38.01.68-.07.96-.19.02-.02.03-.03.05-.05.62-.35.98-1.06,1.1-1.97.02-.09.03-.18.03-.27v-.02c.14-1.75-.56-4.08-2.08-5.87Zm39.99.26c-.17-.19-.34-.38-.53-.56-.04-.04-.08-.08-.13-.12-.15-.14-.3-.27-.45-.39-.05-.04-.1-.08-.15-.12-.19-.15-.39-.29-.6-.42-.07-.05-.14-.09-.21-.14-.22-.13-.44-.26-.67-.37-.21-.11-.44-.21-.66-.3-.5-.2-1.03-.35-1.57-.46-.24-.05-.49-.09-.74-.11-.3-.03-.61-.04-.92-.04-.26,0-.52.02-.77.05-.19.02-.38.05-.57.09-.2.04-.4.08-.59.13h-.02c-.13.03-.25.07-.37.11-.12.04-.25.09-.37.13-.13.05-.25.1-.38.15-.74.31-1.45.71-2.1,1.19-.12.09-.24.18-.36.28-.23.2-.45.39-.66.6-1.72,1.7-2.72,3.95-2.1,5.99.05.14.11.29.18.44.09.17.18.35.29.52.17.33.41.65.72.95.16.18.33.35.51.49.1.09.2.17.31.24.46.01.88-.06,1.27-.2.21-.09.43-.2.64-.32.01-.01.02-.01.03-.02.08-.05.17-.1.25-.15.1-.06.2-.12.29-.2.52-.41.96-.91,1.36-1.42.06-.08.11-.15.17-.22.05-.07.1-.13.16-.2v-.02l.15-.18s.05-.08.08-.11c0,0-.01,0,0,0,.02-.03.04-.05.07-.07.83-1.04,1.56-1.84,2.57-1.35.01,0,.03.02.05.03.61.32,1.33,1.13,2.23,2.65.73.98,2.31,1.32,3.5,1.96.77-.84,1.27-1.73,1.53-2.62,0-.01.01-.03.01-.04.59-2.09-.06-4.19-1.45-5.84Zm0,0c-.17-.19-.34-.38-.53-.56-.04-.04-.08-.08-.13-.12-.15-.14-.3-.27-.45-.39-.05-.04-.1-.08-.15-.12-.19-.15-.39-.29-.6-.42-.07-.05-.14-.09-.21-.14-.22-.13-.44-.26-.67-.37-.21-.11-.44-.21-.66-.3-.5-.2-1.03-.35-1.57-.46-.24-.05-.49-.09-.74-.11-.3-.03-.61-.04-.92-.04-.26,0-.52.02-.77.05-.19.02-.38.05-.57.09-.2.04-.4.08-.59.13h-.02c-.13.03-.25.07-.37.11-.12.04-.25.09-.37.13-.13.05-.25.1-.38.15-.74.31-1.45.71-2.1,1.19-.12.09-.24.18-.36.28-.23.2-.45.39-.66.6-1.72,1.7-2.72,3.95-2.1,5.99.05.14.11.29.18.44.09.17.18.35.29.52.17.33.41.65.72.95.16.18.33.35.51.49.1.09.2.17.31.24.46.01.88-.06,1.27-.2.21-.09.43-.2.64-.32.01-.01.02-.01.03-.02.08-.05.17-.1.25-.15.1-.06.2-.12.29-.2.52-.41.96-.91,1.36-1.42.06-.08.11-.15.17-.22.05-.07.1-.13.16-.2v-.02l.15-.18s.05-.08.08-.11c0,0-.01,0,0,0,.02-.03.04-.05.07-.07.83-1.04,1.56-1.84,2.57-1.35.01,0,.03.02.05.03.61.32,1.33,1.13,2.23,2.65.73.98,2.31,1.32,3.5,1.96.77-.84,1.27-1.73,1.53-2.62,0-.01.01-.03.01-.04.59-2.09-.06-4.19-1.45-5.84Zm-10.21,19.75c-10.8-.09-21.61-.09-32.41,0-4.67.12-6.89,2.65-6.78,7.31.27,12.14,10.19,21.43,22.96,21.52,16.76,2.34,33.05-26.63,16.23-28.83Zm-15.92,22.44c-9.38.17-15.88-5.78-16.8-15.82h32.84c-.6,9.69-6.78,15.66-16.04,15.82Zm-13.86-42.45s-.03-.04-.05-.05c-.04-.05-.08-.09-.12-.13-.16-.2-.35-.39-.54-.57-.01-.01-.02-.01-.02-.02-1.35-1.24-3.17-2.06-5.47-1.99h-.11c-.21,0-.41.01-.62.03-.18.01-.37.03-.55.06-.05.01-.1.01-.15.03-.39.06-.78.16-1.15.28-.2.06-.4.14-.6.22-.2.08-.39.17-.58.27-.04.01-.08.03-.12.06-.15.08-.3.16-.44.25-.18.11-.36.23-.54.35-.11.07-.22.15-.32.23-.02.01-.03.02-.04.03-.04.03-.08.06-.11.09-.24.2-.48.41-.71.63-.16.16-.32.33-.46.5-.07.08-.15.17-.22.26-.16.2-.31.4-.45.61-.16.23-.31.47-.45.72-.18.34-.35.69-.5,1.05-.09.21-.17.43-.24.65-.06.17-.11.33-.15.5-.04.15-.08.3-.11.45-.03.12-.05.24-.07.37-.05.26-.09.52-.12.78.08.22.17.43.26.63.18.4.38.75.6,1.04.08.1.16.2.25.29t.02.02c.61.66,1.33.92,2.13.74.03,0,.06-.02.09-.03.63-.16,1.31-.59,2.01-1.33.03-.02.06-.05.08-.08.14-.15.27-.3.41-.47,2.55-3.49,3.03-3.45,5.77.24,1.37,1.14,2.47,1.63,3.33,1.66.38.01.68-.07.96-.19.02-.02.03-.03.05-.05.62-.35.98-1.06,1.1-1.97.02-.09.03-.18.03-.27v-.02c.14-1.75-.56-4.08-2.08-5.87Zm-.09-15.1c-.74-.47-1.46-.78-2.18-.97h-.01c-1.19-.32-2.35-.3-3.51-.05h-.01c-2.06.45-4.07,1.61-6.03,2.83-.01,0-.02.01-.03.02-1.45.9-2.88,1.84-4.29,2.54-.82.53-.25,3.19-.32,4.87,1.43-.53,2.9-.98,4.38-1.43.07-.02.13-.04.19-.06,2.06-.62,4.12-1.24,6.06-2.09.05-.02.1-.04.15-.06,1.28-.57,2.51-1.25,3.66-2.09.04-.03.08-.07.12-.1.67-.5,1.32-1.07,1.92-1.71-.03-.56-.07-1.13-.1-1.7Zm0,0c-.74-.47-1.46-.78-2.18-.97h-.01c-1.19-.32-2.35-.3-3.51-.05h-.01c-2.06.45-4.07,1.61-6.03,2.83-.01,0-.02.01-.03.02-1.45.9-2.88,1.84-4.29,2.54-.82.53-.25,3.19-.32,4.87,1.43-.53,2.9-.98,4.38-1.43.07-.02.13-.04.19-.06,2.06-.62,4.12-1.24,6.06-2.09.05-.02.1-.04.15-.06,1.28-.57,2.51-1.25,3.66-2.09.04-.03.08-.07.12-.1.67-.5,1.32-1.07,1.92-1.71-.03-.56-.07-1.13-.1-1.7Zm.09,15.1s-.03-.04-.05-.05c-.04-.05-.08-.09-.12-.13-.16-.2-.35-.39-.54-.57-.01-.01-.02-.01-.02-.02-1.35-1.24-3.17-2.06-5.47-1.99h-.11c-.21,0-.41.01-.62.03-.18.01-.37.03-.55.06-.05.01-.1.01-.15.03-.39.06-.78.16-1.15.28-.2.06-.4.14-.6.22-.2.08-.39.17-.58.27-.04.01-.08.03-.12.06-.15.08-.3.16-.44.25-.18.11-.36.23-.54.35-.11.07-.22.15-.32.23-.02.01-.03.02-.04.03-.04.03-.08.06-.11.09-.24.2-.48.41-.71.63-.16.16-.32.33-.46.5-.07.08-.15.17-.22.26-.16.2-.31.4-.45.61-.16.23-.31.47-.45.72-.18.34-.35.69-.5,1.05-.09.21-.17.43-.24.65-.06.17-.11.33-.15.5-.04.15-.08.3-.11.45-.03.12-.05.24-.07.37-.05.26-.09.52-.12.78.08.22.17.43.26.63.18.4.38.75.6,1.04.08.1.16.2.25.29t.02.02c.61.66,1.33.92,2.13.74.03,0,.06-.02.09-.03.63-.16,1.31-.59,2.01-1.33.03-.02.06-.05.08-.08.14-.15.27-.3.41-.47,2.55-3.49,3.03-3.45,5.77.24,1.37,1.14,2.47,1.63,3.33,1.66.38.01.68-.07.96-.19.02-.02.03-.03.05-.05.62-.35.98-1.06,1.1-1.97.02-.09.03-.18.03-.27v-.02c.14-1.75-.56-4.08-2.08-5.87Zm29.78,20.01c-10.8-.09-21.61-.09-32.41,0-4.67.12-6.89,2.65-6.78,7.31.27,12.14,10.19,21.43,22.96,21.52,16.76,2.34,33.05-26.63,16.23-28.83Zm-15.92,22.44c-9.38.17-15.88-5.78-16.8-15.82h32.84c-.6,9.69-6.78,15.66-16.04,15.82Zm26.13-42.19c-.17-.19-.34-.38-.53-.56-.04-.04-.08-.08-.13-.12-.15-.14-.3-.27-.45-.39-.05-.04-.1-.08-.15-.12-.19-.15-.39-.29-.6-.42-.07-.05-.14-.09-.21-.14-.22-.13-.44-.26-.67-.37-.21-.11-.44-.21-.66-.3-.5-.2-1.03-.35-1.57-.46-.24-.05-.49-.09-.74-.11-.3-.03-.61-.04-.92-.04-.26,0-.52.02-.77.05-.19.02-.38.05-.57.09-.2.04-.4.08-.59.13h-.02c-.13.03-.25.07-.37.11-.12.04-.25.09-.37.13-.13.05-.25.1-.38.15-.74.31-1.45.71-2.1,1.19-.12.09-.24.18-.36.28-.23.2-.45.39-.66.6-1.72,1.7-2.72,3.95-2.1,5.99.05.14.11.29.18.44.09.17.18.35.29.52.17.33.41.65.72.95.16.18.33.35.51.49.1.09.2.17.31.24.46.01.88-.06,1.27-.2.21-.09.43-.2.64-.32.01-.01.02-.01.03-.02.08-.05.17-.1.25-.15.1-.06.2-.12.29-.2.52-.41.96-.91,1.36-1.42.06-.08.11-.15.17-.22.05-.07.1-.13.16-.2v-.02l.15-.18s.05-.08.08-.11c0,0-.01,0,0,0,.02-.03.04-.05.07-.07.83-1.04,1.56-1.84,2.57-1.35.01,0,.03.02.05.03.61.32,1.33,1.13,2.23,2.65.73.98,2.31,1.32,3.5,1.96.77-.84,1.27-1.73,1.53-2.62,0-.01.01-.03.01-.04.59-2.09-.06-4.19-1.45-5.84Zm0,0c-.17-.19-.34-.38-.53-.56-.04-.04-.08-.08-.13-.12-.15-.14-.3-.27-.45-.39-.05-.04-.1-.08-.15-.12-.19-.15-.39-.29-.6-.42-.07-.05-.14-.09-.21-.14-.22-.13-.44-.26-.67-.37-.21-.11-.44-.21-.66-.3-.5-.2-1.03-.35-1.57-.46-.24-.05-.49-.09-.74-.11-.3-.03-.61-.04-.92-.04-.26,0-.52.02-.77.05-.19.02-.38.05-.57.09-.2.04-.4.08-.59.13h-.02c-.13.03-.25.07-.37.11-.12.04-.25.09-.37.13-.13.05-.25.1-.38.15-.74.31-1.45.71-2.1,1.19-.12.09-.24.18-.36.28-.23.2-.45.39-.66.6-1.72,1.7-2.72,3.95-2.1,5.99.05.14.11.29.18.44.09.17.18.35.29.52.17.33.41.65.72.95.16.18.33.35.51.49.1.09.2.17.31.24.46.01.88-.06,1.27-.2.21-.09.43-.2.64-.32.01-.01.02-.01.03-.02.08-.05.17-.1.25-.15.1-.06.2-.12.29-.2.52-.41.96-.91,1.36-1.42.06-.08.11-.15.17-.22.05-.07.1-.13.16-.2v-.02l.15-.18s.05-.08.08-.11c0,0-.01,0,0,0,.02-.03.04-.05.07-.07.83-1.04,1.56-1.84,2.57-1.35.01,0,.03.02.05.03.61.32,1.33,1.13,2.23,2.65.73.98,2.31,1.32,3.5,1.96.77-.84,1.27-1.73,1.53-2.62,0-.01.01-.03.01-.04.59-2.09-.06-4.19-1.45-5.84Zm-10.21,19.75c-10.8-.09-21.61-.09-32.41,0-4.67.12-6.89,2.65-6.78,7.31.27,12.14,10.19,21.43,22.96,21.52,16.76,2.34,33.05-26.63,16.23-28.83Zm-15.92,22.44c-9.38.17-15.88-5.78-16.8-15.82h32.84c-.6,9.69-6.78,15.66-16.04,15.82Zm-13.86-42.45s-.03-.04-.05-.05c-.04-.05-.08-.09-.12-.13-.16-.2-.35-.39-.54-.57-.01-.01-.02-.01-.02-.02-1.35-1.24-3.17-2.06-5.47-1.99h-.11c-.21,0-.41.01-.62.03-.18.01-.37.03-.55.06-.05.01-.1.01-.15.03-.39.06-.78.16-1.15.28-.2.06-.4.14-.6.22-.2.08-.39.17-.58.27-.04.01-.08.03-.12.06-.15.08-.3.16-.44.25-.18.11-.36.23-.54.35-.11.07-.22.15-.32.23-.02.01-.03.02-.04.03-.04.03-.08.06-.11.09-.24.2-.48.41-.71.63-.16.16-.32.33-.46.5-.07.08-.15.17-.22.26-.16.2-.31.4-.45.61-.16.23-.31.47-.45.72-.18.34-.35.69-.5,1.05-.09.21-.17.43-.24.65-.06.17-.11.33-.15.5-.04.15-.08.3-.11.45-.03.12-.05.24-.07.37-.05.26-.09.52-.12.78.08.22.17.43.26.63.18.4.38.75.6,1.04.08.1.16.2.25.29t.02.02c.61.66,1.33.92,2.13.74.03,0,.06-.02.09-.03.63-.16,1.31-.59,2.01-1.33.03-.02.06-.05.08-.08.14-.15.27-.3.41-.47,2.55-3.49,3.03-3.45,5.77.24,1.37,1.14,2.47,1.63,3.33,1.66.38.01.68-.07.96-.19.02-.02.03-.03.05-.05.62-.35.98-1.06,1.1-1.97.02-.09.03-.18.03-.27v-.02c.14-1.75-.56-4.08-2.08-5.87Zm-.09-15.1c-.74-.47-1.46-.78-2.18-.97h-.01c-1.19-.32-2.35-.3-3.51-.05h-.01c-2.06.45-4.07,1.61-6.03,2.83-.01,0-.02.01-.03.02-1.45.9-2.88,1.84-4.29,2.54-.82.53-.25,3.19-.32,4.87,1.43-.53,2.9-.98,4.38-1.43.07-.02.13-.04.19-.06,2.06-.62,4.12-1.24,6.06-2.09.05-.02.1-.04.15-.06,1.28-.57,2.51-1.25,3.66-2.09.04-.03.08-.07.12-.1.67-.5,1.32-1.07,1.92-1.71-.03-.56-.07-1.13-.1-1.7Zm0,0c-.74-.47-1.46-.78-2.18-.97h-.01c-1.19-.32-2.35-.3-3.51-.05h-.01c-2.06.45-4.07,1.61-6.03,2.83-.01,0-.02.01-.03.02-1.45.9-2.88,1.84-4.29,2.54-.82.53-.25,3.19-.32,4.87,1.43-.53,2.9-.98,4.38-1.43.07-.02.13-.04.19-.06,2.06-.62,4.12-1.24,6.06-2.09.05-.02.1-.04.15-.06,1.28-.57,2.51-1.25,3.66-2.09.04-.03.08-.07.12-.1.67-.5,1.32-1.07,1.92-1.71-.03-.56-.07-1.13-.1-1.7Zm.09,15.1s-.03-.04-.05-.05c-.04-.05-.08-.09-.12-.13-.16-.2-.35-.39-.54-.57-.01-.01-.02-.01-.02-.02-1.35-1.24-3.17-2.06-5.47-1.99h-.11c-.21,0-.41.01-.62.03-.18.01-.37.03-.55.06-.05.01-.1.01-.15.03-.39.06-.78.16-1.15.28-.2.06-.4.14-.6.22-.2.08-.39.17-.58.27-.04.01-.08.03-.12.06-.15.08-.3.16-.44.25-.18.11-.36.23-.54.35-.11.07-.22.15-.32.23-.02.01-.03.02-.04.03-.04.03-.08.06-.11.09-.24.2-.48.41-.71.63-.16.16-.32.33-.46.5-.07.08-.15.17-.22.26-.16.2-.31.4-.45.61-.16.23-.31.47-.45.72-.18.34-.35.69-.5,1.05-.09.21-.17.43-.24.65-.06.17-.11.33-.15.5-.04.15-.08.3-.11.45-.03.12-.05.24-.07.37-.05.26-.09.52-.12.78.08.22.17.43.26.63.18.4.38.75.6,1.04.08.1.16.2.25.29t.02.02c.61.66,1.33.92,2.13.74.03,0,.06-.02.09-.03.63-.16,1.31-.59,2.01-1.33.03-.02.06-.05.08-.08.14-.15.27-.3.41-.47,2.55-3.49,3.03-3.45,5.77.24,1.37,1.14,2.47,1.63,3.33,1.66.38.01.68-.07.96-.19.02-.02.03-.03.05-.05.62-.35.98-1.06,1.1-1.97.02-.09.03-.18.03-.27v-.02c.14-1.75-.56-4.08-2.08-5.87Zm29.78,20.01c-10.8-.09-21.61-.09-32.41,0-4.67.12-6.89,2.65-6.78,7.31.27,12.14,10.19,21.43,22.96,21.52,16.76,2.34,33.05-26.63,16.23-28.83Zm-15.92,22.44c-9.38.17-15.88-5.78-16.8-15.82h32.84c-.6,9.69-6.78,15.66-16.04,15.82Zm26.13-42.19c-.17-.19-.34-.38-.53-.56-.04-.04-.08-.08-.13-.12-.15-.14-.3-.27-.45-.39-.05-.04-.1-.08-.15-.12-.19-.15-.39-.29-.6-.42-.07-.05-.14-.09-.21-.14-.22-.13-.44-.26-.67-.37-.21-.11-.44-.21-.66-.3-.5-.2-1.03-.35-1.57-.46-.24-.05-.49-.09-.74-.11-.3-.03-.61-.04-.92-.04-.26,0-.52.02-.77.05-.19.02-.38.05-.57.09-.2.04-.4.08-.59.13h-.02c-.13.03-.25.07-.37.11-.12.04-.25.09-.37.13-.13.05-.25.1-.38.15-.74.31-1.45.71-2.1,1.19-.12.09-.24.18-.36.28-.23.2-.45.39-.66.6-1.72,1.7-2.72,3.95-2.1,5.99.05.14.11.29.18.44.09.17.18.35.29.52.17.33.41.65.72.95.16.18.33.35.51.49.1.09.2.17.31.24.46.01.88-.06,1.27-.2.21-.09.43-.2.64-.32.01-.01.02-.01.03-.02.08-.05.17-.1.25-.15.1-.06.2-.12.29-.2.52-.41.96-.91,1.36-1.42.06-.08.11-.15.17-.22.05-.07.1-.13.16-.2v-.02l.15-.18s.05-.08.08-.11c0,0-.01,0,0,0,.02-.03.04-.05.07-.07.83-1.04,1.56-1.84,2.57-1.35.01,0,.03.02.05.03.61.32,1.33,1.13,2.23,2.65.73.98,2.31,1.32,3.5,1.96.77-.84,1.27-1.73,1.53-2.62,0-.01.01-.03.01-.04.59-2.09-.06-4.19-1.45-5.84Zm0,0c-.17-.19-.34-.38-.53-.56-.04-.04-.08-.08-.13-.12-.15-.14-.3-.27-.45-.39-.05-.04-.1-.08-.15-.12-.19-.15-.39-.29-.6-.42-.07-.05-.14-.09-.21-.14-.22-.13-.44-.26-.67-.37-.21-.11-.44-.21-.66-.3-.5-.2-1.03-.35-1.57-.46-.24-.05-.49-.09-.74-.11-.3-.03-.61-.04-.92-.04-.26,0-.52.02-.77.05-.19.02-.38.05-.57.09-.2.04-.4.08-.59.13h-.02c-.13.03-.25.07-.37.11-.12.04-.25.09-.37.13-.13.05-.25.1-.38.15-.74.31-1.45.71-2.1,1.19-.12.09-.24.18-.36.28-.23.2-.45.39-.66.6-1.72,1.7-2.72,3.95-2.1,5.99.05.14.11.29.18.44.09.17.18.35.29.52.17.33.41.65.72.95.16.18.33.35.51.49.1.09.2.17.31.24.46.01.88-.06,1.27-.2.21-.09.43-.2.64-.32.01-.01.02-.01.03-.02.08-.05.17-.1.25-.15.1-.06.2-.12.29-.2.52-.41.96-.91,1.36-1.42.06-.08.11-.15.17-.22.05-.07.1-.13.16-.2v-.02l.15-.18s.05-.08.08-.11c0,0-.01,0,0,0,.02-.03.04-.05.07-.07.83-1.04,1.56-1.84,2.57-1.35.01,0,.03.02.05.03.61.32,1.33,1.13,2.23,2.65.73.98,2.31,1.32,3.5,1.96.77-.84,1.27-1.73,1.53-2.62,0-.01.01-.03.01-.04.59-2.09-.06-4.19-1.45-5.84Zm-10.21,19.75c-10.8-.09-21.61-.09-32.41,0-4.67.12-6.89,2.65-6.78,7.31.27,12.14,10.19,21.43,22.96,21.52,16.76,2.34,33.05-26.63,16.23-28.83Zm-15.92,22.44c-9.38.17-15.88-5.78-16.8-15.82h32.84c-.6,9.69-6.78,15.66-16.04,15.82Zm-13.86-42.45s-.03-.04-.05-.05c-.04-.05-.08-.09-.12-.13-.16-.2-.35-.39-.54-.57-.01-.01-.02-.01-.02-.02-1.35-1.24-3.17-2.06-5.47-1.99h-.11c-.21,0-.41.01-.62.03-.18.01-.37.03-.55.06-.05.01-.1.01-.15.03-.39.06-.78.16-1.15.28-.2.06-.4.14-.6.22-.2.08-.39.17-.58.27-.04.01-.08.03-.12.06-.15.08-.3.16-.44.25-.18.11-.36.23-.54.35-.11.07-.22.15-.32.23-.02.01-.03.02-.04.03-.04.03-.08.06-.11.09-.24.2-.48.41-.71.63-.16.16-.32.33-.46.5-.07.08-.15.17-.22.26-.16.2-.31.4-.45.61-.16.23-.31.47-.45.72-.18.34-.35.69-.5,1.05-.09.21-.17.43-.24.65-.06.17-.11.33-.15.5-.04.15-.08.3-.11.45-.03.12-.05.24-.07.37-.05.26-.09.52-.12.78.08.22.17.43.26.63.18.4.38.75.6,1.04.08.1.16.2.25.29t.02.02c.61.66,1.33.92,2.13.74.03,0,.06-.02.09-.03.63-.16,1.31-.59,2.01-1.33.03-.02.06-.05.08-.08.14-.15.27-.3.41-.47,2.55-3.49,3.03-3.45,5.77.24,1.37,1.14,2.47,1.63,3.33,1.66.38.01.68-.07.96-.19.02-.02.03-.03.05-.05.62-.35.98-1.06,1.1-1.97.02-.09.03-.18.03-.27v-.02c.14-1.75-.56-4.08-2.08-5.87Zm-.09-15.1c-.74-.47-1.46-.78-2.18-.97h-.01c-1.19-.32-2.35-.3-3.51-.05h-.01c-2.06.45-4.07,1.61-6.03,2.83-.01,0-.02.01-.03.02-1.45.9-2.88,1.84-4.29,2.54-.82.53-.25,3.19-.32,4.87,1.43-.53,2.9-.98,4.38-1.43.07-.02.13-.04.19-.06,2.06-.62,4.12-1.24,6.06-2.09.05-.02.1-.04.15-.06,1.28-.57,2.51-1.25,3.66-2.09.04-.03.08-.07.12-.1.67-.5,1.32-1.07,1.92-1.71-.03-.56-.07-1.13-.1-1.7Zm0,0c-.74-.47-1.46-.78-2.18-.97h-.01c-1.19-.32-2.35-.3-3.51-.05h-.01c-2.06.45-4.07,1.61-6.03,2.83-.01,0-.02.01-.03.02-1.45.9-2.88,1.84-4.29,2.54-.82.53-.25,3.19-.32,4.87,1.43-.53,2.9-.98,4.38-1.43.07-.02.13-.04.19-.06,2.06-.62,4.12-1.24,6.06-2.09.05-.02.1-.04.15-.06,1.28-.57,2.51-1.25,3.66-2.09.04-.03.08-.07.12-.1.67-.5,1.32-1.07,1.92-1.71-.03-.56-.07-1.13-.1-1.7Zm.09,15.1s-.03-.04-.05-.05c-.04-.05-.08-.09-.12-.13-.16-.2-.35-.39-.54-.57-.01-.01-.02-.01-.02-.02-1.35-1.24-3.17-2.06-5.47-1.99h-.11c-.21,0-.41.01-.62.03-.18.01-.37.03-.55.06-.05.01-.1.01-.15.03-.39.06-.78.16-1.15.28-.2.06-.4.14-.6.22-.2.08-.39.17-.58.27-.04.01-.08.03-.12.06-.15.08-.3.16-.44.25-.18.11-.36.23-.54.35-.11.07-.22.15-.32.23-.02.01-.03.02-.04.03-.04.03-.08.06-.11.09-.24.2-.48.41-.71.63-.16.16-.32.33-.46.5-.07.08-.15.17-.22.26-.16.2-.31.4-.45.61-.16.23-.31.47-.45.72-.18.34-.35.69-.5,1.05-.09.21-.17.43-.24.65-.06.17-.11.33-.15.5-.04.15-.08.3-.11.45-.03.12-.05.24-.07.37-.05.26-.09.52-.12.78.08.22.17.43.26.63.18.4.38.75.6,1.04.08.1.16.2.25.29t.02.02c.61.66,1.33.92,2.13.74.03,0,.06-.02.09-.03.63-.16,1.31-.59,2.01-1.33.03-.02.06-.05.08-.08.14-.15.27-.3.41-.47,2.55-3.49,3.03-3.45,5.77.24,1.37,1.14,2.47,1.63,3.33,1.66.38.01.68-.07.96-.19.02-.02.03-.03.05-.05.62-.35.98-1.06,1.1-1.97.02-.09.03-.18.03-.27v-.02c.14-1.75-.56-4.08-2.08-5.87Zm29.78,20.01c-10.8-.09-21.61-.09-32.41,0-4.67.12-6.89,2.65-6.78,7.31.27,12.14,10.19,21.43,22.96,21.52,16.76,2.34,33.05-26.63,16.23-28.83Zm-15.92,22.44c-9.38.17-15.88-5.78-16.8-15.82h32.84c-.6,9.69-6.78,15.66-16.04,15.82Zm26.13-42.19c-.17-.19-.34-.38-.53-.56-.04-.04-.08-.08-.13-.12-.15-.14-.3-.27-.45-.39-.05-.04-.1-.08-.15-.12-.19-.15-.39-.29-.6-.42-.07-.05-.14-.09-.21-.14-.22-.13-.44-.26-.67-.37-.21-.11-.44-.21-.66-.3-.5-.2-1.03-.35-1.57-.46-.24-.05-.49-.09-.74-.11-.3-.03-.61-.04-.92-.04-.26,0-.52.02-.77.05-.19.02-.38.05-.57.09-.2.04-.4.08-.59.13h-.02c-.13.03-.25.07-.37.11-.12.04-.25.09-.37.13-.13.05-.25.1-.38.15-.74.31-1.45.71-2.1,1.19-.12.09-.24.18-.36.28-.23.2-.45.39-.66.6-1.72,1.7-2.72,3.95-2.1,5.99.05.14.11.29.18.44.09.17.18.35.29.52.17.33.41.65.72.95.16.18.33.35.51.49.1.09.2.17.31.24.46.01.88-.06,1.27-.2.21-.09.43-.2.64-.32.01-.01.02-.01.03-.02.08-.05.17-.1.25-.15.1-.06.2-.12.29-.2.52-.41.96-.91,1.36-1.42.06-.08.11-.15.17-.22.05-.07.1-.13.16-.2v-.02l.15-.18s.05-.08.08-.11c0,0-.01,0,0,0,.02-.03.04-.05.07-.07.83-1.04,1.56-1.84,2.57-1.35.01,0,.03.02.05.03.61.32,1.33,1.13,2.23,2.65.73.98,2.31,1.32,3.5,1.96.77-.84,1.27-1.73,1.53-2.62,0-.01.01-.03.01-.04.59-2.09-.06-4.19-1.45-5.84Zm0,0c-.17-.19-.34-.38-.53-.56-.04-.04-.08-.08-.13-.12-.15-.14-.3-.27-.45-.39-.05-.04-.1-.08-.15-.12-.19-.15-.39-.29-.6-.42-.07-.05-.14-.09-.21-.14-.22-.13-.44-.26-.67-.37-.21-.11-.44-.21-.66-.3-.5-.2-1.03-.35-1.57-.46-.24-.05-.49-.09-.74-.11-.3-.03-.61-.04-.92-.04-.26,0-.52.02-.77.05-.19.02-.38.05-.57.09-.2.04-.4.08-.59.13h-.02c-.13.03-.25.07-.37.11-.12.04-.25.09-.37.13-.13.05-.25.1-.38.15-.74.31-1.45.71-2.1,1.19-.12.09-.24.18-.36.28-.23.2-.45.39-.66.6-1.72,1.7-2.72,3.95-2.1,5.99.05.14.11.29.18.44.09.17.18.35.29.52.17.33.41.65.72.95.16.18.33.35.51.49.1.09.2.17.31.24.46.01.88-.06,1.27-.2.21-.09.43-.2.64-.32.01-.01.02-.01.03-.02.08-.05.17-.1.25-.15.1-.06.2-.12.29-.2.52-.41.96-.91,1.36-1.42.06-.08.11-.15.17-.22.05-.07.1-.13.16-.2v-.02l.15-.18s.05-.08.08-.11c0,0-.01,0,0,0,.02-.03.04-.05.07-.07.83-1.04,1.56-1.84,2.57-1.35.01,0,.03.02.05.03.61.32,1.33,1.13,2.23,2.65.73.98,2.31,1.32,3.5,1.96.77-.84,1.27-1.73,1.53-2.62,0-.01.01-.03.01-.04.59-2.09-.06-4.19-1.45-5.84Zm-10.21,19.75c-10.8-.09-21.61-.09-32.41,0-4.67.12-6.89,2.65-6.78,7.31.27,12.14,10.19,21.43,22.96,21.52,16.76,2.34,33.05-26.63,16.23-28.83Zm-15.92,22.44c-9.38.17-15.88-5.78-16.8-15.82h32.84c-.6,9.69-6.78,15.66-16.04,15.82Zm-13.86-42.45s-.03-.04-.05-.05c-.04-.05-.08-.09-.12-.13-.16-.2-.35-.39-.54-.57-.01-.01-.02-.01-.02-.02-1.35-1.24-3.17-2.06-5.47-1.99h-.11c-.21,0-.41.01-.62.03-.18.01-.37.03-.55.06-.05.01-.1.01-.15.03-.39.06-.78.16-1.15.28-.2.06-.4.14-.6.22-.2.08-.39.17-.58.27-.04.01-.08.03-.12.06-.15.08-.3.16-.44.25-.18.11-.36.23-.54.35-.11.07-.22.15-.32.23-.02.01-.03.02-.04.03-.04.03-.08.06-.11.09-.24.2-.48.41-.71.63-.16.16-.32.33-.46.5-.07.08-.15.17-.22.26-.16.2-.31.4-.45.61-.16.23-.31.47-.45.72-.18.34-.35.69-.5,1.05-.09.21-.17.43-.24.65-.06.17-.11.33-.15.5-.04.15-.08.3-.11.45-.03.12-.05.24-.07.37-.05.26-.09.52-.12.78.08.22.17.43.26.63.18.4.38.75.6,1.04.08.1.16.2.25.29t.02.02c.61.66,1.33.92,2.13.74.03,0,.06-.02.09-.03.63-.16,1.31-.59,2.01-1.33.03-.02.06-.05.08-.08.14-.15.27-.3.41-.47,2.55-3.49,3.03-3.45,5.77.24,1.37,1.14,2.47,1.63,3.33,1.66.38.01.68-.07.96-.19.02-.02.03-.03.05-.05.62-.35.98-1.06,1.1-1.97.02-.09.03-.18.03-.27v-.02c.14-1.75-.56-4.08-2.08-5.87Zm-.09-15.1c-.74-.47-1.46-.78-2.18-.97h-.01c-1.19-.32-2.35-.3-3.51-.05h-.01c-2.06.45-4.07,1.61-6.03,2.83-.01,0-.02.01-.03.02-1.45.9-2.88,1.84-4.29,2.54-.82.53-.25,3.19-.32,4.87,1.43-.53,2.9-.98,4.38-1.43.07-.02.13-.04.19-.06,2.06-.62,4.12-1.24,6.06-2.09.05-.02.1-.04.15-.06,1.28-.57,2.51-1.25,3.66-2.09.04-.03.08-.07.12-.1.67-.5,1.32-1.07,1.92-1.71-.03-.56-.07-1.13-.1-1.7Zm0,0c-.74-.47-1.46-.78-2.18-.97h-.01c-1.19-.32-2.35-.3-3.51-.05h-.01c-2.06.45-4.07,1.61-6.03,2.83-.01,0-.02.01-.03.02-1.45.9-2.88,1.84-4.29,2.54-.82.53-.25,3.19-.32,4.87,1.46-.49,2.92-.96,4.38-1.43.07-.02.13-.04.19-.06,2.04-.66,4.07-1.34,6.06-2.09.05-.02.1-.04.15-.06.45-.17.9-.35,1.34-.53.14-.06.28-.12.41-.19.68-.34,1.3-.83,1.91-1.37.04-.03.08-.07.12-.1.3-.28.61-.56.91-.84.33-.3.67-.6,1.01-.87-.03-.56-.07-1.13-.1-1.7Zm1.81,17.71c-.08-.21-.18-.42-.28-.63-.5-1.11-1.25-2.02-2.15-2.73-.01-.01-.02-.01-.02-.02-.37-.28-.76-.54-1.18-.74-.09-.05-.19-.11-.29-.16-2.74-1.32-6.21-1.18-8.86.46-.11.07-.22.15-.32.23-.02.01-.03.02-.04.03-1.95,1.32-3.38,3.53-3.59,6.61.08.22.17.43.26.63.18.4.38.75.6,1.04.08.1.16.2.25.29t.02.02c.61.66,1.33.92,2.13.74.03,0,.06-.02.09-.03.63-.16,1.31-.59,2.01-1.33.03-.02.06-.05.08-.08.14-.15.27-.3.41-.47,2.55-3.49,3.03-3.45,5.77.24.21.24.43.46.65.64,0,.02.02.02.03.03.7.59,1.44.93,2.13.98h.01c.18.02.35.02.51.01.53-.07,1.01-.31,1.39-.73.01-.01.02-.02.02-.03.32-.35.56-.83.7-1.45.06-.21.1-.44.12-.69.03-.2.05-.4.04-.57-.07-.83-.24-1.59-.49-2.29Zm28.06,17.4c-10.8-.09-21.61-.09-32.41,0-4.67.12-6.89,2.65-6.78,7.31.27,12.14,10.19,21.43,22.96,21.52,16.76,2.34,33.05-26.63,16.23-28.83Zm-15.92,22.44c-9.38.17-15.88-5.78-16.8-15.82h32.84c-.6,9.69-6.78,15.66-16.04,15.82Zm26.13-42.19c-.17-.19-.34-.38-.53-.56-.04-.04-.08-.08-.13-.12-.15-.14-.3-.27-.45-.39-.05-.04-.1-.08-.15-.12-.19-.15-.39-.29-.6-.42-.07-.05-.14-.09-.21-.14-.22-.13-.44-.26-.67-.37-.21-.11-.44-.21-.66-.3-.5-.2-1.03-.35-1.57-.46-.24-.05-.49-.09-.74-.11-.3-.03-.61-.04-.92-.04-.26,0-.52.02-.77.05-.19.02-.38.05-.57.09-.2.04-.4.08-.59.13h-.02c-.13.03-.25.07-.37.11-.12.04-.25.09-.37.13-.13.05-.25.1-.38.15-.74.31-1.45.71-2.1,1.19-.12.09-.24.18-.36.28-.23.2-.45.39-.66.6-1.72,1.7-2.72,3.95-2.1,5.99.05.14.11.29.18.44.09.17.18.35.29.52.17.33.41.65.72.95.16.18.33.35.51.49.1.09.2.17.31.24.46.01.88-.06,1.27-.2.21-.09.43-.2.64-.32.01-.01.02-.01.03-.02.08-.05.17-.1.25-.15.1-.06.2-.12.29-.2.52-.41.96-.91,1.36-1.42.06-.08.11-.15.17-.22.05-.07.1-.13.16-.2v-.02l.15-.18s.05-.08.08-.11c0,0-.01,0,0,0,.02-.03.04-.05.07-.07.83-1.04,1.56-1.84,2.57-1.35.01,0,.03.02.05.03.61.32,1.33,1.13,2.23,2.65.73.98,2.31,1.32,3.5,1.96.77-.84,1.27-1.73,1.53-2.62,0-.01.01-.03.01-.04.59-2.09-.06-4.19-1.45-5.84Zm4.04-10.44c-4.19-2.57-8.58-4.81-13.26-7.34-2.62,1.49-4,3.92-1.78,6.02,3.46,1.74,17.97,11.46,15.04,1.32Zm-4.04,10.44c-.17-.19-.34-.38-.53-.56-.04-.04-.08-.08-.13-.12-.15-.14-.3-.27-.45-.39-.05-.04-.1-.08-.15-.12-.19-.15-.39-.29-.6-.42-.07-.05-.14-.09-.21-.14-.22-.13-.44-.26-.67-.37-.21-.11-.44-.21-.66-.3-.5-.2-1.03-.35-1.57-.46-.24-.05-.49-.09-.74-.11-.3-.03-.61-.04-.92-.04-.26,0-.52.02-.77.05-.19.02-.38.05-.57.09-.2.04-.4.08-.59.13h-.02c-.13.03-.25.07-.37.11-.12.04-.25.09-.37.13-.13.05-.25.1-.38.15-.74.31-1.45.71-2.1,1.19-.12.09-.24.18-.36.28-.23.2-.45.39-.66.6-1.72,1.7-2.72,3.95-2.1,5.99.05.14.11.29.18.44.09.17.18.35.29.52.17.33.41.65.72.95.16.18.33.35.51.49.1.09.2.17.31.24.46.01.88-.06,1.27-.2.21-.09.43-.2.64-.32.01-.01.02-.01.03-.02.08-.05.17-.1.25-.15.1-.06.2-.12.29-.2.52-.41.96-.91,1.36-1.42.06-.08.11-.15.17-.22.05-.07.1-.13.16-.2v-.02l.15-.18s.05-.08.08-.11c0,0-.01,0,0,0,.02-.03.04-.05.07-.07.83-1.04,1.56-1.84,2.57-1.35.01,0,.03.02.05.03.61.32,1.33,1.13,2.23,2.65.73.98,2.31,1.32,3.5,1.96.77-.84,1.27-1.73,1.53-2.62,0-.01.01-.03.01-.04.59-2.09-.06-4.19-1.45-5.84Zm-10.21,19.75c-10.8-.09-21.61-.09-32.41,0-4.67.12-6.89,2.65-6.78,7.31.27,12.14,10.19,21.43,22.96,21.52,16.76,2.34,33.05-26.63,16.23-28.83Zm-15.92,22.44c-9.38.17-15.88-5.78-16.8-15.82h32.84c-.6,9.69-6.78,15.66-16.04,15.82Zm-12.14-39.84c-.08-.21-.18-.42-.28-.63-.5-1.11-1.25-2.02-2.15-2.73-.01-.01-.02-.01-.02-.02-1.35-1.24-3.17-2.06-5.47-1.99h-.11c-.21,0-.41.01-.62.03-.18.01-.37.03-.55.06-.05.01-.1.01-.15.03-.39.06-.78.16-1.15.28-.2.06-.4.14-.6.22-.2.08-.39.17-.58.27-.04.01-.08.03-.12.06-.15.08-.3.16-.44.25-.18.11-.36.23-.54.35-.11.07-.22.15-.32.23-.02.01-.03.02-.04.03-1.95,1.32-3.38,3.53-3.59,6.61.08.22.17.43.26.63.18.4.38.75.6,1.04.08.1.16.2.25.29t.02.02c.61.66,1.33.92,2.13.74.03,0,.06-.02.09-.03.63-.16,1.31-.59,2.01-1.33.03-.02.06-.05.08-.08.14-.15.27-.3.41-.47,2.55-3.49,3.03-3.45,5.77.24.21.24.43.46.65.64,0,.02.02.02.03.03.7.59,1.44.93,2.13.98h.01c.18.02.35.02.51.01.38.01.68-.07.96-.19.02-.02.03-.03.05-.05.62-.35.98-1.06,1.1-1.97.06-.21.1-.44.12-.69.03-.2.05-.4.04-.57-.07-.83-.24-1.59-.49-2.29Zm-1.81-17.71c-.74-.47-1.46-.78-2.18-.97h-.01c-1.19-.32-2.35-.3-3.51-.05h-.01c-2.06.45-4.07,1.61-6.03,2.83-.01,0-.02.01-.03.02-1.45.9-2.88,1.84-4.29,2.54-.82.53-.25,3.19-.32,4.87,1.46-.49,2.92-.96,4.38-1.43.07-.02.13-.04.19-.06,2.06-.62,4.12-1.24,6.06-2.09.05-.02.1-.04.15-.06.45-.17.9-.35,1.34-.53.14-.06.28-.12.41-.19.68-.34,1.3-.83,1.91-1.37.04-.03.08-.07.12-.1.67-.5,1.32-1.07,1.92-1.71-.03-.56-.07-1.13-.1-1.7Zm0,0c-.74-.47-1.46-.78-2.18-.97h-.01c-1.19-.32-2.35-.3-3.51-.05h-.01c-2.06.45-4.07,1.61-6.03,2.83-.01,0-.02.01-.03.02-1.45.9-2.88,1.84-4.29,2.54-.82.53-.25,3.19-.32,4.87,1.46-.49,2.92-.96,4.38-1.43.07-.02.13-.04.19-.06,2.06-.62,4.12-1.24,6.06-2.09.05-.02.1-.04.15-.06.45-.17.9-.35,1.34-.53.14-.06.28-.12.41-.19.68-.34,1.3-.83,1.91-1.37.04-.03.08-.07.12-.1.67-.5,1.32-1.07,1.92-1.71-.03-.56-.07-1.13-.1-1.7Zm1.81,17.71c-.08-.21-.18-.42-.28-.63-.5-1.11-1.25-2.02-2.15-2.73-.01-.01-.02-.01-.02-.02-1.35-1.24-3.17-2.06-5.47-1.99h-.11c-.21,0-.41.01-.62.03-.18.01-.37.03-.55.06-.05.01-.1.01-.15.03-.39.06-.78.16-1.15.28-.2.06-.4.14-.6.22-.2.08-.39.17-.58.27-.04.01-.08.03-.12.06-.15.08-.3.16-.44.25-.18.11-.36.23-.54.35-.11.07-.22.15-.32.23-.02.01-.03.02-.04.03-1.95,1.32-3.38,3.53-3.59,6.61.08.22.17.43.26.63.18.4.38.75.6,1.04.08.1.16.2.25.29t.02.02c.61.66,1.33.92,2.13.74.03,0,.06-.02.09-.03.63-.16,1.31-.59,2.01-1.33.03-.02.06-.05.08-.08.14-.15.27-.3.41-.47,2.55-3.49,3.03-3.45,5.77.24.21.24.43.46.65.64,0,.02.02.02.03.03.7.59,1.44.93,2.13.98h.01c.18.02.35.02.51.01.38.01.68-.07.96-.19.02-.02.03-.03.05-.05.62-.35.98-1.06,1.1-1.97.06-.21.1-.44.12-.69.03-.2.05-.4.04-.57-.07-.83-.24-1.59-.49-2.29Zm28.06,17.4c-10.8-.09-21.61-.09-32.41,0-4.67.12-6.89,2.65-6.78,7.31.27,12.14,10.19,21.43,22.96,21.52,16.76,2.34,33.05-26.63,16.23-28.83Zm-15.92,22.44c-9.38.17-15.88-5.78-16.8-15.82h32.84c-.6,9.69-6.78,15.66-16.04,15.82Zm26.13-42.19c-.17-.19-.34-.38-.53-.56-.04-.04-.08-.08-.13-.12-.15-.14-.3-.27-.45-.39-.05-.04-.1-.08-.15-.12-.19-.15-.39-.29-.6-.42-.07-.05-.14-.09-.21-.14-.22-.13-.44-.26-.67-.37-.21-.11-.44-.21-.66-.3-.5-.2-1.03-.35-1.57-.46-.24-.05-.49-.09-.74-.11-.3-.03-.61-.04-.92-.04-.26,0-.52.02-.77.05-.19.02-.38.05-.57.09-.2.04-.4.08-.59.13h-.02c-.13.03-.25.07-.37.11-.12.04-.25.09-.37.13-.13.05-.25.1-.38.15-.74.31-1.45.71-2.1,1.19-.12.09-.24.18-.36.28-.23.2-.45.39-.66.6-1.72,1.7-2.72,3.95-2.1,5.99.05.14.11.29.18.44.09.17.18.35.29.52.17.33.41.65.72.95.16.18.33.35.51.49.1.09.2.17.31.24.46.01.88-.06,1.27-.2.21-.09.43-.2.64-.32.01-.01.02-.01.03-.02.08-.05.17-.1.25-.15.1-.06.2-.12.29-.2.52-.41.96-.91,1.36-1.42.06-.08.11-.15.17-.22.05-.07.1-.13.16-.2v-.02l.15-.18s.05-.08.08-.11c0,0-.01,0,0,0,.02-.03.04-.05.07-.07.83-1.04,1.56-1.84,2.57-1.35.01,0,.03.02.05.03.61.32,1.33,1.13,2.23,2.65.73.98,2.31,1.32,3.5,1.96.77-.84,1.27-1.73,1.53-2.62,0-.01.01-.03.01-.04.59-2.09-.06-4.19-1.45-5.84Zm4.04-10.44c-4.19-2.57-8.58-4.81-13.26-7.34-2.62,1.49-4,3.92-1.78,6.02,3.46,1.74,17.97,11.46,15.04,1.32Zm0,0c-4.19-2.57-8.58-4.81-13.26-7.34-2.62,1.49-4,3.92-1.78,6.02,3.46,1.74,17.97,11.46,15.04,1.32Zm-4.04,10.44c-.17-.19-.34-.38-.53-.56-.04-.04-.08-.08-.13-.12-.15-.14-.3-.27-.45-.39-.05-.04-.1-.08-.15-.12-.19-.15-.39-.29-.6-.42-.07-.05-.14-.09-.21-.14-.22-.13-.44-.26-.67-.37-.21-.11-.44-.21-.66-.3-.5-.2-1.03-.35-1.57-.46-.24-.05-.49-.09-.74-.11-.3-.03-.61-.04-.92-.04-.26,0-.52.02-.77.05-.19.02-.38.05-.57.09-.2.04-.4.08-.59.13h-.02c-.13.03-.25.07-.37.11-.12.04-.25.09-.37.13-.13.05-.25.1-.38.15-.74.31-1.45.71-2.1,1.19-.12.09-.24.18-.36.28-.23.2-.45.39-.66.6-1.72,1.7-2.72,3.95-2.1,5.99.05.14.11.29.18.44.09.17.18.35.29.52.17.33.41.65.72.95.16.18.33.35.51.49.1.09.2.17.31.24.46.01.88-.06,1.27-.2.21-.09.43-.2.64-.32.01-.01.02-.01.03-.02.08-.05.17-.1.25-.15.1-.06.2-.12.29-.2.52-.41.96-.91,1.36-1.42.06-.08.11-.15.17-.22.05-.07.1-.13.16-.2v-.02l.15-.18s.05-.08.08-.11c0,0-.01,0,0,0,.02-.03.04-.05.07-.07.83-1.04,1.56-1.84,2.57-1.35.01,0,.03.02.05.03.61.32,1.33,1.13,2.23,2.65.73.98,2.31,1.32,3.5,1.96.77-.84,1.27-1.73,1.53-2.62,0-.01.01-.03.01-.04.59-2.09-.06-4.19-1.45-5.84Zm-10.21,19.75c-10.8-.09-21.61-.09-32.41,0-4.67.12-6.89,2.65-6.78,7.31.27,12.14,10.19,21.43,22.96,21.52,16.76,2.34,33.05-26.63,16.23-28.83Zm-15.92,22.44c-9.38.17-15.88-5.78-16.8-15.82h32.84c-.6,9.69-6.78,15.66-16.04,15.82Zm-12.14-39.84c-.08-.21-.18-.42-.28-.63-.5-1.11-1.25-2.02-2.15-2.73-.01-.01-.02-.01-.02-.02-1.35-1.24-3.17-2.06-5.47-1.99h-.11c-.21,0-.41.01-.62.03-.18.01-.37.03-.55.06-.05.01-.1.01-.15.03-.39.06-.78.16-1.15.28-.2.06-.4.14-.6.22-.2.08-.39.17-.58.27-.04.01-.08.03-.12.06-.15.08-.3.16-.44.25-.18.11-.36.23-.54.35-.11.07-.22.15-.32.23-.02.01-.03.02-.04.03-1.95,1.32-3.38,3.53-3.59,6.61.08.22.17.43.26.63.18.4.38.75.6,1.04.08.1.16.2.25.29t.02.02c.61.66,1.33.92,2.13.74.03,0,.06-.02.09-.03.63-.16,1.31-.59,2.01-1.33.03-.02.06-.05.08-.08.14-.15.27-.3.41-.47,2.55-3.49,3.03-3.45,5.77.24.21.24.43.46.65.64,0,.02.02.02.03.03.7.59,1.44.93,2.13.98h.01c.18.02.35.02.51.01.38.01.68-.07.96-.19.02-.02.03-.03.05-.05.62-.35.98-1.06,1.1-1.97.06-.21.1-.44.12-.69.03-.2.05-.4.04-.57-.07-.83-.24-1.59-.49-2.29Zm-1.81-17.71c-.74-.47-1.46-.78-2.18-.97h-.01c-1.19-.32-2.35-.3-3.51-.05h-.01c-2.06.45-4.07,1.61-6.03,2.83-.01,0-.02.01-.03.02-1.45.9-2.88,1.84-4.29,2.54-.82.53-.25,3.19-.32,4.87,1.46-.49,2.92-.96,4.38-1.43.07-.02.13-.04.19-.06,2.06-.62,4.12-1.24,6.06-2.09.05-.02.1-.04.15-.06.45-.17.9-.35,1.34-.53.14-.06.28-.12.41-.19.68-.34,1.3-.83,1.91-1.37.04-.03.08-.07.12-.1.67-.5,1.32-1.07,1.92-1.71-.03-.56-.07-1.13-.1-1.7Zm0,0c-.74-.47-1.46-.78-2.18-.97h-.01c-1.19-.32-2.35-.3-3.51-.05h-.01c-2.06.45-4.07,1.61-6.03,2.83-.01,0-.02.01-.03.02-1.45.9-2.88,1.84-4.29,2.54-.82.53-.25,3.19-.32,4.87,1.46-.49,2.92-.96,4.38-1.43.07-.02.13-.04.19-.06,2.06-.62,4.12-1.24,6.06-2.09.05-.02.1-.04.15-.06.45-.17.9-.35,1.34-.53.14-.06.28-.12.41-.19.68-.34,1.3-.83,1.91-1.37.04-.03.08-.07.12-.1.67-.5,1.32-1.07,1.92-1.71-.03-.56-.07-1.13-.1-1.7Zm1.81,17.71c-.08-.21-.18-.42-.28-.63-.5-1.11-1.25-2.02-2.15-2.73-.01-.01-.02-.01-.02-.02-1.35-1.24-3.17-2.06-5.47-1.99h-.11c-.21,0-.41.01-.62.03-.18.01-.37.03-.55.06-.05.01-.1.01-.15.03-.39.06-.78.16-1.15.28-.2.06-.4.14-.6.22-.2.08-.39.17-.58.27-.04.01-.08.03-.12.06-.15.08-.3.16-.44.25-.18.11-.36.23-.54.35-.11.07-.22.15-.32.23-.02.01-.03.02-.04.03-1.95,1.32-3.38,3.53-3.59,6.61.08.22.17.43.26.63.18.4.38.75.6,1.04.08.1.16.2.25.29t.02.02c.61.66,1.33.92,2.13.74.03,0,.06-.02.09-.03.63-.16,1.31-.59,2.01-1.33.03-.02.06-.05.08-.08.14-.15.27-.3.41-.47,2.55-3.49,3.03-3.45,5.77.24.21.24.43.46.65.64,0,.02.02.02.03.03.7.59,1.44.93,2.13.98h.01c.18.02.35.02.51.01.38.01.68-.07.96-.19.02-.02.03-.03.05-.05.62-.35.98-1.06,1.1-1.97.06-.21.1-.44.12-.69.03-.2.05-.4.04-.57-.07-.83-.24-1.59-.49-2.29Zm28.06,17.4c-10.8-.09-21.61-.09-32.41,0-4.67.12-6.89,2.65-6.78,7.31.27,12.14,10.19,21.43,22.96,21.52,16.76,2.34,33.05-26.63,16.23-28.83Zm-15.92,22.44c-9.38.17-15.88-5.78-16.8-15.82h32.84c-.6,9.69-6.78,15.66-16.04,15.82Zm26.13-42.19c-.17-.19-.34-.38-.53-.56-.04-.04-.08-.08-.13-.12-.15-.14-.3-.27-.45-.39-.05-.04-.1-.08-.15-.12-.19-.15-.39-.29-.6-.42-.07-.05-.14-.09-.21-.14-.22-.13-.44-.26-.67-.37-.21-.11-.44-.21-.66-.3-.5-.2-1.03-.35-1.57-.46-.24-.05-.49-.09-.74-.11-.3-.03-.61-.04-.92-.04-.26,0-.52.02-.77.05-.19.02-.38.05-.57.09-.2.04-.4.08-.59.13h-.02c-.13.03-.25.07-.37.11-.12.04-.25.09-.37.13-.13.05-.25.1-.38.15-.74.31-1.45.71-2.1,1.19-.12.09-.24.18-.36.28-.23.2-.45.39-.66.6-1.72,1.7-2.72,3.95-2.1,5.99.05.14.11.29.18.44.09.17.18.35.29.52.17.33.41.65.72.95.16.18.33.35.51.49.1.09.2.17.31.24.46.01.88-.06,1.27-.2.21-.09.43-.2.64-.32.01-.01.02-.01.03-.02.08-.05.17-.1.25-.15.1-.06.2-.12.29-.2.52-.41.96-.91,1.36-1.42.06-.08.11-.15.17-.22.05-.07.1-.13.16-.2v-.02l.15-.18s.05-.08.08-.11c0,0-.01,0,0,0,.02-.03.04-.05.07-.07.83-1.04,1.56-1.84,2.57-1.35.01,0,.03.02.05.03.61.32,1.33,1.13,2.23,2.65.73.98,2.31,1.32,3.5,1.96.77-.84,1.27-1.73,1.53-2.62,0-.01.01-.03.01-.04.59-2.09-.06-4.19-1.45-5.84Zm4.04-10.44c-4.19-2.57-8.58-4.81-13.26-7.34-2.62,1.49-4,3.92-1.78,6.02,3.46,1.74,17.97,11.46,15.04,1.32Zm0,0c-4.19-2.57-8.58-4.81-13.26-7.34-2.62,1.49-4,3.92-1.78,6.02,3.46,1.74,17.97,11.46,15.04,1.32Zm-4.57,9.88s-.08-.08-.13-.12c-.15-.14-.3-.27-.45-.39-.05-.04-.1-.08-.15-.12-.19-.15-.39-.29-.6-.42-.07-.05-.14-.09-.21-.14-.22-.13-.44-.26-.67-.37-.21-.11-.44-.21-.66-.3-.5-.2-1.03-.35-1.57-.46-.24-.05-.49-.09-.74-.11-.3-.03-.61-.04-.92-.04-.26,0-.52.02-.77.05-.19.02-.38.05-.57.09-.2.04-.4.08-.59.13h-.02c-.13.03-.25.07-.37.11-.12.04-.25.09-.37.13-.13.05-.25.1-.38.15-.74.31-1.45.71-2.1,1.19-.12.09-.24.18-.36.28-.23.2-.45.39-.66.6-1.72,1.7-2.72,3.95-2.1,5.99.05.14.11.29.18.44.09.17.18.35.29.52.17.33.41.65.72.95.16.18.33.35.51.49.1.09.2.17.31.24.46.01.88-.06,1.27-.2.21-.09.43-.2.64-.32.01-.01.02-.01.03-.02.08-.05.17-.1.25-.15.1-.06.2-.12.29-.2.52-.41.96-.91,1.36-1.42.06-.08.11-.15.17-.22.05-.07.1-.13.16-.2v-.02l.15-.18s.05-.08.08-.11c0,0-.01,0,0,0,.02-.03.04-.05.07-.07.83-1.04,1.56-1.84,2.57-1.35.01,0,.03.02.05.03.61.32,1.33,1.13,2.23,2.65.73.98,2.31,1.32,3.5,1.96.77-.84,1.27-1.73,1.53-2.62,0-.01.01-.03.01-.04.59-2.09-.06-4.19-1.45-5.84-.17-.19-.34-.38-.53-.56Zm-9.68,20.31c-10.8-.09-21.61-.09-32.41,0-4.67.12-6.89,2.65-6.78,7.31.27,12.14,10.19,21.43,22.96,21.52,16.76,2.34,33.05-26.63,16.23-28.83Zm-15.92,22.44c-9.38.17-15.88-5.78-16.8-15.82h32.84c-.6,9.69-6.78,15.66-16.04,15.82Zm-17.25-35.74c.21.24.43.46.65.64,0,.02.02.02.03.03.7.59,1.44.93,2.13.98h.01c.18.02.35.02.51.01.38.01.68-.07.96-.19.02-.02.03-.03.05-.05.62-.35.98-1.06,1.1-1.97.06-.21.1-.44.12-.69.03-.2.05-.4.04-.57-.07-.83-.24-1.59-.49-2.29-.08-.21-.18-.42-.28-.63-.5-1.11-1.25-2.02-2.15-2.73-.01-.01-.02-.01-.02-.02-1.35-1.24-3.17-2.06-5.47-1.99h-.11c-.21,0-.41.01-.62.03-.18.01-.37.03-.55.06-.05.01-.1.01-.15.03-.39.06-.78.16-1.15.28-.2.06-.4.14-.6.22-.2.08-.39.17-.58.27-.04.01-.08.03-.12.06-.15.08-.3.16-.44.25-.18.11-.36.23-.54.35-.11.07-.22.15-.32.23-.02.01-.03.02-.04.03-1.95,1.32-3.38,3.53-3.59,6.61.08.22.17.43.26.63.18.4.38.75.6,1.04.08.1.16.2.25.29t.02.02c.61.66,1.33.92,2.13.74.03,0,.06-.02.09-.03.63-.16,1.31-.59,2.01-1.33.03-.02.06-.05.08-.08.14-.15.27-.3.41-.47,2.55-3.49,3.03-3.45,5.77.24Zm-8.7-14c.07-.02.13-.04.19-.06,2.06-.62,4.12-1.24,6.06-2.09.05-.02.1-.04.15-.06.45-.17.9-.35,1.34-.53.14-.06.28-.12.41-.19.68-.34,1.3-.83,1.91-1.37.04-.03.08-.07.12-.1.67-.5,1.32-1.07,1.92-1.71-.03-.56-.07-1.13-.1-1.7-.74-.47-1.46-.78-2.18-.97h-.01c-1.19-.32-2.35-.3-3.51-.05h-.01c-2.06.45-4.07,1.61-6.03,2.83-.01,0-.02.01-.03.02-1.45.9-2.88,1.84-4.29,2.54-.82.53-.25,3.19-.32,4.87,1.46-.49,2.92-.96,4.38-1.43Zm102.86-29.77C315.81-.26,164.08,24.03,179.97,118.53c1.07,7.12,2.41,14.69,10.42,17.99,2.51,21.54,8.32,44.2,31.34,51.15,22.75,6.61,47.53,7.19,70.59,1.3,22.77-5.32,31.97-26.25,33.99-47.69.38-1.83.79-4.5,2.04-5.15,12.96-6.27,8.53-34.3,7.69-46.34Zm-15.56,48.29c-.16,9.86-2.08,17.87-5.35,24.32-5.58,11-15.09,17.49-26.56,20.96-9.77,2.97-20.95,3.75-32.32,3.29-7.71-.32-15.51-1.21-23.01-2.39-5.96-.75-11.27-2.67-15.86-5.48-.08-.05-.16-.09-.24-.14-6.62-4.11-11.71-10.06-15.08-16.99-3.2-6.56-4.84-14.01-4.74-21.6.05-4.49.7-9.02,2-13.47,3.52-7.8,5.92-16.1,8.66-23.82,5.06,1.62,10.23,2.83,15.45,3.59.04.01.07.02.1.02,9.14,1.32,18.42,1.27,27.5-.32,6.9-1.19,13.68-3.28,20.2-6.33,5.98-2.51,11.92-5.16,18-7.42,5.5-2.12,10.15-2.33,14.05-1.15.05.02.1.03.16.05.21.06.41.12.61.2,6.19,2.2,10.43,7.99,13.11,15.11.1.25.19.51.28.77,3.52,9.85,4.18,22.04,3.04,30.8Zm7.04-10.42c-.59-5.78-1.41-10.94-2.47-15.49-.04-.19-.08-.38-.13-.57-.67-2.84-1.45-5.45-2.31-7.83-.11-.34-.24-.67-.38-1-.12-.29-.23-.58-.35-.87-.13-.32-.27-.64-.4-.95-.06-.16-.13-.32-.21-.47-.07-.15-.14-.3-.21-.46-.28-.6-.57-1.19-.87-1.76-.36-.69-.74-1.35-1.13-1.98-1.61-2.66-3.44-4.86-5.51-6.57-.24-.2-.47-.39-.71-.58-6.36-4.85-14.8-5.59-25.69-2.68-6.34,1.7-13.51,4.63-21.57,8.71-6.99,3.04-14.15,4.9-21.3,5.6h-.05c-9.75.96-19.5-.22-28.93-3.43-.03,0-.05,0-.07-.02-4.52-1.55-8.96-3.57-13.29-6.05-.71,13.11-3.65,25.9-12.29,37.66-3.77-12.68-4.68-24.05-3.34-34.06,0-.03,0-.06.01-.09,2.62-19.49,13.75-33.87,28.76-42.98.11-.08.23-.15.35-.22,22.58-13.52,53.82-15.21,78.29-4.48.1.05.2.1.3.14,18.73,8.31,33.45,23.95,37.1,47.19.05.25.09.51.13.76,1.13,7.68,1.06,16.17-.45,25.5-.51,2.48-1.7,4.81-3.28,6.98Zm-51.48-18.33c-2.62,1.49-4,3.92-1.78,6.02,3.46,1.74,17.97,11.46,15.04,1.32-4.19-2.57-8.58-4.81-13.26-7.34Zm8.69,17.22s-.08-.08-.13-.12c-.15-.14-.3-.27-.45-.39-.05-.04-.1-.08-.15-.12-.19-.15-.39-.29-.6-.42-.07-.05-.14-.09-.21-.14-.22-.13-.44-.26-.67-.37-.21-.11-.44-.21-.66-.3-.5-.2-1.03-.35-1.57-.46-.24-.05-.49-.09-.74-.11-.3-.03-.61-.04-.92-.04-.26,0-.52.02-.77.05-.19.02-.38.05-.57.09-.2.04-.4.08-.59.13h-.02c-.13.03-.25.07-.37.11-.12.04-.25.09-.37.13-.13.05-.25.1-.38.15-.74.31-1.45.71-2.1,1.19-.12.09-.24.18-.36.28-.23.2-.45.39-.66.6-1.72,1.7-2.72,3.95-2.1,5.99.05.14.11.29.18.44.09.17.18.35.29.52.17.33.41.65.72.95.16.18.33.35.51.49.1.09.2.17.31.24.46.01.88-.06,1.27-.2.21-.09.43-.2.64-.32.01-.01.02-.01.03-.02.08-.05.17-.1.25-.15.1-.06.2-.12.29-.2.52-.41.96-.91,1.36-1.42.06-.08.11-.15.17-.22.05-.07.1-.13.16-.2v-.02l.15-.18s.05-.08.08-.11c0,0-.01,0,0,0,.02-.03.04-.05.07-.07.83-1.04,1.56-1.84,2.57-1.35.01,0,.03.02.05.03.61.32,1.33,1.13,2.23,2.65.73.98,2.31,1.32,3.5,1.96.77-.84,1.27-1.73,1.53-2.62,0-.01.01-.03.01-.04.59-2.09-.06-4.19-1.45-5.84-.17-.19-.34-.38-.53-.56Zm-9.68,20.31c-10.8-.09-21.61-.09-32.41,0-4.67.12-6.89,2.65-6.78,7.31.27,12.14,10.19,21.43,22.96,21.52,16.76,2.34,33.05-26.63,16.23-28.83Zm-15.92,22.44c-9.38.17-15.88-5.78-16.8-15.82h32.84c-.6,9.69-6.78,15.66-16.04,15.82Zm-17.25-35.74c.21.24.43.46.65.64,0,.02.02.02.03.03.7.59,1.44.93,2.13.98h.01c.18.02.35.02.51.01.38.01.68-.07.96-.19.02-.02.03-.03.05-.05.62-.35.98-1.06,1.1-1.97.06-.21.1-.44.12-.69.03-.2.05-.4.04-.57-.07-.83-.24-1.59-.49-2.29-.08-.21-.18-.42-.28-.63-.5-1.11-1.25-2.02-2.15-2.73-.01-.01-.02-.01-.02-.02-1.35-1.24-3.17-2.06-5.47-1.99h-.11c-.21,0-.41.01-.62.03-.18.01-.37.03-.55.06-.05.01-.1.01-.15.03-.39.06-.78.16-1.15.28-.2.06-.4.14-.6.22-.2.08-.39.17-.58.27-.04.01-.08.03-.12.06-.15.08-.3.16-.44.25-.18.11-.36.23-.54.35-.11.07-.22.15-.32.23-.02.01-.03.02-.04.03-1.95,1.32-3.38,3.53-3.59,6.61.08.22.17.43.26.63.18.4.38.75.6,1.04.08.1.16.2.25.29t.02.02c.61.66,1.33.92,2.13.74.03,0,.06-.02.09-.03.63-.16,1.31-.59,2.01-1.33.03-.02.06-.05.08-.08.14-.15.27-.3.41-.47,2.55-3.49,3.03-3.45,5.77.24Zm-8.7-14c.07-.02.13-.04.19-.06,2.06-.62,4.12-1.24,6.06-2.09.05-.02.1-.04.15-.06.45-.17.9-.35,1.34-.53.14-.06.28-.12.41-.19.68-.34,1.3-.83,1.91-1.37.04-.03.08-.07.12-.1.67-.5,1.32-1.07,1.92-1.71-.03-.56-.07-1.13-.1-1.7-.74-.47-1.46-.78-2.18-.97h-.01c-1.19-.32-2.35-.3-3.51-.05h-.01c-2.06.45-4.07,1.61-6.03,2.83-.01,0-.02.01-.03.02-1.45.9-2.88,1.84-4.29,2.54-.82.53-.25,3.19-.32,4.87,1.46-.49,2.92-.96,4.38-1.43Zm12-7.81c-.74-.47-1.46-.78-2.18-.97h-.01c-1.19-.32-2.35-.3-3.51-.05h-.01c-2.06.45-4.07,1.61-6.03,2.83-.01,0-.02.01-.03.02-1.45.9-2.88,1.84-4.29,2.54-.82.53-.25,3.19-.32,4.87,1.46-.49,2.92-.96,4.38-1.43.07-.02.13-.04.19-.06,2.06-.62,4.12-1.24,6.06-2.09.05-.02.1-.04.15-.06.45-.17.9-.35,1.34-.53.14-.06.28-.12.41-.19.68-.34,1.3-.83,1.91-1.37.04-.03.08-.07.12-.1.67-.5,1.32-1.07,1.92-1.71-.03-.56-.07-1.13-.1-1.7Zm1.81,17.71c-.08-.21-.18-.42-.28-.63-.5-1.11-1.25-2.02-2.15-2.73-.01-.01-.02-.01-.02-.02-1.35-1.24-3.17-2.06-5.47-1.99h-.11c-.21,0-.41.01-.62.03-.18.01-.37.03-.55.06-.05.01-.1.01-.15.03-.39.06-.78.16-1.15.28-.2.06-.4.14-.6.22-.2.08-.39.17-.58.27-.04.01-.08.03-.12.06-.15.08-.3.16-.44.25-.18.11-.36.23-.54.35-.11.07-.22.15-.32.23-.02.01-.03.02-.04.03-1.95,1.32-3.38,3.53-3.59,6.61.08.22.17.43.26.63.18.4.38.75.6,1.04.08.1.16.2.25.29t.02.02c.61.66,1.33.92,2.13.74.03,0,.06-.02.09-.03.63-.16,1.31-.59,2.01-1.33.03-.02.06-.05.08-.08.14-.15.27-.3.41-.47,2.55-3.49,3.03-3.45,5.77.24.21.24.43.46.65.64,0,.02.02.02.03.03.7.59,1.44.93,2.13.98h.01c.18.02.35.02.51.01.38.01.68-.07.96-.19.02-.02.03-.03.05-.05.62-.35.98-1.06,1.1-1.97.06-.21.1-.44.12-.69.03-.2.05-.4.04-.57-.07-.83-.24-1.59-.49-2.29Zm28.06,17.4c-10.8-.09-21.61-.09-32.41,0-4.67.12-6.89,2.65-6.78,7.31.27,12.14,10.19,21.43,22.96,21.52,16.76,2.34,33.05-26.63,16.23-28.83Zm-15.92,22.44c-9.38.17-15.88-5.78-16.8-15.82h32.84c-.6,9.69-6.78,15.66-16.04,15.82Zm26.13-42.19c-.17-.19-.34-.38-.53-.56-.04-.04-.08-.08-.13-.12-.15-.14-.3-.27-.45-.39-.05-.04-.1-.08-.15-.12-.19-.15-.39-.29-.6-.42-.07-.05-.14-.09-.21-.14-.22-.13-.44-.26-.67-.37-.21-.11-.44-.21-.66-.3-.5-.2-1.03-.35-1.57-.46-.24-.05-.49-.09-.74-.11-.3-.03-.61-.04-.92-.04-.26,0-.52.02-.77.05-.19.02-.38.05-.57.09-.2.04-.4.08-.59.13h-.02c-.13.03-.25.07-.37.11-.12.04-.25.09-.37.13-.13.05-.25.1-.38.15-.74.31-1.45.71-2.1,1.19-.12.09-.24.18-.36.28-.23.2-.45.39-.66.6-1.72,1.7-2.72,3.95-2.1,5.99.05.14.11.29.18.44.09.17.18.35.29.52.17.33.41.65.72.95.16.18.33.35.51.49.1.09.2.17.31.24.46.01.88-.06,1.27-.2.21-.09.43-.2.64-.32.01-.01.02-.01.03-.02.08-.05.17-.1.25-.15.1-.06.2-.12.29-.2.52-.41.96-.91,1.36-1.42.06-.08.11-.15.17-.22.05-.07.1-.13.16-.2v-.02l.15-.18s.05-.08.08-.11c0,0-.01,0,0,0,.02-.03.04-.05.07-.07.83-1.04,1.56-1.84,2.57-1.35.01,0,.03.02.05.03.61.32,1.33,1.13,2.23,2.65.73.98,2.31,1.32,3.5,1.96.77-.84,1.27-1.73,1.53-2.62,0-.01.01-.03.01-.04.59-2.09-.06-4.19-1.45-5.84Zm4.04-10.44c-4.19-2.57-8.58-4.81-13.26-7.34-2.62,1.49-4,3.92-1.78,6.02,3.46,1.74,17.97,11.46,15.04,1.32Zm0,0c-4.19-2.57-8.58-4.81-13.26-7.34-2.62,1.49-4,3.92-1.78,6.02,3.46,1.74,17.97,11.46,15.04,1.32Zm-4.04,10.44c-.17-.19-.34-.38-.53-.56-.04-.04-.08-.08-.13-.12-.15-.14-.3-.27-.45-.39-.05-.04-.1-.08-.15-.12-.19-.15-.39-.29-.6-.42-.07-.05-.14-.09-.21-.14-.22-.13-.44-.26-.67-.37-.21-.11-.44-.21-.66-.3-.5-.2-1.03-.35-1.57-.46-.24-.05-.49-.09-.74-.11-.3-.03-.61-.04-.92-.04-.26,0-.52.02-.77.05-.19.02-.38.05-.57.09-.2.04-.4.08-.59.13h-.02c-.13.03-.25.07-.37.11-.12.04-.25.09-.37.13-.13.05-.25.1-.38.15-.74.31-1.45.71-2.1,1.19-.12.09-.24.18-.36.28-.23.2-.45.39-.66.6-1.72,1.7-2.72,3.95-2.1,5.99.05.14.11.29.18.44.09.17.18.35.29.52.17.33.41.65.72.95.16.18.33.35.51.49.1.09.2.17.31.24.46.01.88-.06,1.27-.2.21-.09.43-.2.64-.32.01-.01.02-.01.03-.02.08-.05.17-.1.25-.15.1-.06.2-.12.29-.2.52-.41.96-.91,1.36-1.42.06-.08.11-.15.17-.22.05-.07.1-.13.16-.2v-.02l.15-.18s.05-.08.08-.11c0,0-.01,0,0,0,.02-.03.04-.05.07-.07.83-1.04,1.56-1.84,2.57-1.35.01,0,.03.02.05.03.61.32,1.33,1.13,2.23,2.65.73.98,2.31,1.32,3.5,1.96.77-.84,1.27-1.73,1.53-2.62,0-.01.01-.03.01-.04.59-2.09-.06-4.19-1.45-5.84Zm-10.21,19.75c-10.8-.09-21.61-.09-32.41,0-4.67.12-6.89,2.65-6.78,7.31.27,12.14,10.19,21.43,22.96,21.52,16.76,2.34,33.05-26.63,16.23-28.83Zm-15.92,22.44c-9.38.17-15.88-5.78-16.8-15.82h32.84c-.6,9.69-6.78,15.66-16.04,15.82Zm-12.14-39.84c-.08-.21-.18-.42-.28-.63-.5-1.11-1.25-2.02-2.15-2.73-.01-.01-.02-.01-.02-.02-1.35-1.24-3.17-2.06-5.47-1.99h-.11c-.21,0-.41.01-.62.03-.18.01-.37.03-.55.06-.05.01-.1.01-.15.03-.39.06-.78.16-1.15.28-.2.06-.4.14-.6.22-.2.08-.39.17-.58.27-.04.01-.08.03-.12.06-.15.08-.3.16-.44.25-.18.11-.36.23-.54.35-.11.07-.22.15-.32.23-.02.01-.03.02-.04.03-1.95,1.32-3.38,3.53-3.59,6.61.08.22.17.43.26.63.18.4.38.75.6,1.04.08.1.16.2.25.29t.02.02c.61.66,1.33.92,2.13.74.03,0,.06-.02.09-.03.63-.16,1.31-.59,2.01-1.33.03-.02.06-.05.08-.08.14-.15.27-.3.41-.47,2.55-3.49,3.03-3.45,5.77.24.21.24.43.46.65.64,0,.02.02.02.03.03.7.59,1.44.93,2.13.98h.01c.18.02.35.02.51.01.38.01.68-.07.96-.19.02-.02.03-.03.05-.05.62-.35.98-1.06,1.1-1.97.06-.21.1-.44.12-.69.03-.2.05-.4.04-.57-.07-.83-.24-1.59-.49-2.29Zm-1.81-17.71c-.74-.47-1.46-.78-2.18-.97h-.01c-1.19-.32-2.35-.3-3.51-.05h-.01c-2.06.45-4.07,1.61-6.03,2.83-.01,0-.02.01-.03.02-1.45.9-2.88,1.84-4.29,2.54-.82.53-.25,3.19-.32,4.87,1.46-.49,2.92-.96,4.38-1.43.07-.02.13-.04.19-.06,2.06-.62,4.12-1.24,6.06-2.09.05-.02.1-.04.15-.06.45-.17.9-.35,1.34-.53.14-.06.28-.12.41-.19.68-.34,1.3-.83,1.91-1.37.04-.03.08-.07.12-.1.67-.5,1.32-1.07,1.92-1.71-.03-.56-.07-1.13-.1-1.7Zm0,0c-.74-.47-1.46-.78-2.18-.97h-.01c-1.19-.32-2.35-.3-3.51-.05h-.01c-2.06.45-4.07,1.61-6.03,2.83-.01,0-.02.01-.03.02-1.45.9-2.88,1.84-4.29,2.54-.82.53-.25,3.19-.32,4.87,1.46-.49,2.92-.96,4.38-1.43.07-.02.13-.04.19-.06,2.06-.62,4.12-1.24,6.06-2.09.05-.02.1-.04.15-.06.45-.17.9-.35,1.34-.53.14-.06.28-.12.41-.19.68-.34,1.3-.83,1.91-1.37.04-.03.08-.07.12-.1.67-.5,1.32-1.07,1.92-1.71-.03-.56-.07-1.13-.1-1.7Zm1.81,17.71c-.08-.21-.18-.42-.28-.63-.5-1.11-1.25-2.02-2.15-2.73-.01-.01-.02-.01-.02-.02-1.35-1.24-3.17-2.06-5.47-1.99h-.11c-.21,0-.41.01-.62.03-.18.01-.37.03-.55.06-.05.01-.1.01-.15.03-.39.06-.78.16-1.15.28-.2.06-.4.14-.6.22-.2.08-.39.17-.58.27-.04.01-.08.03-.12.06-.15.08-.3.16-.44.25-.18.11-.36.23-.54.35-.11.07-.22.15-.32.23-.02.01-.03.02-.04.03-1.95,1.32-3.38,3.53-3.59,6.61.08.22.17.43.26.63.18.4.38.75.6,1.04.08.1.16.2.25.29t.02.02c.61.66,1.33.92,2.13.74.03,0,.06-.02.09-.03.63-.16,1.31-.59,2.01-1.33.03-.02.06-.05.08-.08.14-.15.27-.3.41-.47,2.55-3.49,3.03-3.45,5.77.24.21.24.43.46.65.64,0,.02.02.02.03.03.7.59,1.44.93,2.13.98h.01c.18.02.35.02.51.01.38.01.68-.07.96-.19.02-.02.03-.03.05-.05.62-.35.98-1.06,1.1-1.97.06-.21.1-.44.12-.69.03-.2.05-.4.04-.57-.07-.83-.24-1.59-.49-2.29Zm28.06,17.4c-10.8-.09-21.61-.09-32.41,0-4.67.12-6.89,2.65-6.78,7.31.27,12.14,10.19,21.43,22.96,21.52,16.76,2.34,33.05-26.63,16.23-28.83Zm-15.92,22.44c-9.38.17-15.88-5.78-16.8-15.82h32.84c-.6,9.69-6.78,15.66-16.04,15.82Zm26.13-42.19c-.17-.19-.34-.38-.53-.56-.04-.04-.08-.08-.13-.12-.15-.14-.3-.27-.45-.39-.05-.04-.1-.08-.15-.12-.19-.15-.39-.29-.6-.42-.07-.05-.14-.09-.21-.14-.22-.13-.44-.26-.67-.37-.21-.11-.44-.21-.66-.3-.5-.2-1.03-.35-1.57-.46-.24-.05-.49-.09-.74-.11-.3-.03-.61-.04-.92-.04-.26,0-.52.02-.77.05-.19.02-.38.05-.57.09-.2.04-.4.08-.59.13h-.02c-.13.03-.25.07-.37.11-.12.04-.25.09-.37.13-.13.05-.25.1-.38.15-.74.31-1.45.71-2.1,1.19-.12.09-.24.18-.36.28-.23.2-.45.39-.66.6-1.72,1.7-2.72,3.95-2.1,5.99.05.14.11.29.18.44.09.17.18.35.29.52.17.33.41.65.72.95.16.18.33.35.51.49.1.09.2.17.31.24.46.01.88-.06,1.27-.2.21-.09.43-.2.64-.32.01-.01.02-.01.03-.02.08-.05.17-.1.25-.15.1-.06.2-.12.29-.2.52-.41.96-.91,1.36-1.42.06-.08.11-.15.17-.22.05-.07.1-.13.16-.2v-.02l.15-.18s.05-.08.08-.11c0,0-.01,0,0,0,.02-.03.04-.05.07-.07.83-1.04,1.56-1.84,2.57-1.35.01,0,.03.02.05.03.61.32,1.33,1.13,2.23,2.65.73.98,2.31,1.32,3.5,1.96.77-.84,1.27-1.73,1.53-2.62,0-.01.01-.03.01-.04.59-2.09-.06-4.19-1.45-5.84Zm4.04-10.44c-4.19-2.57-8.58-4.81-13.26-7.34-2.62,1.49-4,3.92-1.78,6.02,3.46,1.74,17.97,11.46,15.04,1.32Zm0,0c-4.19-2.57-8.58-4.81-13.26-7.34-2.62,1.49-4,3.92-1.78,6.02,3.46,1.74,17.97,11.46,15.04,1.32Zm-4.04,10.44c-.17-.19-.34-.38-.53-.56-.04-.04-.08-.08-.13-.12-.15-.14-.3-.27-.45-.39-.05-.04-.1-.08-.15-.12-.19-.15-.39-.29-.6-.42-.07-.05-.14-.09-.21-.14-.22-.13-.44-.26-.67-.37-.21-.11-.44-.21-.66-.3-.5-.2-1.03-.35-1.57-.46-.24-.05-.49-.09-.74-.11-.3-.03-.61-.04-.92-.04-.26,0-.52.02-.77.05-.19.02-.38.05-.57.09-.2.04-.4.08-.59.13h-.02c-.13.03-.25.07-.37.11-.12.04-.25.09-.37.13-.13.05-.25.1-.38.15-.74.31-1.45.71-2.1,1.19-.12.09-.24.18-.36.28-.23.2-.45.39-.66.6-1.72,1.7-2.72,3.95-2.1,5.99.05.14.11.29.18.44.09.17.18.35.29.52.17.33.41.65.72.95.16.18.33.35.51.49.1.09.2.17.31.24.46.01.88-.06,1.27-.2.21-.09.43-.2.64-.32.01-.01.02-.01.03-.02.08-.05.17-.1.25-.15.1-.06.2-.12.29-.2.52-.41.96-.91,1.36-1.42.06-.08.11-.15.17-.22.05-.07.1-.13.16-.2v-.02l.15-.18s.05-.08.08-.11c0,0-.01,0,0,0,.02-.03.04-.05.07-.07.83-1.04,1.56-1.84,2.57-1.35.01,0,.03.02.05.03.61.32,1.33,1.13,2.23,2.65.73.98,2.31,1.32,3.5,1.96.77-.84,1.27-1.73,1.53-2.62,0-.01.01-.03.01-.04.59-2.09-.06-4.19-1.45-5.84Zm-10.21,19.75c-10.8-.09-21.61-.09-32.41,0-4.67.12-6.89,2.65-6.78,7.31.27,12.14,10.19,21.43,22.96,21.52,16.76,2.34,33.05-26.63,16.23-28.83Zm-15.92,22.44c-9.38.17-15.88-5.78-16.8-15.82h32.84c-.6,9.69-6.78,15.66-16.04,15.82Zm-12.14-39.84c-.08-.21-.18-.42-.28-.63-.5-1.11-1.25-2.02-2.15-2.73-.01-.01-.02-.01-.02-.02-1.35-1.24-3.17-2.06-5.47-1.99h-.11c-.21,0-.41.01-.62.03-.18.01-.37.03-.55.06-.05.01-.1.01-.15.03-.39.06-.78.16-1.15.28-.2.06-.4.14-.6.22-.2.08-.39.17-.58.27-.04.01-.08.03-.12.06-.15.08-.3.16-.44.25-.18.11-.36.23-.54.35-.11.07-.22.15-.32.23-.02.01-.03.02-.04.03-1.95,1.32-3.38,3.53-3.59,6.61.08.22.17.43.26.63.18.4.38.75.6,1.04.08.1.16.2.25.29t.02.02c.61.66,1.33.92,2.13.74.03,0,.06-.02.09-.03.63-.16,1.31-.59,2.01-1.33.03-.02.06-.05.08-.08.14-.15.27-.3.41-.47,2.55-3.49,3.03-3.45,5.77.24.21.24.43.46.65.64,0,.02.02.02.03.03.7.59,1.44.93,2.13.98h.01c.18.02.35.02.51.01.38.01.68-.07.96-.19.02-.02.03-.03.05-.05.62-.35.98-1.06,1.1-1.97.06-.21.1-.44.12-.69.03-.2.05-.4.04-.57-.07-.83-.24-1.59-.49-2.29Zm-1.81-17.71c-.74-.47-1.46-.78-2.18-.97h-.01c-1.19-.32-2.35-.3-3.51-.05h-.01c-2.06.45-4.07,1.61-6.03,2.83-.01,0-.02.01-.03.02-1.45.9-2.88,1.84-4.29,2.54-.82.53-.25,3.19-.32,4.87,1.46-.49,2.92-.96,4.38-1.43.07-.02.13-.04.19-.06,2.06-.62,4.12-1.24,6.06-2.09.05-.02.1-.04.15-.06.45-.17.9-.35,1.34-.53.14-.06.28-.12.41-.19.68-.34,1.3-.83,1.91-1.37.04-.03.08-.07.12-.1.67-.5,1.32-1.07,1.92-1.71-.03-.56-.07-1.13-.1-1.7Zm0,0c-.74-.47-1.46-.78-2.18-.97h-.01c-1.19-.32-2.35-.3-3.51-.05h-.01c-2.06.45-4.07,1.61-6.03,2.83-.01,0-.02.01-.03.02-1.45.9-2.88,1.84-4.29,2.54-.82.53-.25,3.19-.32,4.87,1.46-.49,2.92-.96,4.38-1.43.07-.02.13-.04.19-.06,2.04-.66,4.07-1.34,6.06-2.09.05-.02.1-.04.15-.06.45-.17.9-.35,1.34-.53.14-.06.28-.12.41-.19.68-.34,1.3-.83,1.91-1.37.04-.03.08-.07.12-.1.3-.28.61-.56.91-.84.33-.3.67-.6,1.01-.87-.03-.56-.07-1.13-.1-1.7Zm1.81,17.71c-.08-.21-.18-.42-.28-.63-.5-1.11-1.25-2.02-2.15-2.73-.01-.01-.02-.01-.02-.02-.37-.28-.76-.54-1.18-.74-.09-.05-.19-.11-.29-.16-2.74-1.32-6.21-1.18-8.86.46-.11.07-.22.15-.32.23-.02.01-.03.02-.04.03-1.95,1.32-3.38,3.53-3.59,6.61.08.22.17.43.26.63.18.4.38.75.6,1.04.08.1.16.2.25.29t.02.02c.61.66,1.33.92,2.13.74.03,0,.06-.02.09-.03.63-.16,1.31-.59,2.01-1.33.03-.02.06-.05.08-.08.14-.15.27-.3.41-.47,2.55-3.49,3.03-3.45,5.77.24.21.24.43.46.65.64,0,.02.02.02.03.03.7.59,1.44.93,2.13.98h.01c.18.02.35.02.51.01.53-.07,1.01-.31,1.39-.73.01-.01.02-.02.02-.03.32-.35.56-.83.7-1.45.06-.21.1-.44.12-.69.03-.2.05-.4.04-.57-.07-.83-.24-1.59-.49-2.29Zm28.06,17.4c-10.8-.09-21.61-.09-32.41,0-4.67.12-6.89,2.65-6.78,7.31.27,12.14,10.19,21.43,22.96,21.52,16.76,2.34,33.05-26.63,16.23-28.83Zm-15.92,22.44c-9.38.17-15.88-5.78-16.8-15.82h32.84c-.6,9.69-6.78,15.66-16.04,15.82Zm26.13-42.19c-.17-.19-.34-.38-.53-.56-.04-.04-.08-.08-.13-.12-.15-.14-.3-.27-.45-.39-.05-.04-.1-.08-.15-.12-.19-.15-.39-.29-.6-.42-.07-.05-.14-.09-.21-.14-.22-.13-.44-.26-.67-.37-.21-.11-.44-.21-.66-.3-.5-.2-1.03-.35-1.57-.46-.24-.05-.49-.09-.74-.11-.3-.03-.61-.04-.92-.04-.26,0-.52.02-.77.05-.19.02-.38.05-.57.09-.2.04-.4.08-.59.13h-.02c-.13.03-.25.07-.37.11-.12.04-.25.09-.37.13-.13.05-.25.1-.38.15-.74.31-1.45.71-2.1,1.19-.12.09-.24.18-.36.28-.23.2-.45.39-.66.6-1.72,1.7-2.72,3.95-2.1,5.99.05.14.11.29.18.44.09.17.18.35.29.52.17.33.41.65.72.95.16.18.33.35.51.49.1.09.2.17.31.24.46.01.88-.06,1.27-.2.21-.09.43-.2.64-.32.01-.01.02-.01.03-.02.08-.05.17-.1.25-.15.1-.06.2-.12.29-.2.52-.41.96-.91,1.36-1.42.06-.08.11-.15.17-.22.05-.07.1-.13.16-.2v-.02l.15-.18s.05-.08.08-.11c0,0-.01,0,0,0,.02-.03.04-.05.07-.07.83-1.04,1.56-1.84,2.57-1.35.01,0,.03.02.05.03.61.32,1.33,1.13,2.23,2.65.73.98,2.31,1.32,3.5,1.96.77-.84,1.27-1.73,1.53-2.62,0-.01.01-.03.01-.04.59-2.09-.06-4.19-1.45-5.84Zm0,0c-.17-.19-.34-.38-.53-.56-.04-.04-.08-.08-.13-.12-.15-.14-.3-.27-.45-.39-.05-.04-.1-.08-.15-.12-.19-.15-.39-.29-.6-.42-.07-.05-.14-.09-.21-.14-.22-.13-.44-.26-.67-.37-.21-.11-.44-.21-.66-.3-.5-.2-1.03-.35-1.57-.46-.24-.05-.49-.09-.74-.11-.3-.03-.61-.04-.92-.04-.26,0-.52.02-.77.05-.19.02-.38.05-.57.09-.2.04-.4.08-.59.13h-.02c-.13.03-.25.07-.37.11-.12.04-.25.09-.37.13-.13.05-.25.1-.38.15-.74.31-1.45.71-2.1,1.19-.12.09-.24.18-.36.28-.23.2-.45.39-.66.6-1.72,1.7-2.72,3.95-2.1,5.99.05.14.11.29.18.44.09.17.18.35.29.52.17.33.41.65.72.95.16.18.33.35.51.49.1.09.2.17.31.24.46.01.88-.06,1.27-.2.21-.09.43-.2.64-.32.01-.01.02-.01.03-.02.08-.05.17-.1.25-.15.1-.06.2-.12.29-.2.52-.41.96-.91,1.36-1.42.06-.08.11-.15.17-.22.05-.07.1-.13.16-.2v-.02l.15-.18s.05-.08.08-.11c0,0-.01,0,0,0,.02-.03.04-.05.07-.07.83-1.04,1.56-1.84,2.57-1.35.01,0,.03.02.05.03.61.32,1.33,1.13,2.23,2.65.73.98,2.31,1.32,3.5,1.96.77-.84,1.27-1.73,1.53-2.62,0-.01.01-.03.01-.04.59-2.09-.06-4.19-1.45-5.84Zm-10.21,19.75c-10.8-.09-21.61-.09-32.41,0-4.67.12-6.89,2.65-6.78,7.31.27,12.14,10.19,21.43,22.96,21.52,16.76,2.34,33.05-26.63,16.23-28.83Zm-15.92,22.44c-9.38.17-15.88-5.78-16.8-15.82h32.84c-.6,9.69-6.78,15.66-16.04,15.82Zm-13.86-42.45s-.03-.04-.05-.05c-.04-.05-.08-.09-.12-.13-.16-.2-.35-.39-.54-.57-.01-.01-.02-.01-.02-.02-1.35-1.24-3.17-2.06-5.47-1.99h-.11c-.21,0-.41.01-.62.03-.18.01-.37.03-.55.06-.05.01-.1.01-.15.03-.39.06-.78.16-1.15.28-.2.06-.4.14-.6.22-.2.08-.39.17-.58.27-.04.01-.08.03-.12.06-.15.08-.3.16-.44.25-.18.11-.36.23-.54.35-.11.07-.22.15-.32.23-.02.01-.03.02-.04.03-.04.03-.08.06-.11.09-.24.2-.48.41-.71.63-.16.16-.32.33-.46.5-.07.08-.15.17-.22.26-.16.2-.31.4-.45.61-.16.23-.31.47-.45.72-.18.34-.35.69-.5,1.05-.09.21-.17.43-.24.65-.06.17-.11.33-.15.5-.04.15-.08.3-.11.45-.03.12-.05.24-.07.37-.05.26-.09.52-.12.78.08.22.17.43.26.63.18.4.38.75.6,1.04.08.1.16.2.25.29t.02.02c.61.66,1.33.92,2.13.74.03,0,.06-.02.09-.03.63-.16,1.31-.59,2.01-1.33.03-.02.06-.05.08-.08.14-.15.27-.3.41-.47,2.55-3.49,3.03-3.45,5.77.24,1.37,1.14,2.47,1.63,3.33,1.66.38.01.68-.07.96-.19.02-.02.03-.03.05-.05.62-.35.98-1.06,1.1-1.97.02-.09.03-.18.03-.27v-.02c.14-1.75-.56-4.08-2.08-5.87Zm-.09-15.1c-.74-.47-1.46-.78-2.18-.97h-.01c-1.19-.32-2.35-.3-3.51-.05h-.01c-2.06.45-4.07,1.61-6.03,2.83-.01,0-.02.01-.03.02-1.45.9-2.88,1.84-4.29,2.54-.82.53-.25,3.19-.32,4.87,1.43-.53,2.9-.98,4.38-1.43.07-.02.13-.04.19-.06,2.06-.62,4.12-1.24,6.06-2.09.05-.02.1-.04.15-.06,1.28-.57,2.51-1.25,3.66-2.09.04-.03.08-.07.12-.1.67-.5,1.32-1.07,1.92-1.71-.03-.56-.07-1.13-.1-1.7Zm0,0c-.74-.47-1.46-.78-2.18-.97h-.01c-1.19-.32-2.35-.3-3.51-.05h-.01c-2.06.45-4.07,1.61-6.03,2.83-.01,0-.02.01-.03.02-1.45.9-2.88,1.84-4.29,2.54-.82.53-.25,3.19-.32,4.87,1.43-.53,2.9-.98,4.38-1.43.07-.02.13-.04.19-.06,2.06-.62,4.12-1.24,6.06-2.09.05-.02.1-.04.15-.06,1.28-.57,2.51-1.25,3.66-2.09.04-.03.08-.07.12-.1.67-.5,1.32-1.07,1.92-1.71-.03-.56-.07-1.13-.1-1.7Zm.09,15.1s-.03-.04-.05-.05c-.04-.05-.08-.09-.12-.13-.16-.2-.35-.39-.54-.57-.01-.01-.02-.01-.02-.02-1.35-1.24-3.17-2.06-5.47-1.99h-.11c-.21,0-.41.01-.62.03-.18.01-.37.03-.55.06-.05.01-.1.01-.15.03-.39.06-.78.16-1.15.28-.2.06-.4.14-.6.22-.2.08-.39.17-.58.27-.04.01-.08.03-.12.06-.15.08-.3.16-.44.25-.18.11-.36.23-.54.35-.11.07-.22.15-.32.23-.02.01-.03.02-.04.03-.04.03-.08.06-.11.09-.24.2-.48.41-.71.63-.16.16-.32.33-.46.5-.07.08-.15.17-.22.26-.16.2-.31.4-.45.61-.16.23-.31.47-.45.72-.18.34-.35.69-.5,1.05-.09.21-.17.43-.24.65-.06.17-.11.33-.15.5-.04.15-.08.3-.11.45-.03.12-.05.24-.07.37-.05.26-.09.52-.12.78.08.22.17.43.26.63.18.4.38.75.6,1.04.08.1.16.2.25.29t.02.02c.61.66,1.33.92,2.13.74.03,0,.06-.02.09-.03.63-.16,1.31-.59,2.01-1.33.03-.02.06-.05.08-.08.14-.15.27-.3.41-.47,2.55-3.49,3.03-3.45,5.77.24,1.37,1.14,2.47,1.63,3.33,1.66.38.01.68-.07.96-.19.02-.02.03-.03.05-.05.62-.35.98-1.06,1.1-1.97.02-.09.03-.18.03-.27v-.02c.14-1.75-.56-4.08-2.08-5.87Zm29.78,20.01c-10.8-.09-21.61-.09-32.41,0-4.67.12-6.89,2.65-6.78,7.31.27,12.14,10.19,21.43,22.96,21.52,16.76,2.34,33.05-26.63,16.23-28.83Zm-15.92,22.44c-9.38.17-15.88-5.78-16.8-15.82h32.84c-.6,9.69-6.78,15.66-16.04,15.82Zm26.13-42.19c-.17-.19-.34-.38-.53-.56-.04-.04-.08-.08-.13-.12-.15-.14-.3-.27-.45-.39-.05-.04-.1-.08-.15-.12-.19-.15-.39-.29-.6-.42-.07-.05-.14-.09-.21-.14-.22-.13-.44-.26-.67-.37-.21-.11-.44-.21-.66-.3-.5-.2-1.03-.35-1.57-.46-.24-.05-.49-.09-.74-.11-.3-.03-.61-.04-.92-.04-.26,0-.52.02-.77.05-.19.02-.38.05-.57.09-.2.04-.4.08-.59.13h-.02c-.13.03-.25.07-.37.11-.12.04-.25.09-.37.13-.13.05-.25.1-.38.15-.74.31-1.45.71-2.1,1.19-.12.09-.24.18-.36.28-.23.2-.45.39-.66.6-1.72,1.7-2.72,3.95-2.1,5.99.05.14.11.29.18.44.09.17.18.35.29.52.17.33.41.65.72.95.16.18.33.35.51.49.1.09.2.17.31.24.46.01.88-.06,1.27-.2.21-.09.43-.2.64-.32.01-.01.02-.01.03-.02.08-.05.17-.1.25-.15.1-.06.2-.12.29-.2.52-.41.96-.91,1.36-1.42.06-.08.11-.15.17-.22.05-.07.1-.13.16-.2v-.02l.15-.18s.05-.08.08-.11c0,0-.01,0,0,0,.02-.03.04-.05.07-.07.83-1.04,1.56-1.84,2.57-1.35.01,0,.03.02.05.03.61.32,1.33,1.13,2.23,2.65.73.98,2.31,1.32,3.5,1.96.77-.84,1.27-1.73,1.53-2.62,0-.01.01-.03.01-.04.59-2.09-.06-4.19-1.45-5.84Zm0,0c-.17-.19-.34-.38-.53-.56-.04-.04-.08-.08-.13-.12-.15-.14-.3-.27-.45-.39-.05-.04-.1-.08-.15-.12-.19-.15-.39-.29-.6-.42-.07-.05-.14-.09-.21-.14-.22-.13-.44-.26-.67-.37-.21-.11-.44-.21-.66-.3-.5-.2-1.03-.35-1.57-.46-.24-.05-.49-.09-.74-.11-.3-.03-.61-.04-.92-.04-.26,0-.52.02-.77.05-.19.02-.38.05-.57.09-.2.04-.4.08-.59.13h-.02c-.13.03-.25.07-.37.11-.12.04-.25.09-.37.13-.13.05-.25.1-.38.15-.74.31-1.45.71-2.1,1.19-.12.09-.24.18-.36.28-.23.2-.45.39-.66.6-1.72,1.7-2.72,3.95-2.1,5.99.05.14.11.29.18.44.09.17.18.35.29.52.17.33.41.65.72.95.16.18.33.35.51.49.1.09.2.17.31.24.46.01.88-.06,1.27-.2.21-.09.43-.2.64-.32.01-.01.02-.01.03-.02.08-.05.17-.1.25-.15.1-.06.2-.12.29-.2.52-.41.96-.91,1.36-1.42.06-.08.11-.15.17-.22.05-.07.1-.13.16-.2v-.02l.15-.18s.05-.08.08-.11c0,0-.01,0,0,0,.02-.03.04-.05.07-.07.83-1.04,1.56-1.84,2.57-1.35.01,0,.03.02.05.03.61.32,1.33,1.13,2.23,2.65.73.98,2.31,1.32,3.5,1.96.77-.84,1.27-1.73,1.53-2.62,0-.01.01-.03.01-.04.59-2.09-.06-4.19-1.45-5.84Zm-10.21,19.75c-10.8-.09-21.61-.09-32.41,0-4.67.12-6.89,2.65-6.78,7.31.27,12.14,10.19,21.43,22.96,21.52,16.76,2.34,33.05-26.63,16.23-28.83Zm-15.92,22.44c-9.38.17-15.88-5.78-16.8-15.82h32.84c-.6,9.69-6.78,15.66-16.04,15.82Zm-13.86-42.45s-.03-.04-.05-.05c-.04-.05-.08-.09-.12-.13-.16-.2-.35-.39-.54-.57-.01-.01-.02-.01-.02-.02-1.35-1.24-3.17-2.06-5.47-1.99h-.11c-.21,0-.41.01-.62.03-.18.01-.37.03-.55.06-.05.01-.1.01-.15.03-.39.06-.78.16-1.15.28-.2.06-.4.14-.6.22-.2.08-.39.17-.58.27-.04.01-.08.03-.12.06-.15.08-.3.16-.44.25-.18.11-.36.23-.54.35-.11.07-.22.15-.32.23-.02.01-.03.02-.04.03-.04.03-.08.06-.11.09-.24.2-.48.41-.71.63-.16.16-.32.33-.46.5-.07.08-.15.17-.22.26-.16.2-.31.4-.45.61-.16.23-.31.47-.45.72-.18.34-.35.69-.5,1.05-.09.21-.17.43-.24.65-.06.17-.11.33-.15.5-.04.15-.08.3-.11.45-.03.12-.05.24-.07.37-.05.26-.09.52-.12.78.08.22.17.43.26.63.18.4.38.75.6,1.04.08.1.16.2.25.29t.02.02c.61.66,1.33.92,2.13.74.03,0,.06-.02.09-.03.63-.16,1.31-.59,2.01-1.33.03-.02.06-.05.08-.08.14-.15.27-.3.41-.47,2.55-3.49,3.03-3.45,5.77.24,1.37,1.14,2.47,1.63,3.33,1.66.38.01.68-.07.96-.19.02-.02.03-.03.05-.05.62-.35.98-1.06,1.1-1.97.02-.09.03-.18.03-.27v-.02c.14-1.75-.56-4.08-2.08-5.87Zm-.09-15.1c-.74-.47-1.46-.78-2.18-.97h-.01c-1.19-.32-2.35-.3-3.51-.05h-.01c-2.06.45-4.07,1.61-6.03,2.83-.01,0-.02.01-.03.02-1.45.9-2.88,1.84-4.29,2.54-.82.53-.25,3.19-.32,4.87,1.43-.53,2.9-.98,4.38-1.43.07-.02.13-.04.19-.06,2.06-.62,4.12-1.24,6.06-2.09.05-.02.1-.04.15-.06,1.28-.57,2.51-1.25,3.66-2.09.04-.03.08-.07.12-.1.67-.5,1.32-1.07,1.92-1.71-.03-.56-.07-1.13-.1-1.7Zm0,0c-.74-.47-1.46-.78-2.18-.97h-.01c-1.19-.32-2.35-.3-3.51-.05h-.01c-2.06.45-4.07,1.61-6.03,2.83-.01,0-.02.01-.03.02-1.45.9-2.88,1.84-4.29,2.54-.82.53-.25,3.19-.32,4.87,1.43-.53,2.9-.98,4.38-1.43.07-.02.13-.04.19-.06,2.06-.62,4.12-1.24,6.06-2.09.05-.02.1-.04.15-.06,1.28-.57,2.51-1.25,3.66-2.09.04-.03.08-.07.12-.1.67-.5,1.32-1.07,1.92-1.71-.03-.56-.07-1.13-.1-1.7Zm.09,15.1s-.03-.04-.05-.05c-.04-.05-.08-.09-.12-.13-.16-.2-.35-.39-.54-.57-.01-.01-.02-.01-.02-.02-1.35-1.24-3.17-2.06-5.47-1.99h-.11c-.21,0-.41.01-.62.03-.18.01-.37.03-.55.06-.05.01-.1.01-.15.03-.39.06-.78.16-1.15.28-.2.06-.4.14-.6.22-.2.08-.39.17-.58.27-.04.01-.08.03-.12.06-.15.08-.3.16-.44.25-.18.11-.36.23-.54.35-.11.07-.22.15-.32.23-.02.01-.03.02-.04.03-.04.03-.08.06-.11.09-.24.2-.48.41-.71.63-.16.16-.32.33-.46.5-.07.08-.15.17-.22.26-.16.2-.31.4-.45.61-.16.23-.31.47-.45.72-.18.34-.35.69-.5,1.05-.09.21-.17.43-.24.65-.06.17-.11.33-.15.5-.04.15-.08.3-.11.45-.03.12-.05.24-.07.37-.05.26-.09.52-.12.78.08.22.17.43.26.63.18.4.38.75.6,1.04.08.1.16.2.25.29t.02.02c.61.66,1.33.92,2.13.74.03,0,.06-.02.09-.03.63-.16,1.31-.59,2.01-1.33.03-.02.06-.05.08-.08.14-.15.27-.3.41-.47,2.55-3.49,3.03-3.45,5.77.24,1.37,1.14,2.47,1.63,3.33,1.66.38.01.68-.07.96-.19.02-.02.03-.03.05-.05.62-.35.98-1.06,1.1-1.97.02-.09.03-.18.03-.27v-.02c.14-1.75-.56-4.08-2.08-5.87Zm29.78,20.01c-10.8-.09-21.61-.09-32.41,0-4.67.12-6.89,2.65-6.78,7.31.27,12.14,10.19,21.43,22.96,21.52,16.76,2.34,33.05-26.63,16.23-28.83Zm-15.92,22.44c-9.38.17-15.88-5.78-16.8-15.82h32.84c-.6,9.69-6.78,15.66-16.04,15.82Zm26.13-42.19c-.17-.19-.34-.38-.53-.56-.04-.04-.08-.08-.13-.12-.15-.14-.3-.27-.45-.39-.05-.04-.1-.08-.15-.12-.19-.15-.39-.29-.6-.42-.07-.05-.14-.09-.21-.14-.22-.13-.44-.26-.67-.37-.21-.11-.44-.21-.66-.3-.5-.2-1.03-.35-1.57-.46-.24-.05-.49-.09-.74-.11-.3-.03-.61-.04-.92-.04-.26,0-.52.02-.77.05-.19.02-.38.05-.57.09-.2.04-.4.08-.59.13h-.02c-.13.03-.25.07-.37.11-.12.04-.25.09-.37.13-.13.05-.25.1-.38.15-.74.31-1.45.71-2.1,1.19-.12.09-.24.18-.36.28-.23.2-.45.39-.66.6-1.72,1.7-2.72,3.95-2.1,5.99.05.14.11.29.18.44.09.17.18.35.29.52.17.33.41.65.72.95.16.18.33.35.51.49.1.09.2.17.31.24.46.01.88-.06,1.27-.2.21-.09.43-.2.64-.32.01-.01.02-.01.03-.02.08-.05.17-.1.25-.15.1-.06.2-.12.29-.2.52-.41.96-.91,1.36-1.42.06-.08.11-.15.17-.22.05-.07.1-.13.16-.2v-.02l.15-.18s.05-.08.08-.11c0,0-.01,0,0,0,.02-.03.04-.05.07-.07.83-1.04,1.56-1.84,2.57-1.35.01,0,.03.02.05.03.61.32,1.33,1.13,2.23,2.65.73.98,2.31,1.32,3.5,1.96.77-.84,1.27-1.73,1.53-2.62,0-.01.01-.03.01-.04.59-2.09-.06-4.19-1.45-5.84Zm0,0c-.17-.19-.34-.38-.53-.56-.04-.04-.08-.08-.13-.12-.15-.14-.3-.27-.45-.39-.05-.04-.1-.08-.15-.12-.19-.15-.39-.29-.6-.42-.07-.05-.14-.09-.21-.14-.22-.13-.44-.26-.67-.37-.21-.11-.44-.21-.66-.3-.5-.2-1.03-.35-1.57-.46-.24-.05-.49-.09-.74-.11-.3-.03-.61-.04-.92-.04-.26,0-.52.02-.77.05-.19.02-.38.05-.57.09-.2.04-.4.08-.59.13h-.02c-.13.03-.25.07-.37.11-.12.04-.25.09-.37.13-.13.05-.25.1-.38.15-.74.31-1.45.71-2.1,1.19-.12.09-.24.18-.36.28-.23.2-.45.39-.66.6-1.72,1.7-2.72,3.95-2.1,5.99.05.14.11.29.18.44.09.17.18.35.29.52.17.33.41.65.72.95.16.18.33.35.51.49.1.09.2.17.31.24.46.01.88-.06,1.27-.2.21-.09.43-.2.64-.32.01-.01.02-.01.03-.02.08-.05.17-.1.25-.15.1-.06.2-.12.29-.2.52-.41.96-.91,1.36-1.42.06-.08.11-.15.17-.22.05-.07.1-.13.16-.2v-.02l.15-.18s.05-.08.08-.11c0,0-.01,0,0,0,.02-.03.04-.05.07-.07.83-1.04,1.56-1.84,2.57-1.35.01,0,.03.02.05.03.61.32,1.33,1.13,2.23,2.65.73.98,2.31,1.32,3.5,1.96.77-.84,1.27-1.73,1.53-2.62,0-.01.01-.03.01-.04.59-2.09-.06-4.19-1.45-5.84Zm-10.21,19.75c-10.8-.09-21.61-.09-32.41,0-4.67.12-6.89,2.65-6.78,7.31.27,12.14,10.19,21.43,22.96,21.52,16.76,2.34,33.05-26.63,16.23-28.83Zm-15.92,22.44c-9.38.17-15.88-5.78-16.8-15.82h32.84c-.6,9.69-6.78,15.66-16.04,15.82Zm-13.86-42.45s-.03-.04-.05-.05c-.04-.05-.08-.09-.12-.13-.16-.2-.35-.39-.54-.57-.01-.01-.02-.01-.02-.02-1.35-1.24-3.17-2.06-5.47-1.99h-.11c-.21,0-.41.01-.62.03-.18.01-.37.03-.55.06-.05.01-.1.01-.15.03-.39.06-.78.16-1.15.28-.2.06-.4.14-.6.22-.2.08-.39.17-.58.27-.04.01-.08.03-.12.06-.15.08-.3.16-.44.25-.18.11-.36.23-.54.35-.11.07-.22.15-.32.23-.02.01-.03.02-.04.03-.04.03-.08.06-.11.09-.24.2-.48.41-.71.63-.16.16-.32.33-.46.5-.07.08-.15.17-.22.26-.16.2-.31.4-.45.61-.16.23-.31.47-.45.72-.18.34-.35.69-.5,1.05-.09.21-.17.43-.24.65-.06.17-.11.33-.15.5-.04.15-.08.3-.11.45-.03.12-.05.24-.07.37-.05.26-.09.52-.12.78.08.22.17.43.26.63.18.4.38.75.6,1.04.08.1.16.2.25.29t.02.02c.61.66,1.33.92,2.13.74.03,0,.06-.02.09-.03.63-.16,1.31-.59,2.01-1.33.03-.02.06-.05.08-.08.14-.15.27-.3.41-.47,2.55-3.49,3.03-3.45,5.77.24,1.37,1.14,2.47,1.63,3.33,1.66.38.01.68-.07.96-.19.02-.02.03-.03.05-.05.62-.35.98-1.06,1.1-1.97.02-.09.03-.18.03-.27v-.02c.14-1.75-.56-4.08-2.08-5.87Zm-.09-15.1c-.74-.47-1.46-.78-2.18-.97h-.01c-1.19-.32-2.35-.3-3.51-.05h-.01c-2.06.45-4.07,1.61-6.03,2.83-.01,0-.02.01-.03.02-1.45.9-2.88,1.84-4.29,2.54-.82.53-.25,3.19-.32,4.87,1.43-.53,2.9-.98,4.38-1.43.07-.02.13-.04.19-.06,2.06-.62,4.12-1.24,6.06-2.09.05-.02.1-.04.15-.06,1.28-.57,2.51-1.25,3.66-2.09.04-.03.08-.07.12-.1.67-.5,1.32-1.07,1.92-1.71-.03-.56-.07-1.13-.1-1.7Zm0,0c-.74-.47-1.46-.78-2.18-.97h-.01c-1.19-.32-2.35-.3-3.51-.05h-.01c-2.06.45-4.07,1.61-6.03,2.83-.01,0-.02.01-.03.02-1.45.9-2.88,1.84-4.29,2.54-.82.53-.25,3.19-.32,4.87,1.43-.53,2.9-.98,4.38-1.43.07-.02.13-.04.19-.06,2.06-.62,4.12-1.24,6.06-2.09.05-.02.1-.04.15-.06,1.28-.57,2.51-1.25,3.66-2.09.04-.03.08-.07.12-.1.67-.5,1.32-1.07,1.92-1.71-.03-.56-.07-1.13-.1-1.7Zm.09,15.1s-.03-.04-.05-.05c-.04-.05-.08-.09-.12-.13-.16-.2-.35-.39-.54-.57-.01-.01-.02-.01-.02-.02-1.35-1.24-3.17-2.06-5.47-1.99h-.11c-.21,0-.41.01-.62.03-.18.01-.37.03-.55.06-.05.01-.1.01-.15.03-.39.06-.78.16-1.15.28-.2.06-.4.14-.6.22-.2.08-.39.17-.58.27-.04.01-.08.03-.12.06-.15.08-.3.16-.44.25-.18.11-.36.23-.54.35-.11.07-.22.15-.32.23-.02.01-.03.02-.04.03-.04.03-.08.06-.11.09-.24.2-.48.41-.71.63-.16.16-.32.33-.46.5-.07.08-.15.17-.22.26-.16.2-.31.4-.45.61-.16.23-.31.47-.45.72-.18.34-.35.69-.5,1.05-.09.21-.17.43-.24.65-.06.17-.11.33-.15.5-.04.15-.08.3-.11.45-.03.12-.05.24-.07.37-.05.26-.09.52-.12.78.08.22.17.43.26.63.18.4.38.75.6,1.04.08.1.16.2.25.29t.02.02c.61.66,1.33.92,2.13.74.03,0,.06-.02.09-.03.63-.16,1.31-.59,2.01-1.33.03-.02.06-.05.08-.08.14-.15.27-.3.41-.47,2.55-3.49,3.03-3.45,5.77.24,1.37,1.14,2.47,1.63,3.33,1.66.38.01.68-.07.96-.19.02-.02.03-.03.05-.05.62-.35.98-1.06,1.1-1.97.02-.09.03-.18.03-.27v-.02c.14-1.75-.56-4.08-2.08-5.87Zm29.78,20.01c-10.8-.09-21.61-.09-32.41,0-4.67.12-6.89,2.65-6.78,7.31.27,12.14,10.19,21.43,22.96,21.52,16.76,2.34,33.05-26.63,16.23-28.83Zm-15.92,22.44c-9.38.17-15.88-5.78-16.8-15.82h32.84c-.6,9.69-6.78,15.66-16.04,15.82Zm26.13-42.19c-.17-.19-.34-.38-.53-.56-.04-.04-.08-.08-.13-.12-.15-.14-.3-.27-.45-.39-.05-.04-.1-.08-.15-.12-.19-.15-.39-.29-.6-.42-.07-.05-.14-.09-.21-.14-.22-.13-.44-.26-.67-.37-.21-.11-.44-.21-.66-.3-.5-.2-1.03-.35-1.57-.46-.24-.05-.49-.09-.74-.11-.3-.03-.61-.04-.92-.04-.26,0-.52.02-.77.05-.19.02-.38.05-.57.09-.2.04-.4.08-.59.13h-.02c-.13.03-.25.07-.37.11-.12.04-.25.09-.37.13-.13.05-.25.1-.38.15-.74.31-1.45.71-2.1,1.19-.12.09-.24.18-.36.28-.23.2-.45.39-.66.6-1.72,1.7-2.72,3.95-2.1,5.99.05.14.11.29.18.44.09.17.18.35.29.52.17.33.41.65.72.95.16.18.33.35.51.49.1.09.2.17.31.24.46.01.88-.06,1.27-.2.21-.09.43-.2.64-.32.01-.01.02-.01.03-.02.08-.05.17-.1.25-.15.1-.06.2-.12.29-.2.52-.41.96-.91,1.36-1.42.06-.08.11-.15.17-.22.05-.07.1-.13.16-.2v-.02l.15-.18s.05-.08.08-.11c0,0-.01,0,0,0,.02-.03.04-.05.07-.07.83-1.04,1.56-1.84,2.57-1.35.01,0,.03.02.05.03.61.32,1.33,1.13,2.23,2.65.73.98,2.31,1.32,3.5,1.96.77-.84,1.27-1.73,1.53-2.62,0-.01.01-.03.01-.04.59-2.09-.06-4.19-1.45-5.84Zm0,0c-.17-.19-.34-.38-.53-.56-.04-.04-.08-.08-.13-.12-.15-.14-.3-.27-.45-.39-.05-.04-.1-.08-.15-.12-.19-.15-.39-.29-.6-.42-.07-.05-.14-.09-.21-.14-.22-.13-.44-.26-.67-.37-.21-.11-.44-.21-.66-.3-.5-.2-1.03-.35-1.57-.46-.24-.05-.49-.09-.74-.11-.3-.03-.61-.04-.92-.04-.26,0-.52.02-.77.05-.19.02-.38.05-.57.09-.2.04-.4.08-.59.13h-.02c-.13.03-.25.07-.37.11-.12.04-.25.09-.37.13-.13.05-.25.1-.38.15-.74.31-1.45.71-2.1,1.19-.12.09-.24.18-.36.28-.23.2-.45.39-.66.6-1.72,1.7-2.72,3.95-2.1,5.99.05.14.11.29.18.44.09.17.18.35.29.52.17.33.41.65.72.95.16.18.33.35.51.49.1.09.2.17.31.24.46.01.88-.06,1.27-.2.21-.09.43-.2.64-.32.01-.01.02-.01.03-.02.08-.05.17-.1.25-.15.1-.06.2-.12.29-.2.52-.41.96-.91,1.36-1.42.06-.08.11-.15.17-.22.05-.07.1-.13.16-.2v-.02l.15-.18s.05-.08.08-.11c0,0-.01,0,0,0,.02-.03.04-.05.07-.07.83-1.04,1.56-1.84,2.57-1.35.01,0,.03.02.05.03.61.32,1.33,1.13,2.23,2.65.73.98,2.31,1.32,3.5,1.96.77-.84,1.27-1.73,1.53-2.62,0-.01.01-.03.01-.04.59-2.09-.06-4.19-1.45-5.84Zm-10.21,19.75c-10.8-.09-21.61-.09-32.41,0-4.67.12-6.89,2.65-6.78,7.31.27,12.14,10.19,21.43,22.96,21.52,16.76,2.34,33.05-26.63,16.23-28.83Zm-15.92,22.44c-9.38.17-15.88-5.78-16.8-15.82h32.84c-.6,9.69-6.78,15.66-16.04,15.82Zm-13.86-42.45s-.03-.04-.05-.05c-.04-.05-.08-.09-.12-.13-.16-.2-.35-.39-.54-.57-.01-.01-.02-.01-.02-.02-1.35-1.24-3.17-2.06-5.47-1.99h-.11c-.21,0-.41.01-.62.03-.18.01-.37.03-.55.06-.05.01-.1.01-.15.03-.39.06-.78.16-1.15.28-.2.06-.4.14-.6.22-.2.08-.39.17-.58.27-.04.01-.08.03-.12.06-.15.08-.3.16-.44.25-.18.11-.36.23-.54.35-.11.07-.22.15-.32.23-.02.01-.03.02-.04.03-.04.03-.08.06-.11.09-.24.2-.48.41-.71.63-.16.16-.32.33-.46.5-.07.08-.15.17-.22.26-.16.2-.31.4-.45.61-.16.23-.31.47-.45.72-.18.34-.35.69-.5,1.05-.09.21-.17.43-.24.65-.06.17-.11.33-.15.5-.04.15-.08.3-.11.45-.03.12-.05.24-.07.37-.05.26-.09.52-.12.78.08.22.17.43.26.63.18.4.38.75.6,1.04.08.1.16.2.25.29t.02.02c.61.66,1.33.92,2.13.74.03,0,.06-.02.09-.03.63-.16,1.31-.59,2.01-1.33.03-.02.06-.05.08-.08.14-.15.27-.3.41-.47,2.55-3.49,3.03-3.45,5.77.24,1.37,1.14,2.47,1.63,3.33,1.66.38.01.68-.07.96-.19.02-.02.03-.03.05-.05.62-.35.98-1.06,1.1-1.97.02-.09.03-.18.03-.27v-.02c.14-1.75-.56-4.08-2.08-5.87Zm-.09-15.1c-.74-.47-1.46-.78-2.18-.97h-.01c-1.19-.32-2.35-.3-3.51-.05h-.01c-2.06.45-4.07,1.61-6.03,2.83-.01,0-.02.01-.03.02-1.45.9-2.88,1.84-4.29,2.54-.82.53-.25,3.19-.32,4.87,1.43-.53,2.9-.98,4.38-1.43.07-.02.13-.04.19-.06,2.06-.62,4.12-1.24,6.06-2.09.05-.02.1-.04.15-.06,1.28-.57,2.51-1.25,3.66-2.09.04-.03.08-.07.12-.1.67-.5,1.32-1.07,1.92-1.71-.03-.56-.07-1.13-.1-1.7Zm0,0c-.74-.47-1.46-.78-2.18-.97h-.01c-1.19-.32-2.35-.3-3.51-.05h-.01c-2.06.45-4.07,1.61-6.03,2.83-.01,0-.02.01-.03.02-1.45.9-2.88,1.84-4.29,2.54-.82.53-.25,3.19-.32,4.87,1.43-.53,2.9-.98,4.38-1.43.07-.02.13-.04.19-.06,2.06-.62,4.12-1.24,6.06-2.09.05-.02.1-.04.15-.06,1.28-.57,2.51-1.25,3.66-2.09.04-.03.08-.07.12-.1.67-.5,1.32-1.07,1.92-1.71-.03-.56-.07-1.13-.1-1.7Zm.09,15.1s-.03-.04-.05-.05c-.04-.05-.08-.09-.12-.13-.16-.2-.35-.39-.54-.57-.01-.01-.02-.01-.02-.02-1.35-1.24-3.17-2.06-5.47-1.99h-.11c-.21,0-.41.01-.62.03-.18.01-.37.03-.55.06-.05.01-.1.01-.15.03-.39.06-.78.16-1.15.28-.2.06-.4.14-.6.22-.2.08-.39.17-.58.27-.04.01-.08.03-.12.06-.15.08-.3.16-.44.25-.18.11-.36.23-.54.35-.11.07-.22.15-.32.23-.02.01-.03.02-.04.03-.04.03-.08.06-.11.09-.24.2-.48.41-.71.63-.16.16-.32.33-.46.5-.07.08-.15.17-.22.26-.16.2-.31.4-.45.61-.16.23-.31.47-.45.72-.18.34-.35.69-.5,1.05-.09.21-.17.43-.24.65-.06.17-.11.33-.15.5-.04.15-.08.3-.11.45-.03.12-.05.24-.07.37-.05.26-.09.52-.12.78.08.22.17.43.26.63.18.4.38.75.6,1.04.08.1.16.2.25.29t.02.02c.61.66,1.33.92,2.13.74.03,0,.06-.02.09-.03.63-.16,1.31-.59,2.01-1.33.03-.02.06-.05.08-.08.14-.15.27-.3.41-.47,2.55-3.49,3.03-3.45,5.77.24,1.37,1.14,2.47,1.63,3.33,1.66.38.01.68-.07.96-.19.02-.02.03-.03.05-.05.62-.35.98-1.06,1.1-1.97.02-.09.03-.18.03-.27v-.02c.14-1.75-.56-4.08-2.08-5.87Zm29.78,20.01c-10.8-.09-21.61-.09-32.41,0-4.67.12-6.89,2.65-6.78,7.31.27,12.14,10.19,21.43,22.96,21.52,16.76,2.34,33.05-26.63,16.23-28.83Zm-15.92,22.44c-9.38.17-15.88-5.78-16.8-15.82h32.84c-.6,9.69-6.78,15.66-16.04,15.82Zm26.13-42.19c-.17-.19-.34-.38-.53-.56-.04-.04-.08-.08-.13-.12-.15-.14-.3-.27-.45-.39-.05-.04-.1-.08-.15-.12-.19-.15-.39-.29-.6-.42-.07-.05-.14-.09-.21-.14-.22-.13-.44-.26-.67-.37-.21-.11-.44-.21-.66-.3-.5-.2-1.03-.35-1.57-.46-.24-.05-.49-.09-.74-.11-.3-.03-.61-.04-.92-.04-.26,0-.52.02-.77.05-.19.02-.38.05-.57.09-.2.04-.4.08-.59.13h-.02c-.13.03-.25.07-.37.11-.12.04-.25.09-.37.13-.13.05-.25.1-.38.15-.74.31-1.45.71-2.1,1.19-.12.09-.24.18-.36.28-.23.2-.45.39-.66.6-1.72,1.7-2.72,3.95-2.1,5.99.05.14.11.29.18.44.09.17.18.35.29.52.17.33.41.65.72.95.16.18.33.35.51.49.1.09.2.17.31.24.46.01.88-.06,1.27-.2.21-.09.43-.2.64-.32.01-.01.02-.01.03-.02.08-.05.17-.1.25-.15.1-.06.2-.12.29-.2.52-.41.96-.91,1.36-1.42.06-.08.11-.15.17-.22.05-.07.1-.13.16-.2v-.02l.15-.18s.05-.08.08-.11c0,0-.01,0,0,0,.02-.03.04-.05.07-.07.83-1.04,1.56-1.84,2.57-1.35.01,0,.03.02.05.03.61.32,1.33,1.13,2.23,2.65.73.98,2.31,1.32,3.5,1.96.77-.84,1.27-1.73,1.53-2.62,0-.01.01-.03.01-.04.59-2.09-.06-4.19-1.45-5.84Zm4.04-10.44c-4.19-2.57-8.58-4.81-13.26-7.34-2.62,1.49-4,3.92-1.78,6.02,3.46,1.74,17.97,11.46,15.04,1.32Zm0,0c-4.19-2.57-8.58-4.81-13.26-7.34-2.62,1.49-4,3.92-1.78,6.02,3.46,1.74,17.97,11.46,15.04,1.32Zm-4.04,10.44c-.17-.19-.34-.38-.53-.56-.04-.04-.08-.08-.13-.12-.15-.14-.3-.27-.45-.39-.05-.04-.1-.08-.15-.12-.19-.15-.39-.29-.6-.42-.07-.05-.14-.09-.21-.14-.22-.13-.44-.26-.67-.37-.21-.11-.44-.21-.66-.3-.5-.2-1.03-.35-1.57-.46-.24-.05-.49-.09-.74-.11-.3-.03-.61-.04-.92-.04-.26,0-.52.02-.77.05-.19.02-.38.05-.57.09-.2.04-.4.08-.59.13h-.02c-.13.03-.25.07-.37.11-.12.04-.25.09-.37.13-.13.05-.25.1-.38.15-.74.31-1.45.71-2.1,1.19-.12.09-.24.18-.36.28-.23.2-.45.39-.66.6-1.72,1.7-2.72,3.95-2.1,5.99.05.14.11.29.18.44.09.17.18.35.29.52.17.33.41.65.72.95.16.18.33.35.51.49.1.09.2.17.31.24.46.01.88-.06,1.27-.2.21-.09.43-.2.64-.32.01-.01.02-.01.03-.02.08-.05.17-.1.25-.15.1-.06.2-.12.29-.2.52-.41.96-.91,1.36-1.42.06-.08.11-.15.17-.22.05-.07.1-.13.16-.2v-.02l.15-.18s.05-.08.08-.11c0,0-.01,0,0,0,.02-.03.04-.05.07-.07.83-1.04,1.56-1.84,2.57-1.35.01,0,.03.02.05.03.61.32,1.33,1.13,2.23,2.65.73.98,2.31,1.32,3.5,1.96.77-.84,1.27-1.73,1.53-2.62,0-.01.01-.03.01-.04.59-2.09-.06-4.19-1.45-5.84Zm-10.21,19.75c-10.8-.09-21.61-.09-32.41,0-4.67.12-6.89,2.65-6.78,7.31.27,12.14,10.19,21.43,22.96,21.52,16.76,2.34,33.05-26.63,16.23-28.83Zm-15.92,22.44c-9.38.17-15.88-5.78-16.8-15.82h32.84c-.6,9.69-6.78,15.66-16.04,15.82Zm-13.86-42.45s-.03-.04-.05-.05c-.04-.05-.08-.09-.12-.13-.16-.2-.35-.39-.54-.57-.01-.01-.02-.01-.02-.02-1.35-1.24-3.17-2.06-5.47-1.99h-.11c-.21,0-.41.01-.62.03-.18.01-.37.03-.55.06-.05.01-.1.01-.15.03-.39.06-.78.16-1.15.28-.2.06-.4.14-.6.22-.2.08-.39.17-.58.27-.04.01-.08.03-.12.06-.15.08-.3.16-.44.25-.18.11-.36.23-.54.35-.11.07-.22.15-.32.23-.02.01-.03.02-.04.03-.04.03-.08.06-.11.09-.24.2-.48.41-.71.63-.16.16-.32.33-.46.5-.07.08-.15.17-.22.26-.16.2-.31.4-.45.61-.16.23-.31.47-.45.72-.18.34-.35.69-.5,1.05-.09.21-.17.43-.24.65-.06.17-.11.33-.15.5-.04.15-.08.3-.11.45-.03.12-.05.24-.07.37-.05.26-.09.52-.12.78.08.22.17.43.26.63.18.4.38.75.6,1.04.08.1.16.2.25.29t.02.02c.61.66,1.33.92,2.13.74.03,0,.06-.02.09-.03.63-.16,1.31-.59,2.01-1.33.03-.02.06-.05.08-.08.14-.15.27-.3.41-.47,2.55-3.49,3.03-3.45,5.77.24,1.37,1.14,2.47,1.63,3.33,1.66.38.01.68-.07.96-.19.02-.02.03-.03.05-.05.62-.35.98-1.06,1.1-1.97.02-.09.03-.18.03-.27v-.02c.14-1.75-.56-4.08-2.08-5.87Zm-.09-15.1c-.74-.47-1.46-.78-2.18-.97h-.01c-1.19-.32-2.35-.3-3.51-.05h-.01c-2.06.45-4.07,1.61-6.03,2.83-.01,0-.02.01-.03.02-1.45.9-2.88,1.84-4.29,2.54-.82.53-.25,3.19-.32,4.87,1.43-.53,2.9-.98,4.38-1.43.07-.02.13-.04.19-.06,2.06-.62,4.12-1.24,6.06-2.09.05-.02.1-.04.15-.06,1.28-.57,2.51-1.25,3.66-2.09.04-.03.08-.07.12-.1.67-.5,1.32-1.07,1.92-1.71-.03-.56-.07-1.13-.1-1.7Z" fill="#231f20" stroke="#fff" stroke-miterlimit="10"/>
    <path d="m167.49,108.97v8.15h-84.56v303.98h52.51v8.32h-61.26V108.97h93.31Z" fill="#231f20" stroke="#fff" stroke-miterlimit="10"/>
    <path d="m442.55,429.41h-61.29v-8.09h52.49V117.32h-84.45v-8.48h93.25v320.57Z" fill="#231f20" stroke="#fff" stroke-miterlimit="10"/>
    <path d="m275.17,153.48c-.6,9.69-6.78,15.66-16.04,15.82-9.38.17-15.88-5.78-16.8-15.82h32.84Z" fill="#231f20" stroke="#fff" stroke-miterlimit="10"/>
    <path d="m230.42,148.32c-9.81,28.15-30.01,12.65-20.3,1.24,5.84-3.97,19.26-15.47,20.3-1.24Z" fill="#231f20" stroke="#fff" stroke-miterlimit="10"/>
    <path d="m309.32,158.85c-1.48,2.59-4.44,4.33-6.55,6.28-9.05-1.91-11.2-10.24-15.27-17.14-1.76-4.09,3.48-8.32,7.67-6.33,6.09,3.53,18.71,8.22,14.15,17.19Z" fill="#231f20" stroke="#fff" stroke-miterlimit="10"/>
  </g>
  <path d="m168.45,418.36c0,5.62-4.07,9.03-10.8,9.03h-6.4v7.84h-3.7v-25.9h10.1c6.73,0,10.8,3.4,10.8,9.03Zm-3.7,0c0-3.7-2.48-5.81-7.22-5.81h-6.29v11.62h6.29c4.74,0,7.22-2.11,7.22-5.81Z" fill="#231f20" stroke="#fff" stroke-miterlimit="10"/>
  <path d="m173.74,424.05v-14.73h3.7v14.58c0,5.74,2.63,8.33,7.29,8.33s7.33-2.59,7.33-8.33v-14.58h3.59v14.73c0,7.51-4.11,11.47-10.95,11.47s-10.95-3.96-10.95-11.47Z" fill="#231f20" stroke="#fff" stroke-miterlimit="10"/>
  <path d="m225.5,409.33v25.9h-3.03l-15.54-19.32v19.32h-3.7v-25.9h3.03l15.54,19.31v-19.31h3.7Z" fill="#231f20" stroke="#fff" stroke-miterlimit="10"/>
  <path d="m255.54,409.33v25.9h-3.03l-15.54-19.32v19.32h-3.7v-25.9h3.03l15.54,19.31v-19.31h3.7Z" fill="#231f20" stroke="#fff" stroke-miterlimit="10"/>
  <path d="m273.23,426.27v8.96h-3.66v-9.03l-10.29-16.87h3.96l8.29,13.65,8.33-13.65h3.66l-10.29,16.95Z" fill="#231f20" stroke="#fff" stroke-miterlimit="10"/>
  <path d="m307.71,418.36c0,5.62-4.07,9.03-10.8,9.03h-6.4v7.84h-3.7v-25.9h10.1c6.73,0,10.8,3.4,10.8,9.03Zm-3.7,0c0-3.7-2.48-5.81-7.22-5.81h-6.29v11.62h6.29c4.74,0,7.22-2.11,7.22-5.81Z" fill="#231f20" stroke="#fff" stroke-miterlimit="10"/>
  <path d="m312.41,422.28c0-7.58,5.85-13.25,13.8-13.25s13.73,5.62,13.73,13.25-5.85,13.25-13.73,13.25-13.8-5.66-13.8-13.25Zm23.83,0c0-5.74-4.29-9.95-10.03-9.95s-10.1,4.22-10.1,9.95,4.29,9.95,10.1,9.95,10.03-4.22,10.03-9.95Z" fill="#231f20" stroke="#fff" stroke-miterlimit="10"/>
  <path d="m367.51,418.36c0,5.62-4.07,9.03-10.8,9.03h-6.4v7.84h-3.7v-25.9h10.1c6.73,0,10.8,3.4,10.8,9.03Zm-3.7,0c0-3.7-2.48-5.81-7.22-5.81h-6.29v11.62h6.29c4.74,0,7.22-2.11,7.22-5.81Z" fill="#231f20" stroke="#fff" stroke-miterlimit="10"/>
</svg>