<svg xmlns="http://www.w3.org/2000/svg" xmlns:xlink="http://www.w3.org/1999/xlink" version="1.1" width="256" height="256" viewBox="0 0 256 256" xml:space="preserve">

<defs>
</defs>
<g style="stroke: none; stroke-width: 0; stroke-dasharray: none; stroke-linecap: round; stroke-linejoin: miter; stroke-miterlimit: 10; fill: aliceblue; fill-rule: nonzero; opacity: 1;" transform="translate(1.4065934065934016 1.4065934065934016) scale(2.81 2.81)" >
	<path d="M 45 90 C 20.187 90 0 69.813 0 45 C 0 20.187 20.187 0 45 0 c 24.813 0 45 20.187 45 45 C 90 69.813 69.813 90 45 90 z M 45 4 C 22.393 4 4 22.393 4 45 s 18.393 41 41 41 s 41 -18.393 41 -41 S 67.607 4 45 4 z" style="stroke: aliceblue; stroke-width: 2	; stroke-dasharray: none; stroke-linecap: round; stroke-linejoin: miter; stroke-miterlimit: 10; fill: aliceblue; fill-rule: nonzero; opacity: 1;" transform=" matrix(1 0 0 1 0 0) " stroke-linecap="round" />
	<path d="M 69.835 41.032 H 54.855 c -0.847 0 -1.602 -0.533 -1.885 -1.332 s -0.033 -1.688 0.625 -2.222 l 13.506 -10.957 c 0.856 -0.697 2.118 -0.564 2.813 0.293 c 0.696 0.858 0.565 2.118 -0.293 2.813 l -9.126 7.403 h 9.34 c 1.104 0 2 0.896 2 2 S 70.939 41.032 69.835 41.032 z" style="stroke: aliceblue; stroke-width: 2	; stroke-dasharray: none; stroke-linecap: round; stroke-linejoin: miter; stroke-miterlimit: 10; fill: aliceblue; fill-rule: nonzero; opacity: 1;" transform=" matrix(1 0 0 1 0 0) " stroke-linecap="round" />
	<path d="M 35.145 41.032 H 20.165 c -1.104 0 -2 -0.896 -2 -2 s 0.896 -2 2 -2 h 9.34 l -9.126 -7.403 c -0.857 -0.696 -0.989 -1.956 -0.293 -2.813 c 0.696 -0.858 1.956 -0.989 2.813 -0.293 l 13.505 10.957 c 0.657 0.534 0.908 1.423 0.625 2.222 C 36.747 40.499 35.991 41.032 35.145 41.032 z" style="stroke: aliceblue; stroke-width: 2	; stroke-dasharray: none; stroke-linecap: round; stroke-linejoin: miter; stroke-miterlimit: 10; fill: aliceblue; fill-rule: nonzero; opacity: 1;" transform=" matrix(1 0 0 1 0 0) " stroke-linecap="round" />
	<path  d="M 45 76.284 c -14.221 0 -25.79 -11.569 -25.79 -25.79 c 0 -1.104 0.896 -2 2 -2 h 47.58 c 1.104 0 2 0.896 2 2 C 70.79 64.715 59.221 76.284 45 76.284 z M 23.301 52.494 C 24.313 63.576 33.659 72.284 45 72.284 c 11.341 0 20.687 -8.708 21.699 -19.79 H 23.301 z" style="stroke: aliceblue; stroke-width: 2	; stroke-dasharray: none; stroke-linecap: round; stroke-linejoin: miter; stroke-miterlimit: 10; fill: aliceblue; fill-rule: nonzero; opacity: 1;" transform=" matrix(1 0 0 1 0 0) " stroke-linecap="round" />
</g>
</svg>