<?xml version="1.0" encoding="UTF-8" standalone="no" ?>
<!DOCTYPE svg PUBLIC "-//W3C//DTD SVG 1.1//EN" "http://www.w3.org/Graphics/SVG/1.1/DTD/svg11.dtd">
<svg xmlns="http://www.w3.org/2000/svg" xmlns:xlink="http://www.w3.org/1999/xlink" version="1.1" width="1080" height="1080" viewBox="0 0 1080 1080" xml:space="preserve">
<desc>Created with Fabric.js 5.2.4</desc>
<defs>
</defs>
<g transform="matrix(1 0 0 1 540 540)" id="077d7b31-ccca-48f3-afa5-35b53429d18b"  >
<rect style="stroke: none; stroke-width: 1; stroke-dasharray: none; stroke-linecap: butt; stroke-dashoffset: 0; stroke-linejoin: miter; stroke-miterlimit: 4; fill: rgb(255,255,255); fill-rule: nonzero; opacity: 1; visibility: hidden;" vector-effect="non-scaling-stroke"  x="-540" y="-540" rx="0" ry="0" width="1080" height="1080" />
</g>
<g transform="matrix(1 0 0 1 540 540)" id="2981d594-3662-45b4-9f60-a377fc1d6c1c"  >
</g>
<g transform="matrix(1.17 0 0 1 539.26 540)"  >
<g style="" vector-effect="non-scaling-stroke"   >
		<g transform="matrix(1 0 0 1 -26.27 17.79)"  >
<polygon style="stroke: none; stroke-width: 1; stroke-dasharray: none; stroke-linecap: butt; stroke-dashoffset: 0; stroke-linejoin: miter; stroke-miterlimit: 4; fill: rgb(0,0,0); fill-rule: nonzero; opacity: 1;" vector-effect="non-scaling-stroke"  points="-2.48,-0.58 -1.55,2.46 2.48,0.65 1.7,-2.46 " />
</g>
		<g transform="matrix(1 0 0 1 -31.39 -11.56)"  >
<path style="stroke: none; stroke-width: 1; stroke-dasharray: none; stroke-linecap: butt; stroke-dashoffset: 0; stroke-linejoin: miter; stroke-miterlimit: 4; fill: rgb(0,0,0); fill-rule: nonzero; opacity: 1;" vector-effect="non-scaling-stroke"  transform=" translate(-29.07, -60.07)" d="M 29.521 57.045 C 29.296 56.929 28.989 56.816 28.642 56.816 C 28.486 56.816 28.322 56.838 28.154 56.895 C 26.961 57.294000000000004 26.389 59.093 26.906 60.823 C 27.211 61.843 27.846999999999998 62.688 28.61 63.084 C 28.936 63.253 29.436999999999998 63.417 29.977 63.234 C 31.17 62.835 31.742 61.036 31.225 59.306000000000004 C 30.921 58.286 30.284 57.44 29.521 57.045 z" stroke-linecap="round" />
</g>
		<g transform="matrix(1 0 0 1 -17.43 -25.88)"  >
<path style="stroke: none; stroke-width: 1; stroke-dasharray: none; stroke-linecap: butt; stroke-dashoffset: 0; stroke-linejoin: miter; stroke-miterlimit: 4; fill: rgb(0,0,0); fill-rule: nonzero; opacity: 1;" vector-effect="non-scaling-stroke"  transform=" translate(-43.03, -45.74)" d="M 41.182 46.85 C 41.620000000000005 47.757000000000005 42.321000000000005 48.377 43.208 48.644 C 43.832 48.829 44.515 48.823 45.193 48.644 L 42.168 42.705 C 40.952 43.743 40.496 45.429 41.182 46.85 z" stroke-linecap="round" />
</g>
		<g transform="matrix(1 0 0 1 -7.52 5.93)"  >
<path style="stroke: none; stroke-width: 1; stroke-dasharray: none; stroke-linecap: butt; stroke-dashoffset: 0; stroke-linejoin: miter; stroke-miterlimit: 4; fill: rgb(0,0,0); fill-rule: nonzero; opacity: 1;" vector-effect="non-scaling-stroke"  transform=" translate(-52.93, -77.55)" d="M 45.768 63.345 C 44.319 64.011 44.037 66.035 45.048 68.501 L 55.919000000000004 90.69300000000001 C 56.602000000000004 90.793 57.295 91.00400000000002 57.99400000000001 91.33300000000001 C 58.367000000000004 91.50900000000001 58.724000000000004 91.72200000000001 59.068000000000005 91.95700000000001 C 59.34700000000001 90.542 60.229000000000006 89.301 61.42 88.59200000000001 L 49.881 65.437 C 48.812 63.346 46.964 62.792 45.768 63.345 z" stroke-linecap="round" />
</g>
		<g transform="matrix(1 0 0 1 5.11 33.41)"  >
<path style="stroke: none; stroke-width: 1; stroke-dasharray: none; stroke-linecap: butt; stroke-dashoffset: 0; stroke-linejoin: miter; stroke-miterlimit: 4; fill: rgb(0,0,0); fill-rule: nonzero; opacity: 1;" vector-effect="non-scaling-stroke"  transform=" translate(-65.57, -105.03)" d="M 78.308 90.543 C 77.38900000000001 88.25200000000001 75.599 86.62400000000001 63.04100000000001 90.04100000000001 C 61.95800000000001 90.33600000000001 61.10900000000001 91.38400000000001 60.97800000000001 92.59000000000002 C 60.92200000000001 93.10000000000002 60.96800000000001 93.84000000000002 61.50500000000001 94.47200000000002 C 62.17300000000001 95.25900000000003 63.46200000000001 95.72600000000003 65.233 95.82300000000002 C 65.25200000000001 95.82400000000003 68.85600000000001 95.90300000000002 73.18100000000001 95.44100000000002 C 73.74200000000002 95.38700000000001 74.22300000000001 95.78100000000002 74.28200000000001 96.32900000000002 C 74.34100000000001 96.87900000000002 73.94300000000001 97.37100000000002 73.394 97.43000000000002 C 73.37 97.43300000000002 73.34700000000001 97.43500000000002 73.32400000000001 97.43700000000003 C 73.30400000000002 99.47600000000003 73.28600000000002 104.59000000000003 73.546 107.80200000000002 L 73.56400000000001 108.02600000000002 C 73.83500000000001 111.40900000000002 73.909 112.31900000000003 77.391 116.18400000000003 C 77.76 116.59400000000002 77.72800000000001 117.22600000000003 77.31700000000001 117.59600000000003 C 77.12700000000001 117.76800000000003 76.887 117.85300000000004 76.64800000000001 117.85300000000004 C 76.37500000000001 117.85300000000004 76.102 117.74200000000003 75.90500000000002 117.52200000000003 C 71.96900000000002 113.15400000000004 71.86100000000002 111.80100000000003 71.57100000000001 108.18600000000004 L 71.552 107.96200000000003 C 71.29100000000001 104.73100000000004 71.302 99.80100000000003 71.322 97.61800000000004 C 67.857 97.88200000000003 65.283 97.82400000000004 65.155 97.82200000000003 C 64.388 97.78000000000003 63.698 97.67500000000003 63.068 97.51900000000003 C 64.099 99.78600000000003 65.208 102.79000000000003 65.997 106.49000000000004 C 66.469 108.54700000000004 65.965 110.51900000000003 64.646 111.75300000000004 C 63.801 112.54400000000004 62.688 112.95300000000005 61.454 112.95300000000005 C 61.176 112.95300000000005 60.891 112.92900000000004 60.602000000000004 112.88700000000004 C 60.199000000000005 113.82000000000005 59.49400000000001 114.50200000000004 58.737 114.90800000000004 C 56.792 115.95000000000005 53.897000000000006 115.64300000000004 52.416000000000004 113.32200000000005 L 49.06700000000001 108.51300000000005 C 49.04600000000001 108.48400000000005 49.02700000000001 108.45200000000004 49.00900000000001 108.42100000000005 C 48.763000000000005 107.97700000000005 48.193000000000005 107.37200000000004 47.882000000000005 107.39500000000005 C 47.34100000000001 107.43800000000006 46.852000000000004 107.02400000000006 46.81 106.47300000000006 C 46.768 105.92200000000005 47.181000000000004 105.44300000000005 47.732 105.40100000000005 C 49.397 105.26100000000005 50.513999999999996 107.02500000000005 50.735 107.41000000000005 L 54.079 112.21300000000005 C 54.946 113.57100000000005 56.676 113.74500000000005 57.792 113.14700000000005 C 59.021 112.48800000000004 59.297000000000004 111.14500000000005 58.553000000000004 109.46300000000005 L 54.156000000000006 101.32000000000005 C 53.154 99.46600000000005 51.34400000000001 98.21500000000005 49.434000000000005 98.05400000000004 C 46.984 97.85400000000004 45.09400000000001 99.12900000000005 44.232000000000006 101.56200000000004 C 43.69700000000001 103.07100000000004 43.724000000000004 104.84700000000004 44.309000000000005 106.56600000000005 L 49.56400000000001 121.98500000000004 L 85.952 121.98500000000004 C 89.121 111.80700000000004 86.145 106.20100000000004 82.401 99.14200000000004 C 80.992 96.489 79.537 93.748 78.308 90.543 z" stroke-linecap="round" />
</g>
		<g transform="matrix(1 0 0 1 -3.29 30.16)"  >
<path style="stroke: none; stroke-width: 1; stroke-dasharray: none; stroke-linecap: butt; stroke-dashoffset: 0; stroke-linejoin: miter; stroke-miterlimit: 4; fill: rgb(0,0,0); fill-rule: nonzero; opacity: 1;" vector-effect="non-scaling-stroke"  transform=" translate(-57.17, -101.78)" d="M 50.166 96.146 C 52.550999999999995 96.535 54.672 98.07000000000001 55.913 100.368 L 60.345 108.58099999999999 C 60.723 109.43099999999998 60.903 110.20499999999998 60.94 110.90299999999999 C 61.884 111.02999999999999 62.702 110.83099999999999 63.28 110.291 C 64.072 109.55 64.358 108.289 64.045 106.92 C 62.985 101.95400000000001 61.333 98.295 60.133 96.098 C 59.389 94.736 58.356 93.714 57.144000000000005 93.143 C 55.86900000000001 92.543 54.703 92.465 53.581 92.9 C 51.988 93.518 50.832 95.04 50.166 96.146 z" stroke-linecap="round" />
</g>
		<g transform="matrix(1 0 0 1 4.44 13.54)"  >
<path style="stroke: none; stroke-width: 1; stroke-dasharray: none; stroke-linecap: butt; stroke-dashoffset: 0; stroke-linejoin: miter; stroke-miterlimit: 4; fill: rgb(0,0,0); fill-rule: nonzero; opacity: 1;" vector-effect="non-scaling-stroke"  transform=" translate(-64.9, -85.16)" d="M 68.469 86.696 C 67.103 84.027 65.64999999999999 82.55799999999999 64.23299999999999 82.432 C 62.94699999999999 82.32000000000001 61.86199999999999 83.328 61.331999999999994 83.93 L 63.31099999999999 87.902 C 65.224 87.396 66.943 86.99 68.469 86.696 z" stroke-linecap="round" />
</g>
		<g transform="matrix(1 0 0 1 -10.46 -19.03)"  >
<path style="stroke: none; stroke-width: 1; stroke-dasharray: none; stroke-linecap: butt; stroke-dashoffset: 0; stroke-linejoin: miter; stroke-miterlimit: 4; fill: rgb(0,0,0); fill-rule: nonzero; opacity: 1;" vector-effect="non-scaling-stroke"  transform=" translate(-50, -52.59)" d="M 47.998 49.744 L 50.96 55.559 C 51.31 55.196999999999996 51.589 54.772999999999996 51.769 54.297999999999995 C 52.102 53.416999999999994 52.067 52.48 51.67 51.66 C 50.843 49.949 49.632 49.327 47.998 49.744 z" stroke-linecap="round" />
</g>
		<g transform="matrix(1 0 0 1 18.28 -11.83)"  >
<polygon style="stroke: none; stroke-width: 1; stroke-dasharray: none; stroke-linecap: butt; stroke-dashoffset: 0; stroke-linejoin: miter; stroke-miterlimit: 4; fill: rgb(0,0,0); fill-rule: nonzero; opacity: 1;" vector-effect="non-scaling-stroke"  points="-0.81,-3.51 -2.55,-2.56 0.78,3.51 2.55,2.54 " />
</g>
		<g transform="matrix(1 0 0 1 30.17 -33.52)"  >
<path style="stroke: none; stroke-width: 1; stroke-dasharray: none; stroke-linecap: butt; stroke-dashoffset: 0; stroke-linejoin: miter; stroke-miterlimit: 4; fill: rgb(0,0,0); fill-rule: nonzero; opacity: 1;" vector-effect="non-scaling-stroke"  transform=" translate(-90.63, -38.1)" d="M 69.55 0 C 68.838 1.402 66.725 4.939 62.015 8.672 C 61.31 9.231 60.449 10.136000000000001 60.348 11.276 C 60.263999999999996 12.225999999999999 60.705999999999996 13.256 61.664 14.338 C 61.665 14.338 64.124 16.907999999999998 67.61 20.282 C 67.883 20.547 67.983 20.944 67.867 21.306 C 67.863 21.318 67.46600000000001 22.566000000000003 67.188 23.970000000000002 C 66.995 24.948000000000004 67.32300000000001 25.955000000000002 68.066 26.666000000000004 L 69.784 28.311000000000003 C 70.64800000000001 29.139000000000003 71.917 29.378000000000004 73.01 28.930000000000003 C 77.2 27.200000000000003 84.518 24.651000000000003 91.24300000000001 24.651000000000003 C 92.65400000000001 24.651000000000003 94.03900000000002 24.763 95.364 25.019000000000002 C 99.211 25.761000000000003 102 28.139000000000003 103.015 31.543000000000003 C 104.135 35.300000000000004 102.801 39.605000000000004 99.532 42.777 C 97.72699999999999 44.528 94.706 47.458 90.51599999999999 49.728 C 89.1 50.497 88.49099999999999 52.157000000000004 89.12899999999999 53.507000000000005 C 89.85799999999999 55.04900000000001 91.57399999999998 56.12200000000001 94.231 56.697 C 95.85499999999999 57.049 97.189 58.191 97.8 59.753 C 98.66499999999999 61.965 99.687 65.205 100.837 69.383 C 101.48 71.713 103.283 73.916 105.433 74.996 C 108.22200000000001 76.399 113.908 77.79299999999999 120.914 71.612 L 120.914 0 L 69.55 0 z" stroke-linecap="round" />
</g>
		<g transform="matrix(1 0 0 1 22.6 -4.02)"  >
<polygon style="stroke: none; stroke-width: 1; stroke-dasharray: none; stroke-linecap: butt; stroke-dashoffset: 0; stroke-linejoin: miter; stroke-miterlimit: 4; fill: rgb(0,0,0); fill-rule: nonzero; opacity: 1;" vector-effect="non-scaling-stroke"  points="-2.57,-2.54 0.76,3.52 2.57,2.53 -0.79,-3.52 " />
</g>
		<g transform="matrix(1 0 0 1 25.89 -5.58)"  >
<path style="stroke: none; stroke-width: 1; stroke-dasharray: none; stroke-linecap: butt; stroke-dashoffset: 0; stroke-linejoin: miter; stroke-miterlimit: 4; fill: rgb(0,0,0); fill-rule: nonzero; opacity: 1;" vector-effect="non-scaling-stroke"  transform=" translate(-86.35, -66.04)" d="M 84.048 63.162 L 87.355 69.11 C 87.902 68.67 88.306 68.078 88.507 67.389 C 88.766 66.50099999999999 88.66300000000001 65.567 88.218 64.756 C 87.394 63.255 85.614 62.616 84.048 63.162 z" stroke-linecap="round" />
</g>
		<g transform="matrix(1 0 0 1 -7.87 -7.15)"  >
<path style="stroke: none; stroke-width: 1; stroke-dasharray: none; stroke-linecap: butt; stroke-dashoffset: 0; stroke-linejoin: miter; stroke-miterlimit: 4; fill: rgb(0,0,0); fill-rule: nonzero; opacity: 1;" vector-effect="non-scaling-stroke"  transform=" translate(-52.58, -64.47)" d="M 98.91 69.915 C 97.5 64.79400000000001 96.515 61.959 95.937 60.482000000000006 C 95.571 59.54500000000001 94.77499999999999 58.86200000000001 93.807 58.653000000000006 C 90.512 57.93900000000001 88.32900000000001 56.49600000000001 87.321 54.36300000000001 C 86.229 52.053000000000004 87.214 49.245000000000005 89.563 47.970000000000006 C 93.511 45.830000000000005 96.408 43.02 98.13900000000001 41.34100000000001 C 100.87100000000001 38.69000000000001 102.00500000000001 35.15400000000001 101.09800000000001 32.114000000000004 C 100.30300000000001 29.448000000000004 98.07500000000002 27.577000000000005 94.98500000000001 26.980000000000004 C 87.59000000000002 25.559000000000005 77.68800000000002 29.160000000000004 73.77300000000001 30.777000000000005 C 71.94700000000002 31.530000000000005 69.83900000000001 31.130000000000006 68.40100000000001 29.755000000000006 L 66.683 28.110000000000007 C 65.911 27.370000000000008 65.408 26.434000000000008 65.218 25.433000000000007 C 62.672000000000004 25.041000000000007 55.162000000000006 23.143000000000008 49.926 14.128000000000007 C 48.245000000000005 17.021000000000008 44.147000000000006 22.778000000000006 36.916000000000004 25.581000000000007 C 30.871000000000002 27.924000000000007 24.037000000000006 27.649000000000008 16.577000000000005 24.770000000000007 C 18.551 31.375 22.34 51.44 0 62.148 C 4.738 65.485 17.756 77.10300000000001 10.305 100.01400000000001 C 14.644 100.20200000000001 27.643 101.87100000000001 34.021 114.804 C 35.441 112.775 38.428 109.891 43.578 110.623 L 42.414 107.208 C 41.684000000000005 105.065 41.659 102.822 42.345 100.89099999999999 C 43.312 98.16699999999999 45.336999999999996 96.47599999999998 47.897999999999996 96.121 C 48.483 94.93299999999999 50.116 92.104 52.845 91.038 C 53.137 90.92399999999999 53.434 90.841 53.732 90.774 L 43.225 69.32 C 41.544000000000004 65.22999999999999 42.877 62.471999999999994 44.932 61.526999999999994 C 46.97 60.590999999999994 50.024 61.32299999999999 51.667 64.535 L 60.392 82.04299999999999 C 61.287000000000006 81.21499999999999 62.687000000000005 80.29199999999999 64.396 80.439 C 66.671 80.633 68.727 82.63699999999999 70.519 86.35499999999999 C 76.209 85.55499999999999 78.9 86.648 80.16900000000001 89.81199999999998 C 81.361 92.91699999999999 82.787 95.60399999999998 84.165 98.20299999999999 C 84.98100000000001 99.74099999999999 85.768 101.23499999999999 86.476 102.74099999999999 C 90.15899999999999 101.97999999999999 94.791 103.34499999999998 97.374 104.29699999999998 C 92.978 87.89399999999998 101.241 79.85599999999998 105.167 77.07699999999998 C 104.938 76.97699999999999 104.72200000000001 76.87899999999999 104.535 76.78499999999998 C 101.863 75.441 99.708 72.81 98.91 69.915 z M 67.671 46.594 C 68.218 46.668 68.602 47.172000000000004 68.527 47.719 C 68.452 48.266 67.949 48.65 67.402 48.575 C 66.855 48.50000000000001 66.471 47.997 66.546 47.449000000000005 C 66.62 46.903 67.123 46.519 67.671 46.594 z M 57.307 28.65 C 57.793 28.386 58.400000000000006 28.564999999999998 58.664 29.048 L 66.458 43.319 C 66.723 43.804 66.544 44.412000000000006 66.06 44.676 C 65.908 44.759 65.744 44.798 65.581 44.798 C 65.227 44.798 64.884 44.61 64.702 44.277 L 56.908 30.006 C 56.644 29.522 56.822 28.915 57.307 28.65 z M 63.152 51.427 C 63.078 51.974 62.574 52.358 62.027 52.283 C 61.480000000000004 52.209 61.096000000000004 51.705 61.171 51.157000000000004 C 61.245 50.61000000000001 61.749 50.226000000000006 62.296 50.301 C 62.843 50.376 63.226 50.88 63.152 51.427 z M 20.959 66.168 C 19.636 63.68600000000001 19.113 60.694 19.527 57.961000000000006 C 20.444000000000003 51.89000000000001 24.778000000000002 49.154 28.471000000000004 49.154 C 28.517000000000003 49.154 28.561000000000003 49.155 28.606000000000005 49.155 C 32.316 49.222 36.36900000000001 51.991 37.057 58.023 C 37.230000000000004 59.53 36.431000000000004 60.911 35.160000000000004 61.306000000000004 C 34.865 61.397000000000006 34.181000000000004 61.527 33.364000000000004 61.188 C 33.17700000000001 63.036 32.172000000000004 64.608 30.612000000000005 65.129 C 30.249000000000006 65.251 29.872000000000007 65.311 29.491000000000007 65.311 C 28.885000000000005 65.311 28.269000000000005 65.159 27.689000000000007 64.858 C 26.436000000000007 64.208 25.453000000000007 62.94500000000001 24.99000000000001 61.394000000000005 C 24.15800000000001 58.61200000000001 25.29300000000001 55.742000000000004 27.51900000000001 54.998000000000005 C 28.460000000000008 54.682 29.498000000000008 54.779 30.442000000000007 55.269000000000005 C 31.436000000000007 55.785000000000004 32.25600000000001 56.690000000000005 32.78500000000001 57.816 C 32.78800000000001 57.821000000000005 32.79300000000001 57.824000000000005 32.796000000000014 57.829 C 33.46400000000001 59.084 34.16900000000001 59.526 34.56600000000002 59.395 C 34.868000000000016 59.301 35.13900000000002 58.847 35.07100000000002 58.249 C 34.481000000000016 53.089 31.20100000000002 51.202000000000005 28.570000000000018 51.154 C 28.535000000000018 51.153000000000006 28.499000000000017 51.153000000000006 28.46300000000002 51.153000000000006 C 25.51600000000002 51.153000000000006 22.24800000000002 53.336000000000006 21.505000000000017 58.25800000000001 C 21.154000000000018 60.57500000000001 21.599000000000018 63.11400000000001 22.725000000000016 65.22500000000001 C 23.746000000000016 67.14000000000001 26.695000000000014 69.84700000000001 30.054000000000016 69.87 C 30.069000000000017 69.87 30.083000000000016 69.87 30.097000000000016 69.87 C 33.19100000000002 69.87 35.987000000000016 67.64 38.40900000000001 63.24 C 38.67500000000001 62.756 39.28200000000001 62.582 39.76700000000001 62.846000000000004 C 40.25000000000001 63.11300000000001 40.42700000000001 63.720000000000006 40.16100000000001 64.20400000000001 C 36.68000000000001 70.52900000000001 32.775000000000006 71.86900000000001 30.095000000000006 71.86900000000001 C 30.077000000000005 71.86900000000001 30.060000000000006 71.86900000000001 30.042000000000005 71.86900000000001 C 25.625 71.842 22.127 68.357 20.959 66.168 z M 42.126 89.804 L 39.016999999999996 91.19800000000001 L 40.090999999999994 95.46100000000001 C 40.22599999999999 95.99600000000001 39.901999999999994 96.54 39.364999999999995 96.67500000000001 C 39.282999999999994 96.69600000000001 39.20099999999999 96.70500000000001 39.12 96.70500000000001 C 38.672999999999995 96.70500000000001 38.266 96.403 38.150999999999996 95.94900000000001 L 37.163 92.028 L 33.227 93.792 L 34.236 97.08800000000001 C 34.397999999999996 97.61600000000001 34.101 98.176 33.573 98.337 C 33.475 98.367 33.377 98.381 33.28 98.381 C 32.851 98.381 32.456 98.105 32.324 97.674 L 31.387999999999998 94.61600000000001 L 29.58 95.42700000000002 C 29.447 95.48700000000002 29.308999999999997 95.51500000000001 29.171999999999997 95.51500000000001 C 28.788999999999998 95.51500000000001 28.424999999999997 95.29500000000002 28.258999999999997 94.92400000000002 C 28.031999999999996 94.42000000000002 28.257999999999996 93.82800000000002 28.761999999999997 93.60300000000002 L 30.798999999999996 92.69000000000003 L 29.867999999999995 89.64900000000003 L 27.470999999999997 90.72300000000003 C 27.337999999999997 90.78300000000003 27.199999999999996 90.81100000000002 27.062999999999995 90.81100000000002 C 26.679999999999996 90.81100000000002 26.315999999999995 90.59100000000002 26.149999999999995 90.22000000000003 C 25.922999999999995 89.71600000000002 26.148999999999994 89.12400000000002 26.652999999999995 88.89900000000003 L 29.277999999999995 87.72200000000002 L 28.268999999999995 84.42600000000002 C 28.106999999999996 83.89800000000001 28.403999999999996 83.33800000000002 28.931999999999995 83.17700000000002 C 29.460999999999995 83.01300000000002 30.019999999999996 83.31200000000003 30.180999999999994 83.84000000000002 L 31.116999999999994 86.89700000000002 L 35.388999999999996 84.98200000000001 L 34.528 81.56400000000001 C 34.393 81.02900000000001 34.717 80.48500000000001 35.254 80.35000000000001 C 35.79 80.21600000000001 36.333 80.539 36.467999999999996 81.07600000000001 L 37.242999999999995 84.15100000000001 L 39.199 83.27400000000002 C 39.704 83.04700000000001 40.295 83.27300000000001 40.519999999999996 83.77700000000002 C 40.74699999999999 84.28100000000002 40.520999999999994 84.87300000000002 40.016999999999996 85.09800000000001 L 37.739 86.11900000000001 L 38.522 89.22700000000002 L 41.309 87.97800000000002 C 41.812999999999995 87.75000000000003 42.406 87.97700000000002 42.629999999999995 88.48100000000002 C 42.855 88.986 42.63 89.578 42.126 89.804 z M 49.492 88.477 C 50.041999999999994 88.525 50.449999999999996 89.009 50.401999999999994 89.56 C 50.35399999999999 90.111 49.86999999999999 90.518 49.318999999999996 90.47 C 48.768 90.422 48.361 89.938 48.409 89.387 C 48.457 88.836 48.941 88.429 49.492 88.477 z M 43.018 76.913 L 48.122 85.26599999999999 C 48.41 85.73799999999999 48.261 86.353 47.79 86.64099999999999 C 47.627 86.74099999999999 47.446999999999996 86.78699999999999 47.269 86.78699999999999 C 46.931999999999995 86.78699999999999 46.603 86.61699999999999 46.415 86.30799999999999 L 41.311 77.955 C 41.023 77.483 41.172 76.868 41.643 76.58 C 42.114 76.292 42.729 76.442 43.018 76.913 z M 53.64 55.004 C 53.283 55.949999999999996 52.672 56.759 51.895 57.394999999999996 L 53.364000000000004 60.279999999999994 C 53.615 60.77199999999999 53.42 61.37499999999999 52.92700000000001 61.62499999999999 C 52.781000000000006 61.69899999999999 52.626000000000005 61.733999999999995 52.474000000000004 61.733999999999995 C 52.11000000000001 61.733999999999995 51.758 61.535 51.582 61.187999999999995 L 50.161 58.397999999999996 C 49.518 58.63099999999999 48.849000000000004 58.751999999999995 48.18 58.751999999999995 C 47.594 58.751999999999995 47.009 58.66199999999999 46.443 58.480999999999995 C 45.019 58.023999999999994 43.884 57.04599999999999 43.248 55.727999999999994 C 43.007999999999996 55.230999999999995 43.217 54.632999999999996 43.714 54.392999999999994 C 44.211999999999996 54.153999999999996 44.81 54.36299999999999 45.049 54.858999999999995 C 45.445 55.678999999999995 46.157 56.288999999999994 47.054 56.577 C 47.764 56.803999999999995 48.521 56.803 49.242000000000004 56.592999999999996 L 46.109 50.443 C 44.949000000000005 50.835 43.742000000000004 50.894 42.634 50.559999999999995 C 41.215 50.135 40.06 49.126 39.381 47.72 C 38.222 45.32 39.064 42.448 41.238 40.881 L 39.206 36.891 C 38.955000000000005 36.399 39.150000000000006 35.796 39.643 35.546 C 40.135 35.293 40.738 35.491 40.988 35.983 L 43.038 40.007999999999996 C 44.144 39.681999999999995 45.312 39.678999999999995 46.41 40.031 C 47.833999999999996 40.488 48.968999999999994 41.466 49.605 42.785 C 49.845 43.282 49.635999999999996 43.879999999999995 49.138999999999996 44.12 C 48.642999999999994 44.36 48.04299999999999 44.150999999999996 47.803999999999995 43.653999999999996 C 47.407999999999994 42.833999999999996 46.696 42.223 45.79899999999999 41.934999999999995 C 45.20799999999999 41.74699999999999 44.58299999999999 41.727 43.971999999999994 41.842999999999996 L 47.068999999999996 47.922999999999995 C 49.837999999999994 47.020999999999994 52.135999999999996 48.026999999999994 53.47 50.791999999999994 C 54.107 52.108 54.168 53.604 53.64 55.004 z M 60.206 48.507 C 59.852000000000004 48.507 59.509 48.318999999999996 59.327000000000005 47.986 L 51.53300000000001 33.714999999999996 C 51.26800000000001 33.23 51.44700000000001 32.622 51.93100000000001 32.358 C 52.41600000000001 32.092999999999996 53.024000000000015 32.272 53.28800000000001 32.756 L 61.08200000000001 47.027 C 61.34700000000001 47.512 61.168000000000006 48.120000000000005 60.684000000000005 48.384 C 60.532 48.468 60.368 48.507 60.206 48.507 z M 71.069 73.928 C 70.884 74.075 70.663 74.148 70.444 74.148 C 70.151 74.148 69.86 74.02 69.663 73.774 L 67.36099999999999 70.903 C 67.04999999999998 70.51400000000001 67.07099999999998 69.95700000000001 67.41099999999999 69.593 C 69.72399999999999 67.122 70.451 64.76400000000001 69.40599999999999 63.123000000000005 C 68.588 61.837 66.81599999999999 61.243 65.282 61.742000000000004 C 63.501 62.32300000000001 62.577999999999996 64.20700000000001 62.75 66.912 C 62.785 67.46300000000001 62.366 67.938 61.815 67.974 C 61.260999999999996 67.989 60.788999999999994 67.59 60.753 67.039 C 60.522 63.405 61.982 60.714 64.661 59.841 C 67.031 59.067 69.799 60.016 71.093 62.049 C 71.801 63.162 72.989 66.122 69.449 70.31 L 71.222 72.522 C 71.569 72.953 71.5 73.582 71.069 73.928 z M 72.816 77.163 C 72.264 77.163 71.816 76.715 71.816 76.163 C 71.816 75.61099999999999 72.264 75.163 72.816 75.163 C 73.36800000000001 75.163 73.816 75.61099999999999 73.816 76.163 C 73.816 76.716 73.368 77.163 72.816 77.163 z M 89.329 72.661 C 89.598 73.144 89.42399999999999 73.753 88.94099999999999 74.021 C 88.78699999999999 74.107 88.61999999999999 74.147 88.45599999999999 74.147 C 88.10399999999998 74.147 87.764 73.961 87.58099999999999 73.63300000000001 L 86.603 71.873 L 83.9 73.357 C 83.748 73.44 83.58300000000001 73.48 83.42 73.48 C 83.066 73.48 82.72500000000001 73.292 82.542 72.961 C 82.464 72.82 82.435 72.669 82.43 72.518 C 82.304 72.432 82.19200000000001 72.322 82.11300000000001 72.179 L 78.24900000000001 65.139 C 78.24900000000001 65.139 78.24900000000001 65.139 78.24900000000001 65.139 C 78.24900000000001 65.139 78.24900000000001 65.139 78.24900000000001 65.139 L 73.95500000000001 57.315999999999995 C 73.68900000000001 56.831999999999994 73.86700000000002 56.223 74.35100000000001 55.958 L 76.96000000000001 54.527 L 75.82000000000001 52.476 C 75.551 51.993 75.72500000000001 51.384 76.20800000000001 51.116 C 76.69200000000001 50.845 77.30100000000002 51.022 77.56800000000001 51.504 L 78.73900000000002 53.611 C 81.29300000000002 52.512 84.31400000000002 53.486999999999995 85.67900000000002 55.973 C 86.56600000000002 57.591 86.53800000000001 59.461999999999996 85.78300000000002 61.006 C 87.49100000000001 61.197 89.08500000000002 62.178 89.97300000000001 63.796 C 91.31900000000002 66.25 90.55700000000002 69.277 88.32700000000001 70.858 L 89.329 72.661 z" stroke-linecap="round" />
</g>
		<g transform="matrix(1 0 0 1 21.57 -13.39)"  >
<path style="stroke: none; stroke-width: 1; stroke-dasharray: none; stroke-linecap: butt; stroke-dashoffset: 0; stroke-linejoin: miter; stroke-miterlimit: 4; fill: rgb(0,0,0); fill-rule: nonzero; opacity: 1;" vector-effect="non-scaling-stroke"  transform=" translate(-82.03, -58.23)" d="M 83.924 56.935 C 83.48 56.124 82.745 55.536 81.858 55.277 C 81.14200000000001 55.068 80.39800000000001 55.106 79.71000000000001 55.358000000000004 L 83.02100000000002 61.31400000000001 C 84.329 60.287 84.75 58.439 83.924 56.935 z" stroke-linecap="round" />
</g>
		<g transform="matrix(1 0 0 1 -26.98 63.8)" style=""  >
		<text xml:space="preserve" font-family="'Helvetica Neue', Helvetica, Arial-Unicode, Arial, Sans-serif" font-size="5" font-style="normal" font-weight="bold" style="stroke: none; stroke-width: 1; stroke-dasharray: none; stroke-linecap: butt; stroke-dashoffset: 0; stroke-linejoin: miter; stroke-miterlimit: 4; fill: rgb(0,0,0); fill-rule: nonzero; opacity: 1; white-space: pre;" ><tspan x="-33.48" y="1.57" >Created by Amethyst Studio</tspan></text>
</g>
		<g transform="matrix(1 0 0 1 -34.21 68.8)" style=""  >
		<text xml:space="preserve" font-family="'Helvetica Neue', Helvetica, Arial-Unicode, Arial, Sans-serif" font-size="5" font-style="normal" font-weight="bold" style="stroke: none; stroke-width: 1; stroke-dasharray: none; stroke-linecap: butt; stroke-dashoffset: 0; stroke-linejoin: miter; stroke-miterlimit: 4; fill: rgb(0,0,0); fill-rule: nonzero; opacity: 1; white-space: pre;" ><tspan x="-26.25" y="1.57" >from the Noun Project</tspan></text>
</g>
</g>
</g>
</svg>