<svg xmlns="http://www.w3.org/2000/svg" xmlns:xlink="http://www.w3.org/1999/xlink" version="1.1" x="0px" y="0px" viewBox="0 0 120.915 152.47875" style="enable-background:new 0 0 120.915 121.983;" xml:space="preserve"><g><polygon points="31.707,88.825 32.638,91.866 36.668,90.06 35.885,86.952  "/><path d="M29.521,57.045c-0.225-0.116-0.532-0.229-0.879-0.229c-0.156,0-0.32,0.022-0.488,0.079   c-1.193,0.399-1.765,2.198-1.248,3.928c0.305,1.02,0.941,1.865,1.704,2.261c0.326,0.169,0.827,0.333,1.367,0.15   c1.193-0.399,1.765-2.198,1.248-3.928C30.921,58.286,30.284,57.44,29.521,57.045z"/><path d="M41.182,46.85c0.438,0.907,1.139,1.527,2.026,1.794c0.624,0.185,1.307,0.179,1.985,0l-3.025-5.939   C40.952,43.743,40.496,45.429,41.182,46.85z"/><path d="M45.768,63.345c-1.449,0.666-1.731,2.69-0.72,5.156l10.871,22.192c0.683,0.1,1.376,0.311,2.075,0.64   c0.373,0.176,0.73,0.389,1.074,0.624c0.279-1.415,1.161-2.656,2.352-3.365L49.881,65.437   C48.812,63.346,46.964,62.792,45.768,63.345z"/><path d="M78.308,90.543c-0.919-2.291-2.709-3.919-15.267-0.502c-1.083,0.295-1.932,1.343-2.063,2.549   c-0.056,0.51-0.01,1.25,0.527,1.882c0.668,0.787,1.957,1.254,3.728,1.351c0.019,0.001,3.623,0.08,7.948-0.382   c0.561-0.054,1.042,0.34,1.101,0.888c0.059,0.55-0.339,1.042-0.888,1.101c-0.024,0.003-0.047,0.005-0.07,0.007   c-0.02,2.039-0.038,7.153,0.222,10.365l0.018,0.224c0.271,3.383,0.345,4.293,3.827,8.158c0.369,0.41,0.337,1.042-0.074,1.412   c-0.19,0.172-0.43,0.257-0.669,0.257c-0.273,0-0.546-0.111-0.743-0.331c-3.936-4.368-4.044-5.721-4.334-9.336l-0.019-0.224   c-0.261-3.231-0.25-8.161-0.23-10.344c-3.465,0.264-6.039,0.206-6.167,0.204c-0.767-0.042-1.457-0.147-2.087-0.303   c1.031,2.267,2.14,5.271,2.929,8.971c0.472,2.057-0.032,4.029-1.351,5.263c-0.845,0.791-1.958,1.2-3.192,1.2   c-0.278,0-0.563-0.024-0.852-0.066c-0.403,0.933-1.108,1.615-1.865,2.021c-1.945,1.042-4.84,0.735-6.321-1.586l-3.349-4.809   c-0.021-0.029-0.04-0.061-0.058-0.092c-0.246-0.444-0.816-1.049-1.127-1.026c-0.541,0.043-1.03-0.371-1.072-0.922   s0.371-1.03,0.922-1.072c1.665-0.14,2.782,1.624,3.003,2.009l3.344,4.803c0.867,1.358,2.597,1.532,3.713,0.934   c1.229-0.659,1.505-2.002,0.761-3.684l-4.397-8.143c-1.002-1.854-2.812-3.105-4.722-3.266c-2.45-0.2-4.34,1.075-5.202,3.508   c-0.535,1.509-0.508,3.285,0.077,5.004l5.255,15.419h36.388c3.169-10.178,0.193-15.784-3.551-22.843   C80.992,96.489,79.537,93.748,78.308,90.543z"/><path d="M50.166,96.146c2.385,0.389,4.506,1.924,5.747,4.222l4.432,8.213c0.378,0.85,0.558,1.624,0.595,2.322   c0.944,0.127,1.762-0.072,2.34-0.612c0.792-0.741,1.078-2.002,0.765-3.371c-1.06-4.966-2.712-8.625-3.912-10.822   c-0.744-1.362-1.777-2.384-2.989-2.955c-1.275-0.6-2.441-0.678-3.563-0.243C51.988,93.518,50.832,95.04,50.166,96.146z"/><path d="M68.469,86.696c-1.366-2.669-2.819-4.138-4.236-4.264c-1.286-0.112-2.371,0.896-2.901,1.498l1.979,3.972   C65.224,87.396,66.943,86.99,68.469,86.696z"/><path d="M47.998,49.744l2.962,5.815c0.35-0.362,0.629-0.786,0.809-1.261c0.333-0.881,0.298-1.818-0.099-2.638   C50.843,49.949,49.632,49.327,47.998,49.744z"/><polygon points="77.931,56.275 76.19,57.231 79.521,63.3 81.294,62.326  "/><path d="M69.55,0c-0.712,1.402-2.825,4.939-7.535,8.672c-0.705,0.559-1.566,1.464-1.667,2.604c-0.084,0.95,0.358,1.98,1.316,3.062   c0.001,0,2.46,2.57,5.946,5.944c0.273,0.265,0.373,0.662,0.257,1.024c-0.004,0.012-0.401,1.26-0.679,2.664   c-0.193,0.978,0.135,1.985,0.878,2.696l1.718,1.645c0.864,0.828,2.133,1.067,3.226,0.619c4.19-1.73,11.508-4.279,18.233-4.279   c1.411,0,2.796,0.112,4.121,0.368c3.847,0.742,6.636,3.12,7.651,6.524c1.12,3.757-0.214,8.062-3.483,11.234   c-1.805,1.751-4.826,4.681-9.016,6.951c-1.416,0.769-2.025,2.429-1.387,3.779c0.729,1.542,2.445,2.615,5.102,3.19   c1.624,0.352,2.958,1.494,3.569,3.056c0.865,2.212,1.887,5.452,3.037,9.63c0.643,2.33,2.446,4.533,4.596,5.613   c2.789,1.403,8.475,2.797,15.481-3.384V0H69.55z"/><polygon points="80.483,65.054 83.814,71.122 85.63,70.125 82.267,64.075  "/><path d="M84.048,63.162l3.307,5.948c0.547-0.44,0.951-1.032,1.152-1.721c0.259-0.888,0.156-1.822-0.289-2.633   C87.394,63.255,85.614,62.616,84.048,63.162z"/><path d="M98.91,69.915c-1.41-5.121-2.395-7.956-2.973-9.433c-0.366-0.937-1.162-1.62-2.13-1.829   c-3.295-0.714-5.478-2.157-6.486-4.29c-1.092-2.31-0.107-5.118,2.242-6.393c3.948-2.14,6.845-4.95,8.576-6.629   c2.732-2.651,3.866-6.187,2.959-9.227c-0.795-2.666-3.023-4.537-6.113-5.134c-7.395-1.421-17.297,2.18-21.212,3.797   c-1.826,0.753-3.934,0.353-5.372-1.022l-1.718-1.645c-0.772-0.74-1.275-1.676-1.465-2.677c-2.546-0.392-10.056-2.29-15.292-11.305   c-1.681,2.893-5.779,8.65-13.01,11.453c-6.045,2.343-12.879,2.068-20.339-0.811C18.551,31.375,22.34,51.44,0,62.148   c4.738,3.337,17.756,14.955,10.305,37.866c4.339,0.188,17.338,1.857,23.716,14.79c1.42-2.029,4.407-4.913,9.557-4.181l-1.164-3.415   c-0.73-2.143-0.755-4.386-0.069-6.317c0.967-2.724,2.992-4.415,5.553-4.77c0.585-1.188,2.218-4.017,4.947-5.083   c0.292-0.114,0.589-0.197,0.887-0.264L43.225,69.32c-1.681-4.09-0.348-6.848,1.707-7.793c2.038-0.936,5.092-0.204,6.735,3.008   l8.725,17.508c0.895-0.828,2.295-1.751,4.004-1.604c2.275,0.194,4.331,2.198,6.123,5.916c5.69-0.8,8.381,0.293,9.65,3.457   c1.192,3.105,2.618,5.792,3.996,8.391c0.816,1.538,1.603,3.032,2.311,4.538c3.683-0.761,8.315,0.604,10.898,1.556   c-4.396-16.403,3.867-24.441,7.793-27.22c-0.229-0.1-0.445-0.198-0.632-0.292C101.863,75.441,99.708,72.81,98.91,69.915z    M67.671,46.594c0.547,0.074,0.931,0.578,0.856,1.125s-0.578,0.931-1.125,0.856s-0.931-0.578-0.856-1.126   C66.62,46.903,67.123,46.519,67.671,46.594z M57.307,28.65c0.486-0.264,1.093-0.085,1.357,0.398l7.794,14.271   c0.265,0.485,0.086,1.093-0.398,1.357c-0.152,0.083-0.316,0.122-0.479,0.122c-0.354,0-0.697-0.188-0.879-0.521l-7.794-14.271   C56.644,29.522,56.822,28.915,57.307,28.65z M63.152,51.427c-0.074,0.547-0.578,0.931-1.125,0.856   c-0.547-0.074-0.931-0.578-0.856-1.126c0.074-0.547,0.578-0.931,1.125-0.856C62.843,50.376,63.226,50.88,63.152,51.427z    M20.959,66.168c-1.323-2.482-1.846-5.474-1.432-8.207c0.917-6.071,5.251-8.807,8.944-8.807c0.046,0,0.09,0.001,0.135,0.001   c3.71,0.067,7.763,2.836,8.451,8.868c0.173,1.507-0.626,2.888-1.897,3.283c-0.295,0.091-0.979,0.221-1.796-0.118   c-0.187,1.848-1.192,3.42-2.752,3.941c-0.363,0.122-0.74,0.182-1.121,0.182c-0.606,0-1.222-0.152-1.802-0.453   c-1.253-0.65-2.236-1.913-2.699-3.464c-0.832-2.782,0.303-5.652,2.529-6.396c0.941-0.316,1.979-0.219,2.923,0.271   c0.994,0.516,1.814,1.421,2.343,2.547c0.003,0.005,0.008,0.008,0.011,0.013c0.668,1.255,1.373,1.697,1.77,1.566   c0.302-0.094,0.573-0.548,0.505-1.146c-0.59-5.16-3.87-7.047-6.501-7.095c-0.035-0.001-0.071-0.001-0.107-0.001   c-2.947,0-6.215,2.183-6.958,7.105c-0.351,2.317,0.094,4.856,1.22,6.967c1.021,1.915,3.97,4.622,7.329,4.645   c0.015,0,0.029,0,0.043,0c3.094,0,5.89-2.23,8.312-6.63c0.266-0.484,0.873-0.658,1.358-0.394c0.483,0.267,0.66,0.874,0.394,1.358   c-3.481,6.325-7.386,7.665-10.066,7.665c-0.018,0-0.035,0-0.053,0C25.625,71.842,22.127,68.357,20.959,66.168z M42.126,89.804   l-3.109,1.394l1.074,4.263c0.135,0.535-0.189,1.079-0.726,1.214c-0.082,0.021-0.164,0.03-0.245,0.03   c-0.447,0-0.854-0.302-0.969-0.756l-0.988-3.921l-3.936,1.764l1.009,3.296c0.162,0.528-0.135,1.088-0.663,1.249   c-0.098,0.03-0.196,0.044-0.293,0.044c-0.429,0-0.824-0.276-0.956-0.707l-0.936-3.058l-1.808,0.811   c-0.133,0.06-0.271,0.088-0.408,0.088c-0.383,0-0.747-0.22-0.913-0.591c-0.227-0.504-0.001-1.096,0.503-1.321l2.037-0.913   l-0.931-3.041l-2.397,1.074c-0.133,0.06-0.271,0.088-0.408,0.088c-0.383,0-0.747-0.22-0.913-0.591   c-0.227-0.504-0.001-1.096,0.503-1.321l2.625-1.177l-1.009-3.296c-0.162-0.528,0.135-1.088,0.663-1.249   c0.529-0.164,1.088,0.135,1.249,0.663l0.936,3.057l4.272-1.915l-0.861-3.418c-0.135-0.535,0.189-1.079,0.726-1.214   c0.536-0.134,1.079,0.189,1.214,0.726l0.775,3.075l1.956-0.877c0.505-0.227,1.096-0.001,1.321,0.503   c0.227,0.504,0.001,1.096-0.503,1.321l-2.278,1.021l0.783,3.108l2.787-1.249c0.504-0.228,1.097-0.001,1.321,0.503   C42.855,88.986,42.63,89.578,42.126,89.804z M49.492,88.477c0.55,0.048,0.958,0.532,0.91,1.083s-0.532,0.958-1.083,0.91   s-0.958-0.532-0.91-1.083S48.941,88.429,49.492,88.477z M43.018,76.913l5.104,8.353c0.288,0.472,0.139,1.087-0.332,1.375   c-0.163,0.1-0.343,0.146-0.521,0.146c-0.337,0-0.666-0.17-0.854-0.479l-5.104-8.353c-0.288-0.472-0.139-1.087,0.332-1.375   C42.114,76.292,42.729,76.442,43.018,76.913z M53.64,55.004c-0.357,0.946-0.968,1.755-1.745,2.391l1.469,2.885   c0.251,0.492,0.056,1.095-0.437,1.345c-0.146,0.074-0.301,0.109-0.453,0.109c-0.364,0-0.716-0.199-0.892-0.546l-1.421-2.79   c-0.643,0.233-1.312,0.354-1.981,0.354c-0.586,0-1.171-0.09-1.737-0.271c-1.424-0.457-2.559-1.435-3.195-2.753   c-0.24-0.497-0.031-1.095,0.466-1.335c0.498-0.239,1.096-0.03,1.335,0.466c0.396,0.82,1.108,1.43,2.005,1.718   c0.71,0.227,1.467,0.226,2.188,0.016l-3.133-6.15c-1.16,0.392-2.367,0.451-3.475,0.117c-1.419-0.425-2.574-1.434-3.253-2.84   c-1.159-2.4-0.317-5.272,1.857-6.839l-2.032-3.99c-0.251-0.492-0.056-1.095,0.437-1.345c0.492-0.253,1.095-0.055,1.345,0.437   l2.05,4.025c1.106-0.326,2.274-0.329,3.372,0.023c1.424,0.457,2.559,1.435,3.195,2.754c0.24,0.497,0.031,1.095-0.466,1.335   c-0.496,0.24-1.096,0.031-1.335-0.466c-0.396-0.82-1.108-1.431-2.005-1.719c-0.591-0.188-1.216-0.208-1.827-0.092l3.097,6.08   c2.769-0.902,5.067,0.104,6.401,2.869C54.107,52.108,54.168,53.604,53.64,55.004z M60.206,48.507c-0.354,0-0.697-0.188-0.879-0.521   l-7.794-14.271c-0.265-0.485-0.086-1.093,0.398-1.357c0.485-0.265,1.093-0.086,1.357,0.398l7.794,14.271   c0.265,0.485,0.086,1.093-0.398,1.357C60.532,48.468,60.368,48.507,60.206,48.507z M71.069,73.928   c-0.185,0.147-0.406,0.22-0.625,0.22c-0.293,0-0.584-0.128-0.781-0.374l-2.302-2.871c-0.311-0.389-0.29-0.946,0.05-1.31   c2.313-2.471,3.04-4.829,1.995-6.47c-0.818-1.286-2.59-1.88-4.124-1.381c-1.781,0.581-2.704,2.465-2.532,5.17   c0.035,0.551-0.384,1.026-0.935,1.062c-0.554,0.015-1.026-0.384-1.062-0.935c-0.231-3.634,1.229-6.325,3.908-7.198   c2.37-0.774,5.138,0.175,6.432,2.208c0.708,1.113,1.896,4.073-1.644,8.261l1.773,2.212C71.569,72.953,71.5,73.582,71.069,73.928z    M72.816,77.163c-0.552,0-1-0.448-1-1c0-0.552,0.448-1,1-1c0.552,0,1,0.448,1,1C73.816,76.716,73.368,77.163,72.816,77.163z    M89.329,72.661c0.269,0.483,0.095,1.092-0.388,1.36c-0.154,0.086-0.321,0.126-0.485,0.126c-0.352,0-0.692-0.186-0.875-0.514   l-0.978-1.76L83.9,73.357c-0.152,0.083-0.317,0.123-0.48,0.123c-0.354,0-0.695-0.188-0.878-0.519   c-0.078-0.141-0.107-0.292-0.112-0.443c-0.126-0.086-0.238-0.196-0.317-0.339l-3.864-7.04c0,0,0,0,0,0c0,0,0,0,0,0l-4.294-7.823   c-0.266-0.484-0.088-1.093,0.396-1.358l2.609-1.431l-1.14-2.051c-0.269-0.483-0.095-1.092,0.388-1.36   c0.484-0.271,1.093-0.094,1.36,0.388l1.171,2.107c2.554-1.099,5.575-0.124,6.94,2.362c0.887,1.618,0.859,3.489,0.104,5.033   c1.708,0.191,3.302,1.172,4.19,2.79c1.346,2.454,0.584,5.481-1.646,7.062L89.329,72.661z"/><path d="M83.924,56.935c-0.444-0.811-1.179-1.399-2.066-1.658c-0.716-0.209-1.46-0.171-2.148,0.081l3.311,5.956   C84.329,60.287,84.75,58.439,83.924,56.935z"/></g></svg>