<?xml version="1.0" standalone="no"?>
<!DOCTYPE svg PUBLIC "-//W3C//DTD SVG 20010904//EN"
 "http://www.w3.org/TR/2001/REC-SVG-20010904/DTD/svg10.dtd">
<svg version="1.0" xmlns="http://www.w3.org/2000/svg"
 width="460.000000pt" height="437.000000pt" viewBox="0 0 460.000000 437.000000"
 preserveAspectRatio="xMidYMid meet">

<g transform="translate(0.000000,437.000000) scale(0.100000,-0.100000)"
fill="#000000" stroke="none">
<path d="M2145 4234 c-16 -2 -71 -9 -122 -15 -273 -31 -590 -154 -849 -328
-306 -205 -533 -469 -695 -807 -433 -901 -136 -1988 695 -2545 247 -166 524
-277 806 -324 149 -25 402 -30 555 -11 475 57 888 264 1226 613 292 301 485
696 544 1113 19 137 19 433 0 570 -80 564 -403 1078 -882 1398 -243 163 -508
268 -803 317 -90 15 -411 28 -475 19z m355 -44 c400 -42 775 -201 1087 -463
305 -257 538 -631 637 -1025 77 -305 77 -669 0 -974 -99 -394 -332 -768 -637
-1025 -744 -624 -1797 -630 -2551 -14 -332 272 -589 700 -675 1127 -101 500
-9 1012 259 1444 397 641 1137 1007 1880 930z"/>
<path d="M2000 4121 c-464 -71 -895 -324 -1205 -705 -165 -204 -298 -471 -364
-733 -70 -278 -68 -679 5 -952 97 -359 261 -639 531 -902 291 -285 654 -464
1058 -524 141 -20 405 -21 549 0 767 108 1402 675 1595 1428 150 580 18 1209
-350 1672 -315 397 -746 647 -1240 719 -145 22 -427 20 -579 -3z m575 -97
c129 -19 238 -47 350 -89 649 -240 1101 -806 1190 -1488 46 -357 -18 -733
-183 -1062 -87 -176 -265 -405 -414 -535 -276 -242 -581 -386 -943 -445 -134
-22 -406 -23 -540 -1 -409 68 -760 248 -1036 533 -346 358 -521 786 -521 1278
0 181 14 296 57 465 114 449 427 863 835 1107 363 217 784 300 1205 237z"/>
<path d="M2210 3984 c-351 -22 -694 -148 -975 -358 -108 -81 -286 -263 -367
-377 -117 -163 -221 -382 -273 -574 -77 -283 -77 -637 0 -920 52 -191 155
-409 273 -575 116 -164 339 -372 507 -472 299 -179 591 -260 930 -260 621 0
1169 306 1503 839 92 147 131 234 188 421 146 481 76 1014 -188 1435 -217 346
-528 601 -898 735 -210 76 -491 118 -700 106z m360 -60 c360 -56 678 -217 946
-480 437 -430 611 -1051 463 -1649 -122 -489 -452 -900 -910 -1131 -236 -118
-482 -175 -759 -176 -279 -1 -499 48 -755 167 -279 131 -554 376 -714 638
-182 297 -263 583 -263 922 0 283 54 518 173 757 99 198 174 303 318 451 393
403 943 586 1501 501z"/>
<path d="M1450 2215 l0 -1115 275 0 275 0 2 408 3 407 55 0 55 0 215 -405 215
-405 313 -3 c171 -1 312 0 312 3 0 7 -420 797 -430 808 -9 10 -100 -24 -100
-38 0 -5 61 -125 136 -265 75 -140 151 -285 170 -322 l34 -68 -182 0 -183 1
-215 404 c-118 222 -219 405 -225 407 -5 2 -74 2 -152 0 l-143 -3 0 -405 0
-404 -160 0 -160 0 0 1055 0 1055 -55 0 -55 0 0 -1115z"/>
<path d="M1668 3324 c-5 -4 -8 -461 -8 -1016 l0 -1008 60 0 60 0 2 958 3 957
285 -1 c372 -2 483 -20 618 -101 163 -100 245 -239 258 -442 19 -289 -127
-511 -392 -596 -43 -14 -118 -31 -166 -38 l-88 -12 186 -345 c102 -190 192
-355 200 -368 12 -19 23 -22 74 -22 33 0 60 3 60 7 0 5 -104 201 -286 539 -24
45 -44 86 -44 92 0 6 19 16 43 22 291 74 458 235 512 495 55 267 -21 544 -190
693 -51 45 -179 115 -252 138 -135 42 -180 46 -558 51 -203 3 -373 1 -377 -3z"/>
<path d="M1888 3105 c-5 -5 -8 -81 -8 -171 l0 -162 248 -4 c234 -3 249 -4 294
-26 111 -55 103 -184 -16 -238 -60 -27 -215 -47 -331 -42 l-70 3 -3 98 -3 97
-59 0 -60 0 0 -155 0 -155 168 0 c279 0 403 25 485 99 56 50 77 101 77 187 0
60 -4 76 -28 115 -37 56 -56 73 -115 99 -53 24 -193 39 -359 40 l-108 0 0 50
0 50 184 0 c200 0 263 -8 341 -44 102 -46 165 -122 190 -228 50 -215 -38 -377
-240 -441 -62 -19 -98 -22 -330 -27 l-260 -5 0 -55 0 -55 250 2 c229 2 258 4
346 27 164 41 252 100 306 203 39 75 54 138 55 233 1 254 -124 420 -368 485
-43 12 -128 18 -319 22 -143 3 -263 2 -267 -2z"/>
</g>
</svg>
