<?xml version="1.0" standalone="no"?>
<!DOCTYPE svg PUBLIC "-//W3C//DTD SVG 20010904//EN"
 "http://www.w3.org/TR/2001/REC-SVG-20010904/DTD/svg10.dtd">
<svg version="1.0" xmlns="http://www.w3.org/2000/svg"
 width="291.000000pt" height="267.000000pt" viewBox="0 0 291.000000 267.000000"
 preserveAspectRatio="xMidYMid meet">

<g transform="translate(0.000000,267.000000) scale(0.100000,-0.100000)"
fill="#000000" stroke="none">
<path d="M257 2444 c-8 -9 -10 -1545 -1 -1568 9 -24 299 -24 308 0 3 9 6 103
6 210 l0 195 62 -3 63 -3 81 -180 c45 -99 89 -192 98 -207 l15 -28 155 0 c98
0 157 4 161 11 4 5 -39 112 -96 237 l-102 226 24 15 c90 60 142 148 159 274
13 100 13 358 0 467 -20 166 -100 276 -238 332 -54 22 -72 23 -372 26 -174 2
-319 0 -323 -4z m576 -140 c78 -20 104 -34 146 -77 64 -65 70 -94 70 -353 1
-267 -6 -301 -73 -369 -31 -31 -57 -46 -104 -59 -34 -9 -62 -21 -62 -25 0 -5
43 -96 95 -204 52 -108 95 -201 95 -207 0 -38 -34 16 -123 198 l-102 207 -172
3 -173 2 -2 -206 c-2 -155 -6 -208 -15 -212 -10 -3 -13 132 -13 651 0 359 3
657 7 660 3 4 87 7 186 7 131 0 196 -4 240 -16z"/>
<path d="M438 2284 c-5 -4 -8 -193 -8 -421 l0 -413 178 0 c249 0 324 24 380
118 l27 47 3 235 c4 263 0 290 -54 350 -61 67 -118 82 -334 87 -102 3 -188 2
-192 -3z m356 -170 c42 -14 51 -23 68 -61 17 -39 19 -63 16 -196 -3 -165 -11
-194 -61 -231 -23 -17 -46 -21 -138 -24 l-109 -4 0 266 0 266 88 0 c56 0 106
-6 136 -16z"/>
<path d="M1626 2435 c-8 -21 -8 -1538 0 -1559 9 -24 299 -24 308 0 3 9 6 103
6 210 l0 195 62 -3 62 -3 87 -190 c49 -104 93 -198 99 -207 9 -16 28 -18 164
-18 97 0 157 4 161 10 4 6 -39 113 -95 238 -94 207 -101 227 -84 237 84 48
148 156 164 277 12 94 12 382 0 478 -20 156 -103 268 -237 322 -56 22 -71 23
-374 26 -286 3 -317 2 -323 -13z m626 -143 c31 -13 74 -40 96 -61 65 -63 72
-100 72 -362 0 -206 -2 -234 -20 -283 -30 -79 -82 -122 -177 -146 -24 -6 -43
-15 -43 -19 0 -5 43 -96 95 -203 52 -106 95 -199 95 -205 0 -42 -33 11 -123
197 l-101 210 -173 0 -173 0 0 -210 c0 -180 -2 -210 -15 -210 -13 0 -15 79
-15 653 0 360 3 657 8 661 4 4 99 6 212 4 184 -4 211 -6 262 -26z"/>
<path d="M1808 2284 c-5 -4 -8 -193 -8 -421 l0 -413 175 0 c95 0 196 5 224 11
79 17 134 58 167 126 l29 58 0 220 c0 249 -6 279 -73 348 -55 57 -105 68 -322
74 -102 3 -188 2 -192 -3z m356 -170 c42 -14 51 -23 68 -61 17 -40 19 -63 16
-202 -2 -129 -6 -162 -21 -184 -33 -51 -62 -62 -179 -66 l-108 -3 0 266 0 266
88 0 c56 0 106 -6 136 -16z"/>
<path d="M866 499 c-38 -30 -34 -67 9 -109 46 -45 45 -76 -3 -72 -26 2 -32 -2
-32 -18 0 -17 7 -20 39 -20 78 0 97 68 36 126 -42 40 -48 79 -11 72 28 -6 45
20 24 34 -20 12 -33 10 -62 -13z"/>
<path d="M2128 513 l-38 -4 0 -115 0 -114 50 0 c43 0 50 3 50 19 0 14 -8 21
-27 23 -24 3 -28 8 -28 33 0 25 4 30 28 33 19 2 27 9 27 23 0 15 -7 19 -31 19
-26 0 -30 3 -27 23 2 16 11 23 31 25 19 2 27 9 27 23 0 10 -6 18 -12 17 -7 -1
-30 -3 -50 -5z"/>
<path d="M2658 513 l-38 -4 0 -115 0 -114 50 0 c43 0 50 3 50 19 0 14 -8 21
-27 23 -23 2 -29 8 -31 36 -3 30 -1 32 28 32 25 0 31 4 28 18 -2 10 -14 18
-31 20 -21 3 -27 9 -27 28 0 20 5 24 30 24 23 0 30 4 30 20 0 11 -6 19 -12 18
-7 -1 -30 -3 -50 -5z"/>
<path d="M210 395 c0 -108 1 -115 20 -115 17 0 20 7 21 43 l1 42 19 -42 c16
-34 25 -43 45 -43 l24 0 -25 50 -26 51 21 26 c15 19 19 35 15 53 -10 40 -25
50 -71 50 l-44 0 0 -115z m70 46 c0 -16 -6 -31 -15 -35 -12 -4 -15 3 -15 29 0
24 5 35 15 35 10 0 15 -10 15 -29z"/>
<path d="M430 492 c-24 -20 -38 -98 -26 -146 19 -77 117 -89 154 -19 27 50 6
162 -33 177 -31 11 -73 6 -95 -12z m90 -33 c15 -28 15 -106 0 -124 -15 -18
-52 -19 -68 -3 -15 15 -16 102 -2 129 14 26 56 25 70 -2z"/>
<path d="M659 398 c-22 -97 -23 -113 -10 -117 8 -2 20 4 26 13 15 20 51 21 59
1 6 -18 36 -20 36 -3 0 6 -10 58 -22 115 -19 92 -24 103 -43 103 -19 0 -24
-12 -46 -112z m55 -20 c5 -21 3 -28 -9 -28 -17 0 -18 4 -9 38 8 27 9 26 18
-10z"/>
<path d="M1010 496 c0 -8 10 -16 22 -18 20 -3 22 -8 22 -98 1 -82 3 -95 19
-98 15 -3 17 7 17 93 0 88 2 97 20 102 11 3 20 12 20 19 0 10 -16 14 -60 14
-45 0 -60 -3 -60 -14z"/>
<path d="M1309 508 c-1 -2 -3 -54 -5 -115 -3 -105 -2 -113 16 -113 15 0 19 9
22 43 l3 42 23 -42 c15 -29 29 -43 42 -43 25 0 25 0 -2 54 -20 43 -21 46 -5
64 19 21 22 64 7 93 -8 14 -21 19 -55 19 -25 0 -46 -1 -46 -2z m69 -65 c-2
-17 -10 -29 -20 -31 -14 -3 -18 3 -18 27 0 25 4 31 21 31 16 0 20 -5 17 -27z"/>
<path d="M1525 485 c-21 -20 -25 -34 -25 -80 0 -84 27 -124 86 -125 59 0 100
84 80 164 -16 65 -95 88 -141 41z m87 -22 c20 -18 25 -91 8 -124 -12 -22 -52
-25 -69 -6 -20 25 -23 72 -7 110 16 41 38 47 68 20z"/>
<path d="M1730 423 c0 -109 12 -137 60 -141 63 -5 75 13 78 127 4 97 3 101
-17 101 -19 0 -21 -6 -21 -76 0 -79 -11 -114 -35 -114 -20 0 -29 59 -21 131 7
58 7 59 -19 59 -25 0 -25 0 -25 -87z"/>
<path d="M1930 395 l0 -115 50 0 c43 0 50 3 50 20 0 16 -7 20 -30 20 l-30 0 0
95 c0 88 -1 95 -20 95 -19 0 -20 -7 -20 -115z"/>
<path d="M2250 495 c0 -8 9 -15 20 -15 19 0 20 -7 20 -100 0 -93 1 -100 20
-100 19 0 20 7 20 96 0 87 2 96 20 101 11 3 20 12 20 19 0 10 -16 14 -60 14
-47 0 -60 -3 -60 -15z"/>
<path d="M2440 496 c0 -7 9 -16 20 -19 18 -5 20 -14 20 -101 0 -79 3 -96 15
-96 12 0 15 14 15 63 0 97 9 137 31 137 11 0 19 7 19 15 0 12 -13 15 -60 15
-44 0 -60 -4 -60 -14z"/>
</g>
</svg>
