<svg version="1.1" id="Layer_1" xmlns="http://www.w3.org/2000/svg" xmlns:xlink="http://www.w3.org/1999/xlink" x="0px" y="0px"
	 width="873.000000pt" height="325.000000pt" viewBox="0 0 873 325" enable-background="new 0 0 873 325" xml:space="preserve">
<path fill="transparent" opacity="1.000000" stroke="none" 
	d="
M679.000000,326.000000 
	C452.666656,326.000000 226.833328,326.000000 1.000000,326.000000 
	C1.000000,217.666672 1.000000,109.333336 1.000000,1.000000 
	C292.000000,1.000000 583.000000,1.000000 874.000000,1.000000 
	C874.000000,109.333336 874.000000,217.666672 874.000000,326.000000 
	C809.166687,326.000000 744.333313,326.000000 679.000000,326.000000 
M70.572006,226.499664 
	C70.572006,249.273865 70.572006,272.048065 70.572006,295.053955 
	C55.872269,295.053955 41.832863,295.053955 27.787931,295.053955 
	C27.709038,294.138641 27.630808,293.655029 27.630840,293.171448 
	C27.637083,202.841293 27.656103,112.511147 27.650249,22.180998 
	C27.649605,12.247418 28.920336,13.180943 18.102823,12.866353 
	C13.297513,12.726607 11.884304,14.267024 11.890899,19.101332 
	C12.021163,114.598007 12.015693,210.094940 11.896858,305.591644 
	C11.891398,309.979279 13.118072,311.341034 17.520079,311.300934 
	C38.684288,311.108093 59.852051,311.117401 81.016495,311.297241 
	C85.191124,311.332733 86.447357,310.023132 86.417374,305.876984 
	C86.249847,282.712311 86.337456,259.545746 86.337746,236.379852 
	C86.337891,225.062851 86.337769,213.745865 86.337769,201.799973 
	C89.733086,201.799973 92.880760,202.013321 95.986885,201.745224 
	C99.757492,201.419800 101.871742,202.730240 103.717720,206.238556 
	C121.440002,239.920029 139.434067,273.458466 157.186035,307.124451 
	C158.970566,310.508728 161.244431,311.283844 164.721558,311.268951 
	C188.886978,311.165405 213.053070,311.221161 237.218918,311.199158 
	C238.799637,311.197723 240.380157,310.975464 242.747238,310.796478 
	C241.493561,308.047089 240.668137,305.941040 239.609543,303.959564 
	C222.695267,272.299316 205.750809,240.655228 188.814148,209.006958 
	C184.673660,201.269897 184.675186,201.269089 176.340515,204.467087 
	C170.622116,206.661224 170.548569,206.700394 173.453522,212.154648 
	C186.265015,236.209122 199.131699,260.234192 211.953079,284.283417 
	C213.782532,287.714905 215.473358,291.220276 217.268250,294.770386 
	C216.218063,295.121735 215.744812,295.417725 215.271027,295.418610 
	C200.776642,295.446106 186.279510,295.574158 171.791306,295.275299 
	C170.080246,295.239990 167.789032,293.190094 166.834534,291.478607 
	C160.355911,279.861877 154.157639,268.088715 147.880951,256.359558 
	C136.201279,234.533905 124.568581,212.682892 112.785599,190.913208 
	C111.784058,189.062820 109.842072,186.431473 108.270142,186.384155 
	C95.851151,186.010422 83.415924,186.176407 70.572060,186.176407 
	C70.572060,199.920593 70.572060,212.710114 70.572006,226.499664 
M167.054306,178.611221 
	C153.768250,181.903946 140.482193,185.196655 126.979713,188.542999 
	C126.918716,188.306519 126.959961,188.985336 127.253014,189.528259 
	C143.983017,220.523224 160.723923,251.512344 177.524445,282.469086 
	C178.115295,283.557739 179.280487,285.050140 180.244171,285.101044 
	C185.261658,285.365997 190.300598,285.224518 196.427094,285.224518 
	C180.750137,255.949768 165.694763,227.835770 150.476974,199.418472 
	C157.274872,197.425812 163.160828,195.820816 168.970856,193.976639 
	C194.787918,185.781967 213.546036,169.747604 222.573868,143.840668 
	C230.051483,122.382385 230.550201,100.394104 224.614334,78.427681 
	C217.693161,52.815056 201.546555,35.190151 177.409790,24.500683 
	C159.271927,16.467941 140.061554,13.564981 120.547798,13.104713 
	C95.900299,12.523357 71.227898,13.064978 46.568214,12.870880 
	C42.171570,12.836275 40.960678,14.083842 40.967270,18.505915 
	C41.097218,105.653099 41.064217,192.800522 41.064381,279.947906 
	C41.064381,281.393951 41.064381,282.839966 41.064381,284.834076 
	C45.334942,284.834076 49.123688,284.699921 52.897442,284.879974 
	C55.525497,285.005371 56.400230,284.126373 56.305046,281.457397 
	C56.109177,275.965515 56.235363,270.461975 56.235306,264.963257 
	C56.234512,188.146927 56.266525,111.330551 56.155552,34.514385 
	C56.148930,29.929379 57.020313,28.172647 62.202816,28.297062 
	C79.022736,28.700850 95.883003,27.885925 112.680481,28.620674 
	C126.915688,29.243343 141.261948,30.430607 155.237167,33.071507 
	C171.041580,36.058075 184.817398,43.970875 195.714767,56.080967 
	C208.404160,70.182518 212.627274,87.379059 212.925613,105.821716 
	C213.493347,140.918427 197.210327,165.805649 167.054306,178.611221 
M133.255127,141.785721 
	C139.647919,139.548325 146.497086,138.132462 152.332153,134.891068 
	C162.405548,129.295227 167.754730,120.279259 168.262100,108.414848 
	C168.794464,95.965805 164.392593,85.756500 153.515839,80.011276 
	C146.535141,76.323997 138.280258,74.123230 130.385254,73.311798 
	C118.834259,72.124626 107.093605,72.796410 95.434158,72.646774 
	C84.521278,72.506721 85.850227,74.254349 85.676445,62.161358 
	C85.633652,59.183300 86.698814,57.953072 89.759995,58.073441 
	C107.363770,58.765606 125.110931,58.202385 142.538895,60.306271 
	C160.188187,62.436867 174.071091,71.835831 180.264420,89.526833 
	C182.264023,95.238594 183.030640,101.510506 183.533142,107.594574 
	C185.262894,128.538101 173.512222,145.649689 153.577301,152.410217 
	C142.411148,156.196976 131.021393,157.938736 119.271912,157.880707 
	C103.300049,157.801834 87.327515,157.861053 71.026695,157.861053 
	C71.026695,163.000839 70.289101,167.932602 71.518013,172.312622 
	C71.846886,173.484756 78.177284,173.152191 81.756447,173.197647 
	C90.418358,173.307648 99.088310,173.433975 107.744659,173.188553 
	C122.535660,172.769196 137.345779,172.585922 151.857437,168.915619 
	C166.226639,165.281372 179.559311,159.654678 188.174469,147.060028 
	C201.503723,127.573715 202.198135,105.991592 194.818665,84.466965 
	C185.582474,57.526596 163.698181,46.223106 137.227448,44.047306 
	C116.200523,42.318966 94.948532,43.324112 73.796265,43.138397 
	C72.701683,43.128788 71.605217,43.333218 70.328186,43.455349 
	C70.328186,58.197285 70.328186,72.614571 70.328186,87.737305 
	C72.131470,87.737305 73.728867,87.737274 75.326271,87.737312 
	C89.320847,87.737648 103.330910,87.342117 117.304131,87.888496 
	C125.536278,88.210396 133.940704,89.193207 141.850983,91.383522 
	C151.513168,94.058922 155.459808,104.284081 151.501511,113.555229 
	C148.200333,121.287254 141.336563,124.945786 133.847855,125.795723 
	C119.012497,127.479469 104.037315,127.926888 89.121574,128.910248 
	C85.930138,129.120651 85.705147,127.055138 85.710800,124.706406 
	C85.726028,118.375610 86.216614,111.994934 85.590408,105.726776 
	C84.839447,98.209839 78.802979,103.583145 75.378029,102.406738 
	C73.321274,101.700279 69.977272,100.964561 70.082237,105.717834 
	C70.335976,117.207634 70.211784,128.707382 70.115364,140.202072 
	C70.093796,142.773666 70.566444,144.421204 73.583046,144.297989 
	C93.191238,143.496994 112.800858,142.730545 133.255127,141.785721 
M702.609192,47.581142 
	C711.758240,49.367607 716.093628,57.157181 721.855591,63.591434 
	C728.404663,59.045116 734.720825,54.776459 740.856750,50.262714 
	C741.677795,49.658764 742.255493,47.483654 741.815491,46.597107 
	C737.246521,37.390800 731.645874,28.839252 722.189941,24.024733 
	C705.122559,15.334794 688.041992,17.365408 672.151917,26.594990 
	C648.445190,40.364788 646.586853,71.734215 668.558044,88.020065 
	C677.241821,94.456818 687.583008,98.650238 697.138306,103.921715 
	C701.911682,106.555077 706.937988,108.886368 711.260315,112.137947 
	C715.711060,115.486145 717.181885,120.420807 715.303955,125.989502 
	C713.366333,131.735046 708.984558,134.490128 703.326477,135.037445 
	C693.631287,135.975281 686.837341,131.126022 681.835571,123.295349 
	C680.347717,120.965904 679.089661,118.489647 677.404480,115.511917 
	C670.299011,121.549622 663.539429,127.149269 657.018372,133.014069 
	C656.188110,133.760757 655.925354,136.329361 656.556274,137.309265 
	C659.762085,142.288437 662.589844,147.896729 666.945007,151.677933 
	C679.967224,162.983841 695.633667,165.744095 712.316650,163.056427 
	C729.324341,160.316437 739.975769,150.093872 744.775208,133.807938 
	C749.734863,116.978226 747.427551,101.846779 733.354614,89.866173 
	C723.481079,81.460579 711.938416,76.061958 700.147888,70.980225 
	C695.331238,68.904259 690.538025,66.274155 686.533875,62.936623 
	C681.273926,58.552311 682.692017,51.283806 689.170837,49.036636 
	C693.115417,47.668457 697.589661,47.827251 702.609192,47.581142 
M330.793884,141.760956 
	C333.338776,147.351364 335.990082,152.896820 338.379639,158.552841 
	C339.434204,161.048920 340.830078,162.005356 343.622528,161.915741 
	C350.613342,161.691345 357.616394,161.872528 364.613953,161.815506 
	C366.014893,161.804108 367.413147,161.457764 369.587433,161.159607 
	C363.160614,146.942734 357.046783,133.418289 350.890900,119.800812 
	C360.167816,114.523293 366.024567,106.652290 366.761566,96.587166 
	C367.815918,82.187569 368.519287,67.565041 367.208221,53.235722 
	C365.243042,31.757082 353.133850,21.501745 331.443176,20.969398 
	C316.622833,20.605665 301.787476,20.844240 286.958862,20.854656 
	C286.031006,20.855309 285.103424,21.214392 284.297455,21.381483 
	C284.297455,68.234665 284.297455,114.787621 284.297455,161.841690 
	C291.957703,161.841690 299.266327,161.567841 306.541718,161.941254 
	C311.129089,162.176727 312.150482,160.463089 312.037140,156.207947 
	C311.758484,145.751389 311.945923,135.282440 311.945923,124.867119 
	C322.553162,123.865395 322.557709,123.863312 326.717804,132.935318 
	C327.963989,135.652939 329.177032,138.385757 330.793884,141.760956 
M537.698120,124.108101 
	C534.720520,135.171814 531.898315,146.280991 528.682312,157.274979 
	C527.533020,161.203812 528.849976,161.961868 532.356628,161.885040 
	C538.849365,161.742828 545.356018,161.645706 551.839478,161.929276 
	C555.036865,162.069107 556.217163,160.746719 556.924866,157.947296 
	C558.960083,149.897675 561.213867,141.903442 563.277527,133.860718 
	C563.895874,131.450943 564.954529,130.376587 567.684998,130.446793 
	C575.674561,130.652191 583.678589,130.695541 591.664856,130.433350 
	C594.865540,130.328293 595.958130,131.590134 596.676819,134.425171 
	C598.675537,142.309860 601.017639,150.107086 603.055908,157.982391 
	C603.788818,160.813965 605.034058,162.061371 608.189514,161.925415 
	C614.507019,161.653229 620.851135,161.670319 627.171387,161.908295 
	C631.126587,162.057205 632.101868,160.896973 631.040588,156.990356 
	C619.069397,112.922821 607.189819,68.830215 595.414001,24.710077 
	C594.623962,21.750011 593.501770,20.637003 590.371643,20.748690 
	C583.551392,20.992050 576.703918,21.069901 569.892578,20.723619 
	C566.299194,20.540934 565.014465,21.894968 564.154846,25.138512 
	C555.476685,57.883862 546.667908,90.594597 537.698120,124.108101 
M829.789795,108.500092 
	C829.789795,88.245461 829.789795,67.990822 829.789795,47.521996 
	C839.396423,47.521996 848.376404,47.437210 857.353271,47.566341 
	C860.654602,47.613827 862.223877,46.701256 862.075928,43.041660 
	C861.827271,36.890816 861.906677,30.720263 862.052002,24.562815 
	C862.118958,21.725372 861.027039,20.780535 858.257202,20.786287 
	C829.784058,20.845421 801.310547,20.858431 772.837585,20.771357 
	C769.711914,20.761797 768.809143,21.920059 768.914185,24.893938 
	C769.102112,30.215633 768.965759,35.548737 768.967407,40.877071 
	C768.969421,47.509361 768.970459,47.515900 775.405396,47.520939 
	C783.845886,47.527546 792.286377,47.522560 801.153320,47.522560 
	C801.153320,49.747772 801.153320,51.546982 801.153320,53.346191 
	C801.153320,87.813850 801.205078,122.281700 801.080872,156.748917 
	C801.067017,160.596176 802.008728,162.146286 806.120667,161.932709 
	C812.431030,161.604950 818.779846,161.644333 825.095093,161.921310 
	C828.974548,162.091476 829.885620,160.523132 829.853394,156.955032 
	C829.710449,141.137817 829.790161,125.318596 829.789795,108.500092 
M461.773071,163.327179 
	C462.766571,163.219360 463.767029,163.155182 464.752502,162.997345 
	C487.680206,159.325195 499.560181,148.955505 500.327850,127.671219 
	C501.209351,103.230446 501.491730,78.670227 500.083069,54.274559 
	C498.879028,33.421841 488.385742,23.420900 467.584015,20.170601 
	C459.275330,18.872360 450.651154,18.793495 442.222900,19.212412 
	C418.235168,20.404699 403.916107,34.329041 403.221893,57.901920 
	C402.570007,80.040169 402.660828,102.224030 403.224731,124.367447 
	C403.752991,145.109787 413.038635,157.188751 432.179535,161.431549 
	C441.444092,163.485138 451.296783,162.885605 461.773071,163.327179 
M360.044342,241.992096 
	C360.015015,258.292480 359.639771,274.602203 360.078125,290.890015 
	C360.369843,301.729736 366.002441,309.040894 376.564301,311.278900 
	C384.373138,312.933655 392.833649,313.508453 400.707062,312.419281 
	C414.202545,310.552307 420.633728,304.061035 421.308228,290.779541 
	C422.157898,274.048950 421.629822,257.206451 420.836456,240.452957 
	C420.469421,232.702118 415.577179,227.027878 408.127777,223.972931 
	C399.531586,220.447693 390.671936,220.448883 381.661804,221.677734 
	C370.030914,223.264038 362.378967,229.158463 360.044342,241.992096 
M301.774567,306.272827 
	C301.774567,300.334320 301.774567,294.395813 301.774567,288.656433 
	C306.783447,287.185913 309.348999,288.647308 310.979279,293.098145 
	C312.970978,298.535767 315.604370,303.751770 318.193298,308.947510 
	C318.817932,310.201080 320.312805,311.799835 321.486694,311.867645 
	C326.883850,312.179321 332.309052,312.004913 338.547882,312.004913 
	C334.334900,302.648773 330.485443,294.100006 326.678802,285.646240 
	C333.816467,279.338562 336.140930,276.924408 336.557281,270.450348 
	C337.196228,260.515137 337.451202,250.443192 336.532898,240.553329 
	C335.721161,231.811249 330.452972,224.674271 321.415894,223.539780 
	C309.163452,222.001648 296.692657,222.202988 284.325378,221.658630 
	C284.325378,252.477478 284.325378,282.166565 284.325378,311.777527 
	C290.181488,311.777527 295.628723,311.777527 301.456085,311.777527 
	C301.571686,310.123016 301.673187,308.670502 301.774567,306.272827 
M465.517242,290.810181 
	C464.628326,286.824982 463.037506,282.851227 462.972046,278.852570 
	C462.688477,261.525940 462.873749,244.191956 462.817535,226.860870 
	C462.811249,224.924240 463.799774,222.161285 460.167572,222.159378 
	C455.214752,222.156784 450.261902,222.158737 445.570404,222.158737 
	C445.170288,222.958710 444.899475,223.247314 444.899719,223.535690 
	C444.919067,245.860107 444.657074,268.190918 445.130127,290.506134 
	C445.356567,301.187500 452.369781,309.849945 462.433167,311.663300 
	C470.013489,313.029236 478.099823,313.391693 485.712769,312.363434 
	C498.176025,310.680054 505.485718,303.413696 506.086731,290.792664 
	C507.131592,268.849152 506.728302,246.835251 506.767273,224.850571 
	C506.768860,223.954575 505.129517,222.329224 504.189514,222.279648 
	C499.257996,222.019577 494.305511,222.158035 488.909393,222.158035 
	C488.909393,224.543411 488.909790,226.338455 488.909302,228.133499 
	C488.904449,245.631363 488.970367,263.129700 488.852875,280.626801 
	C488.815887,286.134766 487.731598,291.603638 481.858521,293.852234 
	C476.329773,295.968964 470.734192,295.894043 465.517242,290.810181 
M813.414490,234.534607 
	C813.414490,260.278900 813.414490,286.023224 813.414490,311.719360 
	C829.992493,311.719360 845.749512,311.719360 861.655396,311.719360 
	C861.655396,306.050262 861.655396,300.676788 861.655396,294.878510 
	C851.385010,294.878510 841.464905,294.878510 831.682739,294.878510 
	C831.682739,288.045105 831.682739,281.648560 831.682739,274.880798 
	C839.592224,274.880798 847.190247,274.880798 854.836487,274.880798 
	C854.836487,268.962372 854.836487,263.437958 854.836487,257.496765 
	C846.833313,257.496765 839.258789,257.496765 831.581299,257.496765 
	C831.581299,251.278198 831.581299,245.492737 831.581299,239.168198 
	C841.691040,239.168198 851.600403,239.168198 861.625549,239.168198 
	C861.625549,233.258774 861.625549,227.898895 861.625549,222.418488 
	C845.499023,222.418488 829.759277,222.418488 813.414551,222.418488 
	C813.414551,226.301208 813.414551,229.925171 813.414490,234.534607 
M616.729858,289.446838 
	C616.729858,284.702698 616.729858,279.958557 616.729858,274.819763 
	C624.959900,274.819763 632.535339,274.819763 640.292847,274.819763 
	C640.292847,268.987854 640.292847,263.579651 640.292847,257.742157 
	C632.360535,257.742157 624.761353,257.742157 617.009338,257.742157 
	C617.009338,251.405579 617.009338,245.504593 617.009338,239.013672 
	C627.151917,239.013672 637.033752,239.013672 646.866577,239.013672 
	C646.866577,233.158539 646.866577,227.901566 646.866577,222.396866 
	C630.842346,222.396866 615.110962,222.396866 599.070923,222.396866 
	C599.070923,252.277145 599.070923,281.964996 599.070923,311.773865 
	C615.124756,311.773865 630.862671,311.773865 646.868958,311.773865 
	C646.868958,306.149750 646.868958,300.767731 646.868958,294.894592 
	C636.684509,294.894592 626.779053,294.894592 616.729309,294.894592 
	C616.729309,293.080536 616.729309,291.757874 616.729858,289.446838 
M755.898438,308.320587 
	C756.575378,309.546234 757.192200,311.789856 757.938843,311.833923 
	C763.170105,312.142853 768.428223,311.997559 774.117676,311.997559 
	C774.117676,287.268494 774.117676,263.362091 774.117676,239.057617 
	C781.005920,239.057617 787.430237,239.057617 793.988464,239.057617 
	C793.988464,233.274017 793.988464,227.905457 793.988464,222.158371 
	C775.134949,222.158371 756.673950,222.121155 738.214417,222.260193 
	C737.214233,222.267731 735.415405,223.702988 735.365356,224.554535 
	C735.085938,229.307770 735.231018,234.085953 735.231018,239.361816 
	C742.555908,239.361816 749.131409,239.361816 755.897949,239.361816 
	C755.897949,262.384613 755.897949,284.869629 755.898438,308.320587 
M684.110413,245.601440 
	C684.110413,267.660126 684.110413,289.718842 684.110413,311.690704 
	C690.638123,311.690704 696.225098,311.690704 702.267212,311.690704 
	C702.267212,287.465179 702.267212,263.553833 702.267212,239.076355 
	C709.280579,239.076355 715.840393,239.076355 722.886536,239.076355 
	C722.886536,234.726044 722.647217,230.912811 722.952759,227.143738 
	C723.268311,223.251389 722.077209,221.981155 717.987183,222.050095 
	C702.829224,222.305588 687.664490,222.151871 672.502258,222.151871 
	C669.729187,222.151871 666.956177,222.151855 664.116821,222.151855 
	C664.116821,228.161667 664.116821,233.546066 664.116821,239.320892 
	C670.915344,239.320892 677.341492,239.320892 684.110352,239.320892 
	C684.110352,241.352615 684.110352,242.992340 684.110413,245.601440 
M531.168640,260.499939 
	C531.168640,277.573822 531.168640,294.647675 531.168640,311.723755 
	C547.677246,311.723755 563.407837,311.723755 579.431458,311.723755 
	C579.431458,306.046967 579.431458,300.658630 579.431458,294.772705 
	C569.212097,294.772705 559.309814,294.772705 548.943604,294.772705 
	C548.943604,270.404663 548.943604,246.530411 548.943604,222.437790 
	C542.903564,222.437790 537.345581,222.437790 531.169556,222.437790 
	C531.169556,234.977707 531.169556,247.238800 531.168640,260.499939 
z"/>
<path fill="aliceblue" opacity="1.000000" stroke="none" 
	d="
M70.572037,225.999649 
	C70.572060,212.710114 70.572060,199.920593 70.572060,186.176407 
	C83.415924,186.176407 95.851151,186.010422 108.270142,186.384155 
	C109.842072,186.431473 111.784058,189.062820 112.785599,190.913208 
	C124.568581,212.682892 136.201279,234.533905 147.880951,256.359558 
	C154.157639,268.088715 160.355911,279.861877 166.834534,291.478607 
	C167.789032,293.190094 170.080246,295.239990 171.791306,295.275299 
	C186.279510,295.574158 200.776642,295.446106 215.271027,295.418610 
	C215.744812,295.417725 216.218063,295.121735 217.268250,294.770386 
	C215.473358,291.220276 213.782532,287.714905 211.953079,284.283417 
	C199.131699,260.234192 186.265015,236.209122 173.453522,212.154648 
	C170.548569,206.700394 170.622116,206.661224 176.340515,204.467087 
	C184.675186,201.269089 184.673660,201.269897 188.814148,209.006958 
	C205.750809,240.655228 222.695267,272.299316 239.609543,303.959564 
	C240.668137,305.941040 241.493561,308.047089 242.747238,310.796478 
	C240.380157,310.975464 238.799637,311.197723 237.218918,311.199158 
	C213.053070,311.221161 188.886978,311.165405 164.721558,311.268951 
	C161.244431,311.283844 158.970566,310.508728 157.186035,307.124451 
	C139.434067,273.458466 121.440002,239.920029 103.717720,206.238556 
	C101.871742,202.730240 99.757492,201.419800 95.986885,201.745224 
	C92.880760,202.013321 89.733086,201.799973 86.337769,201.799973 
	C86.337769,213.745865 86.337891,225.062851 86.337746,236.379852 
	C86.337456,259.545746 86.249847,282.712311 86.417374,305.876984 
	C86.447357,310.023132 85.191124,311.332733 81.016495,311.297241 
	C59.852051,311.117401 38.684288,311.108093 17.520079,311.300934 
	C13.118072,311.341034 11.891398,309.979279 11.896858,305.591644 
	C12.015693,210.094940 12.021163,114.598007 11.890899,19.101332 
	C11.884304,14.267024 13.297513,12.726607 18.102823,12.866353 
	C28.920336,13.180943 27.649605,12.247418 27.650249,22.180998 
	C27.656103,112.511147 27.637083,202.841293 27.630840,293.171448 
	C27.630808,293.655029 27.709038,294.138641 27.787931,295.053955 
	C41.832863,295.053955 55.872269,295.053955 70.572006,295.053955 
	C70.572006,272.048065 70.572006,249.273865 70.572037,225.999649 
z"/>
<path fill="aliceblue" opacity="1.000000" stroke="none" 
	d="
M167.395538,178.432861 
	C197.210327,165.805649 213.493347,140.918427 212.925613,105.821716 
	C212.627274,87.379059 208.404160,70.182518 195.714767,56.080967 
	C184.817398,43.970875 171.041580,36.058075 155.237167,33.071507 
	C141.261948,30.430607 126.915688,29.243343 112.680481,28.620674 
	C95.883003,27.885925 79.022736,28.700850 62.202816,28.297062 
	C57.020313,28.172647 56.148930,29.929379 56.155552,34.514385 
	C56.266525,111.330551 56.234512,188.146927 56.235306,264.963257 
	C56.235363,270.461975 56.109177,275.965515 56.305046,281.457397 
	C56.400230,284.126373 55.525497,285.005371 52.897442,284.879974 
	C49.123688,284.699921 45.334942,284.834076 41.064381,284.834076 
	C41.064381,282.839966 41.064381,281.393951 41.064381,279.947906 
	C41.064217,192.800522 41.097218,105.653099 40.967270,18.505915 
	C40.960678,14.083842 42.171570,12.836275 46.568214,12.870880 
	C71.227898,13.064978 95.900299,12.523357 120.547798,13.104713 
	C140.061554,13.564981 159.271927,16.467941 177.409790,24.500683 
	C201.546555,35.190151 217.693161,52.815056 224.614334,78.427681 
	C230.550201,100.394104 230.051483,122.382385 222.573868,143.840668 
	C213.546036,169.747604 194.787918,185.781967 168.970856,193.976639 
	C163.160828,195.820816 157.274872,197.425812 150.476974,199.418472 
	C165.694763,227.835770 180.750137,255.949768 196.427094,285.224518 
	C190.300598,285.224518 185.261658,285.365997 180.244171,285.101044 
	C179.280487,285.050140 178.115295,283.557739 177.524445,282.469086 
	C160.723923,251.512344 143.983017,220.523224 127.253014,189.528259 
	C126.959961,188.985336 126.918716,188.306519 126.979713,188.542999 
	C140.482193,185.196655 153.768250,181.903946 167.395538,178.432861 
z"/>
<path fill="aliceblue" opacity="1.000000" stroke="none" 
	d="
M132.832565,141.869263 
	C112.800858,142.730545 93.191238,143.496994 73.583046,144.297989 
	C70.566444,144.421204 70.093796,142.773666 70.115364,140.202072 
	C70.211784,128.707382 70.335976,117.207634 70.082237,105.717834 
	C69.977272,100.964561 73.321274,101.700279 75.378029,102.406738 
	C78.802979,103.583145 84.839447,98.209839 85.590408,105.726776 
	C86.216614,111.994934 85.726028,118.375610 85.710800,124.706406 
	C85.705147,127.055138 85.930138,129.120651 89.121574,128.910248 
	C104.037315,127.926888 119.012497,127.479469 133.847855,125.795723 
	C141.336563,124.945786 148.200333,121.287254 151.501511,113.555229 
	C155.459808,104.284081 151.513168,94.058922 141.850983,91.383522 
	C133.940704,89.193207 125.536278,88.210396 117.304131,87.888496 
	C103.330910,87.342117 89.320847,87.737648 75.326271,87.737312 
	C73.728867,87.737274 72.131470,87.737305 70.328186,87.737305 
	C70.328186,72.614571 70.328186,58.197285 70.328186,43.455349 
	C71.605217,43.333218 72.701683,43.128788 73.796265,43.138397 
	C94.948532,43.324112 116.200523,42.318966 137.227448,44.047306 
	C163.698181,46.223106 185.582474,57.526596 194.818665,84.466965 
	C202.198135,105.991592 201.503723,127.573715 188.174469,147.060028 
	C179.559311,159.654678 166.226639,165.281372 151.857437,168.915619 
	C137.345779,172.585922 122.535660,172.769196 107.744659,173.188553 
	C99.088310,173.433975 90.418358,173.307648 81.756447,173.197647 
	C78.177284,173.152191 71.846886,173.484756 71.518013,172.312622 
	C70.289101,167.932602 71.026695,163.000839 71.026695,157.861053 
	C87.327515,157.861053 103.300049,157.801834 119.271912,157.880707 
	C131.021393,157.938736 142.411148,156.196976 153.577301,152.410217 
	C173.512222,145.649689 185.262894,128.538101 183.533142,107.594574 
	C183.030640,101.510506 182.264023,95.238594 180.264420,89.526833 
	C174.071091,71.835831 160.188187,62.436867 142.538895,60.306271 
	C125.110931,58.202385 107.363770,58.765606 89.759995,58.073441 
	C86.698814,57.953072 85.633652,59.183300 85.676445,62.161358 
	C85.850227,74.254349 84.521278,72.506721 95.434158,72.646774 
	C107.093605,72.796410 118.834259,72.124626 130.385254,73.311798 
	C138.280258,74.123230 146.535141,76.323997 153.515839,80.011276 
	C164.392593,85.756500 168.794464,95.965805 168.262100,108.414848 
	C167.754730,120.279259 162.405548,129.295227 152.332153,134.891068 
	C146.497086,138.132462 139.647919,139.548325 132.832565,141.869263 
z"/>
<path fill="aliceblue" opacity="1.000000" stroke="none" 
	d="
M702.217590,47.440651 
	C697.589661,47.827251 693.115417,47.668457 689.170837,49.036636 
	C682.692017,51.283806 681.273926,58.552311 686.533875,62.936623 
	C690.538025,66.274155 695.331238,68.904259 700.147888,70.980225 
	C711.938416,76.061958 723.481079,81.460579 733.354614,89.866173 
	C747.427551,101.846779 749.734863,116.978226 744.775208,133.807938 
	C739.975769,150.093872 729.324341,160.316437 712.316650,163.056427 
	C695.633667,165.744095 679.967224,162.983841 666.945007,151.677933 
	C662.589844,147.896729 659.762085,142.288437 656.556274,137.309265 
	C655.925354,136.329361 656.188110,133.760757 657.018372,133.014069 
	C663.539429,127.149269 670.299011,121.549622 677.404480,115.511917 
	C679.089661,118.489647 680.347717,120.965904 681.835571,123.295349 
	C686.837341,131.126022 693.631287,135.975281 703.326477,135.037445 
	C708.984558,134.490128 713.366333,131.735046 715.303955,125.989502 
	C717.181885,120.420807 715.711060,115.486145 711.260315,112.137947 
	C706.937988,108.886368 701.911682,106.555077 697.138306,103.921715 
	C687.583008,98.650238 677.241821,94.456818 668.558044,88.020065 
	C646.586853,71.734215 648.445190,40.364788 672.151917,26.594990 
	C688.041992,17.365408 705.122559,15.334794 722.189941,24.024733 
	C731.645874,28.839252 737.246521,37.390800 741.815491,46.597107 
	C742.255493,47.483654 741.677795,49.658764 740.856750,50.262714 
	C734.720825,54.776459 728.404663,59.045116 721.855591,63.591434 
	C716.093628,57.157181 711.758240,49.367607 702.217590,47.440651 
M707.708252,35.335972 
	C713.725098,39.232311 719.741943,43.128651 726.746521,47.664585 
	C725.592285,45.775799 725.058960,44.678471 724.325745,43.736740 
	C712.969177,29.148479 693.791443,28.709291 680.499329,35.865620 
	C662.998108,45.288036 662.073853,67.119164 678.571655,78.322235 
	C683.613647,81.746040 689.413635,84.035988 694.770569,87.017555 
	C703.448120,91.847366 712.426392,96.268898 720.570862,101.887405 
	C728.625793,107.444199 731.551392,116.008583 729.631836,125.673859 
	C727.557556,136.118515 722.210449,144.039642 711.323120,147.212296 
	C698.744507,150.877808 682.950562,145.986267 674.794189,135.754868 
	C673.884033,134.613113 672.906006,133.525436 671.959473,132.412689 
	C671.510864,132.723633 671.062195,133.034561 670.613586,133.345505 
	C671.625061,135.069061 672.367920,137.039978 673.690979,138.476639 
	C683.381592,148.999435 695.676758,152.789932 709.415710,150.351395 
	C721.912903,148.133240 729.512634,139.929504 732.241516,127.488937 
	C734.969299,115.053383 730.836609,104.827293 720.559814,97.894493 
	C712.635132,92.548462 703.712524,88.685570 695.252930,84.127357 
	C689.278137,80.908035 682.810791,78.314095 677.486511,74.235703 
	C665.828369,65.305573 667.365295,46.924889 679.993164,39.481548 
	C688.352722,34.554096 697.361389,33.023506 707.708252,35.335972 
z"/>
<path fill="aliceblue" opacity="1.000000" stroke="none" 
	d="
M330.599579,141.436279 
	C329.177032,138.385757 327.963989,135.652939 326.717804,132.935318 
	C322.557709,123.863312 322.553162,123.865395 311.945923,124.867119 
	C311.945923,135.282440 311.758484,145.751389 312.037140,156.207947 
	C312.150482,160.463089 311.129089,162.176727 306.541718,161.941254 
	C299.266327,161.567841 291.957703,161.841690 284.297455,161.841690 
	C284.297455,114.787621 284.297455,68.234665 284.297455,21.381483 
	C285.103424,21.214392 286.031006,20.855309 286.958862,20.854656 
	C301.787476,20.844240 316.622833,20.605665 331.443176,20.969398 
	C353.133850,21.501745 365.243042,31.757082 367.208221,53.235722 
	C368.519287,67.565041 367.815918,82.187569 366.761566,96.587166 
	C366.024567,106.652290 360.167816,114.523293 350.890900,119.800812 
	C357.046783,133.418289 363.160614,146.942734 369.587433,161.159607 
	C367.413147,161.457764 366.014893,161.804108 364.613953,161.815506 
	C357.616394,161.872528 350.613342,161.691345 343.622528,161.915741 
	C340.830078,162.005356 339.434204,161.048920 338.379639,158.552841 
	C335.990082,152.896820 333.338776,147.351364 330.599579,141.436279 
M353.566406,48.208668 
	C351.109741,40.762032 345.694366,35.338696 338.456818,34.376038 
	C324.884979,32.570877 311.087524,32.462269 297.528900,31.656647 
	C297.528900,71.985161 297.528900,110.896278 297.528900,149.807404 
	C298.074921,149.825836 298.620972,149.844269 299.166992,149.862701 
	C299.166992,137.451126 299.166992,125.039558 299.166992,112.245247 
	C309.458740,112.245247 318.753479,112.119614 328.036652,112.389946 
	C329.327606,112.427536 331.053131,114.169319 331.743744,115.541733 
	C336.820068,125.629669 341.665436,135.833588 346.636292,145.975143 
	C347.347382,147.425903 348.341858,148.737717 349.205200,150.113846 
	C349.836060,149.770691 350.466949,149.427536 351.097839,149.084381 
	C345.068115,136.686310 339.038391,124.288231 332.946503,111.762314 
	C346.890350,108.970520 353.772217,103.562187 354.470551,91.800148 
	C355.314636,77.582329 354.160675,63.245884 353.566406,48.208668 
z"/>
<path fill="aliceblue" opacity="1.000000" stroke="none" 
	d="
M537.796997,123.711578 
	C546.667908,90.594597 555.476685,57.883862 564.154846,25.138512 
	C565.014465,21.894968 566.299194,20.540934 569.892578,20.723619 
	C576.703918,21.069901 583.551392,20.992050 590.371643,20.748690 
	C593.501770,20.637003 594.623962,21.750011 595.414001,24.710077 
	C607.189819,68.830215 619.069397,112.922821 631.040588,156.990356 
	C632.101868,160.896973 631.126587,162.057205 627.171387,161.908295 
	C620.851135,161.670319 614.507019,161.653229 608.189514,161.925415 
	C605.034058,162.061371 603.788818,160.813965 603.055908,157.982391 
	C601.017639,150.107086 598.675537,142.309860 596.676819,134.425171 
	C595.958130,131.590134 594.865540,130.328293 591.664856,130.433350 
	C583.678589,130.695541 575.674561,130.652191 567.684998,130.446793 
	C564.954529,130.376587 563.895874,131.450943 563.277527,133.860718 
	C561.213867,141.903442 558.960083,149.897675 556.924866,157.947296 
	C556.217163,160.746719 555.036865,162.069107 551.839478,161.929276 
	C545.356018,161.645706 538.849365,161.742828 532.356628,161.885040 
	C528.849976,161.961868 527.533020,161.203812 528.682312,157.274979 
	C531.898315,146.280991 534.720520,135.171814 537.796997,123.711578 
M583.499878,116.882812 
	C588.494263,116.882812 593.532471,117.292671 598.470337,116.764404 
	C603.153198,116.263420 604.774719,118.290382 605.871338,122.387085 
	C607.972534,130.236725 610.515442,137.969757 612.960022,145.724350 
	C613.383972,147.069168 614.226746,148.281906 614.876038,149.555649 
	C615.801758,148.172348 615.741394,147.222748 615.474915,146.335022 
	C604.503113,109.781754 593.536621,73.226776 582.446533,36.709366 
	C581.947632,35.066650 580.305481,33.771114 579.195862,32.313877 
	C578.158142,33.856060 576.650757,35.260426 576.151855,36.960693 
	C565.639038,72.788849 555.235107,108.648941 544.834900,144.510071 
	C544.366272,146.126038 544.133179,147.810333 543.790405,149.462814 
	C544.420593,149.644745 545.050720,149.826675 545.680908,150.008606 
	C548.993103,138.979584 552.305298,127.950546 555.629089,116.882812 
	C564.864807,116.882812 573.682312,116.882812 583.499878,116.882812 
z"/>
<path fill="aliceblue" opacity="1.000000" stroke="none" 
	d="
M829.789551,109.000099 
	C829.790161,125.318596 829.710449,141.137817 829.853394,156.955032 
	C829.885620,160.523132 828.974548,162.091476 825.095093,161.921310 
	C818.779846,161.644333 812.431030,161.604950 806.120667,161.932709 
	C802.008728,162.146286 801.067017,160.596176 801.080872,156.748917 
	C801.205078,122.281700 801.153320,87.813850 801.153320,53.346191 
	C801.153320,51.546982 801.153320,49.747772 801.153320,47.522560 
	C792.286377,47.522560 783.845886,47.527546 775.405396,47.520939 
	C768.970459,47.515900 768.969421,47.509361 768.967407,40.877071 
	C768.965759,35.548737 769.102112,30.215633 768.914185,24.893938 
	C768.809143,21.920059 769.711914,20.761797 772.837585,20.771357 
	C801.310547,20.858431 829.784058,20.845421 858.257202,20.786287 
	C861.027039,20.780535 862.118958,21.725372 862.052002,24.562815 
	C861.906677,30.720263 861.827271,36.890816 862.075928,43.041660 
	C862.223877,46.701256 860.654602,47.613827 857.353271,47.566341 
	C848.376404,47.437210 839.396423,47.521996 829.789795,47.521996 
	C829.789795,67.990822 829.789795,88.245461 829.789551,109.000099 
M810.255493,35.219341 
	C814.135742,34.424751 814.030457,36.871883 814.026978,39.593189 
	C813.982117,74.574211 813.986511,109.555336 814.030640,144.536362 
	C814.032776,146.249329 814.517090,147.961670 814.776917,149.674286 
	C815.424927,149.620285 816.072998,149.566284 816.721069,149.512268 
	C816.721069,111.469322 816.721069,73.426369 816.721069,34.826744 
	C827.919250,34.826744 838.087402,34.826744 848.255554,34.826744 
	C848.339172,34.375439 848.422791,33.924129 848.506409,33.472824 
	C847.481018,33.121273 846.456482,32.465973 845.430115,32.463036 
	C824.941406,32.404343 804.452393,32.403133 783.963745,32.479172 
	C783.019836,32.482677 782.078857,33.315826 781.136536,33.762577 
	C781.261230,34.248150 781.385925,34.733719 781.510559,35.219292 
	C790.774292,35.219292 800.038025,35.219292 810.255493,35.219341 
z"/>
<path fill="aliceblue" opacity="1.000000" stroke="none" 
	d="
M461.328125,163.407227 
	C451.296783,162.885605 441.444092,163.485138 432.179535,161.431549 
	C413.038635,157.188751 403.752991,145.109787 403.224731,124.367447 
	C402.660828,102.224030 402.570007,80.040169 403.221893,57.901920 
	C403.916107,34.329041 418.235168,20.404699 442.222900,19.212412 
	C450.651154,18.793495 459.275330,18.872360 467.584015,20.170601 
	C488.385742,23.420900 498.879028,33.421841 500.083069,54.274559 
	C501.491730,78.670227 501.209351,103.230446 500.327850,127.671219 
	C499.560181,148.955505 487.680206,159.325195 464.752502,162.997345 
	C463.767029,163.155182 462.766571,163.219360 461.328125,163.407227 
M416.481842,120.094902 
	C418.370880,139.373535 426.231995,148.472198 444.431549,150.483200 
	C451.546356,151.269394 459.134277,150.523254 466.144836,148.906189 
	C478.977600,145.946198 487.603546,135.590210 487.924957,122.380447 
	C488.443054,101.087059 488.503510,79.755348 487.826752,58.469406 
	C487.354095,43.602596 478.339752,33.988018 463.584290,31.853685 
	C456.274292,30.796322 448.563599,30.764301 441.254791,31.810150 
	C426.469360,33.925858 417.696533,42.818993 416.984894,57.770531 
	C416.012512,78.199585 416.540863,98.700058 416.481842,120.094902 
z"/>
<path fill="aliceblue" opacity="1.000000" stroke="none" 
	d="
M360.101990,241.551849 
	C362.378967,229.158463 370.030914,223.264038 381.661804,221.677734 
	C390.671936,220.448883 399.531586,220.447693 408.127777,223.972931 
	C415.577179,227.027878 420.469421,232.702118 420.836456,240.452957 
	C421.629822,257.206451 422.157898,274.048950 421.308228,290.779541 
	C420.633728,304.061035 414.202545,310.552307 400.707062,312.419281 
	C392.833649,313.508453 384.373138,312.933655 376.564301,311.278900 
	C366.002441,309.040894 360.369843,301.729736 360.078125,290.890015 
	C359.639771,274.602203 360.015015,258.292480 360.101990,241.551849 
M369.992340,291.211700 
	C370.343231,292.510406 370.694122,293.809113 371.071350,295.803192 
	C373.819824,298.239014 376.189484,301.558472 379.393372,302.932037 
	C386.721710,306.073761 394.446503,306.019104 402.655334,302.902313 
	C404.103699,301.705475 405.552063,300.508636 407.585175,299.045105 
	C408.143860,298.446533 408.702545,297.847931 409.864441,296.900024 
	C411.211670,292.868134 413.543030,288.879059 413.720520,284.796326 
	C414.240051,272.846069 414.126526,260.852692 413.816559,248.887741 
	C413.624390,241.469498 411.523102,234.266907 403.999054,231.177536 
	C394.992676,227.479523 385.648438,226.985291 376.374268,232.463730 
	C376.619049,232.857758 376.863831,233.251785 377.108673,233.645813 
	C377.406464,233.192184 377.704285,232.738541 378.865967,232.154129 
	C383.440369,231.652756 388.021362,230.676575 392.587982,230.739548 
	C405.974670,230.924149 411.767548,236.932266 411.927063,250.451431 
	C412.052338,261.069244 412.339539,271.709869 411.783203,282.299835 
	C411.532684,287.067963 409.401978,291.737274 407.690674,296.840118 
	C407.099426,297.567291 406.508209,298.294464 405.233643,299.083130 
	C404.154144,300.060394 403.074646,301.037689 401.137817,301.884613 
	C399.838409,302.099670 398.545593,302.373505 397.238525,302.520355 
	C387.736328,303.587952 378.535797,303.625000 371.995728,294.275726 
	C371.664307,293.153320 371.332886,292.030945 370.449585,290.007172 
	C370.195618,288.301056 369.941650,286.594940 369.694702,283.966095 
	C369.670746,272.352325 369.646790,260.738556 369.936890,248.325333 
	C370.273163,245.547699 370.609436,242.770081 371.419189,239.656128 
	C371.717804,238.767517 372.016418,237.878906 372.315033,236.990295 
	C372.153442,236.952057 371.991852,236.913803 371.830261,236.875565 
	C371.560791,237.939011 371.291321,239.002457 370.340515,240.374649 
	C369.597900,243.265213 368.855255,246.155777 368.024536,249.974152 
	C368.062683,261.630707 368.100800,273.287231 367.975983,285.754700 
	C368.660126,287.411926 369.344299,289.069153 369.992340,291.211700 
M388.792633,295.155182 
	C398.779633,295.048462 402.752075,292.684021 403.277802,284.054535 
	C403.983490,272.471130 403.797180,260.777435 403.098663,249.185043 
	C402.665466,241.995758 397.404114,238.750443 389.578369,239.202179 
	C382.649414,239.602127 378.247284,243.508820 378.061523,250.457886 
	C377.763702,261.600616 377.799225,272.763214 378.095856,283.906708 
	C378.270050,290.451508 381.578979,293.792023 388.792633,295.155182 
z"/>
<path fill="aliceblue" opacity="1.000000" stroke="none" 
	d="
M301.774628,306.745422 
	C301.673187,308.670502 301.571686,310.123016 301.456085,311.777527 
	C295.628723,311.777527 290.181488,311.777527 284.325378,311.777527 
	C284.325378,282.166565 284.325378,252.477478 284.325378,221.658630 
	C296.692657,222.202988 309.163452,222.001648 321.415894,223.539780 
	C330.452972,224.674271 335.721161,231.811249 336.532898,240.553329 
	C337.451202,250.443192 337.196228,260.515137 336.557281,270.450348 
	C336.140930,276.924408 333.816467,279.338562 326.678802,285.646240 
	C330.485443,294.100006 334.334900,302.648773 338.547882,312.004913 
	C332.309052,312.004913 326.883850,312.179321 321.486694,311.867645 
	C320.312805,311.799835 318.817932,310.201080 318.193298,308.947510 
	C315.604370,303.751770 312.970978,298.535767 310.979279,293.098145 
	C309.348999,288.647308 306.783447,287.185913 301.774567,288.656433 
	C301.774567,294.395813 301.774567,300.334320 301.774628,306.745422 
M317.136810,285.133209 
	C316.616791,284.667664 316.096771,284.202087 315.576752,283.736542 
	C315.382019,283.900787 315.187317,284.065033 314.992584,284.229309 
	C315.432495,284.984833 315.872375,285.740387 316.593445,287.161224 
	C319.375458,292.861053 322.157471,298.560913 324.939484,304.260742 
	C325.544128,303.942474 326.148773,303.624207 326.753387,303.305908 
	C323.562500,297.482391 320.371582,291.658875 317.136810,285.133209 
M328.443237,267.988892 
	C328.641052,260.223267 328.908142,252.458572 329.014923,244.691696 
	C329.101959,238.362442 325.981598,232.293381 319.985565,231.398102 
	C311.169128,230.081726 302.062469,230.709045 292.227173,230.404938 
	C292.227173,254.918961 292.227173,279.432983 292.227173,303.946991 
	C292.771851,303.953766 293.316559,303.960571 293.861237,303.967346 
	C293.861237,296.299377 293.861237,288.631409 293.861237,280.853699 
	C300.642059,280.853699 306.768097,280.873383 312.893158,280.805756 
	C313.267944,280.801575 313.635162,280.106750 313.777710,278.978912 
	C307.272186,278.649933 300.766632,278.320953 294.010254,277.085815 
	C294.028625,262.088806 294.046997,247.091766 294.978699,231.911911 
	C301.109161,231.908585 307.247467,231.706787 313.368225,231.949127 
	C322.201996,232.298874 326.739502,236.828079 327.004333,245.643799 
	C327.228027,253.090179 327.012573,260.549774 326.445831,268.481506 
	C324.521729,271.645874 322.597595,274.810272 320.325958,278.546204 
	C325.567200,276.773010 328.308777,273.692352 328.443237,267.988892 
M314.494232,269.608978 
	C320.346863,266.598663 319.375336,261.017426 319.420471,255.985580 
	C319.552185,241.304382 317.856232,239.746246 303.072723,240.241272 
	C302.782745,240.250977 302.501129,240.510529 302.041504,240.740692 
	C302.041504,250.389465 302.041504,260.113373 302.041504,269.927643 
	C306.105164,269.927643 309.901520,269.927643 314.494232,269.608978 
M318.531464,277.747223 
	C318.401306,278.144531 318.249756,278.537079 318.159210,278.943207 
	C318.141388,279.023163 318.358887,279.155548 318.467834,279.263763 
	C318.597778,278.866486 318.727753,278.469238 318.531464,277.747223 
z"/>
<path fill="aliceblue" opacity="1.000000" stroke="none" 
	d="
M465.779816,291.095093 
	C470.734192,295.894043 476.329773,295.968964 481.858521,293.852234 
	C487.731598,291.603638 488.815887,286.134766 488.852875,280.626801 
	C488.970367,263.129700 488.904449,245.631363 488.909302,228.133499 
	C488.909790,226.338455 488.909393,224.543411 488.909393,222.158035 
	C494.305511,222.158035 499.257996,222.019577 504.189514,222.279648 
	C505.129517,222.329224 506.768860,223.954575 506.767273,224.850571 
	C506.728302,246.835251 507.131592,268.849152 506.086731,290.792664 
	C505.485718,303.413696 498.176025,310.680054 485.712769,312.363434 
	C478.099823,313.391693 470.013489,313.029236 462.433167,311.663300 
	C452.369781,309.849945 445.356567,301.187500 445.130127,290.506134 
	C444.657074,268.190918 444.919067,245.860107 444.899719,223.535690 
	C444.899475,223.247314 445.170288,222.958710 445.570404,222.158737 
	C450.261902,222.158737 455.214752,222.156784 460.167572,222.159378 
	C463.799774,222.161285 462.811249,224.924240 462.817535,226.860870 
	C462.873749,244.191956 462.688477,261.525940 462.972046,278.852570 
	C463.037506,282.851227 464.628326,286.824982 465.779816,291.095093 
M493.552521,298.599884 
	C495.344238,294.385101 497.135986,290.170349 498.988892,285.025574 
	C498.967194,267.033234 498.945496,249.040863 498.997437,230.453949 
	C498.589142,230.551224 498.180817,230.648499 497.423523,231.524078 
	C497.346008,249.647827 497.268494,267.771576 496.905792,286.630157 
	C495.663422,290.789551 494.421051,294.948914 493.096008,299.210419 
	C493.096008,299.210419 492.915131,299.053833 492.915131,299.053833 
	C492.915131,299.053833 493.101410,299.112549 493.552521,298.599884 
M454.809723,231.200378 
	C450.973602,229.964645 453.114288,233.281815 453.107941,233.945358 
	C452.942291,251.231873 452.931641,268.520447 453.016113,285.808075 
	C453.025848,287.800476 453.750275,289.789398 454.143341,291.779907 
	C454.400848,291.740692 454.658356,291.701477 454.915863,291.662231 
	C454.915863,271.806427 454.915863,251.950607 454.809723,231.200378 
M460.327087,300.234711 
	C469.343658,306.460236 482.362885,306.891663 489.848633,300.291290 
	C476.990906,304.490540 465.669861,304.907166 456.394714,294.133423 
	C456.228699,294.581665 456.062683,295.029877 455.896667,295.478119 
	C457.189301,296.903473 458.481934,298.328827 460.327087,300.234711 
M490.098267,299.636780 
	C489.911194,299.594147 489.724152,299.551483 489.537079,299.508820 
	C489.645905,299.611359 489.754700,299.713898 490.098267,299.636780 
z"/>
<path fill="aliceblue" opacity="1.000000" stroke="none" 
	d="
M813.414551,234.041870 
	C813.414551,229.925171 813.414551,226.301208 813.414551,222.418488 
	C829.759277,222.418488 845.499023,222.418488 861.625549,222.418488 
	C861.625549,227.898895 861.625549,233.258774 861.625549,239.168198 
	C851.600403,239.168198 841.691040,239.168198 831.581299,239.168198 
	C831.581299,245.492737 831.581299,251.278198 831.581299,257.496765 
	C839.258789,257.496765 846.833313,257.496765 854.836487,257.496765 
	C854.836487,263.437958 854.836487,268.962372 854.836487,274.880798 
	C847.190247,274.880798 839.592224,274.880798 831.682739,274.880798 
	C831.682739,281.648560 831.682739,288.045105 831.682739,294.878510 
	C841.464905,294.878510 851.385010,294.878510 861.655396,294.878510 
	C861.655396,300.676788 861.655396,306.050262 861.655396,311.719360 
	C845.749512,311.719360 829.992493,311.719360 813.414490,311.719360 
	C813.414490,286.023224 813.414490,260.278900 813.414551,234.041870 
M821.136047,271.499969 
	C821.136047,282.262848 821.136047,293.025726 821.136047,303.736206 
	C832.560364,303.736206 843.247437,303.736206 853.934448,303.736206 
	C853.938660,303.316010 853.942871,302.895782 853.947083,302.475586 
	C843.808716,302.475586 833.670288,302.475586 823.365845,302.475586 
	C823.365845,290.344421 823.365845,278.936157 823.365845,266.930664 
	C831.875427,266.930664 840.197754,266.930664 848.520142,266.930664 
	C848.538147,266.416595 848.556091,265.902557 848.574036,265.388489 
	C840.190063,265.388489 831.806091,265.388489 823.377563,265.388489 
	C823.377563,253.687836 823.377563,242.933182 823.377563,231.200256 
	C833.735962,231.200256 843.899353,231.200256 854.062683,231.200256 
	C854.036987,230.857513 854.011292,230.514755 853.985596,230.172012 
	C843.147644,230.172012 832.309692,230.172012 821.136353,230.172012 
	C821.136353,243.910324 821.136353,257.205139 821.136047,271.499969 
z"/>
<path fill="aliceblue" opacity="1.000000" stroke="none" 
	d="
M616.729614,289.941040 
	C616.729309,291.757874 616.729309,293.080536 616.729309,294.894592 
	C626.779053,294.894592 636.684509,294.894592 646.868958,294.894592 
	C646.868958,300.767731 646.868958,306.149750 646.868958,311.773865 
	C630.862671,311.773865 615.124756,311.773865 599.070923,311.773865 
	C599.070923,281.964996 599.070923,252.277145 599.070923,222.396866 
	C615.110962,222.396866 630.842346,222.396866 646.866577,222.396866 
	C646.866577,227.901566 646.866577,233.158539 646.866577,239.013672 
	C637.033752,239.013672 627.151917,239.013672 617.009338,239.013672 
	C617.009338,245.504593 617.009338,251.405579 617.009338,257.742157 
	C624.761353,257.742157 632.360535,257.742157 640.292847,257.742157 
	C640.292847,263.579651 640.292847,268.987854 640.292847,274.819763 
	C632.535339,274.819763 624.959900,274.819763 616.729858,274.819763 
	C616.729858,279.958557 616.729858,284.702698 616.729614,289.941040 
M622.470093,265.090820 
	C617.837585,265.090820 613.205078,265.090820 608.564087,265.090820 
	C608.564087,253.784348 608.564087,243.000671 608.564087,231.256500 
	C618.975464,231.256500 629.203735,231.256500 639.432007,231.256500 
	C639.408691,230.846573 639.385315,230.436630 639.362000,230.026703 
	C628.613647,230.026703 617.865295,230.026703 606.863281,230.026703 
	C606.863281,254.712524 606.863281,279.274231 606.863281,303.689789 
	C617.891296,303.689789 628.582031,303.689789 639.272766,303.689789 
	C639.275696,303.272827 639.278564,302.855865 639.281433,302.438904 
	C629.086243,302.438904 618.891052,302.438904 608.535278,302.438904 
	C608.535278,290.300232 608.535278,278.861755 608.535278,266.631592 
	C617.017029,266.631592 625.370117,266.631592 633.723145,266.631592 
	C633.711121,266.118011 633.699158,265.604401 633.687134,265.090820 
	C630.276245,265.090820 626.865417,265.090820 622.470093,265.090820 
z"/>
<path fill="aliceblue" opacity="1.000000" stroke="none" 
	d="
M755.898193,307.837585 
	C755.897949,284.869629 755.897949,262.384613 755.897949,239.361816 
	C749.131409,239.361816 742.555908,239.361816 735.231018,239.361816 
	C735.231018,234.085953 735.085938,229.307770 735.365356,224.554535 
	C735.415405,223.702988 737.214233,222.267731 738.214417,222.260193 
	C756.673950,222.121155 775.134949,222.158371 793.988464,222.158371 
	C793.988464,227.905457 793.988464,233.274017 793.988464,239.057617 
	C787.430237,239.057617 781.005920,239.057617 774.117676,239.057617 
	C774.117676,263.362091 774.117676,287.268494 774.117676,311.997559 
	C768.428223,311.997559 763.170105,312.142853 757.938843,311.833923 
	C757.192200,311.789856 756.575378,309.546234 755.898193,307.837585 
M761.402466,231.653061 
	C764.952454,231.308777 763.889832,233.978592 763.893921,235.694885 
	C763.943970,256.832611 763.920227,277.970459 763.938782,299.108276 
	C763.940247,300.731171 764.116333,302.353912 764.211243,303.976746 
	C764.702698,303.943176 765.194092,303.909637 765.685547,303.876099 
	C765.685547,279.938446 765.685547,256.000793 765.685547,231.225510 
	C772.787598,231.225510 779.206055,231.225510 785.624451,231.225510 
	C785.592834,230.878403 785.561157,230.531281 785.529541,230.184174 
	C771.501648,230.184174 757.473755,230.184174 743.445862,230.184174 
	C743.430054,230.672531 743.414307,231.160889 743.398499,231.649246 
	C749.071045,231.649246 754.743530,231.649246 761.402466,231.653061 
z"/>
<path fill="aliceblue" opacity="1.000000" stroke="none" 
	d="
M684.110352,245.116745 
	C684.110352,242.992340 684.110352,241.352615 684.110352,239.320892 
	C677.341492,239.320892 670.915344,239.320892 664.116821,239.320892 
	C664.116821,233.546066 664.116821,228.161667 664.116821,222.151855 
	C666.956177,222.151855 669.729187,222.151871 672.502258,222.151871 
	C687.664490,222.151871 702.829224,222.305588 717.987183,222.050095 
	C722.077209,221.981155 723.268311,223.251389 722.952759,227.143738 
	C722.647217,230.912811 722.886536,234.726044 722.886536,239.076355 
	C715.840393,239.076355 709.280579,239.076355 702.267212,239.076355 
	C702.267212,263.553833 702.267212,287.465179 702.267212,311.690704 
	C696.225098,311.690704 690.638123,311.690704 684.110413,311.690704 
	C684.110413,289.718842 684.110413,267.660126 684.110352,245.116745 
M684.491577,231.672821 
	C686.927917,231.672821 689.364197,231.672821 692.604248,231.672821 
	C692.604248,256.140717 692.604248,280.022949 692.604248,303.905151 
	C693.100647,303.899597 693.596985,303.894012 694.093384,303.888458 
	C694.093384,279.906494 694.093384,255.924530 694.093384,231.176605 
	C701.149170,231.176605 707.553711,231.176605 713.958191,231.176605 
	C713.933899,230.867889 713.909546,230.559174 713.885193,230.250458 
	C699.871216,230.250458 685.857239,230.250458 671.843262,230.250458 
	C671.837585,230.724564 671.831909,231.198669 671.826172,231.672775 
	C675.720886,231.672775 679.615540,231.672775 684.491577,231.672821 
z"/>
<path fill="aliceblue" opacity="1.000000" stroke="none" 
	d="
M531.169067,259.999908 
	C531.169556,247.238800 531.169556,234.977707 531.169556,222.437790 
	C537.345581,222.437790 542.903564,222.437790 548.943604,222.437790 
	C548.943604,246.530411 548.943604,270.404663 548.943604,294.772705 
	C559.309814,294.772705 569.212097,294.772705 579.431458,294.772705 
	C579.431458,300.658630 579.431458,306.046967 579.431458,311.723755 
	C563.407837,311.723755 547.677246,311.723755 531.168640,311.723755 
	C531.168640,294.647675 531.168640,277.573822 531.169067,259.999908 
M541.072327,301.062042 
	C541.072327,277.448914 541.072327,253.835785 541.072327,230.222656 
	C540.551514,230.203079 540.030762,230.183502 539.509949,230.163910 
	C539.396606,231.680359 539.188477,233.196579 539.184998,234.713257 
	C539.157959,246.540268 539.122620,258.367615 539.184937,270.194397 
	C539.240967,280.837555 539.417419,291.480072 539.443115,302.926910 
	C541.890930,303.334259 544.333313,304.050110 546.787476,304.092804 
	C555.192261,304.238983 563.601257,304.148895 572.008606,304.148895 
	C572.005188,303.609039 572.001709,303.069214 571.998291,302.529358 
	C570.277222,302.529358 568.555664,302.557892 566.835266,302.524536 
	C558.225647,302.357635 549.616394,302.174469 541.072327,301.062042 
z"/>
<path fill="transparent" opacity="1.000000" stroke="none" 
	d="
M707.308105,35.235458 
	C697.361389,33.023506 688.352722,34.554096 679.993164,39.481548 
	C667.365295,46.924889 665.828369,65.305573 677.486511,74.235703 
	C682.810791,78.314095 689.278137,80.908035 695.252930,84.127357 
	C703.712524,88.685570 712.635132,92.548462 720.559814,97.894493 
	C730.836609,104.827293 734.969299,115.053383 732.241516,127.488937 
	C729.512634,139.929504 721.912903,148.133240 709.415710,150.351395 
	C695.676758,152.789932 683.381592,148.999435 673.690979,138.476639 
	C672.367920,137.039978 671.625061,135.069061 670.613586,133.345505 
	C671.062195,133.034561 671.510864,132.723633 671.959473,132.412689 
	C672.906006,133.525436 673.884033,134.613113 674.794189,135.754868 
	C682.950562,145.986267 698.744507,150.877808 711.323120,147.212296 
	C722.210449,144.039642 727.557556,136.118515 729.631836,125.673859 
	C731.551392,116.008583 728.625793,107.444199 720.570862,101.887405 
	C712.426392,96.268898 703.448120,91.847366 694.770569,87.017555 
	C689.413635,84.035988 683.613647,81.746040 678.571655,78.322235 
	C662.073853,67.119164 662.998108,45.288036 680.499329,35.865620 
	C693.791443,28.709291 712.969177,29.148479 724.325745,43.736740 
	C725.058960,44.678471 725.592285,45.775799 726.746521,47.664585 
	C719.741943,43.128651 713.725098,39.232311 707.308105,35.235458 
z"/>
<path fill="transparent" opacity="1.000000" stroke="none" 
	d="
M353.718933,48.584724 
	C354.160675,63.245884 355.314636,77.582329 354.470551,91.800148 
	C353.772217,103.562187 346.890350,108.970520 332.946503,111.762314 
	C339.038391,124.288231 345.068115,136.686310 351.097839,149.084381 
	C350.466949,149.427536 349.836060,149.770691 349.205200,150.113846 
	C348.341858,148.737717 347.347382,147.425903 346.636292,145.975143 
	C341.665436,135.833588 336.820068,125.629669 331.743744,115.541733 
	C331.053131,114.169319 329.327606,112.427536 328.036652,112.389946 
	C318.753479,112.119614 309.458740,112.245247 299.166992,112.245247 
	C299.166992,125.039558 299.166992,137.451126 299.166992,149.862701 
	C298.620972,149.844269 298.074921,149.825836 297.528900,149.807404 
	C297.528900,110.896278 297.528900,71.985161 297.528900,31.656647 
	C311.087524,32.462269 324.884979,32.570877 338.456818,34.376038 
	C345.694366,35.338696 351.109741,40.762032 353.718933,48.584724 
M346.027252,41.451550 
	C343.791443,40.057114 341.726562,38.082920 339.291321,37.365074 
	C326.315613,33.540203 313.063751,35.876293 299.969910,35.182251 
	C299.969910,60.393356 299.969910,84.753365 299.969910,109.385239 
	C309.629852,109.385239 318.926910,109.399590 328.223877,109.370636 
	C329.716064,109.365990 331.215332,109.230591 332.698334,109.049309 
	C344.779938,107.572418 351.427368,100.999901 352.032532,88.882706 
	C352.554596,78.429512 352.360382,67.934944 352.289703,57.459965 
	C352.250671,51.673496 350.787811,46.273129 346.027252,41.451550 
z"/>
<path fill="transparent" opacity="1.000000" stroke="none" 
	d="
M582.999878,116.882812 
	C573.682312,116.882812 564.864807,116.882812 555.629089,116.882812 
	C552.305298,127.950546 548.993103,138.979584 545.680908,150.008606 
	C545.050720,149.826675 544.420593,149.644745 543.790405,149.462814 
	C544.133179,147.810333 544.366272,146.126038 544.834900,144.510071 
	C555.235107,108.648941 565.639038,72.788849 576.151855,36.960693 
	C576.650757,35.260426 578.158142,33.856060 579.195862,32.313873 
	C580.305481,33.771114 581.947632,35.066650 582.446533,36.709366 
	C593.536621,73.226776 604.503113,109.781754 615.474915,146.335022 
	C615.741394,147.222748 615.801758,148.172348 614.876038,149.555649 
	C614.226746,148.281906 613.383972,147.069168 612.960022,145.724350 
	C610.515442,137.969757 607.972534,130.236725 605.871338,122.387085 
	C604.774719,118.290382 603.153198,116.263420 598.470337,116.764404 
	C593.532471,117.292671 588.494263,116.882812 582.999878,116.882812 
M565.122192,83.714905 
	C562.217590,93.680405 559.312927,103.645905 556.379211,113.711197 
	C572.253296,113.711197 587.488831,113.711197 603.047668,113.711197 
	C595.228943,87.789795 587.506836,62.188484 579.472656,35.552761 
	C574.542297,52.081772 569.940125,67.510544 565.122192,83.714905 
z"/>
<path fill="transparent" opacity="1.000000" stroke="none" 
	d="
M809.778625,35.219315 
	C800.038025,35.219292 790.774292,35.219292 781.510559,35.219292 
	C781.385925,34.733719 781.261230,34.248150 781.136536,33.762577 
	C782.078857,33.315826 783.019836,32.482677 783.963745,32.479172 
	C804.452393,32.403133 824.941406,32.404343 845.430115,32.463036 
	C846.456482,32.465973 847.481018,33.121273 848.506409,33.472824 
	C848.422791,33.924129 848.339172,34.375439 848.255554,34.826744 
	C838.087402,34.826744 827.919250,34.826744 816.721069,34.826744 
	C816.721069,73.426369 816.721069,111.469322 816.721069,149.512268 
	C816.072998,149.566284 815.424927,149.620285 814.776917,149.674286 
	C814.517090,147.961670 814.032776,146.249329 814.030640,144.536362 
	C813.986511,109.555336 813.982117,74.574211 814.026978,39.593189 
	C814.030457,36.871883 814.135742,34.424751 809.778625,35.219315 
z"/>
<path fill="#transparent" opacity="1.000000" stroke="none" 
	d="
M416.453857,119.632416 
	C416.540863,98.700058 416.012512,78.199585 416.984894,57.770531 
	C417.696533,42.818993 426.469360,33.925858 441.254791,31.810150 
	C448.563599,30.764301 456.274292,30.796322 463.584290,31.853685 
	C478.339752,33.988018 487.354095,43.602596 487.826752,58.469406 
	C488.503510,79.755348 488.443054,101.087059 487.924957,122.380447 
	C487.603546,135.590210 478.977600,145.946198 466.144836,148.906189 
	C459.134277,150.523254 451.546356,151.269394 444.431549,150.483200 
	C426.231995,148.472198 418.370880,139.373535 416.453857,119.632416 
M484.650665,125.695297 
	C484.740112,102.893127 485.374298,80.075096 484.710968,57.294842 
	C484.324097,44.007805 474.841888,35.297352 461.601349,34.079952 
	C455.994568,33.564438 450.291992,33.756168 444.650757,34.014477 
	C429.940430,34.688068 419.407654,44.596664 419.050323,59.370667 
	C418.542999,80.347672 418.665619,101.354012 419.120789,122.334770 
	C419.383514,134.445221 427.579803,144.369858 439.235565,146.495941 
	C446.484283,147.818130 454.224640,148.055130 461.527130,147.106750 
	C473.433838,145.560455 481.486084,138.614960 484.650665,125.695297 
z"/>
<path fill="transparent" opacity="1.000000" stroke="none" 
	d="
M388.360840,295.141602 
	C381.578979,293.792023 378.270050,290.451508 378.095856,283.906708 
	C377.799225,272.763214 377.763702,261.600616 378.061523,250.457886 
	C378.247284,243.508820 382.649414,239.602127 389.578369,239.202179 
	C397.404114,238.750443 402.665466,241.995758 403.098663,249.185043 
	C403.797180,260.777435 403.983490,272.471130 403.277802,284.054535 
	C402.752075,292.684021 398.779633,295.048462 388.360840,295.141602 
z"/>
<path fill="transparent" opacity="1.000000" stroke="none" 
	d="
M376.722198,232.101181 
	C385.648438,226.985291 394.992676,227.479523 403.999054,231.177536 
	C411.523102,234.266907 413.624390,241.469498 413.816559,248.887741 
	C414.126526,260.852692 414.240051,272.846069 413.720520,284.796326 
	C413.543030,288.879059 411.211670,292.868134 409.289490,296.859741 
	C408.517822,296.696808 408.321106,296.574127 408.124390,296.451447 
	C409.401978,291.737274 411.532684,287.067963 411.783203,282.299835 
	C412.339539,271.709869 412.052338,261.069244 411.927063,250.451431 
	C411.767548,236.932266 405.974670,230.924149 392.587982,230.739548 
	C388.021362,230.676575 383.440369,231.652756 378.115143,232.165985 
	C377.150299,232.152283 376.936249,232.126740 376.722198,232.101181 
z"/>
<path fill="transparent" opacity="1.000000" stroke="none" 
	d="
M369.622803,249.124786 
	C369.646790,260.738556 369.670746,272.352325 369.431763,284.416565 
	C368.825531,284.892578 368.482239,284.918182 368.138916,284.943787 
	C368.100800,273.287231 368.062683,261.630707 368.322266,249.490601 
	C368.954254,249.046295 369.288513,249.085541 369.622803,249.124786 
z"/>
<path fill="transparent" opacity="1.000000" stroke="none" 
	d="
M401.988770,302.996216 
	C394.446503,306.019104 386.721710,306.073761 379.393372,302.932037 
	C376.189484,301.558472 373.819824,298.239014 371.306854,295.440613 
	C371.542358,295.078033 371.999847,294.880737 371.999847,294.880737 
	C378.535797,303.625000 387.736328,303.587952 397.238525,302.520355 
	C398.545593,302.373505 399.838409,302.099670 401.590210,302.195282 
	C402.042572,302.505951 401.988770,302.996216 401.988770,302.996216 
z"/>
<path fill="transparent" opacity="1.000000" stroke="none" 
	d="
M369.779846,248.725067 
	C369.288513,249.085541 368.954254,249.046295 368.366272,249.026703 
	C368.855255,246.155777 369.597900,243.265213 370.667358,240.196503 
	C370.994202,240.018356 370.945709,239.992447 370.945679,239.992447 
	C370.609436,242.770081 370.273163,245.547699 369.779846,248.725067 
z"/>
<path fill="aliceblue" opacity="1.000000" stroke="none" 
	d="
M402.322052,302.949280 
	C401.988770,302.996216 402.042572,302.505951 402.018860,302.260468 
	C403.074646,301.037689 404.154144,300.060394 405.838562,299.153320 
	C406.629089,299.252930 406.814758,299.282349 407.000427,299.311829 
	C405.552063,300.508636 404.103699,301.705475 402.322052,302.949280 
z"/>
<path fill="transparent" opacity="1.000000" stroke="none" 
	d="
M368.057465,285.349243 
	C368.482239,284.918182 368.825531,284.892578 369.428253,284.877930 
	C369.941650,286.594940 370.195618,288.301056 370.505951,290.276794 
	C370.384338,290.606415 370.206390,290.666412 370.028473,290.726379 
	C369.344299,289.069153 368.660126,287.411926 368.057465,285.349243 
z"/>
<path fill="aliceblue" opacity="1.000000" stroke="none" 
	d="
M371.997803,294.578247 
	C371.999847,294.880737 371.542358,295.078033 371.293701,295.092957 
	C370.694122,293.809113 370.343231,292.510406 370.010406,290.969055 
	C370.206390,290.666412 370.384338,290.606415 370.781860,290.727478 
	C371.332886,292.030945 371.664307,293.153320 371.997803,294.578247 
z"/>
<path fill="transparent" opacity="1.000000" stroke="none" 
	d="
M371.007996,240.042130 
	C371.291321,239.002457 371.560791,237.939011 371.830261,236.875565 
	C371.991852,236.913803 372.153442,236.952057 372.315033,236.990295 
	C372.016418,237.878906 371.717804,238.767517 371.182434,239.824280 
	C370.945709,239.992447 370.994202,240.018356 371.007996,240.042130 
z"/>
<path fill="transparent" opacity="1.000000" stroke="none" 
	d="
M407.292786,299.178467 
	C406.814758,299.282349 406.629089,299.252930 406.180237,299.122559 
	C406.508209,298.294464 407.099426,297.567291 407.907532,296.645782 
	C408.321106,296.574127 408.517822,296.696808 408.987854,297.034424 
	C408.702545,297.847931 408.143860,298.446533 407.292786,299.178467 
z"/>
<path fill="aliceblue" opacity="1.000000" stroke="none" 
	d="
M376.548218,232.282455 
	C376.936249,232.126740 377.150299,232.152283 377.683228,232.231369 
	C377.704285,232.738541 377.406464,233.192184 377.108643,233.645813 
	C376.863831,233.251785 376.619049,232.857758 376.548218,232.282455 
z"/>
<path fill="transparent" opacity="1.000000" stroke="none" 
	d="
M314.096069,269.768311 
	C309.901520,269.927643 306.105164,269.927643 302.041504,269.927643 
	C302.041504,260.113373 302.041504,250.389465 302.041504,240.740692 
	C302.501129,240.510529 302.782745,240.250977 303.072723,240.241272 
	C317.856232,239.746246 319.552185,241.304382 319.420471,255.985580 
	C319.375336,261.017426 320.346863,266.598663 314.096069,269.768311 
z"/>
<path fill="transparent" opacity="1.000000" stroke="none" 
	d="
M314.005920,279.733276 
	C313.635162,280.106750 313.267944,280.801575 312.893158,280.805756 
	C306.768097,280.873383 300.642059,280.853699 293.861237,280.853699 
	C293.861237,288.631409 293.861237,296.299377 293.861237,303.967346 
	C293.316559,303.960571 292.771851,303.953766 292.227173,303.946991 
	C292.227173,279.432983 292.227173,254.918961 292.740051,230.677643 
	C293.523743,231.331802 293.794556,231.713272 294.065369,232.094742 
	C294.046997,247.091766 294.028625,262.088806 294.126617,277.969208 
	C294.803162,279.280670 295.365967,280.083160 295.923157,280.079254 
	C301.951263,280.036865 307.978455,279.867767 314.005920,279.733276 
z"/>
<path fill="transparent" opacity="1.000000" stroke="none" 
	d="
M294.522034,232.003326 
	C293.794556,231.713272 293.523743,231.331802 293.166199,230.729340 
	C302.062469,230.709045 311.169128,230.081726 319.985565,231.398102 
	C325.981598,232.293381 329.101959,238.362442 329.014923,244.691696 
	C328.908142,252.458572 328.641052,260.223267 328.239319,268.109161 
	C327.687439,268.154114 327.339447,268.078796 326.991486,268.003510 
	C327.012573,260.549774 327.228027,253.090179 327.004333,245.643799 
	C326.739502,236.828079 322.201996,232.298874 313.368225,231.949127 
	C307.247467,231.706787 301.109161,231.908585 294.522034,232.003326 
z"/>
<path fill="transparent" opacity="1.000000" stroke="none" 
	d="
M317.180664,285.835358 
	C320.371582,291.658875 323.562500,297.482391 326.753387,303.305908 
	C326.148773,303.624207 325.544128,303.942474 324.939484,304.260742 
	C322.157471,298.560913 319.375458,292.861053 316.675049,286.670105 
	C316.897980,286.064453 317.039337,285.949890 317.180664,285.835358 
z"/>
<path fill="aliceblue" opacity="1.000000" stroke="none" 
	d="
M313.891815,279.356079 
	C307.978455,279.867767 301.951263,280.036865 295.923157,280.079254 
	C295.365967,280.083160 294.803162,279.280670 294.252045,278.422302 
	C300.766632,278.320953 307.272186,278.649933 313.891815,279.356079 
z"/>
<path fill="aliceblue" opacity="1.000000" stroke="none" 
	d="
M326.718658,268.242493 
	C327.339447,268.078796 327.687439,268.154114 328.500732,268.496582 
	C328.308777,273.692352 325.567200,276.773010 320.325958,278.546204 
	C322.597595,274.810272 324.521729,271.645874 326.718658,268.242493 
z"/>
<path fill="aliceblue" opacity="1.000000" stroke="none" 
	d="
M318.694580,277.909607 
	C318.727753,278.469238 318.597778,278.866486 318.467834,279.263763 
	C318.358887,279.155548 318.141388,279.023163 318.159210,278.943207 
	C318.249756,278.537079 318.401306,278.144531 318.694580,277.909607 
z"/>
<path fill="transparent" opacity="1.000000" stroke="none" 
	d="
M316.534454,286.337463 
	C315.872375,285.740387 315.432495,284.984833 314.992584,284.229309 
	C315.187317,284.065033 315.382019,283.900787 315.576752,283.736542 
	C316.096771,284.202087 316.616791,284.667664 317.158752,285.484283 
	C317.039337,285.949890 316.897980,286.064453 316.534454,286.337463 
z"/>
<path fill="transparent" opacity="1.000000" stroke="none" 
	d="
M454.862793,231.647583 
	C454.915863,251.950607 454.915863,271.806427 454.915863,291.662231 
	C454.658356,291.701477 454.400848,291.740692 454.143341,291.779907 
	C453.750275,289.789398 453.025848,287.800476 453.016113,285.808075 
	C452.931641,268.520447 452.942291,251.231873 453.107941,233.945358 
	C453.114288,233.281815 450.973602,229.964645 454.862793,231.647583 
z"/>
<path fill="transparent" opacity="1.000000" stroke="none" 
	d="
M498.923828,231.048508 
	C498.945496,249.040863 498.967194,267.033234 498.678955,285.613403 
	C497.976318,286.099274 497.583679,285.997314 497.191010,285.895325 
	C497.268494,267.771576 497.346008,249.647827 497.887238,231.205658 
	C498.541901,230.941010 498.732880,230.994766 498.923828,231.048508 
z"/>
<path fill="transparent" opacity="1.000000" stroke="none" 
	d="
M460.050842,299.994446 
	C458.481934,298.328827 457.189301,296.903473 455.896667,295.478119 
	C456.062683,295.029877 456.228699,294.581665 456.394714,294.133423 
	C465.669861,304.907166 476.990906,304.490540 489.848633,300.291290 
	C482.362885,306.891663 469.343658,306.460236 460.050842,299.994446 
z"/>
<path fill="transparent" opacity="1.000000" stroke="none" 
	d="
M497.048401,286.262756 
	C497.583679,285.997314 497.976318,286.099274 498.648346,286.078430 
	C497.135986,290.170349 495.344238,294.385101 493.344879,298.847107 
	C493.137238,299.094360 493.178711,299.108307 493.178711,299.108307 
	C494.421051,294.948914 495.663422,290.789551 497.048401,286.262756 
z"/>
<path fill="transparent" opacity="1.000000" stroke="none" 
	d="
M489.980896,299.726624 
	C489.754700,299.713898 489.645905,299.611359 489.537079,299.508820 
	C489.724152,299.551483 489.911194,299.594147 489.980896,299.726624 
z"/>
<path fill="transparent" opacity="1.000000" stroke="none" 
	d="
M493.119324,299.103455 
	C493.101410,299.112549 492.915131,299.053833 492.915131,299.053833 
	C492.915131,299.053833 493.096008,299.210419 493.137360,299.159363 
	C493.178711,299.108307 493.137238,299.094360 493.119324,299.103455 
z"/>
<path fill="transparent" opacity="1.000000" stroke="none" 
	d="
M498.960632,230.751221 
	C498.732880,230.994766 498.541901,230.941010 498.061737,230.816498 
	C498.180817,230.648499 498.589142,230.551224 498.960632,230.751221 
z"/>
<path fill="transparent" opacity="1.000000" stroke="none" 
	d="
M821.136230,270.999939 
	C821.136353,257.205139 821.136353,243.910324 821.136353,230.172012 
	C832.309692,230.172012 843.147644,230.172012 853.985596,230.172012 
	C854.011292,230.514755 854.036987,230.857513 854.062683,231.200256 
	C843.899353,231.200256 833.735962,231.200256 823.377563,231.200256 
	C823.377563,242.933182 823.377563,253.687836 823.377563,265.388489 
	C831.806091,265.388489 840.190063,265.388489 848.574036,265.388489 
	C848.556091,265.902557 848.538147,266.416595 848.520142,266.930664 
	C840.197754,266.930664 831.875427,266.930664 823.365845,266.930664 
	C823.365845,278.936157 823.365845,290.344421 823.365845,302.475586 
	C833.670288,302.475586 843.808716,302.475586 853.947083,302.475586 
	C853.942871,302.895782 853.938660,303.316010 853.934448,303.736206 
	C843.247437,303.736206 832.560364,303.736206 821.136047,303.736206 
	C821.136047,293.025726 821.136047,282.262848 821.136230,270.999939 
z"/>
<path fill="transparent" opacity="1.000000" stroke="none" 
	d="
M622.962280,265.090820 
	C626.865417,265.090820 630.276245,265.090820 633.687134,265.090820 
	C633.699158,265.604401 633.711121,266.118011 633.723145,266.631592 
	C625.370117,266.631592 617.017029,266.631592 608.535278,266.631592 
	C608.535278,278.861755 608.535278,290.300232 608.535278,302.438904 
	C618.891052,302.438904 629.086243,302.438904 639.281433,302.438904 
	C639.278564,302.855865 639.275696,303.272827 639.272766,303.689789 
	C628.582031,303.689789 617.891296,303.689789 606.863281,303.689789 
	C606.863281,279.274231 606.863281,254.712524 606.863281,230.026703 
	C617.865295,230.026703 628.613647,230.026703 639.362000,230.026703 
	C639.385315,230.436630 639.408691,230.846573 639.432007,231.256500 
	C629.203735,231.256500 618.975464,231.256500 608.564087,231.256500 
	C608.564087,243.000671 608.564087,253.784348 608.564087,265.090820 
	C613.205078,265.090820 617.837585,265.090820 622.962280,265.090820 
z"/>
<path fill="transparent" opacity="1.000000" stroke="none" 
	d="
M760.909302,231.651154 
	C754.743530,231.649246 749.071045,231.649246 743.398499,231.649246 
	C743.414307,231.160889 743.430054,230.672531 743.445862,230.184174 
	C757.473755,230.184174 771.501648,230.184174 785.529541,230.184174 
	C785.561157,230.531281 785.592834,230.878403 785.624451,231.225510 
	C779.206055,231.225510 772.787598,231.225510 765.685547,231.225510 
	C765.685547,256.000793 765.685547,279.938446 765.685547,303.876099 
	C765.194092,303.909637 764.702698,303.943176 764.211243,303.976746 
	C764.116333,302.353912 763.940247,300.731171 763.938782,299.108276 
	C763.920227,277.970459 763.943970,256.832611 763.893921,235.694885 
	C763.889832,233.978592 764.952454,231.308777 760.909302,231.651154 
z"/>
<path fill="transparent" opacity="1.000000" stroke="none" 
	d="
M684.000854,231.672791 
	C679.615540,231.672775 675.720886,231.672775 671.826172,231.672775 
	C671.831909,231.198669 671.837585,230.724564 671.843262,230.250458 
	C685.857239,230.250458 699.871216,230.250458 713.885193,230.250458 
	C713.909546,230.559174 713.933899,230.867889 713.958191,231.176605 
	C707.553711,231.176605 701.149170,231.176605 694.093384,231.176605 
	C694.093384,255.924530 694.093384,279.906494 694.093384,303.888458 
	C693.596985,303.894012 693.100647,303.899597 692.604248,303.905151 
	C692.604248,280.022949 692.604248,256.140717 692.604248,231.672821 
	C689.364197,231.672821 686.927917,231.672821 684.000854,231.672791 
z"/>
<path fill="transparent" opacity="1.000000" stroke="none" 
	d="
M539.540771,302.122894 
	C539.417419,291.480072 539.240967,280.837555 539.184937,270.194397 
	C539.122620,258.367615 539.157959,246.540268 539.184998,234.713257 
	C539.188477,233.196579 539.396606,231.680359 539.509949,230.163910 
	C540.030762,230.183502 540.551514,230.203079 541.072327,230.222656 
	C541.072327,253.835785 541.072327,277.448914 540.789795,301.516174 
	C540.185120,302.021210 539.862915,302.072052 539.540771,302.122894 
z"/>
<path fill="transparent" opacity="1.000000" stroke="none" 
	d="
M539.491943,302.524902 
	C539.862915,302.072052 540.185120,302.021210 540.757202,301.983704 
	C549.616394,302.174469 558.225647,302.357635 566.835266,302.524536 
	C568.555664,302.557892 570.277222,302.529358 571.998291,302.529358 
	C572.001709,303.069214 572.005188,303.609039 572.008606,304.148895 
	C563.601257,304.148895 555.192261,304.238983 546.787476,304.092804 
	C544.333313,304.050110 541.890930,303.334259 539.491943,302.524902 
z"/>
<path fill="aliceblue" opacity="1.000000" stroke="none" 
	d="
M346.286865,41.713768 
	C350.787811,46.273129 352.250671,51.673496 352.289703,57.459965 
	C352.360382,67.934944 352.554596,78.429512 352.032532,88.882706 
	C351.427368,100.999901 344.779938,107.572418 332.698334,109.049309 
	C331.215332,109.230591 329.716064,109.365990 328.223877,109.370636 
	C318.926910,109.399590 309.629852,109.385239 299.969910,109.385239 
	C299.969910,84.753365 299.969910,60.393356 299.969910,35.182251 
	C313.063751,35.876293 326.315613,33.540203 339.291321,37.365074 
	C341.726562,38.082920 343.791443,40.057114 346.286865,41.713768 
M313.780426,49.178211 
	C313.170105,49.934669 312.142120,50.635693 312.032898,51.458656 
	C311.772552,53.420010 311.944794,55.438950 311.944733,57.434631 
	C311.944305,70.367935 311.944519,83.301247 311.944519,96.644821 
	C317.573303,96.393211 322.706573,96.325439 327.809418,95.895836 
	C334.614441,95.322945 338.457733,92.383400 339.019470,85.445381 
	C339.737976,76.570786 339.432800,67.575432 338.998016,58.659950 
	C338.748566,53.544834 335.101715,50.631474 330.125977,50.073498 
	C325.021606,49.501102 319.858643,49.451096 313.780426,49.178211 
z"/>
<path fill="aliceblue" opacity="1.000000" stroke="none" 
	d="
M565.230103,83.327110 
	C569.940125,67.510544 574.542297,52.081772 579.472656,35.552761 
	C587.506836,62.188484 595.228943,87.789795 603.047668,113.711197 
	C587.488831,113.711197 572.253296,113.711197 556.379211,113.711197 
	C559.312927,103.645905 562.217590,93.680405 565.230103,83.327110 
M573.773743,94.201523 
	C572.929138,97.356514 572.084595,100.511513 571.209412,103.780746 
	C577.151001,103.780746 582.732727,103.780746 588.798645,103.780746 
	C585.804199,93.319977 582.906555,83.197502 579.644226,71.801132 
	C577.496155,79.946404 575.721802,86.674332 573.773743,94.201523 
z"/>
<path fill="aliceblue" opacity="1.000000" stroke="none" 
	d="
M484.514771,126.100845 
	C481.486084,138.614960 473.433838,145.560455 461.527130,147.106750 
	C454.224640,148.055130 446.484283,147.818130 439.235565,146.495941 
	C427.579803,144.369858 419.383514,134.445221 419.120789,122.334770 
	C418.665619,101.354012 418.542999,80.347672 419.050323,59.370667 
	C419.407654,44.596664 429.940430,34.688068 444.650757,34.014477 
	C450.291992,33.756168 455.994568,33.564438 461.601349,34.079952 
	C474.841888,35.297352 484.324097,44.007805 484.710968,57.294842 
	C485.374298,80.075096 484.740112,102.893127 484.514771,126.100845 
M432.872986,122.323143 
	C434.924988,125.651039 436.254547,129.919998 439.153137,132.145111 
	C452.217041,142.173859 471.009949,134.070511 471.904907,117.702988 
	C472.813080,101.094162 472.749268,84.384285 472.140839,67.754158 
	C471.553650,51.704281 462.337006,45.160633 446.342682,47.923172 
	C439.363312,49.128654 434.842834,53.033844 433.065643,59.761574 
	C432.185486,63.093430 431.841797,66.646645 431.800903,70.106155 
	C431.657196,82.268776 431.667084,94.435059 431.793457,106.598129 
	C431.845154,111.571869 432.343231,116.540955 432.872986,122.323143 
z"/>
<path fill="transparent" opacity="1.000000" stroke="none" 
	d="
M314.250885,49.175339 
	C319.858643,49.451096 325.021606,49.501102 330.125977,50.073498 
	C335.101715,50.631474 338.748566,53.544834 338.998016,58.659950 
	C339.432800,67.575432 339.737976,76.570786 339.019470,85.445381 
	C338.457733,92.383400 334.614441,95.322945 327.809418,95.895836 
	C322.706573,96.325439 317.573303,96.393211 311.944519,96.644821 
	C311.944519,83.301247 311.944305,70.367935 311.944733,57.434631 
	C311.944794,55.438950 311.772552,53.420010 312.032898,51.458656 
	C312.142120,50.635693 313.170105,49.934669 314.250885,49.175339 
z"/>
<path fill="transparent" opacity="1.000000" stroke="none" 
	d="
M573.860596,93.801895 
	C575.721802,86.674332 577.496155,79.946404 579.644226,71.801132 
	C582.906555,83.197502 585.804199,93.319977 588.798645,103.780746 
	C582.732727,103.780746 577.151001,103.780746 571.209412,103.780746 
	C572.084595,100.511513 572.929138,97.356514 573.860596,93.801895 
z"/>
<path fill="transparent" opacity="1.000000" stroke="none" 
	d="
M432.755615,121.917648 
	C432.343231,116.540955 431.845154,111.571869 431.793457,106.598129 
	C431.667084,94.435059 431.657196,82.268776 431.800903,70.106155 
	C431.841797,66.646645 432.185486,63.093430 433.065643,59.761574 
	C434.842834,53.033844 439.363312,49.128654 446.342682,47.923172 
	C462.337006,45.160633 471.553650,51.704281 472.140839,67.754158 
	C472.749268,84.384285 472.813080,101.094162 471.904907,117.702988 
	C471.009949,134.070511 452.217041,142.173859 439.153137,132.145111 
	C436.254547,129.919998 434.924988,125.651039 432.755615,121.917648 
z"/>
</svg>