<?xml version="1.0" encoding="utf-8"?>
<!-- Generator: Adobe Illustrator 27.7.0, SVG Export Plug-In . SVG Version: 6.00 Build 0)  -->
<svg version="1.1" id="Layer_1" xmlns="http://www.w3.org/2000/svg" xmlns:xlink="http://www.w3.org/1999/xlink" x="0px" y="0px"
	 viewBox="0 0 767 325" style="enable-background:new 0 0 767 325;" xml:space="preserve">
<style type="text/css">
	.st0{display:none;}
	.st1{display:none;fill:#F0F8FF;}
</style>
<rect y="0" class="st0" width="767" height="325"/>
<g>
	<path d="M70.6,226c0-13.3,0-26.1,0-39.8c12.8,0,25.3-0.2,37.7,0.2c1.6,0,3.5,2.7,4.5,4.5c11.8,21.8,23.4,43.6,35.1,65.4
		c5.4,7.8,16.7,37.3,23.9,38.9c15.1-0.2,30.6,1.3,45.5-0.5c-14.2-27.8-29.3-55-43.8-82.6c-2.9-5.5-2.8-5.5,2.9-7.7
		c8.3-3.2,8.3-3.2,12.5,4.5c17.8,34.1,36.9,67.3,53.9,101.8c-26.1,1.1-51.9,0.1-78,0.5c-3.5,0-5.8-0.8-7.5-4.1
		c-17.8-33.7-35.7-67.2-53.5-100.9c-3.3-7.2-11-3.5-17.4-4.4c0.1,35.1-0.1,69.1,0.1,104.1c0,4.1-1.2,5.5-5.4,5.4
		c-21.2-0.2-42.3-0.2-63.5,0c-4.4,0-5.6-1.3-5.6-5.7c0.1-95.5,0.1-191,0-286.5c0-4.8,1.4-6.4,6.2-6.2c10.8,0.3,9.5-0.6,9.5,9.3
		c0.2,91-0.3,181.9,0.1,272.9c14,0,28.1,0,42.8,0C70.6,272,70.6,249.3,70.6,226z"/>
	<path d="M167.4,178.4C214.3,162,228,93.9,195.7,56.1C162,19.6,106.8,30.7,62.2,28.3c-5.2-0.1-6.1,1.6-6,6.2
		c0.2,82.3-0.1,164.6,0.1,246.9c0.5,6.5-10.7,2.2-15.2,3.4c0-88.8,0-177.5-0.1-266.3c0-4.4,1.2-5.7,5.6-5.6
		c43.7,1.7,89.5-6.1,130.8,11.6c46.4,18.3,61,75.3,45.2,119.3c-10.7,33.2-39.8,48.1-72.1,55.6c15.2,28.4,30.3,56.5,46,85.8
		c-6.3-0.9-16,2.5-18.9-2.8c-16.7-31.3-34.4-62.7-50.5-93.9C140.5,185.2,153.8,181.9,167.4,178.4z"/>
	<path d="M132.8,141.9c-20,0.9-39.6,1.6-59.2,2.4c-3,0.1-3.5-1.5-3.5-4.1c0.1-11.5,0.2-23,0-34.5c-0.1-4.8,3.2-4,5.3-3.3
		c3.4,1.2,9.5-4.2,10.2,3.3c1.7,4.6-3.1,24.5,3.5,23.2c17.5-3.1,54.8,3.7,62.4-15.4c4-9.3,0-19.5-9.7-22.2
		c-23.3-6-47.7-3.1-71.5-3.6c0-15.1,0-29.5,0-44.3c43.7,0.8,106.4-11.5,124.5,41c14.1,34.7-3.6,78.4-43,84.4
		c-23,5.3-46.7,4.3-70.1,4.3c-3.6,0-9.9,0.3-10.2-0.9c-1.2-4.4-0.5-9.3-0.5-14.5c27.8-1.1,55.9,3.6,82.6-5.4
		c27.4-8.3,35.6-37.9,26.7-62.9C167.1,51,121.7,60.4,89.8,58.1c-3.1-0.1-4.1,1.1-4.1,4.1c0.2,12.1-1.2,10.3,9.8,10.5
		c11.7,0.1,23.4-0.5,35,0.7c19.5,1.4,40.3,12.6,37.9,35.1C168.2,129.1,150.5,137.7,132.8,141.9z"/>
</g>
<path class="st0" d="M707.3,35.2c-9.9-2.2-19-0.7-27.3,4.2c-12.6,7.4-14.2,25.8-2.5,34.8c5.3,4.1,11.8,6.7,17.8,9.9
	c8.5,4.6,17.4,8.4,25.3,13.8c10.3,6.9,14.4,17.2,11.7,29.6c-2.7,12.4-10.3,20.6-22.8,22.9c-13.7,2.4-26-1.4-35.7-11.9
	c-1.3-1.4-2.1-3.4-3.1-5.1c0.4-0.3,0.9-0.6,1.3-0.9c0.9,1.1,1.9,2.2,2.8,3.3c8.2,10.2,24,15.1,36.5,11.5
	c10.9-3.2,16.2-11.1,18.3-21.5c1.9-9.7-1-18.2-9.1-23.8c-8.1-5.6-17.1-10-25.8-14.9c-5.4-3-11.2-5.3-16.2-8.7
	c-16.5-11.2-15.6-33,1.9-42.5c13.3-7.2,32.5-6.7,43.8,7.9c0.7,0.9,1.3,2,2.4,3.9C719.7,43.1,713.7,39.2,707.3,35.2z"/>
<path class="st0" d="M583,116.9c-9.3,0-18.1,0-27.4,0c-3.3,11.1-6.6,22.1-9.9,33.1c-0.6-0.2-1.3-0.4-1.9-0.5c0.3-1.7,0.6-3.3,1-5
	c10.4-35.9,20.8-71.7,31.3-107.5c0.5-1.7,2-3.1,3-4.6c1.1,1.5,2.8,2.8,3.3,4.4c11.1,36.5,22.1,73.1,33,109.6
	c0.3,0.9,0.3,1.8-0.6,3.2c-0.6-1.3-1.5-2.5-1.9-3.8c-2.4-7.8-5-15.5-7.1-23.3c-1.1-4.1-2.7-6.1-7.4-5.6
	C593.5,117.3,588.5,116.9,583,116.9 M565.1,83.7c-2.9,10-5.8,19.9-8.7,30c15.9,0,31.1,0,46.7,0c-7.8-25.9-15.5-51.5-23.6-78.2
	C574.5,52.1,569.9,67.5,565.1,83.7z"/>
<path class="st1" d="M253,232.3c2.3-14,9.9-20.7,21.6-22.5c9-1.4,17.9-1.4,26.5,2.6c7.4,3.5,12.3,9.9,12.7,18.6
	c0.8,18.9,1.3,38,0.5,56.9c-0.7,15-7.1,22.3-20.6,24.4c-7.9,1.2-16.3,0.6-24.1-1.3c-10.6-2.5-16.2-10.8-16.5-23
	C252.6,269.6,253,251.2,253,232.3 M262.9,288.4c0.4,1.5,0.7,2.9,1.1,5.2c2.7,2.8,5.1,6.5,8.3,8.1c7.3,3.5,15.1,3.5,23.3,0
	c1.4-1.4,2.9-2.7,4.9-4.4c0.6-0.7,1.1-1.4,2.3-2.4c1.3-4.6,3.7-9.1,3.9-13.7c0.5-13.5,0.4-27,0.1-40.6c-0.2-8.4-2.3-16.5-9.8-20
	c-9-4.2-18.4-4.7-27.6,1.5c0.2,0.4,0.5,0.9,0.7,1.3c0.3-0.5,0.6-1,1.8-1.7c4.6-0.6,9.2-1.7,13.7-1.6c13.4,0.2,19.2,7,19.3,22.3
	c0.1,12,0.4,24-0.1,36c-0.3,5.4-2.4,10.7-4.1,16.4c-0.6,0.8-1.2,1.6-2.5,2.5c-1.1,1.1-2.2,2.2-4.1,3.2c-1.3,0.2-2.6,0.6-3.9,0.7
	c-9.5,1.2-18.7,1.2-25.2-9.3c-0.3-1.3-0.7-2.5-1.5-4.8c-0.3-1.9-0.5-3.9-0.8-6.8c0-13.1,0-26.2,0.2-40.3c0.3-3.1,0.7-6.3,1.5-9.8
	c0.3-1,0.6-2,0.9-3c-0.2,0-0.3-0.1-0.5-0.1c-0.3,1.2-0.5,2.4-1.5,4c-0.7,3.3-1.5,6.5-2.3,10.8c0,13.2,0.1,26.3,0,40.4
	C261.6,284.1,262.3,286,262.9,288.4 M281.7,292.8c10-0.1,14-2.8,14.5-12.5c0.7-13.1,0.5-26.3-0.2-39.4c-0.4-8.1-5.7-11.8-13.5-11.3
	c-6.9,0.5-11.3,4.9-11.5,12.7c-0.3,12.6-0.3,25.2,0,37.8C271.2,287.5,274.5,291.3,281.7,292.8z"/>
<path class="st0" d="M809.8,35.2c-9.7,0-19,0-28.3,0c-0.1-0.5-0.2-1-0.4-1.5c0.9-0.4,1.9-1.3,2.8-1.3c20.5-0.1,41-0.1,61.5,0
	c1,0,2.1,0.7,3.1,1c-0.1,0.5-0.2,0.9-0.3,1.4c-10.2,0-20.3,0-31.5,0c0,38.6,0,76.6,0,114.7c-0.6,0.1-1.3,0.1-1.9,0.2
	c-0.3-1.7-0.7-3.4-0.7-5.1c0-35,0-70,0-104.9C814,36.9,814.1,34.4,809.8,35.2z"/>
<path class="st0" d="M416.5,119.6c0.1-20.9-0.4-41.4,0.5-61.9c0.7-15,9.5-23.8,24.3-26c7.3-1,15-1,22.3,0
	c14.8,2.1,23.8,11.7,24.2,26.6c0.7,21.3,0.6,42.6,0.1,63.9c-0.3,13.2-8.9,23.6-21.8,26.5c-7,1.6-14.6,2.4-21.7,1.6
	C426.2,148.5,418.4,139.4,416.5,119.6 M484.7,125.7c0.1-22.8,0.7-45.6,0.1-68.4c-0.4-13.3-9.9-22-23.1-23.2
	c-5.6-0.5-11.3-0.3-17-0.1c-14.7,0.7-25.2,10.6-25.6,25.4c-0.5,21-0.4,42,0.1,63c0.3,12.1,8.5,22,20.1,24.2c7.2,1.3,15,1.6,22.3,0.6
	C473.4,145.6,481.5,138.6,484.7,125.7z"/>
<path d="M578.9,45.4c-5.1,0.4-9.9,0.3-14.3,1.8c-7.1,2.5-8.6,10.7-2.9,15.6c4.4,3.8,9.6,6.7,14.9,9c12.9,5.7,25.5,11.8,36.3,21.2
	c15.4,13.5,17.9,30.5,12.5,49.4c-5.2,18.3-16.9,29.8-35.5,32.9c-18.2,3-35.3-0.1-49.6-12.8c-4.8-4.2-7.8-10.6-11.3-16.1
	c-0.7-1.1-0.4-4,0.5-4.8c7.1-6.6,14.5-12.9,22.3-19.7c1.8,3.3,3.2,6.1,4.8,8.7c5.5,8.8,12.9,14.2,23.5,13.2
	c6.2-0.6,11-3.7,13.1-10.2c2.1-6.3,0.4-11.8-4.4-15.6c-4.7-3.7-10.2-6.3-15.4-9.2c-10.4-5.9-21.7-10.6-31.2-17.9
	c-24-18.3-22-53.5,3.9-69c17.4-10.4,36-12.7,54.7-2.9c10.3,5.4,16.4,15,21.4,25.4c0.5,1-0.2,3.4-1,4.1c-6.7,5.1-13.6,9.9-20.8,15
	C594,56.3,589.3,47.5,578.9,45.4 M584.9,31.8c6.6,4.4,13.1,8.8,20.8,13.9c-1.3-2.1-1.8-3.4-2.6-4.4c-12.4-16.4-33.4-16.9-47.9-8.8
	C536,42.9,535,67.5,553,80.1c5.5,3.8,11.8,6.4,17.7,9.8c9.5,5.4,19.3,10.4,28.2,16.7c8.8,6.2,12,15.9,9.9,26.7
	c-2.3,11.7-8.1,20.6-20,24.2c-13.7,4.1-31-1.4-39.9-12.9c-1-1.3-2.1-2.5-3.1-3.8c-0.5,0.3-1,0.7-1.5,1c1.1,1.9,1.9,4.2,3.4,5.8
	c10.6,11.8,24,16.1,39,13.3c13.7-2.5,22-11.7,24.9-25.7c3-14-1.5-25.5-12.8-33.3c-8.7-6-18.4-10.3-27.6-15.5
	c-6.5-3.6-13.6-6.5-19.4-11.1c-12.7-10-11.1-30.7,2.7-39.1C563.7,30.9,573.6,29.2,584.9,31.8z"/>
<path d="M399.2,131.1c9.7-37.2,19.3-74,28.8-110.8c0.9-3.6,2.3-5.2,6.3-5c7.4,0.4,14.9,0.3,22.4,0c3.4-0.1,4.6,1.1,5.5,4.5
	c12.9,49.6,25.8,99.1,38.9,148.6c1.2,4.4,0.1,5.7-4.2,5.5c-6.9-0.3-13.8-0.3-20.7,0c-3.4,0.2-4.8-1.2-5.6-4.4
	c-2.2-8.8-4.8-17.6-7-26.5c-0.8-3.2-2-4.6-5.5-4.5c-8.7,0.3-17.5,0.2-26.2,0c-3-0.1-4.1,1.1-4.8,3.8c-2.3,9-4.7,18-6.9,27.1
	c-0.8,3.1-2.1,4.6-5.6,4.5c-7.1-0.3-14.2-0.2-21.3,0c-3.8,0.1-5.3-0.8-4-5.2C392.8,156.4,395.9,143.9,399.2,131.1 M449.2,123.4
	c5.5,0,11,0.5,16.4-0.1c5.1-0.6,6.9,1.7,8.1,6.3c2.3,8.8,5.1,17.5,7.7,26.2c0.5,1.5,1.4,2.9,2.1,4.3c1-1.6,0.9-2.6,0.7-3.6
	c-12-41.1-24-82.1-36.1-123.2c-0.5-1.8-2.3-3.3-3.6-4.9c-1.1,1.7-2.8,3.3-3.3,5.2c-11.5,40.3-22.9,80.6-34.2,120.8
	c-0.5,1.8-0.8,3.7-1.1,5.6c0.7,0.2,1.4,0.4,2.1,0.6c3.6-12.4,7.2-24.8,10.9-37.2C428.8,123.4,438.4,123.4,449.2,123.4z"/>
<path d="M718.2,114.5c0,18.3-0.1,36.1,0.1,53.9c0,4-1,5.8-5.2,5.6c-6.9-0.3-13.8-0.4-20.7,0c-4.5,0.2-5.5-1.5-5.5-5.8
	c0.1-38.7,0.1-77.5,0.1-116.2c0-2,0-4,0-6.5c-9.7,0-18.9,0-28.1,0c-7,0-7,0-7-7.5c0-6,0.1-12-0.1-18c-0.1-3.3,0.9-4.6,4.3-4.6
	c31.1,0.1,62.2,0.1,93.3,0c3,0,4.2,1.1,4.1,4.2c-0.2,6.9-0.2,13.9,0,20.8c0.2,4.1-1.6,5.1-5.2,5.1c-9.8-0.1-19.6,0-30.1,0
	C718.2,68.5,718.2,91.2,718.2,114.5 M696.9,31.6c4.2-0.9,4.1,1.9,4.1,4.9c0,39.3,0,78.6,0,117.9c0,1.9,0.5,3.8,0.8,5.8
	c0.7-0.1,1.4-0.1,2.1-0.2c0-42.7,0-85.5,0-128.9c12.2,0,23.3,0,34.5,0c0.1-0.5,0.2-1,0.3-1.5c-1.1-0.4-2.2-1.1-3.4-1.1
	c-22.4-0.1-44.8-0.1-67.1,0c-1,0-2.1,0.9-3.1,1.4c0.1,0.5,0.3,1.1,0.4,1.6C675.6,31.6,685.7,31.6,696.9,31.6z"/>
<path d="M315.7,175.7c-11-0.6-21.7,0.1-31.8-2.2c-20.9-4.8-31.1-18.3-31.6-41.6c-0.6-24.9-0.7-49.8,0-74.7
	c0.8-26.5,16.4-42.1,42.6-43.5c9.2-0.5,18.6-0.4,27.7,1.1c22.7,3.7,34.2,14.9,35.5,38.3c1.5,27.4,1.2,55,0.3,82.5
	c-0.8,23.9-13.8,35.6-38.9,39.7C318.4,175.4,317.3,175.5,315.7,175.7 M266.7,127c2.1,21.7,10.7,31.9,30.5,34.1
	c7.8,0.9,16.1,0,23.7-1.8c14-3.3,23.4-15,23.8-29.8c0.6-23.9,0.6-47.9-0.1-71.8c-0.5-16.7-10.4-27.5-26.5-29.9
	c-8-1.2-16.4-1.2-24.4,0C277.6,30.2,268,40.2,267.3,57C266.2,79.9,266.8,103,266.7,127z"/>
<path d="M429.2,85.7c5.1-17.8,10.2-35.1,15.6-53.7c8.8,29.9,17.2,58.7,25.8,87.8c-17,0-33.6,0-51,0
	C422.7,108.5,425.9,97.3,429.2,85.7 M438.5,97.9c-0.9,3.5-1.8,7.1-2.8,10.8c6.5,0,12.6,0,19.2,0c-3.3-11.8-6.4-23.1-10-35.9
	C442.6,81.9,440.7,89.5,438.5,97.9z"/>
<path d="M341,133.8c-3.3,14.1-12.1,21.9-25.1,23.6c-8,1.1-16.4,0.8-24.4-0.7c-12.7-2.4-21.7-13.5-22-27.1
	c-0.5-23.6-0.6-47.2-0.1-70.7c0.4-16.6,11.9-27.7,28-28.5c6.2-0.3,12.4-0.5,18.5,0.1c14.5,1.4,24.8,11.2,25.2,26.1
	C342,82,341.3,107.7,341,133.8 M284.6,129.5c2.2,3.7,3.7,8.5,6.9,11c14.3,11.3,34.8,2.2,35.8-16.2c1-18.7,0.9-37.4,0.3-56.1
	c-0.6-18-10.7-25.4-28.2-22.3c-7.6,1.4-12.6,5.7-14.5,13.3c-1,3.7-1.3,7.7-1.4,11.6c-0.2,13.7-0.1,27.3,0,41
	C283.5,117.4,284,123,284.6,129.5z"/>
<g>
	<g>
		<path d="M358.7,288.3c5,5.4,10.5,5.5,16.1,3.1c5.9-2.5,7-8.7,7-14.9c0.1-19.8,0.1-39.5,0.1-59.3c0-2,0-4.1,0-6.8
			c5.4,0,10.3-0.2,15.3,0.1c0.9,0.1,2.6,1.9,2.6,2.9c0,24.8,0.4,49.7-0.7,74.5c-0.6,14.3-7.9,22.5-20.4,24.4
			c-7.6,1.2-15.7,0.8-23.3-0.8c-10.1-2-17.1-11.8-17.3-23.9c-0.5-25.2-0.2-50.4-0.2-75.7c0-0.3,0.3-0.7,0.7-1.6c4.7,0,9.6,0,14.6,0
			c3.6,0,2.6,3.1,2.6,5.3c0.1,19.6-0.1,39.2,0.2,58.7C356,278.9,357.6,283.4,358.7,288.3 M386.5,296.7c1.8-4.8,3.6-9.5,5.4-15.3
			c0-20.3,0-40.7,0-61.6c-0.4,0.1-0.8,0.2-1.6,1.2c-0.1,20.5-0.2,40.9-0.5,62.3c-1.2,4.7-2.5,9.4-3.8,14.2l-0.2-0.2
			C385.9,297.2,386,297.3,386.5,296.7 M347.7,220.6c-3.8-1.4-1.7,2.4-1.7,3.1c-0.2,19.5-0.2,39.1-0.1,58.6c0,2.3,0.7,4.5,1.1,6.7
			c0.3,0,0.5-0.1,0.8-0.1C347.9,266.5,347.9,244,347.7,220.6 M353.3,298.6c9,7,22,7.5,29.5,0.1c-12.9,4.7-24.2,5.2-33.5-7
			c-0.2,0.5-0.3,1-0.5,1.5C350.1,294.8,351.4,296.4,353.3,298.6 M383,297.9c-0.2,0-0.4-0.1-0.6-0.1C382.6,297.9,382.7,298,383,297.9
			z"/>
		<path d="M706.4,223.8c0-4.7,0-8.7,0-13.1c16.3,0,32.1,0,48.2,0c0,6.2,0,12.2,0,18.9c-10,0-19.9,0-30,0c0,7.1,0,13.7,0,20.7
			c7.7,0,15.3,0,23.3,0c0,6.7,0,13,0,19.6c-7.6,0-15.2,0-23.2,0c0,7.6,0,14.9,0,22.6c9.8,0,19.7,0,30,0c0,6.6,0,12.6,0,19
			c-15.9,0-31.7,0-48.2,0C706.4,282.5,706.4,253.4,706.4,223.8 M714.1,266.1c0,12.2,0,24.3,0,36.4c11.4,0,22.1,0,32.8,0
			c0-0.5,0-0.9,0-1.4c-10.1,0-20.3,0-30.6,0c0-13.7,0-26.6,0-40.2c8.5,0,16.8,0,25.2,0c0-0.6,0-1.2,0.1-1.7c-8.4,0-16.8,0-25.2,0
			c0-13.2,0-25.4,0-38.6c10.4,0,20.5,0,30.7,0c0-0.4-0.1-0.8-0.1-1.2c-10.8,0-21.7,0-32.8,0C714.1,235,714.1,250,714.1,266.1z"/>
		<path d="M509.7,287c0,2.1,0,3.5,0,5.6c10,0,20,0,30.1,0c0,6.6,0,12.7,0,19.1c-16,0-31.7,0-47.8,0c0-33.7,0-67.2,0-101
			c16,0,31.8,0,47.8,0c0,6.2,0,12.2,0,18.8c-9.8,0-19.7,0-29.9,0c0,7.3,0,14,0,21.2c7.8,0,15.4,0,23.3,0c0,6.6,0,12.7,0,19.3
			c-7.8,0-15.3,0-23.6,0C509.7,275.7,509.7,281,509.7,287 M515.4,258.9c-4.6,0-9.3,0-13.9,0c0-12.8,0-25,0-38.2
			c10.4,0,20.6,0,30.9,0c0-0.5,0-0.9-0.1-1.4c-10.7,0-21.5,0-32.5,0c0,27.9,0,55.6,0,83.2c11,0,21.7,0,32.4,0c0-0.5,0-0.9,0-1.4
			c-10.2,0-20.4,0-30.7,0c0-13.7,0-26.6,0-40.5c8.5,0,16.8,0,25.2,0c0-0.6,0-1.2,0-1.7C523.2,258.9,519.8,258.9,515.4,258.9z"/>
		<path d="M648.8,307.2c0-25.9,0-51.3,0-77.4c-6.8,0-13.3,0-20.7,0c0-6-0.1-11.4,0.1-16.7c0.1-1,1.8-2.6,2.8-2.6
			c18.5-0.2,36.9-0.1,55.8-0.1c0,6.5,0,12.6,0,19.1c-6.6,0-13,0-19.9,0c0,27.5,0,54.5,0,82.4c-5.7,0-10.9,0.2-16.2-0.2
			C650.1,311.6,649.5,309.1,648.8,307.2 M654.3,221.1c3.5-0.4,2.5,2.6,2.5,4.6c0.1,23.9,0,47.8,0,71.6c0,1.8,0.2,3.7,0.3,5.5
			c0.5,0,1-0.1,1.5-0.1c0-27,0-54.1,0-82.1c7.1,0,13.5,0,19.9,0c0-0.4-0.1-0.8-0.1-1.2c-14,0-28.1,0-42.1,0c0,0.6,0,1.1,0,1.7
			C642,221.1,647.7,221.1,654.3,221.1z"/>
		<path d="M577,236.3c0-2.4,0-4.3,0-6.5c-6.8,0-13.2,0-20,0c0-6.5,0-12.6,0-19.4c2.8,0,5.6,0,8.4,0c15.2,0,30.3,0.2,45.5-0.1
			c4.1-0.1,5.3,1.4,5,5.8c-0.3,4.3-0.1,8.6-0.1,13.5c-7,0-13.6,0-20.6,0c0,27.7,0,54.7,0,82c-6,0-11.6,0-18.2,0
			C577,286.7,577,261.8,577,236.3 M577.4,221.1c2.4,0,4.9,0,8.1,0c0,27.6,0,54.6,0,81.6c0.5,0,1,0,1.5,0c0-27.1,0-54.2,0-82.1
			c7.1,0,13.5,0,19.9,0c0-0.3,0-0.7-0.1-1c-14,0-28,0-42,0c0,0.5,0,1.1,0,1.6C568.7,221.1,572.6,221.1,577.4,221.1z"/>
		<path d="M424.1,253.1c0-14.4,0-28.3,0-42.4c6.2,0,11.7,0,17.8,0c0,27.2,0,54.2,0,81.7c10.4,0,20.3,0,30.5,0c0,6.6,0,12.7,0,19.1
			c-16,0-31.8,0-48.3,0C424.1,292.3,424.1,273,424.1,253.1 M434,299.5c0-26.7,0-53.3,0-80c-0.5,0-1,0-1.6-0.1
			c-0.1,1.7-0.3,3.4-0.3,5.1c0,13.4-0.1,26.7,0,40.1c0.1,12,0.2,24,0.3,37c2.4,0.5,4.9,1.3,7.3,1.3c8.4,0.2,16.8,0.1,25.2,0.1
			c0-0.6,0-1.2,0-1.8c-1.7,0-3.4,0-5.2,0C451.2,301,442.6,300.8,434,299.5z"/>
		<path class="st0" d="M269.7,221.6c8.9-5.8,18.3-5.2,27.3-1c7.5,3.5,9.6,11.6,9.8,20c0.3,13.5,0.4,27.1-0.1,40.6
			c-0.2,4.6-2.5,9.1-4.4,13.6c-0.8-0.2-1-0.3-1.2-0.5c1.3-5.3,3.4-10.6,3.7-16c0.6-12,0.3-24,0.1-36c-0.2-15.3-6-22.1-19.3-22.3
			c-4.6-0.1-9.1,1-14.5,1.6C270.1,221.7,269.9,221.6,269.7,221.6z"/>
		<path class="st0" d="M262.6,240.8c0,13.1,0,26.2-0.2,39.9c-0.6,0.5-0.9,0.6-1.3,0.6c0-13.2-0.1-26.3,0.2-40.1
			C261.9,240.8,262.2,240.8,262.6,240.8z"/>
		<path class="st0" d="M294.9,301.7c-7.5,3.4-15.3,3.5-22.6-0.1c-3.2-1.6-5.6-5.3-8.1-8.5c0.2-0.4,0.7-0.6,0.7-0.6
			c6.5,9.9,15.7,9.8,25.2,8.6c1.3-0.2,2.6-0.5,4.4-0.4C295,301.1,294.9,301.7,294.9,301.7z"/>
		<path class="st0" d="M262.7,240.4c-0.5,0.4-0.8,0.4-1.4,0.3c0.5-3.2,1.2-6.5,2.3-10c0.3-0.2,0.3-0.2,0.3-0.2
			C263.5,233.7,263.2,236.8,262.7,240.4z"/>
		<path class="st0" d="M295.3,301.6c-0.3,0.1-0.3-0.5-0.3-0.8c1.1-1.4,2.1-2.5,3.8-3.5c0.8,0.1,1,0.1,1.2,0.2
			C298.5,298.9,297,300.2,295.3,301.6z"/>
		<path class="st0" d="M261,281.8c0.4-0.5,0.8-0.5,1.4-0.5c0.5,1.9,0.8,3.9,1.1,6.1c-0.1,0.4-0.3,0.4-0.5,0.5
			C262.3,286,261.6,284.1,261,281.8z"/>
		<path class="st0" d="M264.9,292.2c0,0.3-0.5,0.6-0.7,0.6c-0.6-1.5-1-2.9-1.3-4.7c0.2-0.3,0.4-0.4,0.8-0.3
			C264.3,289.3,264.6,290.6,264.9,292.2z"/>
		<path class="st0" d="M263.9,230.6c0.3-1.2,0.6-2.4,0.8-3.6c0.2,0,0.3,0.1,0.5,0.1c-0.3,1-0.6,2-1.1,3.2
			C263.9,230.5,263.9,230.6,263.9,230.6z"/>
		<path class="st0" d="M300.2,297.4c-0.5,0.1-0.7,0.1-1.1-0.1c0.3-0.9,0.9-1.8,1.7-2.8c0.4-0.1,0.6,0.1,1.1,0.4
			C301.6,295.9,301.1,296.6,300.2,297.4z"/>
		<path class="st0" d="M269.5,221.8c0.4-0.2,0.6-0.1,1.1-0.1c0,0.6-0.3,1.1-0.6,1.6C269.8,222.9,269.6,222.5,269.5,221.8z"/>
		<path class="st0" d="M347.8,221.1c0.1,22.9,0.1,45.4,0.1,67.8c-0.3,0-0.5,0.1-0.8,0.1c-0.4-2.2-1.1-4.5-1.1-6.7
			c-0.1-19.5-0.1-39.1,0.1-58.6C346,222.9,343.9,219.2,347.8,221.1z"/>
		<path class="st0" d="M391.9,220.4c0,20.3,0,40.7-0.2,61.6c-0.7,0.5-1.1,0.4-1.5,0.3c0.1-20.5,0.2-40.9,0.7-61.8
			C391.5,220.3,391.7,220.4,391.9,220.4z"/>
		<path class="st0" d="M353,298.3c-1.6-1.9-2.9-3.5-4.2-5.1c0.2-0.5,0.3-1,0.5-1.5c9.3,12.2,20.6,11.7,33.5,7
			C375.3,306.1,362.3,305.6,353,298.3z"/>
		<path class="st0" d="M390,282.8c0.5-0.3,0.9-0.2,1.6-0.2c-1.5,4.6-3.3,9.4-5.3,14.4c-0.2,0.3-0.2,0.3-0.2,0.3
			C387.4,292.6,388.6,287.9,390,282.8z"/>
		<path class="st0" d="M382.9,298c-0.2,0-0.3-0.1-0.4-0.2C382.7,297.8,382.8,297.9,382.9,298z"/>
		<path class="st0" d="M386.1,297.3c0,0-0.2-0.1-0.2-0.1S386,297.4,386.1,297.3C386.1,297.3,386.1,297.3,386.1,297.3z"/>
		<path class="st0" d="M391.9,220.1c-0.2,0.3-0.4,0.2-0.9,0.1C391.1,220,391.5,219.9,391.9,220.1z"/>
		<path class="st0" d="M714.1,265.6c0-15.6,0-30.6,0-46.1c11.2,0,22,0,32.8,0c0,0.4,0.1,0.8,0.1,1.2c-10.2,0-20.3,0-30.7,0
			c0,13.3,0,25.4,0,38.6c8.4,0,16.8,0,25.2,0c0,0.6,0,1.2-0.1,1.7c-8.3,0-16.6,0-25.2,0c0,13.6,0,26.4,0,40.2c10.3,0,20.4,0,30.6,0
			c0,0.5,0,0.9,0,1.4c-10.7,0-21.4,0-32.8,0C714.1,290.4,714.1,278.3,714.1,265.6z"/>
		<path class="st0" d="M515.9,258.9c3.9,0,7.3,0,10.7,0c0,0.6,0,1.2,0,1.7c-8.4,0-16.7,0-25.2,0c0,13.8,0,26.7,0,40.5
			c10.4,0,20.6,0,30.7,0c0,0.5,0,0.9,0,1.4c-10.7,0-21.4,0-32.4,0c0-27.6,0-55.3,0-83.2c11,0,21.8,0,32.5,0c0,0.5,0,0.9,0.1,1.4
			c-10.2,0-20.5,0-30.9,0c0,13.3,0,25.4,0,38.2C506.1,258.9,510.8,258.9,515.9,258.9z"/>
		<path class="st0" d="M653.8,221.1c-6.2,0-11.8,0-17.5,0c0-0.6,0-1.1,0-1.7c14,0,28.1,0,42.1,0c0,0.4,0.1,0.8,0.1,1.2
			c-6.4,0-12.8,0-19.9,0c0,28,0,55,0,82.1c-0.5,0-1,0.1-1.5,0.1c-0.1-1.8-0.3-3.7-0.3-5.5c0-23.9,0-47.8,0-71.6
			C656.8,223.7,657.9,220.7,653.8,221.1z"/>
		<path class="st0" d="M576.9,221.1c-4.4,0-8.3,0-12.2,0c0-0.5,0-1.1,0-1.6c14,0,28,0,42,0c0,0.3,0,0.7,0.1,1c-6.4,0-12.8,0-19.9,0
			c0,28,0,55,0,82.1c-0.5,0-1,0-1.5,0c0-27,0-54,0-81.6C582.3,221.1,579.9,221.1,576.9,221.1z"/>
		<path class="st0" d="M432.5,300.7c-0.1-12-0.3-24-0.4-36.1c-0.1-13.4,0-26.7,0-40.1c0-1.7,0.2-3.4,0.3-5.1c0.5,0,1,0,1.6,0.1
			c0,26.7,0,53.3-0.3,80.5C433.1,300.6,432.8,300.7,432.5,300.7z"/>
		<path class="st0" d="M432.4,301.2c0.4-0.5,0.7-0.6,1.3-0.6c8.9,0.2,17.5,0.4,26.1,0.6c1.7,0,3.4,0,5.2,0c0,0.6,0,1.2,0,1.8
			c-8.4,0-16.8,0.1-25.2-0.1C437.3,302.9,434.8,302.1,432.4,301.2z"/>
	</g>
	<path d="M289.6,313.6c-6.3-0.4-12.5,0.1-18.3-1.4c-12-3.1-17.9-11.8-18.2-26.7c-0.4-15.9-0.4-31.9,0-47.9c0.4-17,9.4-27,24.5-27.9
		c5.3-0.3,10.7-0.2,16,0.7c13.1,2.3,19.7,9.5,20.5,24.6c0.9,17.6,0.7,35.2,0.2,52.8c-0.5,15.3-8,22.8-22.4,25.4
		C291.1,313.5,290.5,313.5,289.6,313.6 M261.4,282.5c1.2,13.9,6.1,20.4,17.6,21.9c4.5,0.6,9.3,0,13.7-1.1
		c8.1-2.1,13.5-9.6,13.7-19.1c0.3-15.3,0.4-30.7-0.1-46c-0.3-10.7-6-17.6-15.3-19.2c-4.6-0.8-9.5-0.8-14.1,0
		c-9.3,1.5-14.8,7.9-15.3,18.7C261.1,252.3,261.4,267,261.4,282.5z"/>
</g>
<path d="M304.2,286.8c-1.9,9-7,14-14.5,15.1c-4.6,0.7-9.5,0.5-14-0.4c-7.3-1.5-12.5-8.7-12.7-17.4c-0.3-15.1-0.4-30.2,0-45.3
	c0.2-10.6,6.9-17.8,16.1-18.3c3.6-0.2,7.1-0.3,10.7,0c8.3,0.9,14.3,7.1,14.5,16.7C304.7,253.6,304.3,270.1,304.2,286.8 M271.7,284.1
	c1.3,2.4,2.1,5.5,4,7.1c8.2,7.2,20.1,1.4,20.6-10.4c0.6-12,0.5-24,0.1-36c-0.4-11.6-6.2-16.3-16.2-14.3c-4.4,0.9-7.2,3.7-8.4,8.5
	c-0.6,2.4-0.8,5-0.8,7.4c-0.1,8.8-0.1,17.5,0,26.3C271,276.3,271.3,279.9,271.7,284.1z"/>
</svg>
