<?xml version="1.0" encoding="UTF-8"?>
<svg id="Layer_1" data-name="Layer 1" xmlns="http://www.w3.org/2000/svg" width="742.7" height="301.06" viewBox="0 0 742.7 301.06">
  <g>
    <path d="m58.68,213.43c0-13.29,0-26.08,0-39.82,12.84,0,25.28-.17,37.7.21,1.57.05,3.51,2.68,4.52,4.53,11.78,21.77,23.42,43.62,35.1,65.45,5.45,7.79,16.74,37.26,23.91,38.92,15.12-.24,30.57,1.26,45.48-.51-14.15-27.8-29.29-55.02-43.81-82.62-2.91-5.45-2.83-5.49,2.89-7.69q8.33-3.2,12.47,4.54c17.84,34.1,36.86,67.28,53.93,101.79-26.1,1.07-51.93.05-78.03.47-3.48.01-5.75-.76-7.54-4.15-17.75-33.67-35.75-67.2-53.47-100.89-3.3-7.23-11.04-3.55-17.38-4.44.05,35.14-.13,69.13.08,104.08.03,4.15-1.23,5.46-5.4,5.42-21.16-.18-42.33-.19-63.5,0-4.4.04-5.63-1.32-5.62-5.71C.12,197.52.13,102.03,0,6.53,0,1.69,1.41.15,6.21.29c10.82.31,9.55-.62,9.55,9.31.16,90.96-.31,181.93.14,272.87h42.78c0-23.01,0-45.78,0-69.05Z" fill="#f0f8ff"/>
    <path d="m155.5,165.86c46.87-16.46,60.59-84.54,28.32-122.35C150.16,7.02,94.94,18.14,50.31,15.72c-5.18-.12-6.05,1.63-6.05,6.22.2,82.31-.07,164.64.15,246.94.5,6.45-10.7,2.17-15.24,3.38,0-88.8.04-177.53-.1-266.33,0-4.42,1.2-5.67,5.6-5.64,43.68,1.71,89.48-6.13,130.84,11.63,46.41,18.3,60.98,75.25,45.16,119.34-10.71,33.17-39.83,48.14-72.1,55.58,15.22,28.42,30.27,56.53,45.95,85.81-6.32-.9-16,2.54-18.9-2.75-16.71-31.26-34.42-62.67-50.54-93.93,13.5-3.35,26.79-6.64,40.42-10.11Z" fill="#f0f8ff"/>
    <path d="m120.94,129.3c-20.03.86-39.64,1.63-59.25,2.43-3.02.12-3.49-1.52-3.47-4.1.1-11.49.22-22.99-.03-34.48-.1-4.75,3.24-4.02,5.3-3.31,3.42,1.18,9.46-4.2,10.21,3.32,1.74,4.62-3.05,24.53,3.53,23.18,17.51-3.09,54.84,3.7,62.38-15.35,3.96-9.27.01-19.5-9.65-22.17-23.31-5.99-47.69-3.1-71.52-3.65V30.88c43.72.82,106.38-11.52,124.49,41.01,14.06,34.67-3.62,78.42-42.96,84.45-23.01,5.34-46.68,4.25-70.1,4.28-3.58-.05-9.91.29-10.24-.89-1.23-4.38-.49-9.31-.49-14.45,27.83-1.11,55.85,3.57,82.55-5.45,27.39-8.29,35.63-37.89,26.69-62.88-13.15-38.51-58.57-29.11-90.5-31.45-3.06-.12-4.13,1.11-4.08,4.09.17,12.09-1.16,10.35,9.76,10.49,11.66.15,23.4-.52,34.95.67,19.48,1.42,40.27,12.6,37.88,35.1-.04,20.64-17.75,29.29-35.43,33.45Z" fill="#f0f8ff"/>
  </g>
  <path d="m566.97,32.79c-5.06.43-9.94.26-14.25,1.79-7.08,2.52-8.63,10.69-2.88,15.62,4.37,3.75,9.61,6.71,14.87,9.04,12.88,5.71,25.49,11.78,36.28,21.22,15.37,13.46,17.89,30.46,12.48,49.37-5.24,18.3-16.88,29.79-35.46,32.86-18.23,3.02-35.34-.08-49.57-12.79-4.76-4.25-7.85-10.55-11.35-16.15-.69-1.1-.4-3.99.5-4.83,7.12-6.59,14.51-12.88,22.27-19.67,1.84,3.35,3.22,6.13,4.84,8.75,5.46,8.8,12.89,14.25,23.48,13.19,6.18-.61,10.97-3.71,13.08-10.17,2.05-6.26.44-11.8-4.42-15.56-4.72-3.65-10.21-6.27-15.43-9.23-10.44-5.92-21.74-10.64-31.22-17.87-24-18.3-21.97-53.55,3.93-69.02,17.36-10.37,36.02-12.65,54.66-2.89,10.33,5.41,16.45,15.02,21.44,25.36.48,1-.15,3.44-1.05,4.12-6.7,5.07-13.6,9.87-20.76,14.98-6.29-7.23-11.03-15.98-21.45-18.15m6-13.6c6.57,4.38,13.15,8.76,20.8,13.85-1.26-2.12-1.84-3.36-2.64-4.41-12.41-16.39-33.36-16.89-47.88-8.84-19.12,10.59-20.13,35.12-2.11,47.71,5.51,3.85,11.84,6.42,17.7,9.77,9.48,5.43,19.29,10.4,28.19,16.71,8.8,6.24,12,15.87,9.9,26.73-2.27,11.74-8.11,20.64-20,24.2-13.74,4.12-31-1.38-39.91-12.87-.99-1.28-2.06-2.51-3.1-3.76-.49.35-.98.7-1.47,1.05,1.1,1.94,1.92,4.15,3.36,5.77,10.59,11.82,24.02,16.08,39.03,13.34,13.65-2.49,21.96-11.71,24.94-25.69,2.98-13.97-1.53-25.46-12.76-33.25-8.66-6.01-18.4-10.35-27.65-15.47-6.53-3.62-13.59-6.53-19.41-11.11-12.74-10.03-11.06-30.69,2.74-39.05,9.13-5.54,18.97-7.26,30.28-4.66Z" fill="#f0f8ff"/>
  <path d="m387.35,118.49c9.69-37.21,19.31-73.97,28.79-110.76.94-3.64,2.34-5.17,6.27-4.96,7.44.39,14.92.3,22.37.03,3.42-.13,4.65,1.13,5.51,4.45,12.86,49.57,25.84,99.12,38.92,148.63,1.16,4.39.09,5.69-4.23,5.53-6.9-.27-13.84-.29-20.74.02-3.45.15-4.81-1.25-5.61-4.43-2.23-8.85-4.79-17.61-6.97-26.47-.79-3.19-1.98-4.6-5.48-4.49-8.72.29-17.47.25-26.2.02-2.98-.08-4.14,1.13-4.81,3.84-2.25,9.04-4.72,18.02-6.94,27.06-.77,3.15-2.06,4.63-5.56,4.47-7.08-.32-14.19-.21-21.28-.05-3.83.09-5.27-.77-4.01-5.18,3.51-12.35,6.6-24.84,9.96-37.71m49.93-7.67c5.46,0,10.96.46,16.35-.13,5.12-.56,6.89,1.71,8.09,6.32,2.3,8.82,5.07,17.51,7.74,26.22.46,1.51,1.38,2.87,2.09,4.3,1.01-1.55.95-2.62.65-3.62-11.99-41.07-23.97-82.15-36.08-123.18-.55-1.85-2.34-3.3-3.55-4.94-1.13,1.73-2.78,3.31-3.33,5.22-11.48,40.26-22.85,80.55-34.21,120.85-.51,1.82-.77,3.71-1.14,5.57.69.2,1.38.41,2.07.61,3.62-12.39,7.24-24.79,10.87-37.22h30.45Z" fill="#f0f8ff"/>
  <path d="m706.34,101.96c0,18.34-.09,36.11.07,53.88.04,4.01-.96,5.77-5.2,5.58-6.9-.31-13.83-.36-20.73.01-4.49.24-5.52-1.5-5.51-5.82.14-38.73.08-77.46.08-116.19v-6.54c-9.69,0-18.91,0-28.13,0q-7.03,0-7.03-7.47c0-5.99.15-11.98-.06-17.96-.11-3.34.87-4.64,4.29-4.63,31.11.1,62.21.08,93.32.02,3.03,0,4.22,1.06,4.15,4.24-.16,6.92-.25,13.85.03,20.76.16,4.11-1.55,5.14-5.16,5.08-9.81-.15-19.62-.05-30.11-.05,0,23,0,45.76,0,69.08m-21.34-82.9c4.24-.89,4.12,1.86,4.12,4.91-.05,39.31-.04,78.61,0,117.92,0,1.92.53,3.85.82,5.77.71-.06,1.42-.12,2.12-.18V18.62h34.45c.09-.51.18-1.01.27-1.52-1.12-.4-2.24-1.13-3.36-1.13-22.38-.07-44.77-.07-67.15.02-1.03,0-2.06.94-3.09,1.44.14.55.27,1.09.41,1.64,10.12,0,20.24,0,31.4,0Z" fill="#f0f8ff"/>
  <path d="m303.81,163.1c-10.96-.59-21.72.09-31.84-2.22-20.91-4.77-31.05-18.34-31.63-41.65-.62-24.88-.72-49.81,0-74.68.76-26.49,16.4-42.13,42.61-43.47,9.21-.47,18.63-.38,27.71,1.08,22.72,3.65,34.19,14.89,35.5,38.32,1.54,27.41,1.23,55.01.27,82.47-.84,23.92-13.82,35.57-38.86,39.69-1.08.18-2.17.25-3.74.46m-48.99-48.67c2.06,21.66,10.65,31.89,30.53,34.15,7.77.88,16.06.05,23.72-1.77,14.02-3.33,23.44-14.96,23.79-29.81.57-23.93.63-47.89-.11-71.81-.52-16.7-10.36-27.51-26.48-29.91-7.99-1.19-16.41-1.22-24.39-.05-16.15,2.38-25.74,12.37-26.51,29.17-1.06,22.95-.49,45.99-.55,70.03Z" fill="#f0f8ff"/>
  <path d="m417.32,73.12c5.15-17.77,10.17-35.11,15.56-53.68,8.78,29.93,17.21,58.69,25.75,87.82h-50.98c3.2-11.31,6.38-22.51,9.67-34.14m9.33,12.22c-.92,3.55-1.85,7.09-2.8,10.76h19.22c-3.27-11.75-6.44-23.13-10-35.93-2.35,9.15-4.29,16.71-6.41,25.17Z" fill="#f0f8ff"/>
  <path d="m329.14,121.18c-3.31,14.06-12.11,21.87-25.11,23.6-7.98,1.07-16.43.8-24.35-.69-12.73-2.39-21.69-13.54-21.97-27.15-.5-23.57-.63-47.18-.08-70.75.39-16.6,11.9-27.73,27.97-28.49,6.16-.29,12.39-.51,18.52.07,14.46,1.37,24.82,11.16,25.25,26.08.72,25.6.03,51.24-.21,77.31m-56.42-4.24c2.24,3.74,3.69,8.54,6.86,11.04,14.27,11.27,34.8,2.16,35.78-16.23.99-18.66.92-37.44.26-56.12-.64-18.03-10.71-25.39-28.18-22.28-7.62,1.35-12.56,5.74-14.5,13.3-.96,3.74-1.34,7.74-1.38,11.62-.16,13.67-.15,27.34,0,41,.06,5.59.6,11.17,1.18,17.67Z" fill="#f0f8ff"/>
  <g>
    <g>
      <path d="m346.82,275.69c4.95,5.42,10.55,5.51,16.08,3.11,5.87-2.54,6.96-8.72,6.99-14.94.12-19.77.05-39.53.06-59.3,0-2.03,0-4.06,0-6.75,5.4,0,10.35-.16,15.28.14.94.06,2.58,1.89,2.58,2.9-.04,24.84.36,49.7-.68,74.49-.6,14.26-7.91,22.47-20.37,24.37-7.61,1.16-15.7.75-23.28-.79-10.06-2.05-17.08-11.83-17.3-23.9-.47-25.21-.21-50.43-.23-75.65,0-.33.27-.65.67-1.56,4.69,0,9.64,0,14.6,0,3.63,0,2.64,3.12,2.65,5.31.06,19.58-.13,39.16.15,58.73.07,4.52,1.66,9.01,2.81,13.83m27.77,8.48c1.79-4.76,3.58-9.52,5.44-15.33-.02-20.33-.04-40.65,0-61.65-.41.11-.82.22-1.57,1.21-.08,20.47-.16,40.95-.52,62.25-1.24,4.7-2.48,9.4-3.81,14.21l-.18-.18s.19.07.64-.51m-38.74-76.14c-3.84-1.4-1.7,2.35-1.7,3.1-.17,19.53-.18,39.06-.09,58.59,0,2.25.73,4.5,1.13,6.75.26-.04.52-.09.77-.13,0-22.43,0-44.86-.11-68.3m5.52,77.99c9.02,7.03,22.04,7.52,29.52.06-12.86,4.74-24.18,5.21-33.45-6.96-.17.51-.33,1.01-.5,1.52,1.29,1.61,2.59,3.22,4.43,5.37m29.77-.68c-.19-.05-.37-.1-.56-.14.11.12.22.23.56.14Z" fill="#f0f8ff"/>
      <path d="m694.46,211.23v-13.13h48.21v18.92h-30.04v20.71h23.26v19.64h-23.15v22.59h29.97v19.02h-48.24c0-29.03,0-58.11,0-87.75m7.72,42.31v36.42h32.8c0-.47,0-.95.01-1.42h-30.58v-40.15h25.15c.02-.58.04-1.16.05-1.74h-25.2v-38.62h30.69c-.03-.39-.05-.77-.08-1.16h-32.85c0,15.52,0,30.54,0,46.69Z" fill="#f0f8ff"/>
      <path d="m497.77,274.38c0,2.05,0,3.55,0,5.6h30.14v19.07h-47.8v-100.97h47.8v18.77h-29.86v21.16h23.28v19.29h-23.56c0,5.81,0,11.16,0,17.08m5.74-28.07h-13.91v-38.22h30.87c-.02-.46-.05-.93-.07-1.39h-32.5v83.21h32.41c0-.47,0-.94,0-1.41h-30.75v-40.45h25.19c-.01-.58-.02-1.16-.04-1.74h-11.22Z" fill="#f0f8ff"/>
      <path d="m636.94,294.6c0-25.95,0-51.35,0-77.35h-20.67c0-5.96-.15-11.36.13-16.73.05-.96,1.85-2.58,2.85-2.59,18.46-.16,36.92-.12,55.77-.12v19.09h-19.87v82.4c-5.69,0-10.95.16-16.18-.18-.75-.05-1.36-2.58-2.04-4.51m5.5-86.06c3.55-.39,2.49,2.63,2.49,4.57.05,23.88.03,47.76.04,71.64,0,1.83.18,3.67.27,5.5.49-.04.98-.08,1.47-.11v-82.07h19.94c-.03-.39-.06-.78-.09-1.18h-42.08c-.02.55-.03,1.1-.05,1.66,5.67,0,11.35,0,18,0Z" fill="#f0f8ff"/>
      <path d="m565.15,223.75v-6.55h-19.99v-19.4c2.84,0,5.61,0,8.39,0,15.16,0,30.33.17,45.48-.11,4.09-.08,5.28,1.36,4.97,5.75-.31,4.26-.07,8.57-.07,13.48h-20.62v82.03h-18.16c0-24.82,0-49.74,0-75.21m.38-15.19h8.11v81.6c.5,0,.99-.01,1.49-.02v-82.14h19.86c-.02-.35-.05-.7-.07-1.05h-42.04c0,.54-.01,1.07-.02,1.61,3.89,0,7.79,0,12.67,0Z" fill="#f0f8ff"/>
      <path d="m412.21,240.56c0-14.42,0-28.27,0-42.43h17.77v81.71h30.49v19.15h-48.26c0-19.29,0-38.58,0-58.43m9.9,46.39v-80.02c-.52-.02-1.04-.04-1.56-.07-.11,1.71-.32,3.43-.32,5.14-.03,13.36-.06,26.72,0,40.08.06,12.02.23,24.05.26,36.98,2.45.46,4.89,1.27,7.34,1.32,8.4.17,16.81.06,25.22.06,0-.61,0-1.22-.01-1.83-1.72,0-3.44.03-5.16,0-8.61-.19-17.22-.4-25.76-1.65Z" fill="#f0f8ff"/>
    </g>
    <path d="m277.69,301.06c-6.31-.38-12.52.06-18.35-1.42-12.05-3.05-17.89-11.75-18.23-26.68-.35-15.94-.41-31.91,0-47.85.44-16.97,9.45-27,24.55-27.85,5.31-.3,10.73-.24,15.96.69,13.09,2.34,19.7,9.54,20.46,24.55.89,17.56.71,35.25.15,52.84-.48,15.32-7.96,22.79-22.39,25.43-.62.11-1.25.16-2.16.3m-28.23-31.18c1.19,13.88,6.14,20.43,17.59,21.88,4.48.57,9.25.03,13.67-1.14,8.08-2.13,13.51-9.59,13.71-19.1.33-15.33.36-30.69-.06-46.01-.3-10.7-5.97-17.63-15.26-19.16-4.6-.76-9.45-.78-14.06-.03-9.31,1.52-14.83,7.93-15.28,18.69-.61,14.71-.28,29.47-.32,44.87Z" fill="#f0f8ff"/>
  </g>
  <path d="m292.28,274.2c-1.91,9.01-6.97,14.01-14.47,15.12-4.6.68-9.47.51-14.03-.44-7.34-1.53-12.5-8.68-12.66-17.39-.29-15.11-.36-30.23-.04-45.33.22-10.64,6.85-17.77,16.11-18.26,3.55-.19,7.14-.32,10.67.05,8.33.88,14.3,7.15,14.55,16.71.42,16.4.02,32.83-.12,49.54m-32.51-2.72c1.29,2.4,2.13,5.47,3.95,7.07,8.22,7.22,20.05,1.39,20.62-10.4.57-11.96.53-23.99.15-35.96-.37-11.56-6.17-16.27-16.24-14.28-4.39.87-7.24,3.68-8.36,8.52-.55,2.4-.77,4.96-.8,7.45-.09,8.76-.08,17.52,0,26.27.03,3.58.35,7.16.68,11.32Z" fill="#f0f8ff"/>
</svg>