<?xml version="1.0" encoding="UTF-8"?>
<svg id="Layer_1" data-name="Layer 1" xmlns="http://www.w3.org/2000/svg" viewBox="0 0 470 472">
  <g>
    <path d="m219.35,239.61c-9.98-22.1-26.41-34.88-51.86-34.17-16.98.47-33.99.36-50.97-.01-9.99-.21-19.03,6.79-18.93,18.98.37,47.82.13,95.65.2,143.48,0,2.96.33,6.01,1.06,8.88,1.72,6.8,7.72,10.76,15.09,10.34,6.83-.4,12.5-5.21,13.29-11.95.62-5.27.68-10.62.72-15.93.1-11.81.03-23.62.03-36.06,2.66-.13,4.45-.29,6.25-.29,12-.02,23.99.05,35.99-.04,8.45-.05,16.49-1.84,23.94-6.04,26.49-14.93,37.89-49.05,25.19-77.19Zm-36.65,47.7c-2.84,2.64-7.24,4.84-11.02,5-13.64.59-27.32.23-40.99.21-.63,0-1.26-.26-2.71-.58v-23.25c0-9.33.12-18.67-.05-28-.07-3.5,1.27-4.71,4.67-4.69,12.66.11,25.33-.13,37.99.11,9.65.18,17.48,7.31,20.67,18.78,3.44,12.37.97,23.59-8.56,32.42Z" fill="#231f20" stroke="#fff" stroke-miterlimit="10"/>
    <path d="m374.79,240.7c-7.27-18.47-26.33-36.64-51.24-35.33-16.45.86-32.98.15-49.47.16-14.46.02-20.34,5.83-20.35,20.13-.01,47.16,0,94.31,0,141.46,0,2.17.04,4.34.23,6.49.65,7.44,6.01,12.91,13.04,13.45,8.43.63,14.38-3.56,16.07-11.63.64-3.07.93-6.26.95-9.4.1-14.13.04-28.26.04-43.16h6.27c11.66,0,23.32.04,34.98-.02,13.45-.06,25.11-4.84,34.76-14.11,18.49-17.74,24.18-44,14.71-68.04Zm-35.77,45.35c-4.05,4.34-8.92,6.66-15.03,6.57-11.65-.17-23.3-.04-34.95-.06-1.46,0-2.92-.16-4.67-.27v-55.83c2.21-.15,4.17-.4,6.12-.41,9.98-.04,20,.49,29.95-.14,14.6-.92,22.14,6.76,25.8,19.96,3.03,10.91.87,21.49-7.22,30.18Z" fill="#231f20" stroke="#fff" stroke-miterlimit="10"/>
    <path d="m225.32,113.28c-1.57-.53-3.46-1.9-4.65-1.44-3.97,1.53-7.85,3.48-11.41,5.81-.82.53-.25,3.19-.32,4.87,4.05-1.36,8.17-2.56,12.12-4.17,1.64-.66,2.92-2.22,4.36-3.37-.03-.56-.07-1.13-.1-1.7Zm-6.11,12.34c-4.24-.06-8.28,3.38-8.81,8.42.41.59,1.06,2.53,2.17,2.84.99.28,2.89-.95,3.68-2.03,2.55-3.49,3.03-3.45,5.77.24.77,1.04,2.65,1.89,3.86,1.71.77-.11,1.78-2.29,1.74-3.52-.12-4.09-4.19-7.61-8.41-7.66Zm35.98,22.77c-5.32-.13-10.64-.03-15.96-.03s-10.97-.1-16.45.03c-4.67.12-6.89,2.65-6.78,7.31.27,12.14,10.19,21.43,22.96,21.52,12.51.09,22.68-9.41,23.02-21.5.13-4.6-2.18-7.22-6.79-7.33Zm-15.92,22.44c-9.38.17-15.88-5.78-16.8-15.82h32.84c-.6,9.69-6.78,15.66-16.04,15.82Zm19.5-45.22c-4.12.05-8.5,3.7-8.52,7.57-.01,1.31,1.11,3.02,2.24,3.79.54.36,2.7-.77,3.42-1.74,2.92-3.97,2.96-3.98,5.9-.05.73.98,2.31,1.32,3.5,1.96.67-1.35,1.92-2.7,1.89-4.03-.08-4.14-4.16-7.55-8.43-7.5Zm10.67-7.41c-4.19-2.57-8.58-4.81-13.26-7.34-1.14,1-2.55,1.68-2.82,2.66-.26.99.25,2.91,1.04,3.36,3.84,2.22,7.83,4.22,11.91,5.97.84.35,2.76-.37,3.3-1.18.54-.82.43-3.1-.17-3.47Zm0,0c-4.19-2.57-8.58-4.81-13.26-7.34-1.14,1-2.55,1.68-2.82,2.66-.26.99.25,2.91,1.04,3.36,3.84,2.22,7.83,4.22,11.91,5.97.84.35,2.76-.37,3.3-1.18.54-.82.43-3.1-.17-3.47Zm-10.67,7.41c-4.12.05-8.5,3.7-8.52,7.57-.01,1.31,1.11,3.02,2.24,3.79.54.36,2.7-.77,3.42-1.74,2.92-3.97,2.96-3.98,5.9-.05.73.98,2.31,1.32,3.5,1.96.67-1.35,1.92-2.7,1.89-4.03-.08-4.14-4.16-7.55-8.43-7.5Zm-3.58,22.78c-5.32-.13-10.64-.03-15.96-.03s-10.97-.1-16.45.03c-4.67.12-6.89,2.65-6.78,7.31.27,12.14,10.19,21.43,22.96,21.52,12.51.09,22.68-9.41,23.02-21.5.13-4.6-2.18-7.22-6.79-7.33Zm-15.92,22.44c-9.38.17-15.88-5.78-16.8-15.82h32.84c-.6,9.69-6.78,15.66-16.04,15.82Zm-20.06-45.21c-4.24-.06-8.28,3.38-8.81,8.42.41.59,1.06,2.53,2.17,2.84.99.28,2.89-.95,3.68-2.03,2.55-3.49,3.03-3.45,5.77.24.77,1.04,2.65,1.89,3.86,1.71.77-.11,1.78-2.29,1.74-3.52-.12-4.09-4.19-7.61-8.41-7.66Zm6.11-12.34c-1.57-.53-3.46-1.9-4.65-1.44-3.97,1.53-7.85,3.48-11.41,5.81-.82.53-.25,3.19-.32,4.87,4.05-1.36,8.17-2.56,12.12-4.17,1.64-.66,2.92-2.22,4.36-3.37-.03-.56-.07-1.13-.1-1.7Zm0,0c-1.57-.53-3.46-1.9-4.65-1.44-3.97,1.53-7.85,3.48-11.41,5.81-.82.53-.25,3.19-.32,4.87,4.05-1.36,8.17-2.56,12.12-4.17,1.64-.66,2.92-2.22,4.36-3.37-.03-.56-.07-1.13-.1-1.7Zm-6.11,12.34c-4.24-.06-8.28,3.38-8.81,8.42.41.59,1.06,2.53,2.17,2.84.99.28,2.89-.95,3.68-2.03,2.55-3.49,3.03-3.45,5.77.24.77,1.04,2.65,1.89,3.86,1.71.77-.11,1.78-2.29,1.74-3.52-.12-4.09-4.19-7.61-8.41-7.66Zm35.98,22.77c-5.32-.13-10.64-.03-15.96-.03s-10.97-.1-16.45.03c-4.67.12-6.89,2.65-6.78,7.31.27,12.14,10.19,21.43,22.96,21.52,12.51.09,22.68-9.41,23.02-21.5.13-4.6-2.18-7.22-6.79-7.33Zm-15.92,22.44c-9.38.17-15.88-5.78-16.8-15.82h32.84c-.6,9.69-6.78,15.66-16.04,15.82Zm19.5-45.22c-4.12.05-8.5,3.7-8.52,7.57-.01,1.31,1.11,3.02,2.24,3.79.54.36,2.7-.77,3.42-1.74,2.92-3.97,2.96-3.98,5.9-.05.73.98,2.31,1.32,3.5,1.96.67-1.35,1.92-2.7,1.89-4.03-.08-4.14-4.16-7.55-8.43-7.5Zm10.67-7.41c-4.19-2.57-8.58-4.81-13.26-7.34-1.14,1-2.55,1.68-2.82,2.66-.26.99.25,2.91,1.04,3.36,3.84,2.22,7.83,4.22,11.91,5.97.84.35,2.76-.37,3.3-1.18.54-.82.43-3.1-.17-3.47Zm0,0c-4.19-2.57-8.58-4.81-13.26-7.34-1.14,1-2.55,1.68-2.82,2.66-.26.99.25,2.91,1.04,3.36,3.84,2.22,7.83,4.22,11.91,5.97.84.35,2.76-.37,3.3-1.18.54-.82.43-3.1-.17-3.47Zm-10.67,7.41c-4.12.05-8.5,3.7-8.52,7.57-.01,1.31,1.11,3.02,2.24,3.79.54.36,2.7-.77,3.42-1.74,2.92-3.97,2.96-3.98,5.9-.05.73.98,2.31,1.32,3.5,1.96.67-1.35,1.92-2.7,1.89-4.03-.08-4.14-4.16-7.55-8.43-7.5Zm-3.58,22.78c-5.32-.13-10.64-.03-15.96-.03s-10.97-.1-16.45.03c-4.67.12-6.89,2.65-6.78,7.31.27,12.14,10.19,21.43,22.96,21.52,12.51.09,22.68-9.41,23.02-21.5.13-4.6-2.18-7.22-6.79-7.33Zm-15.92,22.44c-9.38.17-15.88-5.78-16.8-15.82h32.84c-.6,9.69-6.78,15.66-16.04,15.82Zm-20.06-45.21c-4.24-.06-8.28,3.38-8.81,8.42.41.59,1.06,2.53,2.17,2.84.99.28,2.89-.95,3.68-2.03,2.55-3.49,3.03-3.45,5.77.24.77,1.04,2.65,1.89,3.86,1.71.77-.11,1.78-2.29,1.74-3.52-.12-4.09-4.19-7.61-8.41-7.66Zm6.11-12.34c-1.57-.53-3.46-1.9-4.65-1.44-3.97,1.53-7.85,3.48-11.41,5.81-.82.53-.25,3.19-.32,4.87,4.05-1.36,8.17-2.56,12.12-4.17,1.64-.66,2.92-2.22,4.36-3.37-.03-.56-.07-1.13-.1-1.7Zm0,0c-1.57-.53-3.46-1.9-4.65-1.44-3.97,1.53-7.85,3.48-11.41,5.81-.82.53-.25,3.19-.32,4.87,4.05-1.36,8.17-2.56,12.12-4.17,1.64-.66,2.92-2.22,4.36-3.37-.03-.56-.07-1.13-.1-1.7Zm-6.11,12.34c-4.24-.06-8.28,3.38-8.81,8.42.41.59,1.06,2.53,2.17,2.84.99.28,2.89-.95,3.68-2.03,2.55-3.49,3.03-3.45,5.77.24.77,1.04,2.65,1.89,3.86,1.71.77-.11,1.78-2.29,1.74-3.52-.12-4.09-4.19-7.61-8.41-7.66Zm35.98,22.77c-5.32-.13-10.64-.03-15.96-.03s-10.97-.1-16.45.03c-4.67.12-6.89,2.65-6.78,7.31.27,12.14,10.19,21.43,22.96,21.52,12.51.09,22.68-9.41,23.02-21.5.13-4.6-2.18-7.22-6.79-7.33Zm-15.92,22.44c-9.38.17-15.88-5.78-16.8-15.82h32.84c-.6,9.69-6.78,15.66-16.04,15.82Zm19.5-45.22c-4.12.05-8.5,3.7-8.52,7.57-.01,1.31,1.11,3.02,2.24,3.79.54.36,2.7-.77,3.42-1.74,2.92-3.97,2.96-3.98,5.9-.05.73.98,2.31,1.32,3.5,1.96.67-1.35,1.92-2.7,1.89-4.03-.08-4.14-4.16-7.55-8.43-7.5Zm10.67-7.41c-4.19-2.57-8.58-4.81-13.26-7.34-1.14,1-2.55,1.68-2.82,2.66-.26.99.25,2.91,1.04,3.36,3.84,2.22,7.83,4.22,11.91,5.97.84.35,2.76-.37,3.3-1.18.54-.82.43-3.1-.17-3.47Zm0,0c-4.19-2.57-8.58-4.81-13.26-7.34-1.14,1-2.55,1.68-2.82,2.66-.26.99.25,2.91,1.04,3.36,3.84,2.22,7.83,4.22,11.91,5.97.84.35,2.76-.37,3.3-1.18.54-.82.43-3.1-.17-3.47Zm-10.67,7.41c-4.12.05-8.5,3.7-8.52,7.57-.01,1.31,1.11,3.02,2.24,3.79.54.36,2.7-.77,3.42-1.74,2.92-3.97,2.96-3.98,5.9-.05.73.98,2.31,1.32,3.5,1.96.67-1.35,1.92-2.7,1.89-4.03-.08-4.14-4.16-7.55-8.43-7.5Zm-3.58,22.78c-5.32-.13-10.64-.03-15.96-.03s-10.97-.1-16.45.03c-4.67.12-6.89,2.65-6.78,7.31.27,12.14,10.19,21.43,22.96,21.52,12.51.09,22.68-9.41,23.02-21.5.13-4.6-2.18-7.22-6.79-7.33Zm-15.92,22.44c-9.38.17-15.88-5.78-16.8-15.82h32.84c-.6,9.69-6.78,15.66-16.04,15.82Zm-20.06-45.21c-4.24-.06-8.28,3.38-8.81,8.42.41.59,1.06,2.53,2.17,2.84.99.28,2.89-.95,3.68-2.03,2.55-3.49,3.03-3.45,5.77.24.77,1.04,2.65,1.89,3.86,1.71.77-.11,1.78-2.29,1.74-3.52-.12-4.09-4.19-7.61-8.41-7.66Zm6.11-12.34c-1.57-.53-3.46-1.9-4.65-1.44-3.97,1.53-7.85,3.48-11.41,5.81-.82.53-.25,3.19-.32,4.87,4.05-1.36,8.17-2.56,12.12-4.17,1.64-.66,2.92-2.22,4.36-3.37-.03-.56-.07-1.13-.1-1.7Zm0,0c-1.57-.53-3.46-1.9-4.65-1.44-3.97,1.53-7.85,3.48-11.41,5.81-.82.53-.25,3.19-.32,4.87,4.05-1.36,8.17-2.56,12.12-4.17,1.64-.66,2.92-2.22,4.36-3.37-.03-.56-.07-1.13-.1-1.7Zm-6.11,12.34c-4.24-.06-8.28,3.38-8.81,8.42.41.59,1.06,2.53,2.17,2.84.99.28,2.89-.95,3.68-2.03,2.55-3.49,3.03-3.45,5.77.24.77,1.04,2.65,1.89,3.86,1.71.77-.11,1.78-2.29,1.74-3.52-.12-4.09-4.19-7.61-8.41-7.66Zm35.98,22.77c-5.32-.13-10.64-.03-15.96-.03s-10.97-.1-16.45.03c-4.67.12-6.89,2.65-6.78,7.31.27,12.14,10.19,21.43,22.96,21.52,12.51.09,22.68-9.41,23.02-21.5.13-4.6-2.18-7.22-6.79-7.33Zm-15.92,22.44c-9.38.17-15.88-5.78-16.8-15.82h32.84c-.6,9.69-6.78,15.66-16.04,15.82Zm19.5-45.22c-4.12.05-8.5,3.7-8.52,7.57-.01,1.31,1.11,3.02,2.24,3.79.54.36,2.7-.77,3.42-1.74,2.92-3.97,2.96-3.98,5.9-.05.73.98,2.31,1.32,3.5,1.96.67-1.35,1.92-2.7,1.89-4.03-.08-4.14-4.16-7.55-8.43-7.5Zm10.67-7.41c-4.19-2.57-8.58-4.81-13.26-7.34-1.14,1-2.55,1.68-2.82,2.66-.26.99.25,2.91,1.04,3.36,3.84,2.22,7.83,4.22,11.91,5.97.84.35,2.76-.37,3.3-1.18.54-.82.43-3.1-.17-3.47Zm0,0c-4.19-2.57-8.58-4.81-13.26-7.34-1.14,1-2.55,1.68-2.82,2.66-.26.99.25,2.91,1.04,3.36,3.84,2.22,7.83,4.22,11.91,5.97.84.35,2.76-.37,3.3-1.18.54-.82.43-3.1-.17-3.47Zm-10.67,7.41c-4.12.05-8.5,3.7-8.52,7.57-.01,1.31,1.11,3.02,2.24,3.79.54.36,2.7-.77,3.42-1.74,2.92-3.97,2.96-3.98,5.9-.05.73.98,2.31,1.32,3.5,1.96.67-1.35,1.92-2.7,1.89-4.03-.08-4.14-4.16-7.55-8.43-7.5Zm-3.58,22.78c-5.32-.13-10.64-.03-15.96-.03s-10.97-.1-16.45.03c-4.67.12-6.89,2.65-6.78,7.31.27,12.14,10.19,21.43,22.96,21.52,12.51.09,22.68-9.41,23.02-21.5.13-4.6-2.18-7.22-6.79-7.33Zm-15.92,22.44c-9.38.17-15.88-5.78-16.8-15.82h32.84c-.6,9.69-6.78,15.66-16.04,15.82Zm-20.06-45.21c-4.24-.06-8.28,3.38-8.81,8.42.41.59,1.06,2.53,2.17,2.84.99.28,2.89-.95,3.68-2.03,2.55-3.49,3.03-3.45,5.77.24.77,1.04,2.65,1.89,3.86,1.71.77-.11,1.78-2.29,1.74-3.52-.12-4.09-4.19-7.61-8.41-7.66Zm6.11-12.34c-1.57-.53-3.46-1.9-4.65-1.44-3.97,1.53-7.85,3.48-11.41,5.81-.82.53-.25,3.19-.32,4.87,4.05-1.36,8.17-2.56,12.12-4.17,1.64-.66,2.92-2.22,4.36-3.37-.03-.56-.07-1.13-.1-1.7Zm0,0c-1.57-.53-3.46-1.9-4.65-1.44-3.97,1.53-7.85,3.48-11.41,5.81-.82.53-.25,3.19-.32,4.87,4.05-1.36,8.17-2.56,12.12-4.17,1.64-.66,2.92-2.22,4.36-3.37-.03-.56-.07-1.13-.1-1.7Zm-6.11,12.34c-4.24-.06-8.28,3.38-8.81,8.42.41.59,1.06,2.53,2.17,2.84.99.28,2.89-.95,3.68-2.03,2.55-3.49,3.03-3.45,5.77.24.77,1.04,2.65,1.89,3.86,1.71.77-.11,1.78-2.29,1.74-3.52-.12-4.09-4.19-7.61-8.41-7.66Zm35.98,22.77c-5.32-.13-10.64-.03-15.96-.03s-10.97-.1-16.45.03c-4.67.12-6.89,2.65-6.78,7.31.27,12.14,10.19,21.43,22.96,21.52,12.51.09,22.68-9.41,23.02-21.5.13-4.6-2.18-7.22-6.79-7.33Zm-15.92,22.44c-9.38.17-15.88-5.78-16.8-15.82h32.84c-.6,9.69-6.78,15.66-16.04,15.82Zm19.5-45.22c-4.12.05-8.5,3.7-8.52,7.57-.01,1.31,1.11,3.02,2.24,3.79.54.36,2.7-.77,3.42-1.74,2.92-3.97,2.96-3.98,5.9-.05.73.98,2.31,1.32,3.5,1.96.67-1.35,1.92-2.7,1.89-4.03-.08-4.14-4.16-7.55-8.43-7.5Zm10.67-7.41c-4.19-2.57-8.58-4.81-13.26-7.34-1.14,1-2.55,1.68-2.82,2.66-.26.99.25,2.91,1.04,3.36,3.84,2.22,7.83,4.22,11.91,5.97.84.35,2.76-.37,3.3-1.18.54-.82.43-3.1-.17-3.47Zm0,0c-4.19-2.57-8.58-4.81-13.26-7.34-1.14,1-2.55,1.68-2.82,2.66-.26.99.25,2.91,1.04,3.36,3.84,2.22,7.83,4.22,11.91,5.97.84.35,2.76-.37,3.3-1.18.54-.82.43-3.1-.17-3.47Zm-10.67,7.41c-4.12.05-8.5,3.7-8.52,7.57-.01,1.31,1.11,3.02,2.24,3.79.54.36,2.7-.77,3.42-1.74,2.92-3.97,2.96-3.98,5.9-.05.73.98,2.31,1.32,3.5,1.96.67-1.35,1.92-2.7,1.89-4.03-.08-4.14-4.16-7.55-8.43-7.5Zm-3.58,22.78c-5.32-.13-10.64-.03-15.96-.03s-10.97-.1-16.45.03c-4.67.12-6.89,2.65-6.78,7.31.27,12.14,10.19,21.43,22.96,21.52,12.51.09,22.68-9.41,23.02-21.5.13-4.6-2.18-7.22-6.79-7.33Zm-15.92,22.44c-9.38.17-15.88-5.78-16.8-15.82h32.84c-.6,9.69-6.78,15.66-16.04,15.82Zm-17.25-35.74c.77,1.04,2.65,1.89,3.86,1.71.77-.11,1.78-2.29,1.74-3.52-.12-4.09-4.19-7.61-8.41-7.66-4.24-.06-8.28,3.38-8.81,8.42.41.59,1.06,2.53,2.17,2.84.99.28,2.89-.95,3.68-2.03,2.55-3.49,3.03-3.45,5.77.24Zm-.96-16.74c1.64-.66,2.92-2.22,4.36-3.37-.03-.56-.07-1.13-.1-1.7-1.57-.53-3.46-1.9-4.65-1.44-3.97,1.53-7.85,3.48-11.41,5.81-.82.53-.25,3.19-.32,4.87,4.05-1.36,8.17-2.56,12.12-4.17Zm95.12-27.03c-3.01-17.64-13.34-31.48-28.01-41.64-21.84-15.13-45.89-18.42-71.52-12.35-38.36,9.08-62.4,43.98-56.54,82.73,1.07,7.12,2.41,14.69,10.42,17.99,1.19,6.73,2.01,13.02,3.44,19.16,3.6,15.56,12.62,26.78,27.9,31.99,6.39,2.19,13.24,3.46,19.99,4.14,16.97,1.72,33.96,1.85,50.6-2.84,15.66-4.42,26.06-14.44,30.56-30.1,1.65-5.72,2.21-11.74,3.43-17.59.38-1.83.79-4.5,2.04-5.15,5.42-2.84,7.8-8.01,8.12-13.06.69-11.07,1.41-22.46-.43-33.28Zm-15.56,48.29c-.5,5.12-1.41,10.22-2.47,15.25-3.55,16.81-14.18,26.76-30.69,30.32-17.94,3.86-36.1,3.99-54.08.61-21.78-4.1-32.75-16.62-35.23-38.77-.23-1.98-.52-3.96-.75-5.94-.52-4.52.08-8.61,2.06-12.97,3.52-7.8,5.92-16.1,8.66-23.82,6.69,1.46,13.72,3.65,20.91,4.42,14.72,1.56,28.78-1.77,42.34-7.46,5.98-2.51,11.92-5.16,18-7.42,12.37-4.58,22.14-.3,27.07,11.92,4.4,10.88,5.3,22.3,4.18,33.86Zm10.32-17.4c-.51,2.48-1.7,4.81-3.28,6.98-.8-5.17-1.39-10.38-2.47-15.49-.79-3.72-1.94-7.42-3.43-10.92-6.41-14.98-18.93-20.44-34.28-14.87-7.35,2.66-14.5,5.89-21.76,8.78-14.76,5.88-29.96,8.11-45.46,3.83-6.13-1.7-11.82-4.97-18.18-7.73-.71,13.11-3.65,25.9-12.29,37.66-1.19-3.6-2.84-7.12-3.47-10.82-5.52-32.04,12.92-63,44.02-73.7,23.36-8.04,46.41-7.03,68.14,5.09,28.53,15.93,37.81,45.44,32.46,71.19Zm-54.76-11.35c-1.14,1-2.55,1.68-2.82,2.66-.26.99.25,2.91,1.04,3.36,3.84,2.22,7.83,4.22,11.91,5.97.84.35,2.76-.37,3.3-1.18.54-.82.43-3.1-.17-3.47-4.19-2.57-8.58-4.81-13.26-7.34Zm2.59,14.75c-4.12.05-8.5,3.7-8.52,7.57-.01,1.31,1.11,3.02,2.24,3.79.54.36,2.7-.77,3.42-1.74,2.92-3.97,2.96-3.98,5.9-.05.73.98,2.31,1.32,3.5,1.96.67-1.35,1.92-2.7,1.89-4.03-.08-4.14-4.16-7.55-8.43-7.5Zm-3.58,22.78c-5.32-.13-10.64-.03-15.96-.03s-10.97-.1-16.45.03c-4.67.12-6.89,2.65-6.78,7.31.27,12.14,10.19,21.43,22.96,21.52,12.51.09,22.68-9.41,23.02-21.5.13-4.6-2.18-7.22-6.79-7.33Zm-15.92,22.44c-9.38.17-15.88-5.78-16.8-15.82h32.84c-.6,9.69-6.78,15.66-16.04,15.82Zm-17.25-35.74c.77,1.04,2.65,1.89,3.86,1.71.77-.11,1.78-2.29,1.74-3.52-.12-4.09-4.19-7.61-8.41-7.66-4.24-.06-8.28,3.38-8.81,8.42.41.59,1.06,2.53,2.17,2.84.99.28,2.89-.95,3.68-2.03,2.55-3.49,3.03-3.45,5.77.24Zm-.96-16.74c1.64-.66,2.92-2.22,4.36-3.37-.03-.56-.07-1.13-.1-1.7-1.57-.53-3.46-1.9-4.65-1.44-3.97,1.53-7.85,3.48-11.41,5.81-.82.53-.25,3.19-.32,4.87,4.05-1.36,8.17-2.56,12.12-4.17Zm4.26-5.07c-1.57-.53-3.46-1.9-4.65-1.44-3.97,1.53-7.85,3.48-11.41,5.81-.82.53-.25,3.19-.32,4.87,4.05-1.36,8.17-2.56,12.12-4.17,1.64-.66,2.92-2.22,4.36-3.37-.03-.56-.07-1.13-.1-1.7Zm-6.11,12.34c-4.24-.06-8.28,3.38-8.81,8.42.41.59,1.06,2.53,2.17,2.84.99.28,2.89-.95,3.68-2.03,2.55-3.49,3.03-3.45,5.77.24.77,1.04,2.65,1.89,3.86,1.71.77-.11,1.78-2.29,1.74-3.52-.12-4.09-4.19-7.61-8.41-7.66Zm35.98,22.77c-5.32-.13-10.64-.03-15.96-.03s-10.97-.1-16.45.03c-4.67.12-6.89,2.65-6.78,7.31.27,12.14,10.19,21.43,22.96,21.52,12.51.09,22.68-9.41,23.02-21.5.13-4.6-2.18-7.22-6.79-7.33Zm-15.92,22.44c-9.38.17-15.88-5.78-16.8-15.82h32.84c-.6,9.69-6.78,15.66-16.04,15.82Zm19.5-45.22c-4.12.05-8.5,3.7-8.52,7.57-.01,1.31,1.11,3.02,2.24,3.79.54.36,2.7-.77,3.42-1.74,2.92-3.97,2.96-3.98,5.9-.05.73.98,2.31,1.32,3.5,1.96.67-1.35,1.92-2.7,1.89-4.03-.08-4.14-4.16-7.55-8.43-7.5Zm10.67-7.41c-4.19-2.57-8.58-4.81-13.26-7.34-1.14,1-2.55,1.68-2.82,2.66-.26.99.25,2.91,1.04,3.36,3.84,2.22,7.83,4.22,11.91,5.97.84.35,2.76-.37,3.3-1.18.54-.82.43-3.1-.17-3.47Zm0,0c-4.19-2.57-8.58-4.81-13.26-7.34-1.14,1-2.55,1.68-2.82,2.66-.26.99.25,2.91,1.04,3.36,3.84,2.22,7.83,4.22,11.91,5.97.84.35,2.76-.37,3.3-1.18.54-.82.43-3.1-.17-3.47Zm-10.67,7.41c-4.12.05-8.5,3.7-8.52,7.57-.01,1.31,1.11,3.02,2.24,3.79.54.36,2.7-.77,3.42-1.74,2.92-3.97,2.96-3.98,5.9-.05.73.98,2.31,1.32,3.5,1.96.67-1.35,1.92-2.7,1.89-4.03-.08-4.14-4.16-7.55-8.43-7.5Zm-3.58,22.78c-5.32-.13-10.64-.03-15.96-.03s-10.97-.1-16.45.03c-4.67.12-6.89,2.65-6.78,7.31.27,12.14,10.19,21.43,22.96,21.52,12.51.09,22.68-9.41,23.02-21.5.13-4.6-2.18-7.22-6.79-7.33Zm-15.92,22.44c-9.38.17-15.88-5.78-16.8-15.82h32.84c-.6,9.69-6.78,15.66-16.04,15.82Zm-20.06-45.21c-4.24-.06-8.28,3.38-8.81,8.42.41.59,1.06,2.53,2.17,2.84.99.28,2.89-.95,3.68-2.03,2.55-3.49,3.03-3.45,5.77.24.77,1.04,2.65,1.89,3.86,1.71.77-.11,1.78-2.29,1.74-3.52-.12-4.09-4.19-7.61-8.41-7.66Zm6.11-12.34c-1.57-.53-3.46-1.9-4.65-1.44-3.97,1.53-7.85,3.48-11.41,5.81-.82.53-.25,3.19-.32,4.87,4.05-1.36,8.17-2.56,12.12-4.17,1.64-.66,2.92-2.22,4.36-3.37-.03-.56-.07-1.13-.1-1.7Zm0,0c-1.57-.53-3.46-1.9-4.65-1.44-3.97,1.53-7.85,3.48-11.41,5.81-.82.53-.25,3.19-.32,4.87,4.05-1.36,8.17-2.56,12.12-4.17,1.64-.66,2.92-2.22,4.36-3.37-.03-.56-.07-1.13-.1-1.7Zm-6.11,12.34c-4.24-.06-8.28,3.38-8.81,8.42.41.59,1.06,2.53,2.17,2.84.99.28,2.89-.95,3.68-2.03,2.55-3.49,3.03-3.45,5.77.24.77,1.04,2.65,1.89,3.86,1.71.77-.11,1.78-2.29,1.74-3.52-.12-4.09-4.19-7.61-8.41-7.66Zm35.98,22.77c-5.32-.13-10.64-.03-15.96-.03s-10.97-.1-16.45.03c-4.67.12-6.89,2.65-6.78,7.31.27,12.14,10.19,21.43,22.96,21.52,12.51.09,22.68-9.41,23.02-21.5.13-4.6-2.18-7.22-6.79-7.33Zm-15.92,22.44c-9.38.17-15.88-5.78-16.8-15.82h32.84c-.6,9.69-6.78,15.66-16.04,15.82Zm19.5-45.22c-4.12.05-8.5,3.7-8.52,7.57-.01,1.31,1.11,3.02,2.24,3.79.54.36,2.7-.77,3.42-1.74,2.92-3.97,2.96-3.98,5.9-.05.73.98,2.31,1.32,3.5,1.96.67-1.35,1.92-2.7,1.89-4.03-.08-4.14-4.16-7.55-8.43-7.5Zm10.67-7.41c-4.19-2.57-8.58-4.81-13.26-7.34-1.14,1-2.55,1.68-2.82,2.66-.26.99.25,2.91,1.04,3.36,3.84,2.22,7.83,4.22,11.91,5.97.84.35,2.76-.37,3.3-1.18.54-.82.43-3.1-.17-3.47Zm0,0c-4.19-2.57-8.58-4.81-13.26-7.34-1.14,1-2.55,1.68-2.82,2.66-.26.99.25,2.91,1.04,3.36,3.84,2.22,7.83,4.22,11.91,5.97.84.35,2.76-.37,3.3-1.18.54-.82.43-3.1-.17-3.47Zm-10.67,7.41c-4.12.05-8.5,3.7-8.52,7.57-.01,1.31,1.11,3.02,2.24,3.79.54.36,2.7-.77,3.42-1.74,2.92-3.97,2.96-3.98,5.9-.05.73.98,2.31,1.32,3.5,1.96.67-1.35,1.92-2.7,1.89-4.03-.08-4.14-4.16-7.55-8.43-7.5Zm-3.58,22.78c-5.32-.13-10.64-.03-15.96-.03s-10.97-.1-16.45.03c-4.67.12-6.89,2.65-6.78,7.31.27,12.14,10.19,21.43,22.96,21.52,12.51.09,22.68-9.41,23.02-21.5.13-4.6-2.18-7.22-6.79-7.33Zm-15.92,22.44c-9.38.17-15.88-5.78-16.8-15.82h32.84c-.6,9.69-6.78,15.66-16.04,15.82Zm-20.06-45.21c-4.24-.06-8.28,3.38-8.81,8.42.41.59,1.06,2.53,2.17,2.84.99.28,2.89-.95,3.68-2.03,2.55-3.49,3.03-3.45,5.77.24.77,1.04,2.65,1.89,3.86,1.71.77-.11,1.78-2.29,1.74-3.52-.12-4.09-4.19-7.61-8.41-7.66Zm6.11-12.34c-1.57-.53-3.46-1.9-4.65-1.44-3.97,1.53-7.85,3.48-11.41,5.81-.82.53-.25,3.19-.32,4.87,4.05-1.36,8.17-2.56,12.12-4.17,1.64-.66,2.92-2.22,4.36-3.37-.03-.56-.07-1.13-.1-1.7Zm0,0c-1.57-.53-3.46-1.9-4.65-1.44-3.97,1.53-7.85,3.48-11.41,5.81-.82.53-.25,3.19-.32,4.87,4.05-1.36,8.17-2.56,12.12-4.17,1.64-.66,2.92-2.22,4.36-3.37-.03-.56-.07-1.13-.1-1.7Zm-6.11,12.34c-4.24-.06-8.28,3.38-8.81,8.42.41.59,1.06,2.53,2.17,2.84.99.28,2.89-.95,3.68-2.03,2.55-3.49,3.03-3.45,5.77.24.77,1.04,2.65,1.89,3.86,1.71.77-.11,1.78-2.29,1.74-3.52-.12-4.09-4.19-7.61-8.41-7.66Zm35.98,22.77c-5.32-.13-10.64-.03-15.96-.03s-10.97-.1-16.45.03c-4.67.12-6.89,2.65-6.78,7.31.27,12.14,10.19,21.43,22.96,21.52,12.51.09,22.68-9.41,23.02-21.5.13-4.6-2.18-7.22-6.79-7.33Zm-15.92,22.44c-9.38.17-15.88-5.78-16.8-15.82h32.84c-.6,9.69-6.78,15.66-16.04,15.82Zm19.5-45.22c-4.12.05-8.5,3.7-8.52,7.57-.01,1.31,1.11,3.02,2.24,3.79.54.36,2.7-.77,3.42-1.74,2.92-3.97,2.96-3.98,5.9-.05.73.98,2.31,1.32,3.5,1.96.67-1.35,1.92-2.7,1.89-4.03-.08-4.14-4.16-7.55-8.43-7.5Zm10.67-7.41c-4.19-2.57-8.58-4.81-13.26-7.34-1.14,1-2.55,1.68-2.82,2.66-.26.99.25,2.91,1.04,3.36,3.84,2.22,7.83,4.22,11.91,5.97.84.35,2.76-.37,3.3-1.18.54-.82.43-3.1-.17-3.47Zm0,0c-4.19-2.57-8.58-4.81-13.26-7.34-1.14,1-2.55,1.68-2.82,2.66-.26.99.25,2.91,1.04,3.36,3.84,2.22,7.83,4.22,11.91,5.97.84.35,2.76-.37,3.3-1.18.54-.82.43-3.1-.17-3.47Zm-10.67,7.41c-4.12.05-8.5,3.7-8.52,7.57-.01,1.31,1.11,3.02,2.24,3.79.54.36,2.7-.77,3.42-1.74,2.92-3.97,2.96-3.98,5.9-.05.73.98,2.31,1.32,3.5,1.96.67-1.35,1.92-2.7,1.89-4.03-.08-4.14-4.16-7.55-8.43-7.5Zm-3.58,22.78c-5.32-.13-10.64-.03-15.96-.03s-10.97-.1-16.45.03c-4.67.12-6.89,2.65-6.78,7.31.27,12.14,10.19,21.43,22.96,21.52,12.51.09,22.68-9.41,23.02-21.5.13-4.6-2.18-7.22-6.79-7.33Zm-15.92,22.44c-9.38.17-15.88-5.78-16.8-15.82h32.84c-.6,9.69-6.78,15.66-16.04,15.82Zm-20.06-45.21c-4.24-.06-8.28,3.38-8.81,8.42.41.59,1.06,2.53,2.17,2.84.99.28,2.89-.95,3.68-2.03,2.55-3.49,3.03-3.45,5.77.24.77,1.04,2.65,1.89,3.86,1.71.77-.11,1.78-2.29,1.74-3.52-.12-4.09-4.19-7.61-8.41-7.66Zm6.11-12.34c-1.57-.53-3.46-1.9-4.65-1.44-3.97,1.53-7.85,3.48-11.41,5.81-.82.53-.25,3.19-.32,4.87,4.05-1.36,8.17-2.56,12.12-4.17,1.64-.66,2.92-2.22,4.36-3.37-.03-.56-.07-1.13-.1-1.7Zm0,0c-1.57-.53-3.46-1.9-4.65-1.44-3.97,1.53-7.85,3.48-11.41,5.81-.82.53-.25,3.19-.32,4.87,4.05-1.36,8.17-2.56,12.12-4.17,1.64-.66,2.92-2.22,4.36-3.37-.03-.56-.07-1.13-.1-1.7Zm-6.11,12.34c-4.24-.06-8.28,3.38-8.81,8.42.41.59,1.06,2.53,2.17,2.84.99.28,2.89-.95,3.68-2.03,2.55-3.49,3.03-3.45,5.77.24.77,1.04,2.65,1.89,3.86,1.71.77-.11,1.78-2.29,1.74-3.52-.12-4.09-4.19-7.61-8.41-7.66Zm35.98,22.77c-5.32-.13-10.64-.03-15.96-.03s-10.97-.1-16.45.03c-4.67.12-6.89,2.65-6.78,7.31.27,12.14,10.19,21.43,22.96,21.52,12.51.09,22.68-9.41,23.02-21.5.13-4.6-2.18-7.22-6.79-7.33Zm-15.92,22.44c-9.38.17-15.88-5.78-16.8-15.82h32.84c-.6,9.69-6.78,15.66-16.04,15.82Zm19.5-45.22c-4.12.05-8.5,3.7-8.52,7.57-.01,1.31,1.11,3.02,2.24,3.79.54.36,2.7-.77,3.42-1.74,2.92-3.97,2.96-3.98,5.9-.05.73.98,2.31,1.32,3.5,1.96.67-1.35,1.92-2.7,1.89-4.03-.08-4.14-4.16-7.55-8.43-7.5Zm10.67-7.41c-4.19-2.57-8.58-4.81-13.26-7.34-1.14,1-2.55,1.68-2.82,2.66-.26.99.25,2.91,1.04,3.36,3.84,2.22,7.83,4.22,11.91,5.97.84.35,2.76-.37,3.3-1.18.54-.82.43-3.1-.17-3.47Zm0,0c-4.19-2.57-8.58-4.81-13.26-7.34-1.14,1-2.55,1.68-2.82,2.66-.26.99.25,2.91,1.04,3.36,3.84,2.22,7.83,4.22,11.91,5.97.84.35,2.76-.37,3.3-1.18.54-.82.43-3.1-.17-3.47Zm-10.67,7.41c-4.12.05-8.5,3.7-8.52,7.57-.01,1.31,1.11,3.02,2.24,3.79.54.36,2.7-.77,3.42-1.74,2.92-3.97,2.96-3.98,5.9-.05.73.98,2.31,1.32,3.5,1.96.67-1.35,1.92-2.7,1.89-4.03-.08-4.14-4.16-7.55-8.43-7.5Zm-3.58,22.78c-5.32-.13-10.64-.03-15.96-.03s-10.97-.1-16.45.03c-4.67.12-6.89,2.65-6.78,7.31.27,12.14,10.19,21.43,22.96,21.52,12.51.09,22.68-9.41,23.02-21.5.13-4.6-2.18-7.22-6.79-7.33Zm-15.92,22.44c-9.38.17-15.88-5.78-16.8-15.82h32.84c-.6,9.69-6.78,15.66-16.04,15.82Zm-20.06-45.21c-4.24-.06-8.28,3.38-8.81,8.42.41.59,1.06,2.53,2.17,2.84.99.28,2.89-.95,3.68-2.03,2.55-3.49,3.03-3.45,5.77.24.77,1.04,2.65,1.89,3.86,1.71.77-.11,1.78-2.29,1.74-3.52-.12-4.09-4.19-7.61-8.41-7.66Zm6.11-12.34c-1.57-.53-3.46-1.9-4.65-1.44-3.97,1.53-7.85,3.48-11.41,5.81-.82.53-.25,3.19-.32,4.87,4.05-1.36,8.17-2.56,12.12-4.17,1.64-.66,2.92-2.22,4.36-3.37-.03-.56-.07-1.13-.1-1.7Z" fill="#231f20" stroke="#fff" stroke-miterlimit="10"/>
    <path d="m147.63,110.5v8.15H63.07v303.98h52.51v8.32h-61.26V110.5h93.31Z" fill="#231f20" stroke="#fff" stroke-miterlimit="10"/>
    <path d="m422.69,430.94h-61.29v-8.09h52.49V118.85h-84.45v-8.48h93.25v320.57Z" fill="#231f20" stroke="#fff" stroke-miterlimit="10"/>
    <path d="m182.7,287.31c-2.84,2.64-7.24,4.84-11.02,5-13.64.59-27.32.23-40.99.21-.63,0-1.26-.26-2.71-.58v-23.25c0-9.33.12-18.67-.05-28-.07-3.5,1.27-4.71,4.67-4.69,12.66.11,25.33-.13,37.99.11,9.65.18,17.48,7.31,20.67,18.78,3.44,12.37.97,23.59-8.56,32.42Z" fill="none" stroke="#fff" stroke-miterlimit="10"/>
    <path d="m339.02,286.05c-4.05,4.34-8.92,6.66-15.03,6.57-11.65-.17-23.3-.04-34.95-.06-1.46,0-2.92-.16-4.67-.27v-55.83c2.21-.15,4.17-.4,6.12-.41,9.98-.04,20,.49,29.95-.14,14.6-.92,22.14,6.76,25.8,19.96,3.03,10.91.87,21.49-7.22,30.18Z" fill="none" stroke="#fff" stroke-miterlimit="10"/>
    <path d="m296.44,105.75c-4.93-12.22-14.7-16.5-27.07-11.92-6.08,2.26-12.02,4.91-18,7.42-13.56,5.69-27.62,9.02-42.34,7.46-7.19-.77-14.22-2.96-20.91-4.42-2.74,7.72-5.14,16.02-8.66,23.82-1.98,4.36-2.58,8.45-2.06,12.97.23,1.98.52,3.96.75,5.94,2.48,22.15,13.45,34.67,35.23,38.77,17.98,3.38,36.14,3.25,54.08-.61,16.51-3.56,27.14-13.51,30.69-30.32,1.06-5.03,1.97-10.13,2.47-15.25,1.12-11.56.22-22.98-4.18-33.86Zm-43.08,7.77c.27-.98,1.68-1.66,2.82-2.66,4.68,2.53,9.07,4.77,13.26,7.34.6.37.71,2.65.17,3.47-.54.81-2.46,1.53-3.3,1.18-4.08-1.75-8.07-3.75-11.91-5.97-.79-.45-1.3-2.37-1.04-3.36Zm-44.1,4.13c3.56-2.33,7.44-4.28,11.41-5.81,1.19-.46,3.08.91,4.65,1.44.03.57.07,1.14.1,1.7-1.44,1.15-2.72,2.71-4.36,3.37-3.95,1.61-8.07,2.81-12.12,4.17.07-1.68-.5-4.34.32-4.87Zm-9.07,47.18c-3.47,2.24-8.23.89-10.75-2.37-2.52-3.25-2.52-8.78.82-11.37,4.04-3.13,8.55-5.79,13.17-7.98,3.52-1.67,7.29,1.7,7.13,6.74-2.43,5.02-4.63,11.28-10.37,14.98Zm12.38-27.95c-1.11-.31-1.76-2.25-2.17-2.84.53-5.04,4.57-8.48,8.81-8.42,4.22.05,8.29,3.57,8.41,7.66.04,1.23-.97,3.41-1.74,3.52-1.21.18-3.09-.67-3.86-1.71-2.74-3.69-3.22-3.73-5.77-.24-.79,1.08-2.69,2.31-3.68,2.03Zm26.39,40.34c-12.77-.09-22.69-9.38-22.96-21.52-.11-4.66,2.11-7.19,6.78-7.31,5.48-.13,10.97-.03,16.45-.03s10.64-.1,15.96.03c4.61.11,6.92,2.73,6.79,7.33-.34,12.09-10.51,21.59-23.02,21.5Zm26.35-40.08c-1.19-.64-2.77-.98-3.5-1.96-2.94-3.93-2.98-3.92-5.9.05-.72.97-2.88,2.1-3.42,1.74-1.13-.77-2.25-2.48-2.24-3.79.02-3.87,4.4-7.52,8.52-7.57,4.27-.05,8.35,3.36,8.43,7.5.03,1.33-1.22,2.68-1.89,4.03Zm24.15,23.24c-1.48,2.59-4.44,4.33-6.55,6.28-2.88-1.1-5.24-1.25-6.12-2.47-3.38-4.67-6.9-9.42-9.15-14.67-1.76-4.09,3.48-8.32,7.67-6.33,4.18,1.98,8.19,4.49,11.87,7.31,3.2,2.44,4.27,6.39,2.28,9.88Z" fill="none" stroke="#fff" stroke-miterlimit="10"/>
    <path d="m225.42,114.98c-1.44,1.15-2.72,2.71-4.36,3.37-3.95,1.61-8.07,2.81-12.12,4.17.07-1.68-.5-4.34.32-4.87,3.56-2.33,7.44-4.28,11.41-5.81,1.19-.46,3.08.91,4.65,1.44.03.57.07,1.14.1,1.7Z" fill="#231f20" stroke="#fff" stroke-miterlimit="10"/>
    <path d="m227.62,133.28c.04,1.23-.97,3.41-1.74,3.52-1.21.18-3.09-.67-3.86-1.71-2.74-3.69-3.22-3.73-5.77-.24-.79,1.08-2.69,2.31-3.68,2.03-1.11-.31-1.76-2.25-2.17-2.84.53-5.04,4.57-8.48,8.81-8.42,4.22.05,8.29,3.57,8.41,7.66Z" fill="#231f20" stroke="#fff" stroke-miterlimit="10"/>
    <path d="m255.19,148.39c-5.32-.13-10.64-.03-15.96-.03s-10.97-.1-16.45.03c-4.67.12-6.89,2.65-6.78,7.31.27,12.14,10.19,21.43,22.96,21.52,12.51.09,22.68-9.41,23.02-21.5.13-4.6-2.18-7.22-6.79-7.33Zm-15.92,22.44c-9.38.17-15.88-5.78-16.8-15.82h32.84c-.6,9.69-6.78,15.66-16.04,15.82Z" fill="#231f20" stroke="#fff" stroke-miterlimit="10"/>
    <path d="m267.2,133.11c.03,1.33-1.22,2.68-1.89,4.03-1.19-.64-2.77-.98-3.5-1.96-2.94-3.93-2.98-3.92-5.9.05-.72.97-2.88,2.1-3.42,1.74-1.13-.77-2.25-2.48-2.24-3.79.02-3.87,4.4-7.52,8.52-7.57,4.27-.05,8.35,3.36,8.43,7.5Z" fill="#231f20" stroke="#fff" stroke-miterlimit="10"/>
    <path d="m269.61,121.67c-.54.81-2.46,1.53-3.3,1.18-4.08-1.75-8.07-3.75-11.91-5.97-.79-.45-1.3-2.37-1.04-3.36.27-.98,1.68-1.66,2.82-2.66,4.68,2.53,9.07,4.77,13.26,7.34.6.37.71,2.65.17,3.47Z" fill="#231f20" stroke="#fff" stroke-miterlimit="10"/>
    <path d="m310.94,122.21c-.51,2.48-1.7,4.81-3.28,6.98-.8-5.17-1.39-10.38-2.47-15.49-.79-3.72-1.94-7.42-3.43-10.92-6.41-14.98-18.93-20.44-34.28-14.87-7.35,2.66-14.5,5.89-21.76,8.78-14.76,5.88-29.96,8.11-45.46,3.83-6.13-1.7-11.82-4.97-18.18-7.73-.71,13.11-3.65,25.9-12.29,37.66-1.19-3.6-2.84-7.12-3.47-10.82-5.52-32.04,12.92-63,44.02-73.7,23.36-8.04,46.41-7.03,68.14,5.09,28.53,15.93,37.81,45.44,32.46,71.19Z" fill="none"/>
    <path d="m255.19,148.39c-5.32-.13-10.64-.03-15.96-.03s-10.97-.1-16.45.03c-4.67.12-6.89,2.65-6.78,7.31.27,12.14,10.19,21.43,22.96,21.52,12.51.09,22.68-9.41,23.02-21.5.13-4.6-2.18-7.22-6.79-7.33Zm-15.92,22.44c-9.38.17-15.88-5.78-16.8-15.82h32.84c-.6,9.69-6.78,15.66-16.04,15.82Z" fill="#231f20" stroke="#fff" stroke-miterlimit="10"/>
    <path d="m210.56,149.85c-2.43,5.02-4.63,11.28-10.37,14.98-3.47,2.24-8.23.89-10.75-2.37-2.52-3.25-2.52-8.78.82-11.37,4.04-3.13,8.55-5.79,13.17-7.98,3.52-1.67,7.29,1.7,7.13,6.74Z" fill="#231f20" stroke="#fff" stroke-miterlimit="10"/>
    <path d="m289.46,160.38c-1.48,2.59-4.44,4.33-6.55,6.28-2.88-1.1-5.24-1.25-6.12-2.47-3.38-4.67-6.9-9.42-9.15-14.67-1.76-4.09,3.48-8.32,7.67-6.33,4.18,1.98,8.19,4.49,11.87,7.31,3.2,2.44,4.27,6.39,2.28,9.88Z" fill="#231f20" stroke="#fff" stroke-miterlimit="10"/>
    <path d="m227.62,133.28c.04,1.23-.97,3.41-1.74,3.52-1.21.18-3.09-.67-3.86-1.71-2.74-3.69-3.22-3.73-5.77-.24-.79,1.08-2.69,2.31-3.68,2.03-1.11-.31-1.76-2.25-2.17-2.84.53-5.04,4.57-8.48,8.81-8.42,4.22.05,8.29,3.57,8.41,7.66Z" fill="#231f20" stroke="#fff" stroke-miterlimit="10"/>
    <path d="m267.2,133.11c.03,1.33-1.22,2.68-1.89,4.03-1.19-.64-2.77-.98-3.5-1.96-2.94-3.93-2.98-3.92-5.9.05-.72.97-2.88,2.1-3.42,1.74-1.13-.77-2.25-2.48-2.24-3.79.02-3.87,4.4-7.52,8.52-7.57,4.27-.05,8.35,3.36,8.43,7.5Z" fill="#231f20" stroke="#fff" stroke-miterlimit="10"/>
    <path d="m269.61,121.67c-.54.81-2.46,1.53-3.3,1.18-4.08-1.75-8.07-3.75-11.91-5.97-.79-.45-1.3-2.37-1.04-3.36.27-.98,1.68-1.66,2.82-2.66,4.68,2.53,9.07,4.77,13.26,7.34.6.37.71,2.65.17,3.47Z" fill="#231f20" stroke="#fff" stroke-miterlimit="10"/>
    <path d="m225.42,114.98c-1.44,1.15-2.72,2.71-4.36,3.37-3.95,1.61-8.07,2.81-12.12,4.17.07-1.68-.5-4.34.32-4.87,3.56-2.33,7.44-4.28,11.41-5.81,1.19-.46,3.08.91,4.65,1.44.03.57.07,1.14.1,1.7Z" fill="#231f20" stroke="#fff" stroke-miterlimit="10"/>
    <path d="m255.31,155.01c-.6,9.69-6.78,15.66-16.04,15.82-9.38.17-15.88-5.78-16.8-15.82h32.84Z" fill="none" stroke="#fff" stroke-miterlimit="10"/>
  </g>
  <g>
    <path d="m148.59,419.89c0,5.62-4.07,9.03-10.8,9.03h-6.4v7.84h-3.7v-25.9h10.1c6.73,0,10.8,3.4,10.8,9.03Zm-3.7,0c0-3.7-2.48-5.81-7.22-5.81h-6.29v11.62h6.29c4.74,0,7.22-2.11,7.22-5.81Z" fill="#231f20" stroke="#fff" stroke-miterlimit="10"/>
    <path d="m153.88,425.58v-14.73h3.7v14.58c0,5.74,2.63,8.33,7.29,8.33s7.33-2.59,7.33-8.33v-14.58h3.59v14.73c0,7.51-4.11,11.47-10.95,11.47s-10.95-3.96-10.95-11.47Z" fill="#231f20" stroke="#fff" stroke-miterlimit="10"/>
    <path d="m205.64,410.86v25.9h-3.03l-15.54-19.32v19.32h-3.7v-25.9h3.03l15.54,19.31v-19.31h3.7Z" fill="#231f20" stroke="#fff" stroke-miterlimit="10"/>
    <path d="m235.68,410.86v25.9h-3.03l-15.54-19.32v19.32h-3.7v-25.9h3.03l15.54,19.31v-19.31h3.7Z" fill="#231f20" stroke="#fff" stroke-miterlimit="10"/>
    <path d="m253.37,427.8v8.96h-3.66v-9.03l-10.29-16.87h3.96l8.29,13.65,8.33-13.65h3.66l-10.29,16.95Z" fill="#231f20" stroke="#fff" stroke-miterlimit="10"/>
    <path d="m287.85,419.89c0,5.62-4.07,9.03-10.8,9.03h-6.4v7.84h-3.7v-25.9h10.1c6.73,0,10.8,3.4,10.8,9.03Zm-3.7,0c0-3.7-2.48-5.81-7.22-5.81h-6.29v11.62h6.29c4.74,0,7.22-2.11,7.22-5.81Z" fill="#231f20" stroke="#fff" stroke-miterlimit="10"/>
    <path d="m292.55,423.81c0-7.58,5.85-13.25,13.8-13.25s13.73,5.62,13.73,13.25-5.85,13.25-13.73,13.25-13.8-5.66-13.8-13.25Zm23.83,0c0-5.74-4.29-9.95-10.03-9.95s-10.1,4.22-10.1,9.95,4.29,9.95,10.1,9.95,10.03-4.22,10.03-9.95Z" fill="#231f20" stroke="#fff" stroke-miterlimit="10"/>
    <path d="m347.65,419.89c0,5.62-4.07,9.03-10.8,9.03h-6.4v7.84h-3.7v-25.9h10.1c6.73,0,10.8,3.4,10.8,9.03Zm-3.7,0c0-3.7-2.48-5.81-7.22-5.81h-6.29v11.62h6.29c4.74,0,7.22-2.11,7.22-5.81Z" fill="#231f20" stroke="#fff" stroke-miterlimit="10"/>
  </g>
</svg>