<?xml version="1.0" encoding="UTF-8"?>
<svg id="Layer_2" data-name="Layer 2" xmlns="http://www.w3.org/2000/svg" width="562" height="87"viewBox="0 0 542.1 76">
  <g id="Layer_1-2" data-name="Layer 1">
    <g>
      <path d="m105.93,10.81h-20.97v53.77h7.68v-16.29h13.29c13.98,0,22.43-7.07,22.43-18.74s-8.45-18.74-22.43-18.74Zm-.23,30.8h-13.06v-24.12h13.06c9.83,0,14.98,4.38,14.98,12.06s-5.15,12.06-14.98,12.06Z" fill="aliceblue" stroke="aliceblue" stroke-miterlimit="10"/>
      <path d="m177.36,41.07c0,11.91-5.53,17.28-15.21,17.28s-15.13-5.38-15.13-17.28V10.81h-7.68v30.57c0,15.59,8.6,23.81,22.74,23.81s22.74-8.22,22.74-23.81V10.81h-7.45v30.26Z" fill="aliceblue" stroke="aliceblue" stroke-miterlimit="10"/>
      <polygon points="239.12 50.9 206.86 10.81 200.56 10.81 200.56 64.58 208.24 64.58 208.24 24.48 240.5 64.58 246.8 64.58 246.8 10.81 239.12 10.81 239.12 50.9" fill="aliceblue" stroke="aliceblue" stroke-miterlimit="10"/>
      <polygon points="301.49 50.9 269.23 10.81 262.93 10.81 262.93 64.58 270.61 64.58 270.61 24.48 302.87 64.58 309.17 64.58 309.17 10.81 301.49 10.81 301.49 50.9" fill="aliceblue" stroke="aliceblue" stroke-miterlimit="10"/>
      <polygon points="342.35 39.15 325.14 10.81 316.92 10.81 338.28 45.84 338.28 64.58 345.88 64.58 345.88 45.99 367.24 10.81 359.63 10.81 342.35 39.15" fill="aliceblue" stroke="aliceblue" stroke-miterlimit="10"/>
      <path d="m395.04,10.81h-20.97v53.77h7.68v-16.29h13.29c13.98,0,22.43-7.07,22.43-18.74s-8.45-18.74-22.43-18.74Zm-.23,30.8h-13.06v-24.12h13.06c9.83,0,14.98,4.38,14.98,12.06s-5.15,12.06-14.98,12.06Z" fill="aliceblue" stroke="aliceblue" stroke-miterlimit="10"/>
      <path d="m455.87,10.19c-16.52,0-28.65,11.75-28.65,27.5s12.14,27.5,28.65,27.5,28.5-11.68,28.5-27.5-12.14-27.5-28.5-27.5Zm0,48.16c-12.06,0-20.97-8.76-20.97-20.66s8.91-20.66,20.97-20.66,20.82,8.76,20.82,20.66-8.91,20.66-20.82,20.66Z" fill="aliceblue" stroke="aliceblue" stroke-miterlimit="10"/>
      <path d="m519.17,10.81h-20.97v53.77h7.68v-16.29h13.29c13.98,0,22.43-7.07,22.43-18.74s-8.45-18.74-22.43-18.74Zm-.23,30.8h-13.06v-24.12h13.06c9.83,0,14.98,4.38,14.98,12.06s-5.15,12.06-14.98,12.06Z" fill="aliceblue" stroke="aliceblue" stroke-miterlimit="10"/>
      <path d="m60.95,7.64C50.71.54,39.43-1,27.42,1.85,9.43,6.1-1.84,22.47.91,40.63c.5,3.34,1.13,6.89,4.89,8.43.56,3.16.94,6.1,1.61,8.98,1.69,7.29,5.92,12.55,13.08,15,3,1.03,6.21,1.62,9.37,1.94,7.96.81,15.92.87,23.72-1.33,7.34-2.07,12.22-6.77,14.33-14.11.77-2.68,1.04-5.5,1.61-8.25.18-.86.37-2.11.96-2.41,2.54-1.33,3.66-3.76,3.81-6.12.32-5.19.66-10.53-.2-15.6-1.41-8.27-6.25-14.76-13.13-19.52Zm5.71,42.59c-.23,2.4-.66,4.79-1.16,7.15-1.66,7.88-6.65,12.55-14.39,14.21-8.41,1.81-16.92,1.87-25.35.29-10.21-1.92-15.35-7.79-16.52-18.18-.11-.93-.24-1.86-.35-2.78-.24-2.12.04-4.04.97-6.08,1.65-3.66,2.78-7.55,4.06-11.17,3.14.68,6.43,1.71,9.8,2.07,6.9.73,13.49-.83,19.85-3.5,2.8-1.18,5.59-2.42,8.44-3.48,5.8-2.15,10.38-.14,12.69,5.59,2.06,5.1,2.48,10.45,1.96,15.87Zm4.97-8.59c-.24,1.16-.8,2.25-1.54,3.27-.38-2.42-.65-4.87-1.16-7.26-.37-1.74-.91-3.48-1.61-5.12-3.01-7.02-8.87-9.58-16.07-6.97-3.45,1.25-6.8,2.76-10.2,4.12-6.92,2.76-14.05,3.8-21.31,1.8-2.87-.8-5.54-2.33-8.52-3.62l-5.76,17.66c-.56-1.69-1.33-3.34-1.63-5.07C1.23,25.41,9.88,10.89,24.46,5.88c10.95-3.77,21.76-3.3,31.94,2.39,13.38,7.47,17.73,21.3,15.22,33.37Z" fill="aliceblue" stroke="aliceblue" stroke-miterlimit="10"/>
      <path d="m28.39,48.11c.36.49,1.24.89,1.81.8.36-.05.83-1.07.82-1.65-.06-1.92-1.96-3.57-3.94-3.59-1.99-.03-3.88,1.58-4.13,3.95.19.28.5,1.19,1.02,1.33.46.13,1.35-.45,1.73-.95,1.2-1.64,1.42-1.62,2.71.11Z" fill="aliceblue" stroke="aliceblue" stroke-miterlimit="10"/>
      <path d="m52.58,47.26c-.06-1.92-1.96-3.57-3.94-3.59-1.99-.03-3.88,1.58-4.13,3.95.19.28.5,1.19,1.02,1.33.46.13,1.35-.45,1.73-.95,1.2-1.64,1.42-1.62,2.71.11.36.49,1.24.89,1.81.8.36-.05.83-1.07.82-1.65Z" fill="aliceblue" stroke="aliceblue" stroke-miterlimit="10"/>
      <path d="m45.15,38.42c1.8,1.04,3.67,1.98,5.58,2.8.39.16,1.29-.17,1.55-.55.25-.38.2-1.45-.08-1.63-1.96-1.2-4.02-2.26-6.22-3.44-.53.47-1.2.79-1.32,1.25-.12.46.12,1.36.49,1.58Z" fill="aliceblue" stroke="aliceblue" stroke-miterlimit="10"/>
      <path d="m45.03,57.63c-2.49-.06-4.99-.01-7.48-.01s-5.14-.05-7.71.01c-2.19.06-3.23,1.24-3.18,3.43.13,5.69,4.78,10.05,10.76,10.09,5.86.04,10.63-4.41,10.79-10.08.06-2.16-1.02-3.38-3.18-3.44Zm-7.42,10.45c-4.4.08-7.44-2.71-7.88-7.42h15.4c-.28,4.54-3.18,7.34-7.52,7.42Z" fill="aliceblue" stroke="aliceblue" stroke-miterlimit="10"/>
      <path d="m20.3,51.47c-2.17,1.03-4.28,2.27-6.17,3.74-1.57,1.21-1.57,3.81-.38,5.33,1.18,1.53,3.41,2.16,5.04,1.11,2.69-1.73,3.72-4.67,4.86-7.02.08-2.36-1.69-3.94-3.34-3.16Z" fill="aliceblue" stroke="aliceblue" stroke-miterlimit="10"/>
      <path d="m24.91,41.83c1.89-.88,3.73-1.87,5.5-2.97.36-.23.6-1.16.43-1.58-.17-.43-1.07-1-1.38-.87-2.11.92-4.15,2-6.38,3.12.08.71-.04,1.43.26,1.8.31.37,1.18.69,1.57.5Z" fill="aliceblue" stroke="aliceblue" stroke-miterlimit="10"/>
      <path d="m55.16,51.47c-1.65-.78-3.42.8-3.34,3.16,1.14,2.35,2.17,5.29,4.86,7.02,1.63,1.05,3.86.42,5.04-1.11,1.18-1.52,1.18-4.12-.38-5.33-1.89-1.47-4.01-2.71-6.17-3.74Z" fill="aliceblue" stroke="aliceblue" stroke-miterlimit="10"/>
    </g>
  </g>
</svg>